<svg xmlns="http://www.w3.org/2000/svg" width="800" height="800" viewBox="0 0 800 800"><path fill-rule="evenodd" d="M578.212 139.109c-4.623 1.361-6.381 4.847-10.682 21.182-5.938 22.555-10.599 30.642-20.597 35.743-2.207 1.126-12.883 4.951-23.723 8.499C501.216 211.732 499 213.148 499 220c0 6.869 2.258 8.343 23.823 15.55 21.768 7.275 22.046 7.396 28.002 12.211 7.753 6.267 11.027 12.686 16.698 32.739 5.061 17.898 6.58 20 14.453 20 8.013 0 9.13-1.757 16.128-25.376 7.589-25.615 12.406-30.454 38.396-38.58 18.826-5.886 20.426-6.45 22.881-8.058 5.406-3.542 6.024-10.287 1.369-14.921-2.578-2.567-6.04-4.111-16.75-7.473-36.726-11.528-39.141-13.848-47.992-46.092-5.586-20.348-8.405-23.657-17.796-20.891m-354.897 83.899c-36.333 5.312-67.163 33.73-76.539 70.552l-2.276 8.94v87c0 80.366.139 87.644 1.82 95.444 9.482 43.999 45.211 74.405 89.68 76.319l5.5.237.231 34.5c.128 18.975.24 37.246.25 40.602.031 9.972 6.739 17.398 15.717 17.398 6.573 0 3.545 1.903 57.302-36.007 19.84-13.992 61.7-43.635 71.673-50.756l7.173-5.122 59.827-.398c50.57-.336 60.833-.646 66.327-2.001 37.713-9.303 65.69-37.681 73.672-74.732 1.676-7.778 1.828-14.522 1.828-81.056v-72.572l-2.702-4.085c-5.793-8.755-19.505-8.203-24.527.988-1.636 2.994-1.811 8.927-2.291 77.741-.512 73.544-.547 74.574-2.704 80.275q-12.94 34.192-47.153 44.408c-4.9 1.462-13.6 1.753-67.623 2.256-60.43.563-62.114.631-66.5 2.694-4.305 2.025-60.842 41.235-94.5 65.538l-16 11.553-.5-31.612c-.543-34.352-.344-33.167-6.757-40.265-5.408-5.986-8.228-7.022-21.643-7.954-15.555-1.081-21.373-2.379-31.1-6.937-18.622-8.728-32.752-26.486-36.989-46.485-2.26-10.672-2.218-163.065.049-174.263 4.638-22.913 20.292-41.358 42.796-50.426l8.144-3.282L349 251c121.956-.494 123.543-.525 126.965-2.535 9.434-5.543 9.66-18.81.417-24.534-3.039-1.882-6.205-1.928-125.5-1.806-67.31.068-124.715.466-127.567.883m170.484 74.887c-22.849 4.779-26.549 37.862-5.34 47.738 20.271 9.439 43.057-10.087 35.987-30.838-4.163-12.217-17.603-19.628-30.647-16.9m-16.38 68.133c-4.48 1.369-10.172 7.341-11.423 11.986-2.923 10.858 5.071 19.986 17.503 19.986h5.579l-.202 32-.202 32h-5.602c-13.243 0-21.256 11.018-15.884 21.839 4.534 9.135 5.18 9.293 36.454 8.955 31.003-.335 30.792-.281 35.17-9.005 5.252-10.463-2.586-21.783-15.086-21.787l-4.774-.002.081-41.552c.092-46.706.216-45.828-7.374-51.884-3.826-3.052-3.894-3.065-17.5-3.27-7.512-.114-15.045.217-16.74.734"/></svg>