<svg xmlns="http://www.w3.org/2000/svg" width="800" height="800" viewBox="0 0 800 800"><path fill-rule="evenodd" d="M388.437 120.025c-20.391 4.048-39.397 21.462-45.905 42.062-1.392 4.409-2.532 9.317-2.532 10.908 0 5.346-2.388 6.005-21.755 6.005-19.525 0-22.193.635-28.58 6.799-2.109 2.035-4.682 5.343-5.719 7.351l-1.884 3.65-25.281.413c-24.395.398-25.515.504-31.953 3.026-18.714 7.329-31.253 22.197-34.739 41.195-1.799 9.803-1.472 361.098.345 369.665 4.219 19.907 19.681 36.347 39.066 41.538 4.084 1.094 35.604 1.337 172 1.325l167-.014 6.558-2.235c18.509-6.31 32.683-21.612 36.879-39.814 1.848-8.016 1.401-366.179-.465-373.347-4.675-17.946-17.865-32.08-36.136-38.722-5.203-1.891-8.566-2.172-30.983-2.585l-25.147-.463-1.765-3.913c-2.321-5.148-9.261-11.448-14.086-12.788-2.12-.588-11.197-1.072-20.171-1.075-17.828-.007-20.184-.57-20.184-4.831 0-1.515-.679-5.437-1.509-8.715-8.07-31.883-40.309-51.933-73.054-45.435m7.281 34.024c-23.077 5.696-27.368 37.004-6.641 48.444 17.172 9.478 38.149-2.956 38.056-22.557-.08-16.564-16.009-29.69-31.415-25.887M235.5 233.408c-4.235 1.877-8.355 6-10.051 10.059-2.26 5.411-2.174 358.862.089 364.279 1.987 4.754 4.09 7.022 8.689 9.369 3.626 1.85 8.239 1.896 168.158 1.644l164.43-.259 3.772-3.053c2.075-1.68 4.704-4.83 5.843-7l2.07-3.947v-358l-2.384-4.161c-5.22-9.111-9.276-10.339-34.143-10.339-22.419 0-21.378-.394-22.447 8.5-1.263 10.511-5.054 16.64-12.736 20.592-5.307 2.729-205.707 3.009-211.09.294-8.16-4.116-11.705-9.754-12.735-20.252-.438-4.468-1.262-7.708-2.094-8.235-2.323-1.471-41.903-1.028-45.371.509m95.792 75.342c-2.771 1.527-19.162 21.433-29.233 35.503l-3.402 4.752-7.078-6.851c-8.47-8.197-12.039-9.371-19.055-6.268-7.92 3.504-10.929 12.658-6.531 19.87 3.215 5.273 24.223 26.4 27.725 27.882 9.976 4.222 13.147 2.067 31.811-21.619 29.069-36.89 26.775-33.571 27.201-39.343.86-11.67-11.251-19.538-21.438-13.926m48.931 23.911c-12.81 6.314-12.899 24.284-.154 30.875 4.244 2.194 142.618 2.194 146.862 0 3.877-2.005 7.791-6.875 9.138-11.371 2.289-7.641-3.337-18.034-10.901-20.135-6.826-1.896-141.004-1.312-144.945.631m-48.208 71.091c-2.347 1.177-7.91 7.381-17.045 19.008-17.212 21.906-16.248 20.946-18.675 18.597-10.997-10.64-12.071-11.357-17.002-11.353-11.589.009-19.183 12.152-13.442 21.496 2.824 4.598 23.236 25.023 26.849 26.867 4.076 2.08 9.548 2.084 13.919.009 3.17-1.504 35.195-40.083 43.663-52.599 8.428-12.455-5.021-28.671-18.267-22.025m47.396 25.139c-12.291 7.495-11.781 23.94.958 30.888 4.654 2.539 141.345 2.454 146.265-.09 13.036-6.741 13.022-24.879-.024-31.07-5.66-2.686-142.763-2.433-147.199.272m-110.15 78.359c-5.678 3.98-6.264 7.077-6.239 33.02.035 36.678-1.058 35.678 38.978 35.702 28.856.018 32.153-.435 36.557-5.03l2.943-3.07.296-26.396c.438-38.927 3.056-36.476-38.964-36.476-29.867 0-30.412.037-33.571 2.25m115.091 15.714C376.6 524.166 370 532.113 370 540.243c0 4.001 4.071 11.279 7.695 13.757l3.657 2.5 70.074.28c62.28.248 70.544.101 74.296-1.322 13.236-5.021 14.663-23.08 2.425-30.69L524.5 522.5l-68-.09c-37.4-.049-69.867.2-72.148.554M287 542c-2.695 2.695-2.517 5.574.531 8.622 2.497 2.497 2.717 2.527 16.083 2.205 15.118-.365 16.386-.944 16.386-7.483 0-4.729-2.007-5.344-17.434-5.344-12.233 0-13.763.197-15.566 2"/></svg>