<svg xmlns="http://www.w3.org/2000/svg" width="800" height="800" viewBox="0 0 800 800"><path fill-rule="evenodd" d="M213 199.888c-21.624 6.999-35.692 22.457-40.6 44.612-1.722 7.768-2.047 300.492-.345 310.066 4.536 25.519 24.255 46.579 49.069 52.408 13.037 3.063 227.192 3.129 241.002.075 25.091-5.549 44.793-24.536 50.445-48.614 1.208-5.148 1.538-10.463 1.278-20.626l-.349-13.692 36.7-36.863c20.186-20.274 37.173-38.105 37.75-39.623 5.321-13.995-7.099-28.283-20.227-23.269-3.332 1.272-12.361 9.751-42.2 39.628-20.879 20.906-38.202 38.01-38.496 38.01s-21.008-20.52-46.031-45.601-47.251-46.906-49.396-48.5c-4.087-3.038-12.225-4.044-15.6-1.928-.825.517-14.397 13.867-30.159 29.665l-28.66 28.725-9.34-9.43c-13.891-14.023-15.183-14.932-21.229-14.924-3.375.004-6.131.671-8.112 1.962-1.65 1.075-18.846 18.06-38.214 37.743L205.072 515.5l.214-133.5.214-133.5 2.158-4c2.755-5.105 6.844-8.977 11.56-10.947 6.203-2.591 240.575-2.289 246.282.318 9.382 4.285 14.444 12.646 14.478 23.911.043 14.391 7.502 22.326 19.696 20.951 12.186-1.373 16.895-13.158 13.363-33.44-3.768-21.637-21.022-40.088-42.753-45.719-9.869-2.558-249.316-2.265-257.284.314m364.5 78.015c-1.65 1.042-21.673 20.616-44.495 43.496C510.182 344.28 491.053 363 490.495 363s-10.234-9.237-21.504-20.526c-27.898-27.945-27.453-27.857-45.864-9.016L412 344.845v12.551l21.296 21.552c11.712 11.854 27.575 27.915 35.25 35.691 14.85 15.047 16.8 16.243 24.282 14.891 5.482-.991 119.697-115.142 120.686-120.618 1.023-5.666-1.406-9.706-12.51-20.81-12.755-12.755-16.729-14.48-23.504-10.199M353.993 476.521c-37.415 37.452-35.783 36.94-55.493 17.416l-12-11.887-37.657 38.225c-37.587 38.155-37.653 38.23-36.12 40.725 2.746 4.47 6.564 7.96 11.217 10.253l4.56 2.247H342c94.12 0 114.32-.238 118.303-1.395 9.422-2.736 17.779-12.876 19.043-23.105l.556-4.5-48.187-48.25C405.212 469.712 383.294 448 383.007 448s-13.342 12.834-29.014 28.521"/></svg>