<svg xmlns="http://www.w3.org/2000/svg" width="800" height="800" viewBox="0 0 800 800"><path fill-rule="evenodd" d="M393.5 133.469c-2.75.76-10.175 3.706-16.5 6.546a16880 16880 0 0 1-38 16.957 34728 34728 0 0 0-56 24.996 44263 44263 0 0 1-56 25.013c-49.711 22.152-49.996 22.314-53.702 30.533-1.695 3.757-1.779 9.005-1.468 91.486.387 102.769.557 105.195 9.297 131.947 21.849 66.882 91.101 141.338 177.641 190.99 35.376 20.297 40.814 21.438 59.322 12.445C466.628 640.798 518.443 601.92 558.541 559c35.699-38.212 58.479-78.922 66.883-119.528 3.03-14.638 3.555-31.511 3.566-114.526l.01-83.553-2.623-5.264c-3.285-6.591-5.728-8.214-25.877-17.189-8.8-3.919-17.8-7.936-20-8.927s-13.9-6.167-26-11.504a13938 13938 0 0 1-44.5-19.741c-12.375-5.521-34.2-15.192-48.5-21.49-61.631-27.146-59.114-26.265-68-23.809M382 177.621c-9.075 4.162-40.8 18.579-70.5 32.038s-63.991 29.001-76.203 34.538c-12.211 5.536-23.146 10.945-24.299 12.019l-2.096 1.953.315 80.666c.351 89.93.121 86.714 7.905 110.538 14.54 44.5 55.935 95.464 111.378 137.125C356.081 607.223 394.343 630 401.575 630c5.264 0 43.157-23.027 66.257-40.263 76.361-56.978 118.55-117.554 123.158-176.835 1.506-19.364 1.28-151.809-.263-154.86-.883-1.745-4.431-3.873-12.235-7.341-12.007-5.335-29.394-13.14-59.492-26.704a41330 41330 0 0 0-50-22.474c-16.775-7.527-32.75-14.722-35.5-15.99-12.236-5.639-34.342-15.531-34.655-15.506-.19.015-7.77 3.432-16.845 7.594m106.5 132.525c-1.1.597-24.634 23.646-52.297 51.22L385.906 411.5l-23.54-23.808C338.436 363.49 336.578 362 330.336 362c-5.806 0-9.443 2.494-21.571 14.789-13.149 13.331-15.06 16.947-12.85 24.322 1.922 6.413 79.804 84.606 85.585 85.926 9.135 2.085 5.24 5.442 78.737-67.866 71.193-71.009 70.684-70.436 69.272-77.986-.735-3.933-22.959-27.75-28.709-30.768-3.181-1.669-9.468-1.808-12.3-.271"/></svg>