<svg xmlns="http://www.w3.org/2000/svg" width="800" height="800" viewBox="0 0 800 800"><path fill-rule="evenodd" d="M218 186.119c-17.847 2.874-33.651 17.769-39.661 37.381-2.829 9.23-2.735 321.87.099 330.5 5.827 17.745 17.641 29.763 34.417 35.012 6.172 1.931 9.331 1.988 109.5 1.972l103.145-.017 3.906-2.233c9.656-5.522 12.003-17.34 5.079-25.569-5.495-6.53 1.029-6.165-110.07-6.165-100.421 0-100.799-.008-105.133-2.105-3.017-1.461-5.028-3.375-6.565-6.25L210.5 544.5l-.285-154.5c-.213-115.316.01-155.578.88-158.751.752-2.742 2.541-5.494 5.038-7.75l3.873-3.499h246.698l3.344 2.253c7.345 4.95 7.394 5.219 7.952 43.926.477 33.051.597 34.809 2.562 37.438 3.791 5.074 7.038 6.766 13.699 7.141 7.224.406 10.729-1.256 15.308-7.259l2.8-3.671-.213-35.164c-.172-28.342-.515-36.221-1.77-40.612-5.613-19.644-20.31-33.329-40.312-37.536-8.235-1.733-241.498-2.099-252.074-.397m38.001 64.993c-3.22 1.298-6.821 4.678-8.573 8.043-2.064 3.967-2.142 45.563-.093 49.526 1.923 3.718 4.429 5.905 8.919 7.781 4.731 1.976 167.997 2.356 173.847.404 4.635-1.547 9.733-6.571 10.996-10.838.629-2.123.917-11.722.724-24.105-.311-19.95-.396-20.686-2.775-24.155-5.356-7.808 1.787-7.244-94.546-7.466-55.937-.129-86.874.154-88.499.81m275.078 57.542c-5.144 2.242-63.097 60.149-66.695 66.642L461.5 380.5v199.156l2.866 3.757c6.175 8.097 1.149 7.579 73.65 7.583 72.862.004 68.529.466 74.484-7.936l3-4.232V381.5l-2.355-4.5c-3.24-6.191-62.211-65.547-67.645-68.087-4.747-2.218-9.72-2.308-14.421-.259M254.145 356.07c-14.36 5.751-16.301 25.065-3.183 31.68 4.355 2.196 5.241 2.25 37.128 2.25 35.913 0 37.384-.209 42.264-6.009 7.31-8.687 5.043-21.087-4.884-26.709-3.896-2.207-4.572-2.248-36.47-2.202-17.905.026-33.557.47-34.855.99m115.777 9.204c-10.596 7.14-10.89 21.51-.598 29.134 2.717 2.013 3.955 2.092 32.579 2.092h29.754l3.778-2.882c9.502-7.249 8.821-21.486-1.357-28.344-5.265-3.549-58.891-3.549-64.156 0m160.954-.126c-11.684 6.775-7.266 24.039 6.55 25.597 10.64 1.199 18.59-9.93 13.91-19.473-3.803-7.757-12.932-10.49-20.46-6.124m-248.856 59.55c-6.752 3.497-8.02 6.888-8.02 21.45V459h-11.532c-7.538 0-12.647.475-14.75 1.371-10.325 4.399-11.715 18.002-2.419 23.669 2.732 1.666 5.07 1.953 15.951 1.956L274 486v12.614c0 10.979.273 13.1 2.109 16.367 5.324 9.472 19.182 9.246 23.847-.39 1.716-3.545 2.044-6.178 2.044-16.407V486h27.235l3.883-3.882c4.888-4.888 5.5-10.679 1.772-16.767-2.978-4.863-7.994-6.351-21.41-6.351H302l-.002-12.25c-.001-9.686-.367-12.968-1.75-15.679-3.562-6.987-11.61-9.801-18.228-6.373m88.984 33.512c-12.17 6.198-11.93 24.286.397 29.885 6.195 2.813 55.003 2.813 61.198 0 11.811-5.364 12.466-23.626 1.072-29.86-2.751-1.505-6.815-1.773-30.671-2.025-26.968-.284-27.587-.245-31.996 2"/></svg>