<svg xmlns="http://www.w3.org/2000/svg" width="800" height="800" viewBox="0 0 800 800"><path fill-rule="evenodd" d="M386.308 201.559c-19.552 4.287-36.768 20.715-42.904 40.941-2.841 9.364-2.478 25.883.775 35.197 16.99 48.659 80.028 55.962 107.268 12.426 6.273-10.027 7.892-16.417 7.881-31.123-.009-13.354-.049-13.592-3.703-22-11.952-27.5-40.039-41.861-69.317-35.441m-37.919 118.346c-3.974 2.423-4.56 3.294-19.911 29.595-7.063 12.1-15.388 26.275-18.501 31.5-41.585 69.798-45.308 76.391-45.752 81.008-.868 9.034 4.882 14.981 14.49 14.988 7.187.005 10.218-2.903 19.534-18.736A93354 93354 0 0 1 322.55 417c47.951-81.372 47.452-80.476 47.446-85.21-.011-10.185-12.832-17.237-21.607-11.885m89.852.09c-4.872 2.97-7.437 7.655-6.93 12.658.525 5.177 10.279 22.2 74.399 129.847 7.042 11.821 10.292 14.5 17.593 14.5 9.475 0 16.41-9.056 13.445-17.556-.756-2.169-10.982-20.144-22.725-39.944a29880 29880 0 0 1-38.65-65.381c-9.516-16.16-18.104-30.269-19.085-31.353-4.523-4.998-12.409-6.209-18.047-2.771M563.5 476.697c-45.015 4.635-69.895 56.438-45.347 94.418 25.683 39.736 86.313 36.261 106.666-6.115 5.165-10.754 6.126-15.07 6.157-27.645.087-36.429-31.037-64.409-67.476-60.658M215 478.57c-36.006 9.414-55.009 50.914-39.012 85.2 14.739 31.59 53.322 44.622 84.399 28.507 24.511-12.711 37.955-42.786 31.064-69.494-5.319-20.612-23.565-38.901-44.095-44.198-7.679-1.981-24.808-1.989-32.356-.015m97.304 45.386c-9.424 5.746-9.036 20.134.68 25.22 4.691 2.455 168.586 2.866 174.399.437 10.001-4.178 11.364-20.138 2.197-25.727-4.894-2.985-172.375-2.918-177.276.07"/></svg>