<svg xmlns="http://www.w3.org/2000/svg" width="800" height="800" viewBox="0 0 800 800"><path fill-rule="evenodd" d="M254.5 153.112c-47.895 6.09-88.794 45.713-95.477 92.498-.806 5.646-1.041 49.566-.825 154.39l.302 146.5 2.779 9c12.474 40.394 44.03 69.666 84.002 77.923 6.433 1.329 19.269 1.561 88.373 1.601 44.465.026 82.435.411 84.377.857 3.015.691 43.143 27.905 79.469 53.894 17.566 12.568 23.933 13.329 32.251 3.856 4.455-5.074 4.522-5.615 4.097-33.149L533.47 636h6.305c47.554 0 87.479-26.548 104.56-69.529 7-17.612 6.738-10.486 6.4-174.025-.285-137.305-.423-147.438-2.101-154.446-9.528-39.797-40.369-70.997-81.292-82.241l-11.842-3.254-147-.142c-80.976-.078-150.144.258-154 .749m0 30.362c-33.061 6.204-58.215 31.451-64.981 65.221-1.364 6.813-1.529 19.917-1.291 103.062l.272 95.258 34.5-35.687c18.975-19.628 34.433-36.169 34.351-36.758-.082-.588-1.338-5.345-2.791-10.57-3.559-12.795-4.549-34.221-2.199-47.636 12.462-71.167 80.532-109.692 145.471-82.33 10.422 4.391 14.168 7.511 14.168 11.799 0 5.085-2.821 7.037-29.816 20.63-29.967 15.09-35.755 18.598-38.509 23.337-2.363 4.067-5.696 31.187-5.924 48.2-.223 16.701-1.137 15.502 22.749 29.84 4.4 2.642 8.958 5.407 10.13 6.147 1.947 1.229 2.81.83 10.108-4.668 4.388-3.307 13.045-9.109 19.239-12.894l11.26-6.882-.593-5.679c-.327-3.124-.127-9.659.444-14.522C416.382 284.233 449.561 253 492.184 253c12.616 0 29.756 5.221 33.178 10.106 3.398 4.852 2.438 7.411-7.65 20.394-10.196 13.122-12.561 15.399-16.648 16.027-21.76 3.348-31.444 9.216-37.731 22.863-3.008 6.528-2.892 4.701-2.037 32.11.203 6.5-5.018 17.173-13.889 28.391-9.757 12.339-11.448 13.178-25.968 12.879-10.97-.225-12.507-.023-18.939 2.499-35.893 14.072-45.186 59.438-17.438 85.128 10.186 9.431 20.793 13.621 34.37 13.577 35.769-.114 59.724-36.165 46.246-69.598-4.897-12.149-4.869-16.04.174-23.884a5469 5469 0 0 0 8.439-13.179c6.284-9.846 8.105-10.927 15.691-9.317 14.78 3.137 29.895-.636 40.018-9.988 12.225-11.294 13.515-11.128 30.493 3.934C572.254 385.377 573 386.351 573 391.284c0 7.784-15.784 22.535-33.871 31.655-10.837 5.464-11.131 5.987-11.114 19.766.019 15.626.11 15.775 12.485 20.436 17.033 6.417 17.625 8.694 8.256 31.756-9.402 23.139-10.436 23.772-28.756 17.603-5.716-1.925-10.585-3.5-10.819-3.5-1.323 0-17.181 16.632-17.181 18.021 0 .916.925 4.324 2.056 7.572 7.641 21.96 7.426 22.318-19.495 32.392-20.066 7.509-22.05 6.918-28-8.33-1.965-5.035-3.964-9.765-4.441-10.511-1.282-2.001-9.596-3.272-14.378-2.197-4.705 1.057-5.108 1.613-9.453 13.053-3.494 9.198-6.743 13.003-11.095 12.995-3.406-.007-34.005-11.514-36.414-13.695-3.984-3.604-4.19-8.02-.86-18.403 4.353-13.572 4.434-13.22-5.289-22.711l-8.369-8.169-4.381 1.388c-2.41.763-7.039 2.335-10.288 3.491-14.093 5.02-16.737 3.03-25.428-19.135-8.886-22.664-8.368-25.271 6.107-30.743 4.525-1.711 9.427-3.578 10.892-4.15 3.493-1.363 5.023-5.304 4.644-11.964l-.308-5.404-8.5-3.211c-4.675-1.766-9.232-3.229-10.126-3.25-1.455-.035-122.904 120.722-123.703 123-.182.516 1.341 3.688 3.383 7.05 10.902 17.947 27.212 30.536 48.18 37.19 6.643 2.108 8.333 2.157 92.766 2.684l86 .537 5.568 2.254c5.841 2.364 11.28 5.937 39.932 26.237C490.715 648.959 503.875 658 504.492 658c.228 0 .323-8.916.211-19.814l-.203-19.815 2.892-3.804c4.962-6.529 9.451-7.813 30.108-8.613 20.412-.79 26.885-2.109 39.078-7.965 16.53-7.939 29.148-20.425 36.874-36.489 8.091-16.822 7.548-4.859 7.548-166.296 0-140.183-.051-144.083-1.982-151.635-7.047-27.551-30.492-50.918-59.518-59.318-8.034-2.325-292.882-3.05-305-.777m153.885 238.143c-25.654 9.099-22 47.966 4.907 52.185 19.092 2.994 33.946-10.52 32.438-29.512-1.396-17.582-19.946-28.843-37.345-22.673"/></svg>