<svg xmlns="http://www.w3.org/2000/svg" width="800" height="800" viewBox="0 0 800 800"><path fill-rule="evenodd" d="M377.5 110.402c-17.297 5.485-29.404 18.986-32.96 36.756l-.532 2.658-19.254.424c-21.613.477-24.841 1.21-33.254 7.548-2.759 2.079-6.345 6.074-8 8.913l-3 5.146-37.578.327-37.579.326-8.555 4.241c-14.031 6.955-23.058 18.597-26.306 33.929-1.808 8.534-2.225 415.045-.437 426.33 2.481 15.661 12.444 29.173 26.732 36.252l8.572 4.248H577.5l7.621-3.806c12.19-6.086 21.52-16.754 25.822-29.526 1.887-5.601 2.057-8.486 2.057-34.97v-28.866l5.574-3.838c11.332-7.805 19.475-19.478 23.355-33.481 3.014-10.877 3.168-102.157.192-113.614-3.508-13.503-12.828-26.879-24.019-34.473l-5.05-3.426-.026-89.04c-.029-98.085.145-95.14-6.261-106.405-4.581-8.055-12.437-15.289-21.437-19.739l-7.718-3.816-37.236-.305-37.237-.306-3.171-4.941c-3.813-5.943-8.794-10.047-16.63-13.702-5.561-2.594-6.752-2.747-25.311-3.234l-19.474-.512-.736-4.324c-2.527-14.847-16.779-29.898-32.747-34.583-6.522-1.913-21.802-2.019-27.568-.191m7.494 21.532c-11.218 3.413-17.292 11.48-18.585 24.685-1.428 14.575-3.117 15.374-32.56 15.403-33.799.033-33.849.073-33.849 26.928V216h183v-17.096c0-26.737-.206-26.904-33.059-26.904-29.647 0-31.243-.812-33.037-16.807-1.923-17.147-16.669-27.895-31.91-23.259m-175.025 63.602c-5.99 1.846-12.412 7.481-15.759 13.826l-2.71 5.138v421l2.123 4.589c2.703 5.844 7.832 10.974 14.019 14.019l4.858 2.392h357l5.714-2.806c3.232-1.587 7.47-4.801 9.755-7.396 6.254-7.105 7.031-11.135 7.031-36.48V588h-62.717l-14.392 11.694c-48.897 39.731-49.25 39.963-56.592 37.169-7.578-2.884-8.299-5.354-8.299-28.416v-20.256l-18.25-.431c-16.764-.396-18.753-.639-24.423-2.991-18.068-7.493-31.9-23.175-36.842-41.769-2.589-9.745-2.135-105.193.547-114.872 5.67-20.461 20.019-35.166 41.468-42.495 5.836-1.994 8.369-2.059 92.777-2.383l86.777-.333-.277-84.208c-.309-93.848.195-87.307-7.362-95.671-7.725-8.551-7.447-8.497-45.665-8.848l-33.75-.311v17.11c0 18.542-.538 20.929-5.615 24.923-2.654 2.087-2.69 2.088-107.615 2.088H286.809l-3.018-2.149c-5.021-3.575-5.791-6.943-5.791-25.319V194l-31.75.07c-24.186.053-32.829.402-36.281 1.466m36.345 106.414c-6.516 3.973-7.348 11.216-1.914 16.65l3.4 3.4h138.047l3.042-2.56c5.68-4.78 5.015-13.698-1.309-17.555-4.873-2.971-136.386-2.911-141.266.065m1.138 51.456c-8.714 3.795-8.575 16.556.22 20.23 4.071 1.701 99.465 2.023 103.864.35 8.735-3.321 9.607-14.286 1.566-19.699L349.704 352l-49.602.039c-38.96.031-50.256.324-52.65 1.367M421 406.346c-16.31 4.491-27.923 17.803-30.073 34.475-1.196 9.269-1.109 83.144.107 91.558 1.727 11.95 7.722 21.568 17.302 27.76 8.67 5.603 11.006 6.06 34.493 6.742l21.328.619 3.422 3.735 3.421 3.736v32.174l2.861-2.323c1.573-1.277 12.13-9.864 23.459-19.081 11.329-9.218 21.771-17.205 23.204-17.75 1.519-.578 15.628-.991 33.831-.991 33.937 0 38.323-.523 47.844-5.705 6.651-3.62 13.312-11.042 17.116-19.072l3.185-6.723.324-44.28c.19-26.062-.085-46.898-.668-50.644-2.1-13.488-11.036-25.454-23.634-31.646l-6.978-3.43-83.022-.197c-63.454-.15-84.083.096-87.522 1.043M539.624 459.7a8883 8883 0 0 0-31.616 30.97l-15.493 15.27-16.076-15.97C460.698 474.333 460.274 474 456.081 474c-6.449 0-11.57 5.318-10.781 11.196.509 3.802 2.215 5.802 20.832 24.436 11.152 11.162 21.558 20.825 23.124 21.474 6.277 2.6 7.89 1.311 45.494-36.359L570 459.435v-4.283c0-5.32-1.231-7.703-4.98-9.642-6.732-3.481-7.943-2.804-25.396 14.19"/></svg>