<svg xmlns="http://www.w3.org/2000/svg" width="800" height="800" viewBox="0 0 800 800"><path fill-rule="evenodd" d="M118.365 137.027c-6.943 3.368-12.585 9.055-15.728 15.851L100.5 157.5v275l2.22 4.5c3.1 6.287 8.816 11.863 15.28 14.909l5.5 2.591 81.25.278c44.688.153 81.25.477 81.25.72 0 .242-2.187 4.167-4.86 8.721s-6.344 10.981-8.157 14.281c-2.824 5.141-41.264 72.318-80.684 141-6.313 11-11.711 21.393-11.995 23.095-1.259 7.557 6.532 13.197 13.909 10.069 2.798-1.187 5.02-4.428 14.934-21.779 6.406-11.212 26.368-46.035 44.361-77.385 35.921-62.588 35.34-61.57 47.492-83.276l8.5-15.182 6.25-.021L322 455v96.566c0 64.318.344 97.208 1.03 98.489 2.861 5.348 11.618 6.451 16.047 2.022l2.923-2.923.021-39.827c.012-21.905.003-58.024-.021-80.265-.023-22.241.14-40.241.364-40 .414.446 8.052 13.694 35.132 60.938a41254 41254 0 0 0 48.287 84c5.229 9.075 10.23 16.95 11.112 17.5 7.186 4.478 16.105.609 16.105-6.987 0-3.19-11.355-23.529-80.96-145.013-9.769-17.05-19.438-34.038-21.487-37.75l-3.725-6.75h36.521c36.217 0 39.799-.291 42.996-3.488 2.702-2.702 2.035-13.051-1.064-16.512-.246-.275-67.497-.725-149.446-1l-148.999-.5-2.918-3.266-2.918-3.266V162.032l2.75-3.051 2.75-3.051 180 .029 204.327.035 24.327.006 2.923 2.923 2.923 2.923v72.627c0 81.298-.324 77.555 6.871 79.492 5.307 1.429 9.706.326 12.649-3.171l2.48-2.947v-70.875c0-48.556-.353-72.542-1.122-76.173-2.317-10.95-7.932-18.187-18.03-23.239l-7.117-3.56-206.115.026-206.116.025zm323.715 40.139c-3.505 1.297-3.789 4.12-3.682 36.67l.102 31.337 2.821 2.426 2.821 2.427 34.179-.263 34.179-.263-.245-7.864c-.83-26.62-21.355-52.647-48.908-62.018-7.402-2.518-17.837-3.721-21.267-2.452m-33.58 9.196c-53.381 17.33-70.276 82.49-32.203 124.197 42.007 46.016 121.694 19.495 128.363-42.721.554-5.169.381-5.888-1.981-8.25L500.091 257H430v-32.435c0-32.822-.365-36.6-3.789-39.202-2.576-1.956-9.876-1.544-17.711.999m-7.598 26.05c-34.01 22.815-31.363 75.998 4.717 94.785 25.744 13.406 57.581 3.665 72.646-22.227l3.764-6.47-34.102-.5-34.103-.5-2.412-2.806-2.412-2.806v-31.944c0-17.569-.342-31.944-.761-31.944-.418 0-3.72 1.985-7.337 4.412M281.388 223.95c-1.161.486-3.074 2.107-4.25 3.602L275 230.27V388h-12v-56.096c0-61.215.095-60.173-5.712-62.819-3.11-1.417-40.71-1.465-43.343-.055-4.919 2.632-4.945 2.967-4.945 62.92V388h-11v-34.05c0-36.937-.189-38.348-5.472-40.755-3.331-1.518-39.792-1.659-42.583-.165-4.779 2.557-4.945 4.162-4.945 47.905v41.033l2.918 3.266 2.918 3.266 94.144.265 94.144.265 2.938-2.938c3.876-3.877 4.145-10.578.589-14.712-1.972-2.291-3.338-2.802-8.5-3.175L328 387.76V230.032l-2.916-3.266-2.916-3.266-19.334-.217c-10.634-.119-20.284.181-21.446.667m14.035 20.967c-.233.229-.423 32.516-.423 71.75V388h12V244.5h-5.577c-3.068 0-5.768.188-6 .417M230 338v50h12V288h-12zm318.807-5.472c-57.987 7.909-100.943 58.507-101 118.972-.03 31.187 7.129 50.512 31.304 84.5 16.208 22.788 21.882 35.605 21.895 49.46.007 8.523 1.552 13.106 6.07 18.007l3.924 4.257v14.032c0 20.49 4.638 32.787 16.051 42.556 10.596 9.069 18.7 10.977 44.732 10.528l19.717-.34 6.788-3.215c19.406-9.192 27.686-25.146 27.704-53.38.007-10.381.221-11.788 2.04-13.434 4.776-4.322 6.11-8.102 6.966-19.727 1.259-17.091 3.89-23.178 19.992-46.244 26.663-38.193 32.543-54.221 32.471-88.5-.035-16.808-.286-19.448-2.742-28.868-12.089-46.364-52.139-82.013-99.503-88.57-13.285-1.839-23.107-1.848-36.409-.034M166 360.5V388h12v-55h-12zm386.5-7.847c-42.724 6.857-76.191 39.848-83.027 81.847-5.02 30.841 2.167 57.401 23.401 86.479 17.173 23.516 20.653 29.341 24.778 41.467 1.935 5.69 4.302 19.488 4.34 25.304.006.955 4.379 1.25 18.508 1.25H559v-19.943c0-18.362-.149-20.048-1.874-21.256-1.03-.722-6.655-5.873-12.5-11.448-10.058-9.594-10.626-10.35-10.626-14.155 0-3.262.581-4.509 3.077-6.609 5.283-4.446 6.911-3.729 19.533 8.604l11.454 11.193 7.683-7.443c9.361-9.068 8.018-7.815 12.538-11.695 4.721-4.051 7.976-4.141 11.792-.325 6.019 6.019 4.828 8.216-13.287 24.514l-9.711 8.737-.289 19.914-.29 19.914 18.602-.001 18.603-.001.662-8.618c1.279-16.635 7.504-30.152 25.542-55.468 17.073-23.959 23.305-37.548 26.563-57.914 8.111-50.698-23.686-99.192-73.472-112.054-8.382-2.166-32.711-3.543-40.5-2.293m20.5 36.011c-16.167 2.326-25.152 6.492-33.54 15.553-12.385 13.377-16.487 31.085-10.909 47.088l1.674 4.804-13.602 13.65c-8.467 8.497-14.009 14.879-14.677 16.906-2.642 8.005 6.741 17.422 15.687 15.744 3.666-.688 5.298-2.065 25.67-21.666 1.576-1.516 3.39-2.448 4.031-2.07.641.377 2.78 1.69 4.752 2.916 9.608 5.973 26.734 8.137 37.982 4.799 38.292-11.361 49.499-58.146 20.227-84.437-10.081-9.055-26.372-14.859-37.295-13.287m-8.332 24.25c-6.511 3.32-10.128 6.678-13.156 12.216-9.702 17.745 4.242 39.87 25.127 39.87 30.711 0 39.597-38.692 11.861-51.645-6.591-3.079-18.236-3.294-23.832-.441m6.832 6.767c-15.845 4.142-15.157 28.675.907 32.298 18.197 4.104 27.908-19.06 12.573-29.991-2.671-1.904-10.135-3.182-13.48-2.307M531.2 615.75l.3 5.75 36.75.262 36.75.263V610h-74.1zm5.906 29.384c5.987 7.559 10.513 8.845 31.176 8.856 19.735.011 22.658-.633 28.55-6.291 7.411-7.116 9.207-6.699-28.881-6.699h-34.119z"/></svg>