<svg xmlns="http://www.w3.org/2000/svg" width="800" height="800" viewBox="0 0 800 800"><path fill-rule="evenodd" d="M382 109.6c-20.432 5.453-36.987 20.095-45.112 39.9l-1.641 4-15.374.524c-16.966.578-18.67 1.087-26.079 7.783l-4.087 3.693-39.603.528c-37.159.495-39.949.658-45.191 2.64-19.356 7.318-32.372 22.122-36.436 41.439-2.184 10.386-2.195 382.843-.01 393.15 4.051 19.12 19.57 36.152 39.033 42.838l7 2.405h370l8.183-2.81c19.418-6.667 34.377-22.645 38.896-41.546 2.14-8.951 2.027-386.948-.119-396.051-4.368-18.53-20.177-34.776-39.392-40.481-4.571-1.357-11.459-1.617-43.5-1.644l-38.068-.032-3.5-3.552c-6.791-6.892-9.674-7.761-27.204-8.199l-15.704-.393-1.546-4.654c-5.66-17.039-26-34.56-46.006-39.628-7.694-1.949-27.09-1.899-34.54.09m6.435 34.29c-28.608 12.994-19.796 54.584 11.565 54.584 31.155 0 39.992-40.403 11.861-54.224-5.958-2.927-17.388-3.102-23.426-.36M237.418 277.969c-9.44 3.819-10.037 19.694-.896 23.859 1.914.872 29.637 1.172 108.39 1.172 105.795 0 105.819 0 108.473-2.088 8.055-6.336 7.019-18.756-1.875-22.472-3.919-1.638-210.087-2.091-214.092-.471m-.03 1.011c-7.137 2.884-8.801 13.807-2.988 19.62l3.4 3.4h106.135c96.908 0 106.354-.143 108.651-1.648 7.568-4.959 7.023-16.937-.943-20.717-3.123-1.482-13.203-1.629-107.794-1.572-57.392.035-105.299.448-106.461.917m.03 68.989c-8.793 3.557-10.041 18.117-2.004 23.383 2.271 1.488 7.846 1.625 57.301 1.415l54.785-.233-55-.517c-30.25-.284-55.699-.869-56.553-1.298-4.493-2.261-6.564-12.965-3.386-17.502 3.778-5.394.745-5.217 89.421-5.217 88.74 0 86.745-.118 90.314 5.328 5.495 8.388-.879 19.25-11.126 18.96-2.392-.068-3.042.179-2.076.79 1.776 1.123 7.69.086 10.707-1.877 8.106-5.276 6.638-19.031-2.437-22.822-3.785-1.582-166.082-1.973-169.946-.41m-1.655 70.596c-7.696 4.176-7.734 17.838-.064 23.037 2.632 1.783 5.549 1.917 48.301 2.205 25.025.169 47.427.027 49.783-.316 5.379-.783 11.239-6.172 11.173-10.274-.039-2.422-.195-2.293-1.434 1.183-1.492 4.187-2.265 4.952-7.24 7.167-5.1 2.271-92.572 2.101-98.3-.191-7.814-3.126-9.732-13.826-3.582-19.976l3.4-3.4h99.047l3.069 2.583c1.688 1.421 3.482 4.008 3.987 5.75.773 2.67.931 2.795 1.007.799.057-1.495-1.34-3.797-3.792-6.25L337.235 417l-49.367.04c-41.716.034-49.792.27-52.105 1.525"/></svg>