<svg xmlns="http://www.w3.org/2000/svg" width="800" height="800" viewBox="0 0 800 800"><path fill-rule="evenodd" d="M182.182 147.119c-18.092 3.009-33.131 16.102-39.068 34.012l-2.198 6.63.006 211.897c.006 210.633.018 211.937 2.051 218.52 5.045 16.332 19.587 29.95 36.027 33.737 6.529 1.503 432.987 1.484 440.201-.02 17.278-3.603 32.538-17.597 37.814-34.678 3.12-10.102 3.12-425.332 0-435.434-5.276-17.079-19.43-30.074-37.367-34.304-7.111-1.676-427.471-2.023-437.466-.36m19.219 51.786c-2.254 1.024-5.179 3.377-6.5 5.228L192.5 207.5l-.266 85.578-.267 85.578 2.267 3.33c5.399 7.934 1.953 7.454 57.588 8.014l49.678.5.297 3.025c.412 4.209-13.851 29.988-17.07 30.851-1.225.328-20.383.603-42.573.61-45.219.016-44.492-.093-48.249 7.224-1.824 3.552-1.905 6.934-1.905 79.3 0 82.666-.333 77.991 5.976 83.99l3.155 3 89.684.267c83.595.248 89.77.15 90.935-1.442.968-1.321 1.25-15.446 1.25-62.516 0-58.119.08-60.809 1.818-60.809 4.449 0 12.402-3.287 15.535-6.42 1.836-1.836 6.326-8.455 9.978-14.709l6.64-11.371.014 77.179c.013 68.816.185 77.348 1.586 78.75 1.405 1.404 10.931 1.571 89.853 1.571h88.28l3.374-2.274c1.856-1.25 4.398-3.792 5.648-5.648l2.274-3.374V511.22c0-74.938-.041-76.55-2.016-79.746-3.89-6.293-5.075-6.474-42.451-6.474-33.822 0-37.533-.355-37.533-3.589 0-1.538 11.726-23.603 15.23-28.661l1.906-2.75h25.283c26.364 0 30.078-.473 34.426-4.389 5.37-4.835 5.155-.979 5.155-92.411v-84.9l-2.884-3.981c-5.643-7.791.632-7.319-97.395-7.319-80.131 0-87.591.139-88.849 1.653-1.117 1.346-1.465 12.99-1.872 62.75l-.5 61.097-9.112 15.5a16769 16769 0 0 0-15.838 27c-3.698 6.325-7.135 11.928-7.637 12.45-.551.573-.913-34.278-.913-87.816 0-59.276-.344-89.408-1.035-90.7-1.587-2.964-174.04-2.991-180.564-.029m365.951 45.733c-6.133 1.354-8.569 5.463-36.766 62.026-15.124 30.34-28.019 55.486-28.655 55.879-.709.438-9.524-7.635-22.794-20.878-25.732-25.678-29.746-27.967-39.927-22.771-5.651 2.884-3.44-.416-32.229 48.106-2.448 4.125-4.951 8.4-5.563 9.5s-5.682 9.631-11.266 18.959S380 412.718 380 413.086s-.697 1.247-1.548 1.954c-1.33 1.104-3.837-.987-17.75-14.8-11.219-11.138-17.125-16.292-19.202-16.756a155 155 0 0 1-4.583-1.091c-3.843-1.023-16.917 6.46-16.917 9.682 0 .375-3.636 7.15-8.081 15.054-15.795 28.091-23.416 41.587-32.959 58.371-5.316 9.35-11.038 19.475-12.715 22.5a967 967 0 0 1-6.801 12c-6.523 11.302-5.591 21.189 2.519 26.726 6.836 4.666 15.735 3.809 21.549-2.076 2.559-2.59 11.529-17.798 32.38-54.9 1.16-2.062 2.932-5.212 3.94-7a7021 7021 0 0 0 10.587-19c4.815-8.663 9.332-15.75 10.039-15.75s5.054 3.916 9.663 8.702c20.105 20.88 21.434 22.041 26.444 23.11 8.818 1.88 14.467-.85 20.204-9.769 5.273-8.197 29.523-48.457 45.665-75.816 4.307-7.3 8.178-13.487 8.602-13.749.717-.443 10.46 9.246 34.449 34.256 15.388 16.042 24.694 18.408 33.93 8.627 3.36-3.559 69.485-135.969 70.247-140.665 1.743-10.741-10.513-20.661-22.31-18.058"/></svg>