<svg xmlns="http://www.w3.org/2000/svg" width="800" height="800" viewBox="0 0 800 800"><path fill-rule="evenodd" d="M236 159.514c-.825.168-4.84.851-8.922 1.517-35.417 5.782-69.394 33.234-82.184 66.401-7.809 20.248-7.394 12.444-7.394 139.068 0 123.428-.314 115.997 5.677 134.5 10.024 30.963 39.214 60.359 68.573 69.057l4.25 1.26.056 26.091c.047 22.13.313 26.723 1.75 30.25 3.957 9.713 12.356 14.968 22.458 14.052 7.642-.693 8.955-1.593 56.066-38.429l37.37-29.219 120.9-.324 120.9-.324 8-2.279c33.399-9.516 61.305-35.89 72.937-68.934 6.354-18.05 6.063-11.552 6.063-135.201 0-111.885-.012-112.549-2.164-121.559-9.898-41.438-39.425-72.197-79.836-83.169l-10-2.716-166.5-.173c-91.575-.096-167.175-.037-168 .131"/></svg>