<svg xmlns="http://www.w3.org/2000/svg" width="800" height="800" viewBox="0 0 800 800"><path fill-rule="evenodd" d="M194.944 157.937c-20.017 4.246-36.406 16.807-44.944 34.445-6.906 14.268-6.5 1.292-6.5 207.618 0 175.857.109 187.904 1.76 194 5.942 21.942 21.332 37.995 43.74 45.627 5.299 1.804 12.346 1.873 192.5 1.873h187l8.132-3.277c16.215-6.535 28.874-18.117 35.764-32.723 5.502-11.663 6.104-16.594 6.104-50 0-28.202-.12-30.204-2-33.395-6.105-10.364-21.385-10.744-27.324-.679-1.959 3.321-2.088 5.236-2.374 35.293L586.5 588.5l-2.71 5.137c-3.925 7.442-11.808 13.981-19.79 16.415-6.392 1.95-9.485 1.978-185.5 1.715l-179-.267-6.649-3.253c-7.339-3.59-12.046-8.282-15.245-15.196L175.5 588.5l-.284-186.5c-.22-144.203-.008-187.521.934-191 2.594-9.586 8.813-16.811 18.094-21.024 4.156-1.886 8.554-1.933 186.419-1.954L562.825 188l6.239 3.25c7.587 3.952 13.246 10.355 15.949 18.048 1.905 5.419 1.987 8.363 1.987 71.529v65.877l2.251 3.398c7.414 11.189 25.198 8.743 28.724-3.95 1.793-6.458 1.341-126.071-.518-136.771-4.221-24.3-22.668-44.292-47.22-51.176-9.431-2.644-362.9-2.897-375.293-.268m421.388 226.992c-4.9 1.214-11.745 5.613-14.639 9.407-2.424 3.178-17.197 21.221-50.05 61.129-7.229 8.781-22.143 26.781-33.143 40s-21.003 25.321-22.229 26.894l-2.23 2.858-22.27-21.95c-39.459-38.891-39.715-39.078-52.019-37.973-15.48 1.39-24.371 18.427-17.273 33.097 2.123 4.388 79.76 83.358 85.344 86.809 5.108 3.157 16.316 3.113 21.489-.084 4.578-2.829 21.83-24.484 89.32-112.116 2.753-3.575 12.819-16.625 22.368-29 20.752-26.894 22.059-29.031 22.116-36.163.111-14.089-13.925-26.095-26.784-22.908"/></svg>