<svg xmlns="http://www.w3.org/2000/svg" width="800" height="800" viewBox="0 0 800 800"><path fill-rule="evenodd" d="m339.5 115-5 .686 4 .291c3.267.238 2.632.472-3.46 1.276-4.971.656-7.572.65-7.795-.018-.212-.636-1.713-.693-4.102-.156-5.052 1.135-9.018 2.761-7.143 2.928 2.122.189-1.919 1.852-4.5 1.852h-2l2-.859c4.001-1.719-1.028-.877-5.436.911-2.979 1.207-3.964 2.014-3 2.455.79.361.378.456-.915.212-2.459-.464-7.37 1.255-6.697 2.345.215.347-3.512 2.611-8.281 5.032-10.564 5.362-18.827 10.753-26.342 17.189-5.675 4.859-7.566 5.952-6.241 3.606.388-.687-1.199.55-3.526 2.75-4.814 4.55-13.205 14.301-11.312 13.145 2.122-1.295 1.379.935-.983 2.95-2.21 1.886-2.218 1.885-.75-.095 1.371-1.849 1.352-1.897-.256-.637-.956.75-1.514 1.728-1.238 2.174.477.773-7.262 13.963-8.194 13.963-.483 0-.206-.513 3.432-6.359 1.321-2.123 1.958-3.586 1.415-3.25-2.057 1.272-10.361 16.685-9.79 18.173.325.847.212 1.306-.251 1.019-.464-.286-1.358.612-1.989 1.995-1.392 3.056-1.478 4.484-.146 2.422 1.753-2.713 1.042.693-1.074 5.141-1.905 4.006-2.128 3.238-.476-1.641.428-1.263.142-1.079-.775.5-1.952 3.361-5.931 17.797-5.32 19.301.268.659.523.111.566-1.218s.319-2.176.612-1.883.221 2.489-.162 4.88c-.525 3.286-.863 3.869-1.383 2.387-1.52-4.335-3.235 11.601-3.446 32.033l-.217 21 .623-17c.551-15.006.649-13.224.838 15.185.127 19.056-.184 33.231-.761 34.75L209.05 317h48.925l.275-35.75.276-35.75.237 36.25L259 318l-35.75.012c-26.628.009-37.026.353-40.75 1.347-14.205 3.795-23.853 13.332-28.409 28.083-2.068 6.695-2.091 7.986-2.091 117.953 0 95.329.213 112.002 1.492 116.912 4.474 17.177 16.796 28.867 34.343 32.579 5.515 1.168 252.165 1.684 252.165.529 0-.305-1.964-3.79-4.364-7.743-9.8-16.144-20.012-39.464-24.305-55.504-7.653-28.587-8.597-36.317-9.08-74.338-.398-31.306-.329-32.865 1.646-37.33 4.718-10.666 11.582-15.857 25.103-18.981 32.659-7.547 57.008-18.974 85.5-40.124 6.05-4.491 12.496-8.921 14.325-9.845 4.228-2.135 15.541-3.105 20.425-1.751l3.75 1.04-.054-4.17C552.53 334.519 535.945 317 505.924 317h-9.898l-.276-34.75-.277-34.75-.236 34.586-.237 34.585-75.165.665c-41.341.365-94.216.664-117.5.664H260l.037-35.75c.026-25.314.421-37.736 1.353-42.553.724-3.742.975-6.442.557-6s-1.231 3.278-1.807 6.303l-1.048 5.5.546-5.912c.548-5.931 2.1-11.543 2.375-8.588.076.825.746-.075 1.487-2 1.647-4.277 1.829-6.014.419-4-.805 1.15-.895.916-.388-1 1.184-4.474 5.481-13.322 6.146-12.657.356.357 2.211-1.712 4.122-4.597 1.91-2.885 4.425-6.371 5.587-7.746l2.114-2.5-2.993 2.5-2.993 2.5 1.955-2.5c5.677-7.262 17.837-18.54 14.946-13.862-.387.626 1.885-.774 5.05-3.112s9.418-6.022 13.895-8.187 7.015-3.667 5.64-3.339c-2.127.507-2.236.43-.73-.513.974-.61 2.549-.866 3.5-.569.952.296 4.422-.298 7.713-1.321 3.943-1.227 5.306-2.005 4-2.283-1.091-.232 8.367-.416 21.017-.409s22.1.203 21 .434c-1.429.301-.714.809 2.5 1.776 5.812 1.75 7.489 1.638 3-.2-3.271-1.339-3.304-1.395-.5-.849 4.012.78 17.743 6.286 19 7.619.558.591-.032.528-1.336-.144-1.284-.661-2.516-1.022-2.737-.801s1.199 1.165 3.155 2.098 3.274 1.238 2.928.679c-1.081-1.749.47-1.127 5.06 2.031 4.137 2.846 6.004 4.865 3.18 3.439-.687-.348.074.499 1.692 1.881s3.351 2.26 3.851 1.951c.992-.613 13.179 10.951 14.942 14.181 1.013 1.854.957 1.89-.762.5-1.33-1.075-1.182-.58.524 1.75 2.403 3.282 3.664 4.302 2.475 2-.355-.687.31-.125 1.478 1.25 2.83 3.331 7.884 13.205 10.188 19.902 2.163 6.285 2.375 9.243.295 4.098l-1.415-3.5.62 3.5c.342 1.925.985 4.4 1.428 5.5.77 1.907.81 1.911.871.083.034-1.054.358-1.621.718-1.261.361.361.676 18.998.7 41.417l.044 40.761.569-36 .57-36 .306 26c.168 14.3.267 30.613.219 36.25l-.088 10.25h47.072l.013-33.75c.007-18.562.211-36.225.454-39.25.316-3.95.193-4.795-.437-3-.798 2.272-.887 2.153-.977-1.309-.055-2.095.296-3.564.781-3.265.485.3.27-2.663-.477-6.585-1.465-7.687-2.953-10.91-2.005-4.341.328 2.27-.273.972-1.388-3-2.196-7.822-2.521-11.184-.483-5 .725 2.2 1.328 3.1 1.339 2 .026-2.458-3.706-11.591-3.881-9.5-.088 1.036-.392.882-.986-.5-1.181-2.749-1.181-4.328 0-2.5.643.996.975 1.081.985.253.022-1.791-6.092-14.479-6.69-13.882-.274.275.222 1.529 1.103 2.787s1.6 2.749 1.598 3.315-.929-.491-2.06-2.346-1.809-4.016-1.507-4.802c.348-.907.125-1.167-.61-.713-.761.47-.951.175-.555-.857.56-1.459-4.462-10.755-5.81-10.755-.325 0 .277 1.238 1.336 2.75 2.392 3.415 4.425 7.25 3.844 7.25-.24 0-1.322-1.501-2.405-3.336a194 194 0 0 0-3.849-6.212c-1.415-2.164-1.509-2.68-.38-2.089.825.432.318-.145-1.126-1.282s-3.839-3.758-5.321-5.824c-2.487-3.467-2.371-3.409 1.505.743 2.349 2.518 3.268 3.179 2.086 1.5-3.381-4.8-4.569-6.149-5.802-6.588-1.485-.528-12.342-10.81-12.342-11.687 0-.364 2.813 2.023 6.25 5.306l6.25 5.968-6.423-6.701c-3.533-3.686-6.741-6.506-7.128-6.266-.723.447-9.949-6.194-9.949-7.162 0-.296 1.913.89 4.25 2.635l4.25 3.174-4.494-4.077c-2.472-2.243-4.947-3.977-5.5-3.855-1.034.229-13.506-7.024-13.506-7.855 0-.617 3.802 1.402 7.431 3.946 1.611 1.131 2.601 1.522 2.198.871-1.284-2.077-9.523-6.392-10.754-5.632-.731.452-.919.304-.492-.387.422-.683-1.256-2.105-4.313-3.654-5.809-2.944-8.245-3.369-3.07-.536 4.145 2.27 3.226 2.685-1.05.474-1.622-.839-2.95-1.95-2.95-2.468 0-.519-.693-.677-1.541-.352-.912.35-1.422.105-1.25-.599.269-1.099-14.186-7.157-16.653-6.979-.581.042.519.683 2.444 1.424 4.668 1.798 2.651 1.832-3 .052-2.475-.78-3.825-1.48-3-1.556 2.952-.27-5.615-2.7-11.5-3.261-4.166-.398-5.236-.296-3.5.332 2.011.728 1.718.812-1.5.43-2.2-.261-5.125-.544-6.5-.628-1.698-.104-1.216-.385 1.5-.877 2.339-.424-1.397-.624-9-.482-10.619.199-11.535.117-5-.447l8-.69-8-.03c-4.4-.016-10.25.28-13 .657M537 391.356c-1.375.739-7.45 5.06-13.5 9.601-25.656 19.258-59.697 35.281-84.825 39.926-7.463 1.38-12.116 3.634-14.354 6.953-2.7 4.006-2.33 47.866.567 67.164 6.986 46.538 23.886 81.355 54.555 112.391C499.179 647.363 534.849 671 545.253 671c4.518 0 18.153-6.775 31.315-15.559q69.594-46.449 85.831-124.046c3.512-16.784 4.599-30.178 4.6-56.677.001-30.628-.05-30.73-17.423-34.878-30.901-7.377-62.495-22.437-95.961-45.742-6.411-4.464-11.767-5.348-16.615-2.742m-7.581 38.223c-22.97 15.253-42.493 24.596-64.883 31.05-16.846 4.855-15.936 3.449-15.109 23.355 1.823 43.845 8.956 70.284 26.229 97.213 13.249 20.656 35.198 41.52 58.461 55.572 12.521 7.562 11.617 7.617 25.453-1.527 56.812-37.547 81.425-84.538 81.429-155.469.001-16.102.549-15.294-12.654-18.659-21.396-5.453-47.464-17.236-70.987-32.087-6.993-4.415-13.233-8.027-13.867-8.027s-6.967 3.86-14.072 8.579m5.52-2.423c-25.308 17.592-49.796 29.419-74.242 35.857-5.909 1.556-9.131 2.93-9.8 4.179-1.1 2.056.284 33.149 2.129 47.808 5.98 47.512 32.125 88.11 74.974 116.417 18 11.891 17.378 11.843 31.655 2.439 56.019-36.903 80.168-83.799 80.322-155.984.027-12.706.307-12.347-12.141-15.572-20.755-5.376-48.673-18.019-69.836-31.625-15.298-9.835-14.213-9.67-23.061-3.519m60.561 57.245c-1.65.741-5.704 4.217-9.008 7.723-29.233 31.022-39.736 42.147-44.252 46.872l-5.26 5.504-15.077-15.25C507.446 514.626 506.662 514 502.818 514c-5.361 0-9.441 2.591-11.82 7.505-3.236 6.684-1.804 9.485 12.388 24.219a5338 5338 0 0 1 19.71 20.569c8.075 8.499 11.938 10.178 17.815 7.744 4.507-1.867 69.268-69.31 71.004-73.945 3.418-9.124-7.595-19.651-16.415-15.691m-1.5 2.29c-1.375.9-14.586 14.41-29.358 30.02-14.772 15.611-27.29 28.24-27.818 28.064-.527-.176-7.591-6.947-15.696-15.048C506.721 515.331 506.294 515 502.095 515c-6.313 0-11.095 4.918-11.095 11.41 0 4.604.023 4.635 17.384 22.85 23.87 25.044 22.943 24.24 27.956 24.24 5.23 0 5.522-.234 23.624-19.003a7157 7157 0 0 1 32.191-33.09c10.675-10.895 17.999-19.172 18.409-20.804 2.696-10.742-7.864-19.611-16.564-13.912"/></svg>