<svg xmlns="http://www.w3.org/2000/svg" width="800" height="800" viewBox="0 0 800 800"><path fill-rule="evenodd" d="M360.655 128.459c-8.347 2.976-10.276 7.029-13.79 28.982-2.832 17.694-1.693 16.129-14.916 20.508-11.1 3.676-14.003 4.835-26.213 10.465l-5.764 2.657-14.736-11.182c-19.443-14.754-21.138-15.387-29.736-11.119-3.819 1.896-48.15 45.748-50.2 49.659-3.955 7.541-2.062 13.447 10.354 32.303 4.067 6.178 7.638 11.864 7.934 12.637s-1.349 5.392-3.656 10.267C215.131 283.779 209 299.279 209 301.271c0 3.556-2.772 4.697-19.957 8.214-19.879 4.069-22.651 5.307-25.821 11.538-2.26 4.441-2.276 4.758-2 39.556l.278 35.08 2.882 3.776c3.775 4.948 6.245 5.874 26 9.751l16.634 3.265 2.593 8.524c2.952 9.708 6.096 17.524 10.993 27.33 1.869 3.743 3.398 7.124 3.398 7.514s-4.5 7.874-10 16.631c-8.532 13.584-10 16.535-10 20.101 0 8.095 7.067 12.409 14.529 8.868 8.206-3.894 31.471-36.535 31.471-44.154 0-1.763-2.887-8.984-6.773-16.942-3.976-8.141-8.6-19.75-11.194-28.104-6.602-21.257-7.474-21.969-31.533-25.768-6.05-.955-12.021-2.115-13.268-2.576l-2.268-.839.268-24.199.268-24.2 6-1.267c3.3-.696 10.95-2.214 17-3.373 17.468-3.345 17.127-2.979 26.057-27.997 2.061-5.775 6.379-15.849 9.595-22.387 8.374-17.02 8.511-16.193-6.406-38.489l-8.949-13.375 16.98-16.875c9.34-9.281 17.468-16.874 18.063-16.874s3.462 1.924 6.371 4.275c26.926 21.762 26.246 21.566 44.148 12.738 13.068-6.444 18.66-8.593 34.011-13.064 16.178-4.714 16.846-5.644 21.136-29.449 1.487-8.25 2.908-15.338 3.158-15.75.672-1.111 47.109-.926 47.799.19.319.517 1.955 8.054 3.634 16.75 4.445 23.02 5.5 24.544 19.299 27.888 9.29 2.25 22.526 7.309 35.498 13.566 17.207 8.299 17.257 8.29 36.344-6.795C522.44 198.657 528.825 194 529.427 194c1.522 0 34.904 33.565 34.445 34.633-.204.477-4.016 6.267-8.47 12.867s-8.882 13.517-9.839 15.371c-4.86 9.417 6.699 20.674 16.054 15.636 3.326-1.791 4.501-3.283 12.602-16.007 2.451-3.85 6.801-10.679 9.667-15.175 10.871-17.057 10.989-16.752-17.533-45.325-24.805-24.848-27.909-27.534-33.589-29.063-5.234-1.41-8.803-.12-16.264 5.878-23.2 18.65-22.519 18.211-25.9 16.711-17.571-7.795-23.139-9.987-30.987-12.203-5.012-1.416-9.427-2.855-9.81-3.198-.383-.344-2.264-8.348-4.179-17.787-6.146-30.292-4.568-29.356-49.342-29.294-24.292.033-32.688.367-35.627 1.415M374 245.62c-67.443 12.246-112.074 77.832-98.111 144.174 3.361 15.967 13.375 38.909 18.871 43.232 4.14 3.256 12.305 2.756 16.044-.984 5.22-5.22 5.026-10.154-.788-20.016-3.348-5.678-7.287-15.477-9.656-24.026-2.874-10.367-2.608-37.81.471-48.5 14.868-51.631 67.552-81.583 120.336-68.413 12.581 3.139 17.941 2.065 21.873-4.386 8.071-13.236-8.36-21.655-43.54-22.308-12.194-.227-19.403.12-25.5 1.227m98.821 26.817c-33.358 5.877-63.132 27.443-77.667 56.254-7.304 14.478-11.389 33.846-11.013 52.219l.254 12.41-3.948 3.439c-2.171 1.892-17.897 13.957-34.947 26.811-43.365 32.693-63.957 48.328-79.013 59.991-7.143 5.533-20.637 15.852-29.987 22.93-25.159 19.045-33.839 26.746-39.149 34.733-14.749 22.186-12.077 49.844 6.649 68.828 20.48 20.763 48.412 22.663 72.152 4.91 2.602-1.946 16.137-14.771 30.079-28.5 53.844-53.025 107.61-105.446 115.178-112.3 8.98-8.131 9.925-8.366 19.027-4.724 27.067 10.828 58.458 6.97 85.021-10.45 26.933-17.663 43.191-45.241 47.115-79.923 1.302-11.51-5.073-17.96-13.463-13.621-2.471 1.278-25.95 17.677-48.508 33.882-12.04 8.648-11.578 8.774-31.928-8.706-16.923-14.537-16.347-13.21-14.087-32.448 2.151-18.296 2.627-19.248 13.601-27.172 22.826-16.483 33.271-24.01 41.939-30.225 11.721-8.402 14.122-11.935 11.645-17.13-4.507-9.45-35.491-15.342-58.95-11.208m145.653 46.335c-1.115.951-3.088 4.961-4.384 8.913s-3.727 8.846-5.401 10.876c-2.749 3.335-13.329 9.436-16.366 9.438-.648.001-2.109 1.184-3.246 2.631-3.89 4.945-.641 10.772 7.746 13.896 9.296 3.461 15.553 10.412 18.192 20.208 1.607 5.969 4.485 9.266 8.087 9.266 3.008 0 6.898-3.977 6.898-7.052 0-2.548 3.733-10.91 6.478-14.508 2.361-3.096 13.006-9.44 15.839-9.44 2.112 0 5.683-4.763 5.683-7.579 0-3.234-3.701-6.882-9-8.869-8.073-3.028-11.73-6.29-15.498-13.821-1.926-3.85-3.502-7.86-3.502-8.911 0-5.135-7.548-8.44-11.526-5.048m-57.576 131.511c-2.202 1.479-3.923 3.789-4.888 6.561-1.631 4.682-1.821 4.177 8.552 22.787l2.86 5.131-19.357 20.119C537.418 515.946 528.031 525 527.204 525s-6.724-3.69-13.104-8.201c-17.25-12.194-18.125-12.342-31.95-5.376-11.347 5.717-22.734 10.029-33.15 12.554-18.463 4.475-18.256 4.189-24.87 34.523l-2.835 13h-48.533l-2.781-7.879c-4.282-12.133-6.459-12.488-16.288-2.659-7.965 7.965-8.225 9.5-3.65 21.526 4.965 13.049 6.519 13.499 46.581 13.506 45.29.009 43.887.86 50.809-30.815 1.962-8.976 3.567-16.465 3.567-16.64s3.595-1.29 7.988-2.475c8.625-2.327 21.814-7.41 30.02-11.568l5.119-2.594 9.686 6.914c19.624 14.007 22.572 15.139 30.638 11.769 3.481-1.454 51.559-49.311 56.461-56.201 4.746-6.671 3.904-10.621-5.912-27.717-10.889-18.966-15.546-22.132-24.102-16.384M236.5 550.806c-19.256 8.155-21.57 32.45-4.069 42.707 19.068 11.174 42.289-8.084 34.832-28.888-4.41-12.302-18.937-18.828-30.763-13.819"/></svg>