<svg xmlns="http://www.w3.org/2000/svg" width="800" height="800" viewBox="0 0 800 800"><path fill-rule="evenodd" d="M568 131.536c-.825.167-5.1.826-9.5 1.465-15.645 2.27-42.063 8.638-54.303 13.091-3.134 1.14-7.137 2.501-8.897 3.023-17.636 5.241-53.746 23.492-74.8 37.807-29.925 20.347-67.22 56.135-85.851 82.383-3.269 4.605-4.537 5.687-6.135 5.236-5.432-1.534-25.471-2.703-37.514-2.188-23.466 1.003-42.055 7.795-57.962 21.178-8.468 7.125-51.113 50.993-53.783 55.325-5.07 8.23-1.853 21.212 6.397 25.81 3.694 2.059 5.256 2.159 39.015 2.49 19.342.189 35.464.642 35.828 1.006s-.499 3.878-1.917 7.809c-1.514 4.199-2.578 9.277-2.578 12.308v5.161l38.25 38.308c30.359 30.406 39.025 38.543 42.006 39.441 3.363 1.013 16.685-.035 22.532-1.773 1.942-.577 1.974-.24 3.191 33.584.967 26.848 1.433 32.423 3.159 37.75 2.843 8.775 3.533 7.797 2.442-3.466-1.028-10.622.209-27.508 3.01-41.068 12.645-61.217 63.7-108.92 124.41-116.242 13.374-1.613 13.85-1.891 26.289-15.37a5152 5152 0 0 1 13.05-14.104c25.618-27.285 53.225-76.609 64.087-114.5 9.862-34.401 14.06-61.11 13.282-84.5-.872-26.187-5.041-30.589-28.774-30.384-7.389.064-14.109.253-14.934.42m-110.176 99.007c-35.307 8.564-47.438 52.032-21.974 78.737 10.434 10.942 21.484 15.264 37.085 14.503 36.198-1.763 55.777-44.548 34.515-75.421-10.106-14.672-31.269-22.271-49.626-17.819M505.5 412.651c-24.506 3.534-45.807 11.903-62.728 24.645-79.915 60.18-60.034 185.182 34.728 218.355 24.353 8.525 56.747 8.717 81.084.48 35.709-12.085 66.13-42.049 78.818-77.631 9.111-25.553 9.332-56.84.577-82-14.49-41.645-52.127-73.589-96.479-81.885-8.151-1.525-30.565-2.748-36-1.964M230 440.983c-8.234 1.771-21.338 9.439-30.339 17.753-21.219 19.599-35.666 49.661-49.146 102.264-5.412 21.116-5.531 23.138-1.592 27.077 4.151 4.151 10.22 3.934 29.339-1.047 49.238-12.829 71.592-23.126 92.622-42.664C289.391 527.173 301.791 501.791 295 495c-3.512-3.512-5.99-2.537-13.5 5.311-11.958 12.496-26.73 20.835-42.708 24.109-20.695 4.241-29.045-1.84-26.642-19.406 2.566-18.767 14.357-41.458 27.279-52.498 5.98-5.108 6.74-7.347 3.571-10.516-2.11-2.11-6.371-2.443-13-1.017m277-.353c-52.927 6.839-91.597 55.685-85.127 107.528 5.221 41.831 32.84 73.322 73.627 83.947 12.761 3.324 35.092 3.383 47.5.125 67.31-17.674 95.578-97.891 53.96-153.123-13.292-17.64-31.152-29.708-52.96-35.786-8.446-2.354-28.386-3.804-37-2.691m48.5 44.257c-1.65 1.033-13.986 12.955-27.412 26.493l-24.413 24.614-10.101-9.828c-10.529-10.244-13.319-11.702-19.962-10.432-6.872 1.313-12.149 11.092-9.602 17.792 1.357 3.57 25.753 28.443 31.911 32.536 4.967 3.3 10.452 3.855 14.879 1.504 3.252-1.728 63.521-62.14 65.095-65.25 5.958-11.776-9.006-24.564-20.395-17.429"/></svg>