<svg xmlns="http://www.w3.org/2000/svg" width="800" height="800" viewBox="0 0 800 800"><path fill-rule="evenodd" d="M376.402 120.75C319.036 177.399 298 199.524 298 203.212c0 2.054.869 4.623 2.088 6.173 4.106 5.22 6.101 5.615 28.362 5.615H349v31.389c0 28.432.165 31.586 1.75 33.479 1.675 2.001 37.778 20.404 45.435 23.16 4.403 1.585 5.909 1.005 34.815-13.4l18.5-9.22.264-32.704.263-32.704h21.536c25.051 0 28.836-1.081 30.709-8.774 1.432-5.884-.228-7.847-45.025-53.206-49.487-50.108-50.51-51.02-57.196-51.02h-4.661zM183.299 266.878c-5.819 3.696-6.299 5.831-6.299 28v19.978l-14.832.322c-14.479.314-14.919.389-18.501 3.124-7.842 5.988-7.167-10.04-7.167 170.198v161l2.351 3.781c1.293 2.08 4.218 4.78 6.5 6l4.149 2.219 106.367.268 106.367.268 4.564 4.017c18.341 16.145 48.782 15.838 68.086-.686l3.976-3.403 103.82.017c109.519.018 108.753.05 114.425-4.723 6.342-5.336 5.949 5.854 5.937-169.376-.011-159.798-.014-160.06-2.073-163.718-4.096-7.279-7.583-8.602-23.719-9l-14.25-.352v-19.446c0-32.926-1.605-33.778-51.5-27.344-75.003 9.671-124.211 25.365-169.079 53.922-1.865 1.187-3.082.732-11.844-4.424-42.978-25.294-90.869-39.913-160.577-49.017-28.697-3.747-42.599-4.231-46.701-1.625M205 440c0 79.2.338 144.001.75 144.002 4.97.017 42.995 4.728 57.25 7.094 45.767 7.596 81.004 18.707 115.734 36.493 19.887 10.186 21.028 10.445 28.266 6.432 37.31-20.689 68.618-31.455 120.5-41.437 14.254-2.743 58.595-8.584 65.158-8.584 1.116 0 1.342-24.221 1.342-144V296h-2.107c-11.733 0-74.93 10.779-91.893 15.673-37.457 10.808-57.726 19.874-85.473 38.23-13.674 9.046-15.466 9.017-29.662-.472-26.2-17.512-63.406-32.818-100.365-41.287-16.992-3.894-69.753-12.133-77.75-12.142C205.091 296 205 303.523 205 440m-41 48v144h72.667c39.966 0 72.477-.189 72.246-.42-.69-.69-20.5-5.552-32.875-8.069-19.559-3.977-58.006-9.279-80.038-11.036-9.945-.793-14.517-2.635-17.114-6.895-1.812-2.971-1.879-7.637-1.882-132.33L177 344h-13zm458.996-15.25c-.003 125.853-.047 128.822-1.952 131.946-3.019 4.95-6.202 6.45-15.796 7.441-49.351 5.096-86.144 11.101-109.248 17.828l-6.5 1.893 73.25.071L636 632V344h-13zM512.323 359.069c-2.874.86-13.344 11.295-38.361 38.232l-4.538 4.886-5.962-3.957c-11.254-7.47-22.691-12.481-38.462-16.851-10.302-2.854-41.612-2.631-52.612.376-54.356 14.857-88.525 62.775-83.604 117.245 7.674 84.947 100.925 130.725 171.967 84.422 46.449-30.273 63.411-88.776 40.656-140.228l-2.48-5.609-10.196 10.196-10.195 10.195 2.255 8.762c11.989 46.591-13.899 91.981-59.15 103.707-36.544 9.47-73.994-5.487-93.21-37.225-14.631-24.166-16.062-54.895-3.712-79.72 21.976-44.172 78.406-60.045 120.106-33.783l5.325 3.354-5.629 6.079c-3.095 3.344-13.817 15.112-23.825 26.152-30.385 33.518-32.876 36.198-33.647 36.198-.41 0-6.906-5.912-14.437-13.139-15.134-14.521-18.16-16.19-25.057-13.819-4.988 1.715-7.171 3.885-9.167 9.113-3.089 8.088-1.765 10.222 19.877 32.054 21.993 22.186 25.135 24.169 34.365 21.692 1.839-.494 15.626-14.86 36.788-38.336 3.255-3.611 10.949-11.965 17.098-18.565s15.818-17.175 21.487-23.5 13.057-14.425 16.418-18 11.236-12.125 17.502-19 14.379-15.65 18.03-19.5C530.015 379.889 531 378.35 531 373.233c0-10.112-9.116-17.025-18.677-14.164"/></svg>