<svg xmlns="http://www.w3.org/2000/svg" width="800" height="800" viewBox="0 0 800 800"><path fill-rule="evenodd" d="M581.5 88.945c-3.728 1.526-5.323 4.531-7.841 14.766-8.383 34.078-34.551 61.829-66.659 70.691-17.147 4.733-17.373 4.838-19.395 8.978-4.164 8.53-.202 13.29 14.381 17.275 37.498 10.249 62.663 36.36 71.651 74.345 2.757 11.649 4.675 14.593 10.183 15.626 7.34 1.377 10.641-2.15 13.688-14.626 9.949-40.735 32.33-64.434 71.388-75.592 13.74-3.925 15.604-5.421 15.604-12.522 0-6.852-2.532-8.961-13.6-11.329-20.396-4.365-31.924-10.51-45.984-24.512-14.52-14.46-22.899-29.472-26.952-48.285-1.036-4.807-2.365-9.64-2.953-10.74-2.14-3.999-8.794-6.005-13.511-4.075M382 102.721c-16.892 3.034-26.869 6.641-44.925 16.244a4542 4542 0 0 1-26.575 13.992c-7.7 4.017-18.95 9.915-25 13.107-25.524 13.466-50.455 26.226-90 46.061-43.799 21.97-47.922 24.473-58.688 35.624-11.818 12.242-18.873 25.524-22.505 42.368-2.754 12.775-2.736 143.784.023 163.383 11.559 82.121 55.085 148.679 130.303 199.253 14.186 9.539 37.494 23.594 78.867 47.559 58.55 33.915 56.957 33.235 77.5 33.115 15.194-.089 23.825-2.551 37-10.556 4.675-2.841 22.225-13.126 39-22.856 53.441-30.997 74.272-44.108 95.732-60.25 62.953-47.354 101.223-110.003 111.95-183.265 2.454-16.759 3.152-152.284.853-165.605-2.243-13-8.144-26.69-15.472-35.895l-1.99-2.5-9.314 4.718c-8.737 4.426-15.759 9.772-15.759 12 0 .539 1.547 3.523 3.438 6.631 7.29 11.981 7.062 9.002 7.062 92.151 0 82.211-.208 85.719-6.598 111.5C631.971 519.736 594.28 569.378 534 608.199c-15.305 9.856-57.91 34.949-82 48.294-5.775 3.199-13.949 8.226-18.165 11.171C419.352 677.78 412.183 680.5 400 680.5c-12.239 0-16.72-1.67-32.514-12.119-4.942-3.269-14.161-8.909-20.486-12.531-85.222-48.811-92.633-53.615-121.099-78.494-42.85-37.449-69.743-86.884-77.689-142.808-1.489-10.482-1.712-21.475-1.712-84.548 0-81.495-.112-80.114 7.443-91.779 8.115-12.529 9.225-13.202 81.179-49.191 36.307-18.161 74.42-37.362 84.696-42.671S344.575 153.568 352 149.73c20.805-10.754 31.453-13.73 49.14-13.73 21.589 0 32.768 3.805 60.156 20.478 18.133 11.038 34.877 10.401 47.069-1.791 4.747-4.746 8.079-10.159 7.165-11.638-.303-.49-4.259-2.118-8.79-3.616-4.532-1.499-20.615-8.927-35.74-16.508-36.804-18.446-45.743-21.032-71.86-20.789-8.052.075-15.765.338-17.14.585m10 111.011c-81.982 2.921-153.499 61.449-172.883 141.483-24.103 99.515 33.208 199.462 129.383 225.636 25.773 7.015 57.491 8.864 81.997 4.781 58.821-9.801 108.716-46.372 135.976-99.666 38.668-75.595 20.23-170.934-43.637-225.642-39.13-33.52-80.843-48.374-130.836-46.592m-2.5 32.91c-21.149 2.41-30.37 4.352-43 9.054-60.03 22.346-100.604 81.134-100.48 145.588.14 73.521 49.099 135.087 119.98 150.877 14.874 3.313 50.422 3.361 65 .087 48.34-10.855 87.848-41.737 107.878-84.325 33.241-70.675 9.544-153.262-56.784-197.898-24.297-16.351-64.724-26.56-92.594-23.383m83.739 79.818c-2.344 1.34-16.069 14.491-30.5 29.224a29547 29547 0 0 1-48.331 49.21l-22.093 22.424-24.602-24.615c-23.305-23.316-24.897-24.701-30.182-26.237-14.607-4.246-28.72 6.726-27.229 21.169.8 7.754.741 7.683 37.546 45.299 31.375 32.068 33.627 34.148 38.495 35.563 5.727 1.665 9.396 1.079 14.942-2.386 1.768-1.105 29.579-28.469 61.801-60.81 50.376-50.56 58.75-59.378 59.75-62.917 5.125-18.126-13.976-34.855-29.597-25.924"/></svg>