<svg xmlns="http://www.w3.org/2000/svg" width="800" height="800" viewBox="0 0 800 800"><path fill-rule="evenodd" d="M386.5 110.94c-19.753 5.058-35.451 19.174-41.622 37.428l-1.736 5.132-20.321.5c-22.713.559-23.747.831-30.792 8.089-6.296 6.488-7.03 10.132-7.019 34.839.011 24.469.929 28.299 8.345 34.811 8.357 7.337-.691 6.761 106.145 6.761h96l4.134-2.211c5.594-2.992 10.262-7.843 12.778-13.278 2.882-6.226 3.154-47.132.354-53.14-2.482-5.325-6.369-9.553-11.621-12.641-4.537-2.667-5.105-2.742-24.449-3.23l-19.803-.5-2.298-5.658c-11.597-28.563-40.177-44.052-68.095-36.902m7.218 29.101c-11.834 2.945-20.441 13.634-21.489 26.69l-.503 6.269h56.552l-.532-5.863c-1.649-18.184-17.886-31.112-34.028-27.096M209 173.705c-32.719 5.656-57.374 30.99-61.912 63.617-1.787 12.848-1.493 360.663.314 371.678 4.354 26.538 20.778 47.506 45.429 57.996 14.29 6.081 13.575 6.048 125.169 5.763l101.5-.259.312-2.706c.283-2.455-.367-3.048-7-6.386-10.149-5.107-16.956-9.918-26.51-18.734l-8.198-7.564-82.57-.053c-79.013-.05-82.809-.136-88.077-1.988-7.766-2.729-14.687-8.163-19.415-15.245-7.638-11.437-7.093 4.583-6.803-199.866L181.5 236.5l2.722-5.537c3.76-7.649 8.789-13.217 15.761-17.452 8.805-5.349 15.862-6.473 40.767-6.494L262 207v-34l-25.25.136c-13.887.075-26.375.331-27.75.569M537 190v17l21.25.017c23.632.02 31.597 1.142 39.804 5.609 9.922 5.4 17.68 16.425 19.938 28.334.624 3.288 1.008 35.508 1.008 84.556v79.244l5.599 4.227c7.254 5.477 16.332 14.815 21.019 21.62 3.874 5.624 5.771 6.598 7.097 3.643.432-.962.56-46.75.285-101.75l-.5-100-2.724-8c-6.768-19.872-22.525-37.219-41.276-45.439-11.508-5.044-19.164-6.046-46.25-6.054L537 173zM223.605 291.915c-8.936 5.911-9.076 18.114-.282 24.526 4.347 3.17 258.378 3.772 264.542.628 9.231-4.71 10.724-16.298 3.046-23.654l-3.042-2.915-130.685-.25c-127.297-.243-130.759-.2-133.579 1.665m1.81 68.506c-9.571 4.168-11.579 16.916-3.817 24.236 4.797 4.524 4.111 4.498 106.98 4.151l91.079-.308 3.582-2.733c9.347-7.13 7.752-20.833-2.957-25.396-4.714-2.009-190.248-1.961-194.867.05m209.562 50.447c-27.171 6.119-47.791 26.502-55.77 55.132-2.384 8.555-2.994 113.916-.726 125.428 6.164 31.283 28.479 54.278 58.357 60.134 11.162 2.188 139.831 2.108 150.347-.093 20.908-4.377 39.871-19.351 49.348-38.969 8.23-17.038 7.967-14.343 7.967-81.5v-59.5l-2.35-7.5c-8.65-27.613-30.332-48.172-56.358-53.44-11.948-2.418-139.868-2.157-150.815.308m-208.855 18.506c-9.31 3.368-12.306 15.037-5.939 23.131 4.369 5.555 3.607 5.495 69.637 5.495h60.884l3.306-2.25c10.787-7.341 9.629-22.129-2.062-26.352-4.914-1.776-120.924-1.797-125.826-.024M570.5 467.886c-1.65 1.034-3.868 2.944-4.928 4.247s-8.94 9.567-17.51 18.367-25.311 25.987-37.202 38.192l-21.621 22.193-16.662-17.349c-17.871-18.608-21.321-21.102-27.958-20.212-6.15.825-13.619 8.86-13.619 14.651 0 6.375 1.213 7.876 27.763 34.347 33.542 33.442 29.728 33.114 57.393 4.94 52.689-53.658 74.995-76.855 76.559-79.616 3.093-5.464.879-12.269-5.869-18.046-4.977-4.26-11.233-4.916-16.346-1.714"/></svg>