<svg xmlns="http://www.w3.org/2000/svg" width="800" height="800" viewBox="0 0 800 800"><path fill-rule="evenodd" d="M177.5 167.915c-20.628 5.211-35.09 18.633-42.112 39.085-1.822 5.309-1.888 11.53-1.888 179v173.5l2.656 7.266c6.735 18.425 22.078 32.483 40.084 36.728 9.924 2.34 428.573 2.242 439.063-.103 20.774-4.644 37.701-22.247 42.206-43.891 2.192-10.535 2.178-277.571-.016-288-4.114-19.557-19.722-35.939-39.035-40.969-5.108-1.33-20.456-1.531-117.103-1.531-121.872 0-119.233.119-131.187-5.915-9.176-4.632-14.573-9.135-31.168-26.002-19.929-20.257-28.21-25.799-44.168-29.561-10.187-2.401-107.56-2.075-117.332.393"/></svg>