<svg xmlns="http://www.w3.org/2000/svg" width="800" height="800" viewBox="0 0 800 800"><path fill-rule="evenodd" d="M377.5 142.668c-77.057 6.389-136.553 31.852-186.245 79.707-35.109 33.812-58.105 77.611-65.431 124.625-2.274 14.596-1.755 54.926.895 69.5 7.744 42.591 28.364 82.167 59.753 114.683l8.382 8.682-1.498 6.318c-7.138 30.095-12.727 58.209-12.787 64.317-.133 13.461 9.997 23.495 23.728 23.503 5.106.003 7.595-.797 32.703-10.508C267.198 611.815 293.979 602 295.651 602c1.076 0 6.657 1.583 12.403 3.519 45.897 15.459 108.146 18.595 157.446 7.932 25.329-5.478 50.97-14.469 71-24.896 110.53-57.54 162.757-166.39 130.543-272.073C640.148 228.25 552.765 160.227 447.5 145.58c-21.076-2.933-53.49-4.281-70-2.912"/></svg>