<svg xmlns="http://www.w3.org/2000/svg" width="800" height="800" viewBox="0 0 800 800"><path fill-rule="evenodd" d="M132.5 135.399c-10.539 3.333-17.463 9.791-21.086 19.67-2.191 5.972-2.636 327.625-.463 334.431 2.027 6.345 6.942 13.33 11.669 16.583 9.144 6.291-.212 5.917 148.039 5.917h135.407l4.717-2.421c2.594-1.332 6.267-3.582 8.161-5 4.613-3.454 5.529-3.318 13.603 2.007 8.534 5.629 22.29 12.276 32.953 15.923 32.549 11.131 75.088 9.673 104.306-3.575 9.611-4.358 10.055-4.22 17.537 5.474 10.321 13.37 10.147 13.013 8.683 17.887-1.868 6.217-1.439 12.264 1.189 16.757 1.257 2.15 13.085 18.177 26.285 35.617s27.75 36.686 32.333 42.77c13.312 17.669 16.567 20.422 27.439 23.212 20.202 5.183 41.843-11.658 41.684-32.439-.076-9.894-2.203-13.706-23.188-41.54-58.849-78.058-54.295-72.961-65.358-73.141-4.725-.077-6.824-.588-8.483-2.066-2.814-2.509-14.927-18.476-14.927-19.677 0-.499 2.162-3.243 4.804-6.098 21.919-23.679 33.268-45.195 38.856-73.666 15.337-78.148-33.063-153.364-109.735-170.531-4.967-1.112-14.288-1.841-28.153-2.202-14.643-.38-21.249-.919-22.5-1.833-1.63-1.19-1.812-4.497-2.272-41.126-.573-45.682-.457-45.062-10.127-53.756-10.445-9.391 6.766-8.585-181.661-8.509-130.695.053-166.557.334-169.712 1.332m8.735 26.638c-1.245.5-2.716 2.097-3.267 3.548-.66 1.735-.912 56.191-.736 158.991.255 148.558.357 156.442 2.054 158.138 1.693 1.694 8.271 1.796 127 1.971 68.868.102 126.702-.065 128.521-.371 1.941-.328 3.945-1.532 4.853-2.917 1.776-2.712 1.872-2.513-7.66-15.822-26.955-37.632-32.564-91.687-14.273-137.574 13.921-34.926 44.316-65.417 78.773-79.022 4.4-1.737 8.563-3.879 9.25-4.76.95-1.217 1.25-10.793 1.25-39.956v-38.354l-2.455-2.454-2.454-2.455-159.296.063c-93.173.037-160.235.441-161.56.974m195.838 42.598C335.008 207.26 335 207.641 335 305.18v97.911l2.388 2.388c2.909 2.909 8.263 4.043 13.334 2.826l3.778-.907-.203-8.949c-1.132-50.034 12.728-89.299 43.141-122.216l8.562-9.267v-59.674l-2.452-2.646-2.453-2.646h-61.95zM254.75 240.08c-4.813 2.804-4.75 1.692-4.75 83.305 0 47.266.372 77.465.975 79.049 2.306 6.065 4.865 6.559 34.025 6.559 29.305 0 31.649-.463 34.141-6.743 1.177-2.968.457-155.528-.749-158.67-1.584-4.13-4.97-4.581-34.092-4.55-17.015.019-28.479.426-29.55 1.05m242.75 26.535c-47.93 4.958-89.45 43.381-100.175 92.702-2.485 11.428-2.473 36.991.023 48.479 10.479 48.228 47.828 84.424 95.751 92.794 12.378 2.162 35.767 1.438 47.401-1.467 61.578-15.377 98.56-71.077 89.055-134.127-7.056-46.807-42.84-85.148-89.715-96.126-8.192-1.918-32.884-3.233-42.34-2.255m-327.791 23.162c-1.535.947-3.009 2.623-3.276 3.723-.268 1.1-.362 26.507-.21 56.46l.277 54.461 3.398 2.289c3.332 2.246 3.919 2.29 30.3 2.29 29.288 0 31.874-.429 33.845-5.613 1.483-3.902 1.261-106.625-.238-109.915-2.347-5.152-4.36-5.474-34.005-5.445-24.063.023-27.631.231-30.091 1.75M562.4 322.841c-2.145 1.563-17.794 17.088-34.774 34.5C503.308 382.276 496.218 389 494.241 389c-1.872 0-5.851-3.283-15.652-12.913-14.057-13.811-16.919-15.433-23.095-13.085-11.465 4.359-15.859 15.15-9.609 23.598 4.773 6.452 39.402 40.185 42.43 41.333 3.888 1.473 8.279 1.334 11.485-.363 4.857-2.573 86.005-84.79 86.768-87.911 1.432-5.861-3.389-14.964-9.637-18.195-4.596-2.376-10.094-1.855-14.531 1.377M167.923 431.923c-5.264 5.264-3.711 15.267 2.787 17.956 2.057.851 27.45 1.084 96.627.887l93.837-.266 2.413-2.806c3.675-4.273 3.431-11.83-.51-15.771L360.154 429H170.846z"/></svg>