<svg xmlns="http://www.w3.org/2000/svg" width="800" height="800" viewBox="0 0 800 800"><path fill-rule="evenodd" d="M221.5 184.703c-27.152 6.39-48.204 23.038-58.949 46.616-6.777 14.87-6.552 10.145-6.544 137.389.007 111.218.069 115.051 2.001 123.11 7.55 31.495 33.333 56.076 64.269 61.274l7.464 1.254.524 23.577c.595 26.74 1.279 30.005 7.846 37.465 5.47 6.215 13.325 9.913 21.225 9.995 11.604.119 13.248-.809 38.753-21.883 7.322-6.05 16.076-13.25 19.452-16s13.251-10.798 21.945-17.885c8.693-7.087 16.978-13.497 18.41-14.244 2.146-1.12 21.078-1.36 107.604-1.366 113.604-.008 113.776-.016 127.357-5.413 24.714-9.824 42.931-30.897 49.157-56.866 2.77-11.556 3.114-232.775.38-245.029-6.47-29.004-28.126-51.483-57.921-60.121L575.586 184l-176.043.116c-96.824.064-176.943.328-178.043.587m1.77 28.351c-7.661 1.512-19.971 8.003-18.793 9.909.276.446-.282 1.424-1.238 2.174-1.574 1.233-1.609 1.197-.367-.387 3.19-4.067-1.072-1.325-5.439 3.5-5.801 6.41-10.978 17.213-12.376 25.827-1.381 8.514-1.409 218.717-.03 228.255 2.114 14.621 11.868 28.993 24.853 36.623 8.988 5.28 15.649 7.045 26.59 7.045 10.886 0 16.735 2.339 20.007 8 1.859 3.217 2.046 5.521 2.305 28.5.328 29.155.306 28.986 4.106 30.311 4.017 1.401 5.124.696 23.112-14.714 24.613-21.086 57.182-47.618 61-49.694 3.366-1.83 7.834-1.922 117-2.403 128.195-.565 115.461.3 129.329-8.785 11.149-7.304 19.12-19.373 21.579-32.673 1.518-8.211 1.526-223.801.008-232.108-3.368-18.439-18.324-34.006-37.376-38.902-6.678-1.717-345.679-2.174-354.27-.478m100.932 57.908c-27.744 7.496-47.662 32.253-50.736 63.062-1.355 13.581 4.446 34.766 12.793 46.721 5.888 8.432 105.934 109.014 109.265 109.85 4.224 1.06 10.098-.205 13.698-2.951 6.531-4.981 100.337-100.909 104.48-106.843C545.9 334.684 514.321 269 459.95 269c-23.045 0-42.678 10.927-58.394 32.5-1.438 1.974-1.479 1.968-3.14-.5-3.304-4.908-19.118-19.558-24.633-22.821-14.515-8.586-34.01-11.424-49.581-7.217"/></svg>