<svg xmlns="http://www.w3.org/2000/svg" width="800" height="800" viewBox="0 0 800 800"><path fill-rule="evenodd" d="M187.466 126.447c-34.567 5.373-62.253 30.184-72.595 65.058L112.5 199.5v402l2.154 7c11.027 35.831 40.482 61.097 76.32 65.467 14.338 1.748 408.195 1.362 419.526-.411 36.773-5.755 66.757-33.399 75.184-69.316 2.903-12.373 2.81-398.856-.099-410.224-9.308-36.374-38.431-62.597-75.085-67.606-14.035-1.918-410.679-1.884-423.034.037M189 157.56c-21.269 4.585-39.608 22.651-45.111 44.44-2.292 9.076-2.048 389.275.255 397.054 6.041 20.404 20.37 35.476 40.227 42.313l6.129 2.11 206 .291c230.11.324 213.08.83 228.287-6.782 15.641-7.828 27.082-22.812 30.774-40.301 2.206-10.449 2.151-383.169-.058-393.669-4.757-22.615-22.97-40.619-46.032-45.505-10.184-2.157-410.452-2.111-420.471.049m352.5 44.123c-26.081 3.33-65.375 18.976-92.991 37.025-33.056 21.606-65.015 57.557-88.708 99.792-2.777 4.95-5.106 9.071-5.175 9.157s-8.451 1.106-18.626 2.264c-42.977 4.893-48.562 8.146-76.287 44.443-33.861 44.328-35.564 47.248-30.078 51.563 3.194 2.513 6.952 2.616 21.865.6 28.15-3.805 56.521-6.531 56.488-5.427-.006.22-.676 2.875-1.488 5.9-2.693 10.035-2.13 13.745 2.798 18.421 7.129 6.765 52.446 40.477 55.411 41.221 1.846.463 4.753-.05 8.776-1.55 10.626-3.962 9.91-4.79 10.733 12.408 1.399 29.214 4.497 57.64 6.588 60.453 2.448 3.292 8.857 4.017 11.901 1.346 2.333-2.047 17.107-18.582 25.285-28.299 3.009-3.575 8.442-9.875 12.073-14C467.224 506.148 470 499.381 470 464.027v-22.552l15.075-14.988c64.339-63.966 88.975-124.609 81.38-200.32-1.59-15.857-3.384-22.523-6.51-24.196-1.737-.93-12.144-1.093-18.445-.288M463 279.875c-32.634 10.486-35.953 53.672-5.29 68.826 24.94 12.326 54.29-5.087 54.29-32.21 0-4.837-.631-10.029-1.529-12.573-6.892-19.535-28.09-30.271-47.471-24.043M287.884 489.497c-19.539 10.179-31.283 33.391-36.903 72.942-3.72 26.176-2.809 30.295 6.456 29.187 5.017-.6 23.736-6.3 30.533-9.298 33.484-14.766 47.452-26.81 54.608-47.085 5.426-15.374 2.712-20.371-20.078-36.969-6.05-4.407-12.44-8.746-14.2-9.643-4.923-2.509-14.735-2.092-20.416.866"/></svg>