<svg xmlns="http://www.w3.org/2000/svg" width="800" height="800" viewBox="0 0 800 800"><path fill-rule="evenodd" d="M265.312 140.791c-5.027 1.63-11.051 7.044-13.658 12.276-2.524 5.065-2.654 6.074-2.654 20.629V189h-26.816c-14.943 0-29.444.48-32.75 1.084-18.214 3.326-34.168 18.278-38.903 36.458-2.324 8.921-2.323 397.956.001 406.998 4.669 18.171 17.642 31.277 36.503 36.878 8.22 2.441 417.246 2.412 425.811-.03 18.369-5.237 32.399-19.599 36.614-37.481 1.32-5.599 1.512-31.182 1.525-202.927.015-195.6.005-196.555-2.052-203.98-3.679-13.274-12.184-24.105-24.414-31.09-8.839-5.048-15.47-5.91-45.466-5.91H552v-13.318c0-17.354-1.422-22.462-8.038-28.877-12.897-12.506-35.281-7.062-39.858 9.695-.601 2.2-1.095 10.412-1.098 18.25L503 189H297v-14.851c0-19.584-1.968-24.947-11.322-30.853-4.338-2.738-15.437-4.103-20.366-2.505M188.5 216.9c-2.2 1.021-5.443 3.375-7.207 5.232-5.755 6.056-6.293 9.264-6.293 37.494V285h450v-24.822c0-28.741-.602-31.833-7.555-38.786-6.013-6.013-8.239-6.38-38.695-6.386L552 215l-.006 12.25c-.003 6.738-.465 13.905-1.027 15.927-5.771 20.779-33.32 25.353-44.441 7.378-2.971-4.802-3.032-5.17-3.366-20.223L502.821 215H297v14.304c0 13.404-.164 14.632-2.603 19.528-8.263 16.58-32.07 17.561-41.871 1.725-2.974-4.806-3.031-5.152-3.346-20.223L248.859 215l-28.179.022c-25.319.02-28.586.21-32.18 1.878m-13.456 251.348c.036 128.754.286 157.932 1.383 161.004 2.135 5.983 6.423 10.769 11.956 13.346l5.117 2.382 205.884.01c160.033.008 206.801-.264 210-1.22 2.347-.701 5.886-2.997 8.233-5.34 7.974-7.962 7.42 5.256 7.136-170.447L624.5 311.5l-224.75-.252-224.75-.252zm45.575-111.201c-12.379 3.652-12.238 22.465.195 25.918 2.389.664 34.996 1.018 92.686 1.007 86.061-.015 89.142-.08 93.293-1.964 11.285-5.122 9.661-21.744-2.428-24.868-4.788-1.237-179.568-1.325-183.746-.093m291.836 19.408c-1.683 1.682-2.455 3.569-2.455 5.997 0 3.946 1.403 5.759 16.25 20.996 4.813 4.939 8.75 9.221 8.751 9.516s-13.901.411-30.891.258l-30.891-.277-3.161 2.659c-4.222 3.553-4.099 9.549.263 12.796 2.698 2.008 4.151 2.113 33.275 2.404l30.454.304-3.778 3.696C515.307 449.442 510 455.869 510 459.354c0 6.236 6.662 9.47 12.8 6.213 4.052-2.15 39.948-38.648 41.127-41.817 1.756-4.719-.301-7.523-20.225-27.567-23.426-23.567-25.868-25.108-31.247-19.728m-294.569 41.544c-6.587 3.481-8.741 11.928-4.616 18.103 4.598 6.883 4.683 6.895 48.73 6.895 45.236 0 44.721.085 48.746-8.018 3.367-6.778.815-14.061-6.072-17.33-5.674-2.692-81.611-2.387-86.788.35m164.379-.457c-28.998 7.809-42.709 38.825-29.158 65.957l2.071 4.148-12.746 17.926c-7.01 9.86-14.766 20.965-17.235 24.677-2.47 3.712-4.762 6.75-5.094 6.749-.332 0-3.971-.703-8.086-1.562-34.3-7.155-62.638 31.642-46.686 63.918 12.214 24.714 43.475 33.428 65.856 18.358 7.854-5.289 14.024-12.843 16.875-20.662l2.206-6.051h43.866c39.624 0 43.866.155 43.866 1.607 0 3.622 6.165 14.204 11.187 19.199 19.371 19.273 51.473 17.126 67.963-4.546 20.998-27.595 5.839-66.527-28.135-72.258-6.547-1.104-8.908-.917-20.147 1.597-2.936.657-2.087 1.574-12.585-13.599-3.615-5.225-10.75-15.362-15.856-22.527l-9.283-13.026 3.678-7.41c3.554-7.16 3.676-7.767 3.628-17.974-.041-8.648-.464-11.559-2.332-16.057-9.211-22.183-32.153-34.309-53.853-28.464m5.01 26.216c-17.867 7.368-17.253 30.771.967 36.822 9.676 3.214 20.982-3.271 23.773-13.636 3.904-14.498-11.286-28.734-24.74-23.186m-168.204 32.994c-9.446 4.816-10.475 17.28-1.944 23.531 2.345 1.717 4.992 1.981 24.584 2.453 32.142.773 38.73.058 43.515-4.727 6.703-6.703 4.34-18.74-4.261-21.703-6.11-2.104-57.62-1.734-61.894.446m332.084.852c-1.141.799-2.378 3.128-2.749 5.175-1.471 8.127-3.767 10.599-12.697 13.667-9.164 3.15-9.333 8.152-.35 10.414 7.374 1.857 11.539 6.355 13.004 14.045.862 4.525 2.314 6.095 5.637 6.095 3.389 0 4.532-1.355 5.455-6.465 1.415-7.832 5.904-12.229 14.303-14.008 7.504-1.589 6.619-7.694-1.455-10.041-6.801-1.977-10.725-5.666-12.306-11.569-2.108-7.873-4.83-10.123-8.842-7.313m-191.977 50.104-17.314 24.234 2.9 4.279c1.594 2.353 3.186 5.067 3.536 6.029.594 1.631 3.66 1.75 45.018 1.75H437.7l3.594-6.056 3.594-6.056-12.248-17.194c-6.737-9.457-14.385-20.232-16.995-23.944s-5.061-6.745-5.446-6.739-2.908.681-5.608 1.5c-6.506 1.973-16.9 1.836-23.095-.307l-5.004-1.73zm-61.446 34.369c-4.948 2.612-9.338 8.811-10.17 14.36-3.164 21.098 24.412 31.115 35.161 12.772 9.606-16.391-8.368-35.906-24.991-27.132m175.768-.656c-16.173 7.24-14.776 31.882 2.075 36.6 19.033 5.329 32.624-15.786 20.27-31.491-4.59-5.836-15.268-8.277-22.345-5.109"/></svg>