<svg xmlns="http://www.w3.org/2000/svg" width="800" height="800" viewBox="0 0 800 800"><path fill-rule="evenodd" d="M389.238 160.11c-27.692 4.614-49.566 24.599-57.339 52.39-2.086 7.457-1.798 26.418.525 34.5 2.55 8.874 8.643 20.473 13.927 26.511l4.386 5.011-30.849 52.928c-16.967 29.11-34.837 59.705-39.71 67.989-4.874 8.283-16.427 28.111-25.674 44.061s-17.197 29.501-17.667 30.113c-.617.803-2.735.583-7.596-.787-45.112-12.718-88.7 20.582-88.581 67.674.079 31.424 18.538 56.531 49.34 67.111 9.145 3.141 33.047 2.677 43.096-.837 22.199-7.763 39.028-25.231 45.304-47.024l1.656-5.75h241.601l1.173 5.085c3.632 15.736 16.122 32.01 31.819 41.462 18.466 11.12 45.691 12.566 65.15 3.46 39.998-18.718 53.844-67.719 29.333-103.813-8.723-12.845-25.825-24.626-41.132-28.333-10.897-2.64-30.873-1.381-41.028 2.586-1.11.433-2.553-1.255-5.277-6.175A652 652 0 0 0 554.102 455c-2.114-3.575-9.362-15.95-16.108-27.5-40.13-68.716-58.886-100.708-71.663-122.238-7.911-13.33-14.658-24.951-14.993-25.824-.396-1.031.815-3.048 3.46-5.762 15.118-15.518 20.68-44.057 13.115-67.301-9.983-30.678-45.802-51.741-78.675-46.265m.38 27.94c-20.807 5.217-34.849 26.917-31.145 48.134 7.358 42.148 63.546 49.654 81.889 10.939 4.802-10.135 4.686-25.455-.269-35.595-7.466-15.277-20.244-23.621-36.981-24.148-5.287-.167-11.359.135-13.494.67M572 223.342c-13.494 5.023-53.497 20.862-56.436 22.346-9.96 5.026-10.882 8.71-10.292 41.115.479 26.307.918 29.688 5.482 42.197 8.663 23.745 33.646 47.82 60.687 58.48 8.558 3.374 14.237 3.131 23.559-1.007 29-12.873 51.134-35.519 60.228-61.622l3.258-9.351.324-29.158c.428-38.462.961-37.323-21.411-45.746-6.545-2.464-20.224-7.687-30.399-11.605-21.831-8.408-25.848-9.056-35-5.649m-211.573 91.025C350.211 331.991 334.016 359.658 298.01 421c-20.031 34.126-37.352 63.557-38.358 65.177-.836 1.345-.213 2.576 3.147 6.221 7.572 8.214 14.589 21.403 16.676 31.344l.68 3.242 120.466.258 120.466.258.545-2.5c2.891-13.259 13.455-32.151 20.038-35.835 1.222-.684-.779-4.734-10.751-21.753-6.739-11.502-20.565-35.087-30.724-52.412a55661 55661 0 0 1-44.583-76.235c-19.726-33.796-26.479-44.589-27.612-44.136-11.994 4.798-12.254 4.844-27 4.826-13.08-.016-15.205-.272-21.701-2.619l-7.201-2.601zM201.176 498.07c-33.039 6.502-44.891 48.346-20.579 72.657 17.64 17.64 49.66 15.756 64.509-3.796 24.751-32.591-3.467-76.824-43.93-68.861m378.824.297c-24.862 5.424-39.094 32.599-29.917 57.126 13.141 35.122 64.165 37.058 80.269 3.045 15.667-33.088-13.689-68.168-50.352-60.171"/></svg>