<svg xmlns="http://www.w3.org/2000/svg" width="800" height="800" viewBox="0 0 800 800"><path fill-rule="evenodd" d="M384 161.706c-.825.302-2.512 1.47-3.75 2.596l-2.25 2.047v80.519l-16.922.316c-16.324.305-17.014.402-19.5 2.74-1.823 1.714-2.578 3.455-2.578 5.943 0 3.234 1.597 5.129 19.75 23.427C389.877 310.67 394.962 315 400.688 315h4.705l27.804-27.754C459.473 261.016 461 259.291 461 255.835c0-2.856-.674-4.224-3.077-6.246-3.028-2.548-3.328-2.589-19-2.589H423v-39.05c0-42.355-.115-43.314-5.472-45.755-2.646-1.206-30.458-1.611-33.528-.489M277 316.127c-34.375 10.446-64.525 19.709-67 20.584-5.988 2.116-11.401 7.852-12.853 13.619-1.448 5.752-1.553 56.245-.132 63.784 1.123 5.957 5.295 14.952 8.124 17.512 1.754 1.587 1.703 1.79-1.301 5.212-6.322 7.2-7.289 10.907-7.665 29.406-.403 19.768.501 25.018 5.628 32.696l3.754 5.621-3.269 4.286c-5.529 7.25-6.551 12.833-6.141 33.553l.359 18.151 3.249 6.474c7.482 14.912 13.983 18.93 47.747 29.506 9.9 3.101 27.675 8.713 39.5 12.473 11.825 3.759 29.6 9.385 39.5 12.502s26.298 8.329 36.44 11.581c23.385 7.499 28.642 7.49 32.543-.054 4.309-8.332.622-16.24-8.997-19.303A7618 7618 0 0 0 365 606.977a10102 10102 0 0 1-39.5-12.495 20034 20034 0 0 0-77.938-24.662c-24.469-7.685-26.567-10.122-26.534-30.82.019-12.334 2.034-18.475 6.423-19.577 3.14-.788-3.647-2.756 57.049 16.546 28.05 8.921 58.757 18.679 68.238 21.686 20.264 6.427 22.945 6.955 27.404 5.402 5.119-1.782 8.046-6.146 8.124-12.109.094-7.261-2.844-9.946-15.121-13.818-5.305-1.673-21.12-6.625-35.145-11.005-74.723-23.334-104.775-32.957-107.744-34.501-7.249-3.772-9.259-8.684-9.25-22.617.006-11.207 1.09-15.809 4.47-18.984 3.608-3.39 5.373-3.069 35.631 6.48 15.066 4.754 35.268 11.133 44.893 14.175 55.901 17.667 77.21 24.124 83.798 25.39 8.952 1.721 19.92.652 31.702-3.091 5.5-1.747 14.725-4.682 20.5-6.522s15.45-4.9 21.5-6.799 20.45-6.47 32-10.154 34.05-10.765 50-15.735 29.563-9.248 30.25-9.508c.978-.37 1.25 4.626 1.25 22.951v23.425l-5.383 1.697c-12.541 3.953-16.431 14.008-8.492 21.947 2.873 2.873 3.23 2.96 10.176 2.483 13.668-.94 22.913-5.859 26.803-14.262 3.112-6.721 2.841-70.89-.326-77.231-2.423-4.851-6.05-7.911-11.663-9.84l-3.615-1.242-.269-21.502-.269-21.503 3.788-.64c10.33-1.745 15.593-8.157 15.013-18.292-.326-5.686-.706-6.607-4.209-10.194-4.847-4.965-7.027-5.788-46.554-17.58a18430 18430 0 0 1-61.844-18.586c-17.49-5.298-31.094-8.89-33.674-8.89-7.836 0-13.143 6.953-11.378 14.907 1.279 5.764 4.264 7.613 20.396 12.63 26.972 8.388 78.856 24.199 85.427 26.033 7.95 2.218 12.186.493-41.427 16.869-24.2 7.392-57.926 17.742-74.947 23-17.02 5.259-32.272 9.561-33.892 9.561-3.404 0-6.964-1.017-46.161-13.191-60.686-18.848-87.387-27.12-98.712-30.582l-11.712-3.58 9.212-2.959c5.067-1.628 28.705-8.924 52.531-16.214 45.741-13.996 47.066-14.564 49.23-21.121 2.42-7.333-3.592-15.411-11.376-15.286-2.387.038-30.926 8.197-66.673 19.06m-55.667 57.448c-.306.796-.298 8.791.016 17.767.962 27.47.463 26.991 41.298 39.536 14.219 4.368 33.278 10.281 42.353 13.14 88.215 27.796 91.166 28.62 98.295 27.456 2.313-.378 10.505-2.698 18.205-5.157l24.5-7.823c17.901-5.717 41.19-12.971 75.001-23.364 17.875-5.494 33.738-10.46 35.25-11.035L559 423.05v-22.025c0-12.114-.337-22.018-.75-22.01s-4.35 1.147-8.75 2.531c-4.4 1.383-21.275 6.576-37.5 11.54s-34.225 10.544-40 12.402c-37.221 11.975-60.069 18.816-65.381 19.576-8.581 1.227-16.043-.164-37.619-7.012-21.346-6.774-41.072-12.965-73.5-23.068-12.65-3.94-30.65-9.57-40-12.509-32.656-10.266-33.553-10.5-34.167-8.9M475 495.399c-19.582 6.964-52.075 21.492-59.513 26.61-5.479 3.77-9.606 8.558-12.576 14.592-2.358 4.792-2.418 5.543-2.715 34.455-.338 32.92.369 39.144 5.755 50.654 10.58 22.607 34.368 44.395 64.181 58.783 21.753 10.498 32.958 8.406 63.224-11.804 26.162-17.469 43.083-38.444 48.685-60.35 2.622-10.252 2.914-56.223.419-65.879-3.165-12.243-10.252-19.625-25.112-26.157-59.404-26.11-64.25-27.341-82.348-20.904m.5 26.74c-46.149 19.683-46.809 20.016-49.306 24.874-3.65 7.104-2.912 51.01 1.032 61.366 6.912 18.151 24.379 34.609 52.048 49.044 11.459 5.977 13.997 5.977 25.452-.006 25.812-13.482 42.735-29.375 50.488-47.417l3.224-7.5.376-23.373c.425-26.396.054-30.53-3.09-34.391-2.915-3.579-59.261-27.741-64.655-27.725-2.043.006-8.699 2.198-15.569 5.128m39.388 35.36c-1.436.781-7.8 7.851-14.143 15.71-6.342 7.86-12.884 15.866-14.538 17.791l-3.006 3.5-6.922-6.671c-4.927-4.749-7.946-6.864-10.479-7.339-8.665-1.625-16.601 8.288-12.657 15.811.746 1.424 6.664 7.983 13.151 14.575 18.492 18.791 19.133 18.655 41.856-8.876 24.209-29.332 23.85-28.833 23.85-33.116 0-9.748-9.048-15.767-17.112-11.385"/></svg>