<svg xmlns="http://www.w3.org/2000/svg" width="800" height="800" viewBox="0 0 800 800"><path fill-rule="evenodd" d="M243.913 108.913C233.002 111.102 230 117.434 230 138.257v15.626l-35.25.309-35.25.308-7.5 3.627c-13.381 6.47-21.853 16.248-26.285 30.331L123.5 195.5V418c0 213.144.077 222.75 1.838 228.457 5.245 16.999 16.464 28.622 32.367 33.534 6.437 1.988 8.97 2.009 240.851 2.009 169.815 0 235.805-.31 239.645-1.125 16.298-3.461 31.548-17.787 35.991-33.813 2.619-9.444 2.833-446.297.224-456.418-3.398-13.179-12.268-24.49-24.318-31.011-9.686-5.241-12.811-5.608-47.848-5.621L570 154l-.01-15.25c-.011-18.075-1.706-23.546-8.623-27.846-3.667-2.28-4.701-2.404-20.023-2.404h-16.157l-3.843 3.106c-7.16 5.786-7.813 7.875-8.091 25.894l-.248 16-113.502.254-113.503.255V138.32c0-25.724-3.254-29.565-25.342-29.917-7.237-.116-14.772.114-16.745.51m41.202 88.356c-3.29 11.325-11.549 15.305-30.19 14.547-14.876-.605-20.769-4.135-24.545-14.701l-1.292-3.615-.034 4.5c-.064 8.407 4.973 16.442 12.2 19.462 5.967 2.493 28.826 2.162 34.319-.497 6.838-3.31 12.174-13.533 11.258-21.565-.3-2.628-.461-2.453-1.716 1.869m284.078.538c-3.282 10.813-12.152 14.792-31.174 13.984-14.051-.597-20.237-4.124-23.554-13.428l-1.377-3.863-.044 4.79c-.071 7.696 4.201 14.326 11.656 18.093 2.473 1.249 6.243 1.617 16.571 1.617 12.603 0 13.682-.158 18.8-2.75 6.825-3.457 11.266-11.028 10.745-18.32l-.316-4.43zM168.78 259.052c-2.045 1.081-4.858 3.64-6.25 5.688l-2.53 3.724V631.7l2.98 4.114c6.155 8.496-18.864 7.654 235.856 7.945 255.066.291 231.418 1.018 237.772-7.312l2.892-3.791.276-180.578c.152-99.318.033-181.582-.264-182.81-.793-3.272-6.49-9.361-10.214-10.917-2.685-1.122-41.732-1.343-230.016-1.307-223.426.044-226.837.073-230.502 2.008m317.72 33.334c-4.344 1.893-4.77 2.62-11.825 20.162C468.55 327.777 464.072 338 463.526 338c-.139 0-2.452.416-5.14.924-2.687.509-12.311 1.44-21.386 2.07-19.909 1.382-23.252 2.147-25.95 5.935-5.186 7.284-3.283 10.3 18.1 28.671 17.162 14.745 18.698 16.698 17.424 22.15-.999 4.275-5.587 21.057-7.684 28.105q-6.288 21.144 10.45 21.145c3.259 0 4.485-.694 27.823-15.75 6.503-4.195 12.313-7.246 13.788-7.242 1.519.005 8.81 4.05 18.049 10.014 21.298 13.748 25.257 15.123 31.775 11.032 4.566-2.865 5.67-6.245 4.264-13.054-1.253-6.071-7.68-29.172-9.124-32.797-2.71-6.803-2.248-7.484 15.23-22.423 21.476-18.357 23.68-21.278 20.677-27.404-3.152-6.428-3.458-6.503-38.145-9.336-7.052-.576-13.577-1.454-14.5-1.952-.922-.497-3.549-5.333-5.836-10.746s-6.298-14.932-8.912-21.154c-4.29-10.213-5.121-11.501-8.551-13.25-4.423-2.256-5.343-2.311-9.378-.552m-220.824 17.066c-14.818 5.284-39.179 27.696-47.053 43.288-14.189 28.096.37 72.402 41.547 126.429 51.18 67.152 131.771 126.029 179.032 130.793 27.337 2.756 44.895-7.216 66.85-37.966 9.837-13.779 11.294-17.459 10.735-27.121-.572-9.87-3.835-15.678-11.824-21.044-32.992-22.161-43.909-28.005-53.407-28.592-11.398-.705-16.742 1.858-27.86 13.361-10.155 10.507-12.94 11.928-21.803 11.124-19.561-1.774-75.765-53.476-92.61-85.193-6.992-13.166-5.227-20.883 7.668-33.531 8.762-8.594 11.116-12.874 11.778-21.423.641-8.267-.725-11.665-11.956-29.761-5.229-8.424-11.399-18.599-13.711-22.612-5.658-9.82-9.583-14.072-15.555-16.853-5.818-2.709-15.623-3.113-21.831-.899"/></svg>