<svg xmlns="http://www.w3.org/2000/svg" width="800" height="800" viewBox="0 0 800 800"><path fill-rule="evenodd" d="M255.994 101.874c-7.966 2.614-13.918 7.292-17.335 13.626-1.95 3.613-2.19 5.807-2.486 22.702l-.328 18.703-44.672.297-44.673.298-6.759 3.201c-13.059 6.187-22.553 18.241-24.677 31.333-1.799 11.09-1.409 448.672.407 457.246 3.857 18.199 18.587 32.145 36.723 34.768 8.774 1.269 480.49 1.235 488.306-.034 14.248-2.316 27.48-12.465 33.914-26.014l3.086-6.5v-464l-2.716-5.796c-3.743-7.99-12.868-16.902-21.482-20.982L646.5 157.5l-44.75-.306-44.75-.307v-16.262c0-18.44-1.11-23.91-6.072-29.909-10.372-12.541-33.665-12.345-42.869.361-4.962 6.85-6.059 12.3-6.059 30.105V157H291v-16.462c0-19.049-1.375-24.543-7.765-31.022-6.468-6.558-19.447-10.199-27.241-7.642M150.489 460.5c0 94.6.117 133.152.261 85.671s.144-124.881 0-172-.261-8.271-.261 86.329"/></svg>