<svg xmlns="http://www.w3.org/2000/svg" width="800" height="800" viewBox="0 0 800 800"><path fill-rule="evenodd" d="M188.209 119.525c-18.199 3.952-32.263 17.191-37.614 35.407-2.014 6.856-2.48 405.742-.485 415.269 2.705 12.919 13.556 27.191 25.484 33.518C188.11 610.357 179.237 610 331.65 610h138.23l-5.344-10.563c-11.932-23.591-20.27-57.634-22.211-90.687-.347-5.913-.954-10.75-1.348-10.75s-5.603 5.738-11.573 12.75c-38.165 44.828-42.844 49.223-52.404 49.235-8.478.01-12.008-2.116-31.192-18.785-11.301-9.82-14.298-14.745-13.572-22.3.706-7.349 2.539-9.831 33.264-45.043 15.95-18.279 38.631-44.287 50.403-57.796 11.772-13.508 23.393-26.771 25.825-29.471 2.433-2.701 7.641-8.689 11.574-13.309 8.141-9.56 11.567-12.027 17.914-12.897 6.767-.928 11.334 1.721 28.653 16.615l15.368 13.218 2.245-2.358c2.594-2.727 27.786-31.669 34.787-39.967l4.731-5.608-.017-88.892c-.015-73.35-.269-90.076-1.452-95.662-4.037-19.049-19.434-34.059-39.244-38.257-9.847-2.087-318.455-2.037-328.078.052m13.291 46.42c-5.986 2.45-5.972 2.367-6.313 37.909-.343 35.724-.135 37.23 5.558 40.277 3.753 2.008 300.567 2.046 304.09.039 4.738-2.701 5.165-5.84 5.159-37.888-.006-33.233-.405-36.137-5.392-39.219-3.334-2.061-3.506-2.063-152.22-2-81.885.035-149.782.432-150.882.882M625 284.443c-9.424 3.249-25.823 8.444-39.741 12.589-8.918 2.657-12.259 6.002-12.259 12.276 0 3.88.496 4.618 7.504 11.173 4.128 3.861 7.503 7.496 7.5 8.079-.004 1.048-3.872 5.801-15.006 18.44-3.15 3.575-14.19 16.4-24.534 28.5-26.026 30.445-30.576 35.5-31.955 35.5-.66 0-9.257-6.74-19.104-14.978-18.079-15.124-21.319-17.013-26.815-15.634-2.44.613-6.496 5.068-41.09 45.141-9.9 11.468-21.825 25.173-26.5 30.456-4.675 5.282-15.475 17.66-24 27.505s-18.047 20.787-21.159 24.314c-8.326 9.436-8.663 14.633-1.364 21.041 6.771 5.945 11.149 8.155 16.158 8.155 5.721 0 2.99 2.748 40.944-41.189 15.826-18.321 29.062-33.536 29.413-33.811s7.544-8.375 15.985-18 15.9-17.833 16.577-18.24c.763-.458 8.969 4.936 21.588 14.192 31.325 22.976 27.785 23.97 60.342-16.952 43.887-55.162 57.285-71.739 58.683-72.603.587-.363 3.152 1.491 5.7 4.12 7.059 7.282 11.624 8.768 17.855 5.811 5.853-2.778 5.721-2.093 9.412-48.828 1.829-23.169 1.823-23.235-2.453-27.153-4.73-4.335-8.878-4.317-21.681.096m-417.744 12.674c-4.383 1.266-9.919 7.008-11.198 11.614-.596 2.145-1.049 14.212-1.052 27.999-.007 27.857.533 30.475 7.293 35.372L206.3 375l31.6-.016c45.399-.024 43.6 1.543 43.6-37.984 0-14.025-.344-26.729-.764-28.232-1.083-3.867-6.408-9.604-10.503-11.315-4.06-1.696-57.283-1.98-62.977-.336m119.827.271c-4.816 1.74-9.859 7.913-10.602 12.978-.334 2.274-.466 15.465-.294 29.313.348 28.015.343 27.994 7.803 33.071 3.228 2.197 3.943 2.25 30.536 2.25 31.093 0 32.66-.303 37.217-7.186l2.757-4.165v-26.074c0-14.341-.344-27.304-.764-28.807-1.059-3.782-6.556-9.795-10.438-11.417-4.369-1.825-51.149-1.795-56.215.037M203.96 410.303c-8.284 4.38-8.96 7.033-8.96 35.142 0 39.254-.36 38.967 48.076 38.378l26.576-.323 4.146-2.746c7.51-4.973 7.702-5.84 7.702-34.827v-25.573l-2.816-4.256c-5.113-7.726-6.754-8.051-40.777-8.076-28.983-.022-29.682.025-33.947 2.281m360.425 45.678c-1.163.47-7.205 4.709-13.428 9.42-20.582 15.582-35.514 21.123-65.023 24.13-11.924 1.215-14.939 5.696-14.925 22.187.053 67.037 23.792 112.841 76.563 147.724 19.481 12.878 21.334 12.747 44.321-3.115 49.507-34.162 73.05-80.519 73.098-143.929.014-18.603-2.621-21.495-21.836-23.97-21.263-2.739-36.786-8.765-53.155-20.635-18.518-13.429-19.963-14.095-25.615-11.812"/></svg>