<svg xmlns="http://www.w3.org/2000/svg" width="800" height="800" viewBox="0 0 800 800"><path fill-rule="evenodd" d="M276 197.683c-41.75 4.766-78.461 37.232-89.699 79.325L183.5 287.5v162l2.389 9.489c10.39 41.261 42.58 71.988 82.111 78.38l7.5 1.213.5 24.959c.463 23.137.658 25.251 2.658 28.959 3.686 6.831 9.605 11.313 18.382 13.919 10.437 3.1 11.337 2.574 58.96-34.417 10.725-8.331 24.54-18.939 30.701-23.574L397.902 540l47.299-.004c58.734-.005 67.067-1.074 87.299-11.198 29.54-14.782 49.568-40.087 56.482-71.366 3.043-13.766 3.087-161.016.052-175.765-8.053-39.141-37.935-70.1-78.534-81.365l-10-2.775-110.5-.122c-60.775-.067-112.075.058-114 .278m-.5 24.881c-35.425 6.265-61.148 32.72-67.03 68.936-1.764 10.863-2.139 137.018-.451 151.753 3.183 27.781 19.291 51.062 43.448 62.797 11.09 5.388 15.032 6.468 30.711 8.419 19.283 2.399 18.49.145 18.752 53.281.053 10.855.374 14.25 1.347 14.25.702 0 4.864-2.837 9.25-6.304 10.78-8.523 34.816-26.866 58.649-44.757l19.675-14.771 52.825-.428c49.805-.403 53.29-.549 60.982-2.547 31.89-8.284 53.452-29.206 61.519-59.693 1.967-7.434 1.928-159.565-.043-167.5-7.497-30.182-30.205-53.247-61.332-62.295-7.217-2.098-8.538-2.125-113.802-2.339-88.104-.18-107.882.027-114.5 1.198m175 24.278c-5.458 3.337-7.557 8.212-7.694 17.873-.113 7.954 1.919 11.633 7.63 13.814 11.395 4.352 19.627-3.084 18.228-16.467-1.446-13.836-9.454-20.546-18.164-15.22m-72.655 18.065c-1.333 1.049-3.697 4.424-5.254 7.5-2.271 4.489-3.955 6.277-8.534 9.058-10.285 6.248-10.618 15.116-.771 20.52 5.952 3.266 7.617 4.899 10.214 10.015 3.184 6.275 5.892 8.455 10.5 8.455 4.804 0 7.444-2.271 10.767-9.264 2.177-4.58 3.323-5.712 8.353-8.252 10.909-5.506 11.897-15.25 2.082-20.526-5.966-3.206-8.003-5.261-11.239-11.33-4.278-8.028-10.656-10.472-16.118-6.176m123.066 12.823c-13.461 11.764-15.903 16.491-11.907 23.045 2.306 3.782 5.422 5.225 11.283 5.225 3.889 0 4.69-.54 12.379-8.352 10.736-10.906 11.842-15.569 5.171-21.8-4.963-4.637-10.124-4.063-16.926 1.882m-65.488 22.824c-4.588 1.538-38.605 35.682-41.011 41.164-3.613 8.233-2.378 10.218 20.645 33.177 19.254 19.201 21.701 21.096 27.243 21.101 5.867.006 7.95-1.598 26.843-20.679C488.362 355.909 489 355.065 489 349.041c0-4.554-5.496-10.877-31.557-36.306-13.179-12.858-15.753-14.282-22.02-12.181M313 308.709c-2.577.948-5.14 3.649-7.093 7.475-2.401 4.704-5.314 7.784-10.722 11.335-9.741 6.396-9.426 15.275.765 21.545 3.376 2.077 6.08 4.935 8.849 9.351 7.231 11.532 15.125 11.404 22.671-.368 3.084-4.811 5.78-7.644 9.384-9.862 10.789-6.639 10.666-14.051-.359-21.644-3.911-2.694-6.63-5.583-8.691-9.235-4.571-8.098-9.064-10.707-14.804-8.597m117.635 29.97c-9.976 10.044-10.302 7.589 2.804 21.073l8.02 8.251 9.271-9.233 9.272-9.232-9.732-9.769c-5.353-5.373-10.021-9.769-10.373-9.769-.353 0-4.52 3.906-9.262 8.679m87.679-6.729c-9.602 5.855-6.227 18.891 5.339 20.625 16.898 2.534 27.022-5.028 21.712-16.218-2.346-4.944-5.809-6.358-15.565-6.353-6.454.003-9.009.436-11.486 1.946M374.5 367.895c-1.65 1.038-24.003 22.974-49.674 48.746-49.874 50.072-49.294 49.374-47.368 57.048.758 3.019 31.355 34.608 35.742 36.9 4.488 2.345 10.001 1.78 14.4-1.475 2.145-1.587 24.43-23.524 49.523-48.75 48.81-49.068 48.571-48.778 45.91-55.778-1.018-2.678-29.709-32.146-35.377-36.336-3.752-2.773-9.084-2.917-13.156-.355m-31.45 65.555-36.439 36.449 6.389 6.023c3.514 3.313 6.639 5.813 6.944 5.557.306-.256 16.867-16.781 36.803-36.722l36.248-36.257-6.056-5.75c-3.331-3.163-6.369-5.75-6.753-5.75-.383 0-17.094 16.402-37.136 36.45m140.207-33.013c-1.732 1.458-3.976 4.864-4.985 7.57-3.088 8.278-7.423 13.42-14.783 17.536-14.16 7.919-14.012 16.975.416 25.401 7.739 4.52 10.94 8.106 15.114 16.931 6.2 13.11 16.516 12.558 22.901-1.226 3.687-7.96 7.112-11.713 14.992-16.428 13.34-7.982 13.241-17.049-.269-24.604-7.797-4.36-10.893-7.864-15.109-17.1-3.801-8.325-5.156-9.607-10.831-10.247-3.595-.405-4.809-.052-7.446 2.167"/></svg>