<svg xmlns="http://www.w3.org/2000/svg" width="800" height="800" viewBox="0 0 800 800"><path fill-rule="evenodd" d="M247.992 173.953c-20.498 2.723-37.381 17.498-43.397 37.979-1.434 4.883-1.595 23.514-1.595 184.593 0 176.696.028 179.242 2.005 184.989 5.238 15.225 16.254 26.242 31.476 31.479 5.704 1.963 8.415 2.004 135.92 2.038 71.554.019 131.607.02 133.449.002 9.472-.093 13.755-13.362 6.617-20.5L508.933 591H379.648c-144.822 0-135.962.439-144.19-7.146-8.691-8.01-7.958 9.42-7.958-189.354v-176l2.36-4.5c3.221-6.141 6.722-9.699 12.64-12.843l5-2.657 96.694-.279 96.693-.278.307 28.778c.349 32.811.813 34.899 9.966 44.845C462.152 283.509 467.787 285 501.926 285h26.99l.292 30.078.292 30.078 3.735 3.422c5.339 4.891 11.488 4.899 16.365.022l3.4-3.4.069-13.85c.29-58.469.119-61.006-4.765-70.833-3.326-6.693-73.565-77.17-80.256-80.529-13.913-6.984-4.448-6.44-115.048-6.612-54.725-.085-101.978.175-105.008.577m217.014 53.082c.003 9.606.462 19.108 1.019 21.117 1.456 5.24 7.537 10.374 13.908 11.74 5.904 1.266 32.928 1.483 34.825.279.883-.561-.904-2.851-6-7.693-3.992-3.791-15.47-14.997-25.508-24.9L465 209.571zm-89.618 61.348c-5.028 3.66-5.516 12.269-.94 16.569 1.431 1.344 5.951 3.214 11.074 4.581 8.824 2.356 11.322 3.457 7.895 3.48-2.857.019-12.996 3.394-20.86 6.943-30.172 13.617-56.032 40.291-69.118 71.295-10.635 25.194-11.587 39.627-2.878 43.595 7.482 3.409 15.439-2.485 15.439-11.437 0-1.461 1.599-7.438 3.552-13.282 10.441-31.233 30.967-54.511 61.442-69.678 8.902-4.43 25.034-10.754 25.709-10.079.197.196-2.393 4.419-5.754 9.385-8.908 13.162-8.999 21.237-.279 24.88 7.443 3.111 9.911 1.191 20.099-15.635 3.829-6.325 9.487-15.489 12.573-20.365 12.146-19.191 8.687-23.507-28.725-35.838-16.748-5.521-25.826-6.892-29.229-4.414m115.999 80.867c-5.321 3.574-7.456 7.657-9.444 18.059-.927 4.855-1.548 5.988-3.776 6.892-1.467.596-5.915 2.565-9.886 4.377l-7.218 3.294-6.247-3.122c-7.553-3.774-15.099-4.689-19.575-2.374-3.407 1.761-14.969 14.098-19.408 20.706-4.842 7.21-3.792 13.621 3.726 22.753 4.868 5.913 4.927 6.111 3.357 11.172-.596 1.921-1.618 5.743-2.27 8.493-1.158 4.877-1.319 5.042-6.53 6.718-13.778 4.43-17.541 12.684-13.581 29.782 4.222 18.224 9.724 24 22.867 24h6.481l3.182 5.97c1.75 3.284 5.788 8.642 8.974 11.908 5.665 5.807 5.772 6.022 4.9 9.78-2.672 11.516.15 20.844 7.581 25.058 13.218 7.496 25.864 10.094 32.896 6.757 3.43-1.628 16.382-15.589 19.299-20.802 3.067-5.483.577-13.355-5.072-16.036-6.963-3.304-12.702-.989-18.684 7.539-4.345 6.194-6.635 7.142-10.581 4.379-2.006-1.406-2.023-1.651-.58-8.368 2.078-9.678 1.421-11.232-9.137-21.624-6.532-6.428-10.337-11.166-13.1-16.306-2.141-3.985-4.637-7.919-5.546-8.742-1.772-1.603-10.215-3.513-15.53-3.513-2.675 0-3.464-.536-4.512-3.066-1.632-3.939-.446-5.163 7.073-7.297 7.433-2.11 9.392-4.511 11.943-14.637 1.177-4.675 3.237-11.564 4.576-15.31 3.942-11.023 3.15-15.006-5.012-25.211-2.774-3.468-2.86-3.841-1.466-6.325 2.112-3.764 4.269-3.776 11.235-.063 9.113 4.857 13.405 4.629 21.774-1.159 7.107-4.915 9.348-5.953 18.067-8.369 7.68-2.127 10.274-5.349 11.896-14.773 1.321-7.682 3.067-10.79 6.061-10.79 2.382 0 3.498 2.311 4.349 9 1.449 11.384 3.999 14.315 15.613 17.942 3.07.959 8.909 3.896 12.975 6.526 9.98 6.456 12.958 6.751 21.836 2.156 8.304-4.297 9.058-4.369 12.079-1.153 2.587 2.753 2.911 1.943-4.257 10.645-5.512 6.692-6.278 10.395-3.638 17.573 4.274 11.618 5.926 20.479 6.178 33.144l.245 12.333 3.242 2.896c6.191 5.53 14.522 4.67 18.975-1.96 4.091-6.09 3.208-26.929-1.884-44.485l-1.997-6.884 3.111-4.116c10.916-14.443 11.27-17.528 3.256-28.342-14.368-19.385-22.083-22.591-37.257-15.482l-6.322 2.963-6.574-3.299c-3.616-1.815-7.78-3.602-9.253-3.972-1.854-.465-2.836-1.491-3.189-3.329-.28-1.461-1.008-5.216-1.617-8.344-2.55-13.099-8.521-16.812-27.035-16.812-12.703 0-12.74.007-17.569 3.25m6.518 74.583c-31.683 10.505-36.224 51.271-7.63 68.49 28.779 17.329 64.633-10.509 54.749-42.51-6.342-20.534-27.824-32.379-47.119-25.98M270.289 464.25c-7.689 5.435-7.059 17.258 1.126 21.142 3.144 1.492 8.548 1.634 52.794 1.385l49.291-.277 3.225-2.3c6.376-4.548 6.739-12.936.816-18.859L374.2 462H273.472zm234.211 3.17c-10.129 4.474-11.392 18.017-2.201 23.62 12.907 7.871 26.953-9.939 15.957-20.235-2.465-2.308-4.009-3.031-9.256-4.337-.825-.205-2.85.223-4.5.952m-235.294 43.06c-6.412 5.395-6.681 13.14-.64 18.444L272.07 532h49.497c53.144 0 54.289-.101 57.802-5.117 3.471-4.956 1.608-13.707-3.594-16.879-3.158-1.925-5.066-1.997-53.448-2L272.153 508zm271.093 18.48c-6.223 3.794-6.419 4.97-6.093 36.658l.294 28.549 3.266 2.916c2.754 2.46 4.112 2.917 8.673 2.917 10.127 0 13.545-5.373 13.555-21.306l.006-8.806 8.223 8.806c20.376 21.82 19.744 21.306 26.21 21.306 10.961 0 16.215-9.529 9.853-17.87-3.191-4.184-2.88-3.847-16.036-17.326-5.638-5.775-10.25-10.794-10.25-11.152 0-.359 3.87-.652 8.6-.652 8.447 0 8.66-.06 12-3.4 6.075-6.075 3.943-17.216-4.017-20.994-5.567-2.641-49.845-2.353-54.284.354"/></svg>