<svg xmlns="http://www.w3.org/2000/svg" width="800" height="800" viewBox="0 0 800 800"><path fill-rule="evenodd" d="M389 146.495c-20.974 4.732-37.628 21.505-40.524 40.814l-.703 4.691h-21.321c-12.634 0-22.469.433-24.137 1.064-6.156 2.326-11.315 9.541-11.315 15.825v2.953l-29.25.405c-33.112.458-33.635.561-45.125 8.906-7.202 5.231-12.824 12.955-16.202 22.263L198 250.091v331.834l2.147 5.787c4.106 11.067 12.427 20.223 23.444 25.798l5.909 2.99h147.653l3.424-3.735c4.471-4.879 5.058-12.66 1.348-17.87-4.311-6.055-2.23-5.895-76.626-5.895H237.4l-4.188-2.716c-7.827-5.075-7.196 9.573-7.342-170.483-.122-151.898-.027-161.601 1.621-164.85C232.758 240.565 234.717 240 265.46 240H291v15.821c0 19.318 1.785 24.401 10.421 29.674l4.921 3.005 91.915.265c63.36.183 93.158-.069 95.918-.812 5.203-1.401 11.981-8.165 13.595-13.569.738-2.469 1.23-10.173 1.23-19.25V240h25.05c26.757 0 28.135.219 33.795 5.367 5.953 5.415 5.635.436 5.872 91.87.193 74.105.4 84.088 1.799 86.794 4.645 8.982 19.214 9.381 24.524.67 3.157-5.176 3.037-168.96-.131-179.346-4.044-13.262-14.282-24.756-26.754-30.036l-6.655-2.817-28.75-.307-28.75-.308-.022-2.693c-.036-4.39-3.492-10.722-7.539-13.81l-3.778-2.884-22.622-.301-22.622-.301-1.822-7.199c-6.883-27.197-34.488-44.32-61.595-38.204m5.236 28.434c-4.968 1.255-10.908 5.618-13.977 10.266-2.653 4.018-2.759 4.673-2.759 17.071v12.894l-3.266 2.92-3.266 2.92H320v38.912l80.25-.206 80.25-.206.272-19.25.271-19.25H428.8l-3.535-3.535-3.534-3.534.83-6.716c1.186-9.601.817-14.554-1.41-18.919-5.165-10.125-16.826-15.916-26.915-13.367m-89.205 147.776c-1.489.296-7.693 5.893-15.621 14.091l-13.151 13.6-3.105-2.613c-8.768-7.377-21.154-2.527-21.154 8.284 0 4.337.517 5.451 5.079 10.932 9.047 10.871 15.495 14.347 22.088 11.906 4.116-1.524 36.688-31.981 39.987-37.39 5.964-9.779-2.547-21.115-14.123-18.81M370 333.121c-9.081 3.61-12.356 14.28-6.797 22.144 4.276 6.049.204 5.795 88.353 5.502l80.588-.267 3.928-4.211c6.868-7.363 4.798-17.753-4.425-22.218-4.218-2.042-5.372-2.07-81.713-2.008-48.811.04-78.358.431-79.934 1.058m-66.656 67.925c-2.363 1.177-9.152 7.259-15.736 14.097-10.963 11.385-11.673 11.935-13.305 10.303-7.879-7.879-22.303-3.218-22.303 7.207 0 5.983 1.58 8.667 9.723 16.518 7.39 7.125 11.113 8.683 17.435 7.294 3.185-.699 33.435-28.908 39.581-36.909 7.867-10.243-3.81-24.282-15.395-18.51M370 409.025c-10.357 2.428-12.935 16.435-4.404 23.925l3.474 3.05h43.057l10.687-4.523c12.76-5.401 15.64-8.059 14.878-13.735-.647-4.824-2.915-7.432-7.592-8.731-4.281-1.189-55.018-1.177-60.1.014m118.5-.126c-1.65.446-13.041 5.377-25.314 10.956-12.273 5.58-22.47 10.145-22.661 10.145s-3.649 1.532-7.686 3.404c-4.036 1.873-14.087 6.391-22.335 10.042-15.861 7.021-19.772 9.842-24.339 17.554l-2.665 4.5.021 46.5.02 46.5 2.755 9c10.064 32.882 32.782 59.64 69.539 81.906 34.513 20.906 43.579 21.218 76.025 2.62 33.979-19.475 60.885-47.255 70.526-72.815 6.525-17.296 6.812-19.885 7.055-63.624.256-46.056-.036-49.722-4.504-56.686-3.977-6.197-8.556-9.357-21.937-15.139-5.775-2.495-26.025-11.378-45-19.739-36.224-15.962-41.006-17.424-49.5-15.124m2.924 28.042c-2.717.957-5.836 2.259-6.931 2.894-2.276 1.319-16.048 7.684-34.993 16.173-24.413 10.938-36.792 16.856-38.19 18.254-2.53 2.53-1.874 75.225.766 84.828 7.84 28.526 32.281 54.283 69.81 73.572 13.412 6.893 14.821 6.887 28.499-.126 30.037-15.401 54.642-38.3 65.58-61.036 6.489-13.488 7.035-18.027 7.035-58.497 0-27.749-.303-37.021-1.25-38.273-.949-1.254-75.588-35.942-83.819-38.954-.863-.316-3.791.208-6.507 1.165m-21.913 46.079C447.269 490.12 434 508.06 434 531.029c0 13.801 4.715 24.901 14.89 35.054 15.255 15.22 37.372 19.098 56.596 9.924l6.752-3.223 7.631 7.497c4.197 4.123 8.614 7.997 9.815 8.608 7.915 4.027 17.515-3.685 15.822-12.71-.517-2.754-2.792-5.799-9.453-12.653l-8.773-9.026 1.809-3.005c2.724-4.524 4.911-14.111 4.911-21.524 0-31.949-33.983-56.69-64.489-46.951m-211.748 8.545c-5.574 3.025-7.999 13.373-4.416 18.842 4.109 6.27 2.563 6.093 53.109 6.093H352.5l3.172-2.263c7.352-5.244 7.692-15.076.732-21.187L352.93 490l-46.215.04c-38.927.034-46.647.274-48.952 1.525m219.533 12.856c-30.853 7.539-25.1 53.488 6.704 53.547 26.981.051 37.897-35.662 15.284-50.003-3.917-2.484-5.997-3.128-14.284-4.424-1.375-.215-4.842.181-7.704.88"/></svg>