<svg xmlns="http://www.w3.org/2000/svg" width="800" height="800" viewBox="0 0 800 800"><path fill-rule="evenodd" d="M371.5 174.533c-48.38 6.326-92.412 27.106-125.757 59.348-11.204 10.833-12.958 14.274-10.401 20.395 2.61 6.247 10.442 9.474 15.974 6.582 1.201-.628 5.784-4.576 10.184-8.773 77.293-73.724 198.032-72.914 274.865 1.844 34.283 33.357 53.772 74.761 57.492 122.145 1.018 12.953 2.511 16.96 7.442 19.966 6.145 3.747 11.989 2.033 17.821-5.226 4.922-6.127 26.357-35.884 27.732-38.498 4.651-8.847-3.125-18.869-13.109-16.895-4.433.877-5.589 1.921-11.93 10.767l-5.51 7.688-2.263-10.136C589.767 235.025 482.291 160.045 371.5 174.533m-165 105.405c-8.686 2.124-16.407 8.58-20.407 17.062l-2.593 5.5v251l2.386 5.279c2.941 6.508 10.059 13.105 16.699 15.476 8.095 2.89 217.859 2.634 224.267-.274 7.247-3.288 11.855-7.641 15.128-14.29l3.051-6.195-.266-125.498L444.5 302.5l-2.301-5c-4.186-9.094-12.088-15.345-21.998-17.401-6.047-1.254-208.605-1.407-213.701-.161m2.539 25.251c-3.058 3.281-3.239 240.107-.187 243.877l1.852 2.287 103.398-.16 103.398-.16 1.75-2.127c1.645-2 1.75-9.314 1.75-122.017 0-118.556-.022-119.911-2-121.889-1.974-1.974-3.333-2-104.961-2H211.078zm291.208 7.382c-9.66 2.117-17.021 6.174-24.331 13.411-31.239 30.927-12.479 82.687 31.382 86.583 27.522 2.445 51.839-17.363 54.696-44.555 3.696-35.175-27.283-62.991-61.747-55.439m-262.604 8.457c-1.572.471-3.756 1.669-4.853 2.662-4.617 4.179-4.79 5.526-4.79 37.392 0 33.839.203 34.888 7.417 38.312 5.655 2.683 151.301 2.371 157.267-.337 7.217-3.277 7.316-3.799 7.316-38.639 0-29.034-.108-30.857-2.019-33.949-4.11-6.649-1.869-6.479-83.751-6.383-40.552.047-75.016.471-76.587.942m264.761 14.738c-20.152 7.207-25.218 30.318-10.082 45.994 16.971 17.575 46.848 4.77 46.958-20.126.082-18.336-19.509-32.079-36.876-25.868m5.366 3.893c-4.63 1.91-5.761 5.319-5.753 17.341l.006 8.5 4.739 5.686c2.606 3.128 6.239 6.43 8.073 7.338 9.429 4.667 17.345-6.693 10.275-14.746-2.803-3.193-3.11-4.188-3.11-10.095 0-12.308-5.426-17.655-14.23-14.024m-255.545 21.083.275 15.758h123v-31l-61.775-.258-61.776-.257zm-17.148 60.034c-8.814 4.838-9.033 16.273-.42 21.92 3.726 2.443 30.154 2.674 34.753.304 8.046-4.147 9.612-13.443 3.325-19.733l-3.765-3.767-15.235-.302c-13.383-.264-15.651-.073-18.658 1.578m65.319.257c-8.631 4.272-8.707 17.124-.129 21.632 4.155 2.184 18.642 2.981 24.663 1.356 12.113-3.268 13.993-17.872 3.031-23.541-4.619-2.389-22.341-2.033-27.565.553m57.908-.077c-8.462 5.16-8.651 17.228-.337 21.527 4.243 2.194 30.869 2.17 35.127-.032 9.102-4.706 8.746-18.113-.584-22.011-5.679-2.373-30.071-2.005-34.206.516m203.196 5.48c-7.7 1.809-21.177 4.805-29.95 6.659-11.929 2.521-16.646 3.957-18.716 5.698-8.184 6.887-1.13 20.55 9.774 18.93 2.14-.318 8.167-1.562 13.392-2.764s10.804-2.421 12.397-2.708l2.897-.521-2.991 3.385c-21.214 24.011-38.539 40.082-61.556 57.103C474.41 521.341 473 522.993 473 528.323c0 7.201 9.277 13.423 16.129 10.818 3.932-1.495 24.77-17.485 38.871-29.827 12.058-10.553 31.132-30.086 42.059-43.069 2.895-3.44 5.406-6.113 5.58-5.939s1.431 6.813 2.794 14.755c2.3 13.398 2.699 14.637 5.539 17.189 5.83 5.24 16.618 2.505 18.418-4.669.565-2.25-4.695-37.35-7.86-52.446-2.754-13.139-8.119-14.552-33.03-8.699m-327.201 37.486c-5.97 3.71-6.299 5.388-6.299 32.127 0 34.55-.069 34.451 24 34.451 24.217 0 25.003-1.055 24.994-33.566-.006-23.701-.565-27.19-5.05-31.491l-3.07-2.943-15.687-.284c-14.211-.257-15.988-.097-18.888 1.706m65.316.166c-5.352 4.21-5.615 5.741-5.611 32.612.004 28.042.441 29.917 7.687 32.944 5.677 2.372 24.2 1.568 27.989-1.215 5.866-4.308 6.317-6.606 6.318-32.211.003-33.332-.548-34.218-21.268-34.218-11.122 0-12.745.224-15.115 2.088m59.885-.921c-9.234 5.107-10.682 15.612-2.986 21.665 2.572 2.024 3.847 2.168 19.136 2.168h16.379l3.547-3.251c6.478-5.936 5.206-15.824-2.56-19.914-4.094-2.156-29.896-2.67-33.516-.668m-1.133 43.751c-8.572 5.227-8.721 17.262-.268 21.633 4.676 2.418 32.488 2.038 36.334-.497 7.87-5.189 7.127-17.128-1.339-21.505-4.797-2.481-30.502-2.208-34.727.369m198.133.244c-1.1.606-7.85 6.814-15 13.794-23.35 22.797-46.621 37.768-71.814 46.199-11.374 3.806-14.007 5.634-15.553 10.797-2.312 7.716 3.78 15.036 12.52 15.044 5.376.005 20.191-4.956 32.847-11 30.717-14.668 73.773-51.93 73.773-63.846 0-8.679-9.576-14.952-16.773-10.988"/></svg>