<svg xmlns="http://www.w3.org/2000/svg" width="800" height="800" viewBox="0 0 800 800"><path fill-rule="evenodd" d="M215.033 193.592c-10.42 2.817-17.661 9.031-22.347 19.175L190.5 217.5v329l2.686 4.569c3.522 5.99 8.141 10.418 13.759 13.186l4.555 2.245h174.389l3.545-3.436c4.495-4.357 5.411-8.673 2.919-13.763-3.139-6.412-1.882-6.27-55.603-6.286L288 543V422h73.54c81.631 0 77.938.292 83.362-6.603 4.126-5.245 4.307-8.313 3.971-67.365l-.321-56.532H540.5v48c0 44.136.141 48.208 1.757 50.585 5.111 7.52 16.297 7.102 21.479-.804 1.641-2.504 1.784-8.19 2.056-81.713.196-53.02-.063-81.31-.788-85.978-1.918-12.363-8.385-20.918-20.004-26.465l-5.5-2.625-159.5-.193c-138.033-.168-160.236.005-164.967 1.285m2.419 26.054c-2.447 2.641-2.452 2.689-2.452 24.5V266h47.847l.043-24.5.043-24.5h-43.028zm70.346 13.104c-.164 8.662-.168 19.688-.009 24.5l.289 8.75H423v-49H288.095zM448 241.5V266h93.108l-.304-22.088-.304-22.089-2.806-2.411-2.806-2.412H448zM215 344.4v53.436l23.75-.168 23.75-.168v-106l-23.75-.268-23.75-.268zm72.917-52.984c-.229.229-.297 24.304-.15 53.5l.268 53.084H423V291h-67.333c-37.034 0-67.521.187-67.75.416m205.104 18.7c-4.076 1.626-5.837 3.83-6.568 8.223-1.271 7.634-7.52 15.661-12.192 15.661-2.009 0-5.261 5.201-5.261 8.412 0 4.284 2.32 7.258 7.595 9.738 4.984 2.343 7.561 5.475 9.336 11.35 1.991 6.591 3.41 8.743 6.661 10.102 6.215 2.598 10.698-.329 13.061-8.528 2.129-7.388 4.44-10.456 10.268-13.628 9.417-5.125 9.418-12.767.003-17.891-5.805-3.159-8.545-6.419-10.037-11.94-3.002-11.11-6.347-14.1-12.866-11.499M382 312.554c-2.155.898-10.098 8.277-20.672 19.203L344.157 349.5l-7.829-7.697c-4.305-4.234-9.173-8.201-10.818-8.817-8.929-3.342-17.642 5.974-13.402 14.33 2.501 4.927 25.329 26.715 29.045 27.72 6.001 1.624 8.079.043 31.787-24.193 25.349-25.912 24.024-24.361 24.045-28.143.043-7.958-7.683-13.19-14.985-10.146m121 98.301c-5.46 1.852-16.147 6.475-31.5 13.629-4.4 2.05-11.825 5.43-16.5 7.511-39.306 17.495-46.352 23.548-49.039 42.136-2.345 16.218-.714 68.168 2.544 81.034 7.739 30.562 37.191 61.447 78.988 82.831 24.346 12.456 37.912 10.612 70.574-9.592 32.753-20.259 53.962-44.419 62.685-71.404l2.748-8.5v-80l-3.382-6.237c-4.444-8.194-11.007-14.179-21.127-19.268-9.956-5.005-57.701-26.595-67.491-30.518-9.192-3.684-20.517-4.328-28.5-1.622m-288 68.563c0 31.58.28 58.147.621 59.037 1.488 3.877 5.435 4.545 26.85 4.545h20.571l-.065-60.5-.065-60.5H215zm292-43.121c-29.077 12.442-70.899 32.32-73.25 34.815l-2.75 2.92v34.446c0 33.604.059 34.631 2.403 42.012 7.634 24.04 31.759 47.914 65.488 64.806 13.945 6.984 16.969 7.013 30.5.29 27.277-13.553 52.362-35.48 61.852-54.067 6.821-13.358 7.068-15.077 7.476-52.019.437-39.714.666-38.674-9.495-43.16-3.148-1.39-10.899-4.906-17.224-7.813-56.904-26.157-56.303-25.952-65-22.23m-165.694 11.114c-2.73 2.346-2.815 2.726-3.142 14L337.828 473h-10.279c-8.786 0-10.651.292-12.837 2.012-3.376 2.656-4.278 6.992-2.265 10.885 2.295 4.438 4.314 5.103 15.487 5.103H338v9.032c0 10.602 1.538 15.161 5.872 17.402 4.241 2.193 6.503 1.963 10.051-1.023l3.077-2.589V491h10.577c10.357 0 10.638-.061 13.5-2.923 3.276-3.276 3.63-5.808 1.413-10.097-2.227-4.306-4.314-4.98-15.424-4.98H357v-11.364c0-10.944-.097-11.46-2.636-14-3.512-3.512-9.121-3.608-13.058-.225m205.707 40.341c-2.939 1.473-20.564 20.752-45.023 49.248l-3.863 4.5-6.846-6.757c-7.673-7.574-11.543-9.288-17.403-7.71-7.533 2.028-11.172 10.691-7.462 17.767.778 1.485 6.741 7.927 13.25 14.315 18.484 18.14 20.578 18.147 36.529.121 5.668-6.405 12.78-14.38 15.805-17.722 26.665-29.464 33.919-38.441 33.943-42.014.066-9.803-10.157-16.147-18.93-11.748"/></svg>