<svg xmlns="http://www.w3.org/2000/svg" width="800" height="800" viewBox="0 0 800 800"><path fill-rule="evenodd" d="M372 76.141c-112.85 10.325-204.255 92.075-225.084 201.307-6.042 31.685-4.826 71.557 3.086 101.216 10.353 38.805 19.436 53.801 96.513 159.336 11.85 16.225 23.48 32.2 25.845 35.5 35.534 49.579 99.821 136.431 103.338 139.608 12.109 10.94 30.937 11.894 44 2.228 5.655-4.183 12.063-12.543 55.443-72.336 58.478-80.601 104.105-144.058 126.549-176 24.457-34.806 34.957-53.883 42.659-77.5 18.478-56.668 12.067-124.332-17.008-179.5C579.092 118.451 479.605 66.296 372 76.141"/></svg>