<svg width="32" height="32" viewBox="0 0 32 32" fill="none" xmlns="http://www.w3.org/2000/svg" role="img" aria-label="Prairie Signal icon">
  <defs>
    <linearGradient id="grad" x1="0%" y1="0%" x2="100%" y2="100%">
      <stop offset="0%" style="stop-color:#101114;stop-opacity:1" />
      <stop offset="100%" style="stop-color:#101114;stop-opacity:1" />
    </linearGradient>
  </defs>

  <!-- Background circle -->
  <circle cx="16" cy="16" r="16" fill="url(#grad)"/>

  <!-- Monogram: P S -->
  <g fill="#ffffff">
    <!-- P -->
    <path d="M8.5 9h5c2 0 3.5 1.2 3.5 3s-1.5 3-3.5 3h-2v5H8.5V9Zm3 2v2h2c.7 0 1.5-.4 1.5-1s-.8-1-1.5-1h-2Z"/>
    <!-- S -->
    <path d="M16.5 12.5c0-2 1.7-3.5 4.2-3.5 1 0 2 .2 2.8.6l-.8 1.8c-.6-.3-1.3-.4-2-.4-1.1 0-1.8.5-1.8 1.3 0 .8.7 1.1 2 1.4 2 .5 3.5 1.2 3.5 3.3 0 2.1-1.8 3.6-4.5 3.6-1.2 0-2.6-.3-3.6-.9l.8-1.8c.8.4 1.8.7 2.8.7 1.2 0 2-.5 2-1.4 0-.8-.7-1.1-2-1.4-2-.5-3.4-1.2-3.4-3.3Z"/>
  </g>
</svg>
