<?xml version="1.0" encoding="UTF-8"?>
<svg xmlns="http://www.w3.org/2000/svg" style="display:none">
<symbol id="ps--about--hero--profile-hex-spark" viewBox="0 0 800 800"><path fill-rule="evenodd" d="M388.5 112.338c-6.682 1.74-12.136 4.262-23.5 10.864-5.225 3.036-11.3 6.555-13.5 7.82s-10.75 6.23-19 11.033a164783 164783 0 0 0-87.5 50.972 16875 16875 0 0 1-30 17.441 8152 8152 0 0 0-32.5 18.959c-7.7 4.526-16.25 9.509-19 11.073-13.627 7.75-24.327 23.467-26.429 38.822-1.724 12.591-1.395 233.97.362 243.822 3.709 20.796 11.157 28.684 46.067 48.793 13.75 7.919 29.725 17.198 35.5 20.618s20.175 11.741 32 18.492 44.225 25.545 72 41.764c55.929 32.659 57.73 33.606 68.172 35.814 18.018 3.81 19.418 3.197 101.328-44.379 147.139-85.464 148.755-86.432 155.555-93.211 6.835-6.814 11.932-15.679 13.885-24.147.651-2.828 1.02-47.825 1.036-126.533.023-119.137-.025-122.303-1.965-128.585-2.81-9.097-4.158-10.065-10.573-7.595-2.784 1.073-6.361 2.986-7.949 4.252l-2.888 2.303 1.748 5.885c1.627 5.484 1.726 14.071 1.449 125.885l-.298 120-2.806 5.714c-4.769 9.712-1.363 7.458-83.194 55.064-159.549 92.82-145.429 85.138-156.5 85.138-10.462 0-7.339 1.533-62.205-30.538-35.862-20.962-65.11-37.995-75.295-43.848-96.485-55.447-98.145-56.532-103.173-67.413L156.5 520.5v-239l2.414-5.997c3.921-9.738 9.232-13.936 40.693-32.163 26.675-15.454 75.696-43.94 143.171-83.198 46.834-27.249 48.897-28.284 56.461-28.328 7.801-.045 9.384.618 30.322 12.7 9.316 5.376 26.164 15.069 37.439 21.539s30.4 17.454 42.5 24.409c16.705 9.602 22.602 12.526 24.5 12.148 3.209-.638 18.265-8.793 18.666-10.11.168-.55-6.776-5.025-15.431-9.946s-38.052-21.848-65.328-37.619-52.251-29.669-55.5-30.885c-7.33-2.743-20.78-3.568-27.907-1.712M598 151.706c-2.055.751-6 4.429-6 5.593 0 .523-1.073 3.482-2.385 6.576-6.554 15.454-10.524 25.051-12.05 29.125-3.146 8.401-2.978 8.298-32.565 19.998a810 810 0 0 1-9.423 3.641c-7.122 2.692-11.577 7.185-11.577 11.673 0 6.277 2.621 8.049 25.5 17.244 11.55 4.641 22.125 9.272 23.5 10.291 1.802 1.334 4.787 7.549 10.687 22.252 9.916 24.706 10.387 25.551 14.964 26.815 8.194 2.263 11.353-.265 16.764-13.414 16.25-39.492 12.952-35.033 31.319-42.342 33.476-13.321 34.921-14.24 33.935-21.587-.708-5.278-3.224-7.37-13.748-11.429-4.632-1.787-9.996-3.949-11.921-4.806-1.925-.856-6.989-2.846-11.254-4.423-12.901-4.768-12.954-4.813-17.165-14.59-7.165-16.636-9.337-21.834-12.047-28.823-4.088-10.542-9.465-14.378-16.534-11.794m-212.516 99.738c-32.438 5.044-58.012 28.504-67.646 62.056-3.379 11.766-3.396 38.127-.034 50.433 8.773 32.105 31.087 55.878 61.196 65.198 9.905 3.065 30.884 3.29 41 .439 28.636-8.072 52.678-32.663 61.398-62.801 19.074-65.924-30.474-125.499-95.914-115.325M393 270.626c-56.369 6.425-77.512 80.201-35.082 122.418 39.926 39.726 103.933 9.377 106.815-50.647 2.035-42.381-31.88-76.313-71.733-71.771m-55.5 169.052c-51.498 11.482-81.538 42.893-84.196 88.038-.938 15.929 3.011 23.344 16.608 31.183 13.698 7.898 63.484 33.301 77.588 39.59 34.031 15.174 67.082 16.116 99 2.823 12.281-5.115 68.237-33.779 84.542-43.308 13.741-8.03 18.015-16.952 15.977-33.352-5.136-41.331-28.152-67.612-71.019-81.096-17.213-5.414-23.568-5.642-33.1-1.187-15.778 7.376-23.394 9.005-42.4 9.072-19.243.067-26.243-1.347-42.635-8.613-8.408-3.727-13.94-4.583-20.365-3.15m-5.935 22.906c-35.202 10.245-55.236 32.637-58.17 65.017-.745 8.214-.331 9.166 5.59 12.869 7.34 4.59 73.871 38.555 81.43 41.571 26.911 10.737 52.031 10.842 77.469.324 7.885-3.26 58.102-28.042 70.116-34.601 19.912-10.872 19.007-10.028 18.983-17.705-.058-18.501-9.849-38.421-24.805-50.469-10.929-8.803-22.9-14.417-40.535-19.011l-5.725-1.491-7.259 3.308c-30.829 14.049-68.44 14.086-96.659.094-7.183-3.561-7.887-3.558-20.435.094"/></symbol>
<symbol id="ps--about--security--privacy_lock-badge" viewBox="0 0 800 800"><path fill-rule="evenodd" d="M338 143.607c-21.532 3.915-41.744 15.648-54.91 31.875-14.585 17.977-21.122 36.124-22.718 63.07l-.654 11.053-22.139-.419c-25.487-.483-31.855.361-37.036 4.91-5.808 5.1-5.938 5.714-11.104 52.404-.852 7.7-2.409 21.425-3.459 30.5a8653 8653 0 0 0-3.413 30c-4.58 41.119-5.805 52.005-7.539 67a3166 3166 0 0 0-3.505 32c-.88 8.525-2.47 23.15-3.534 32.5a6586 6586 0 0 0-3.393 30.5 6198 6198 0 0 1-3.721 33.215c-2.193 19.109-2.209 19.885-.506 25.286 2.054 6.517 6.297 11.737 12.036 14.808l4.095 2.191 98.846.274 98.846.273-2.272-3.773c-1.249-2.076-3.038-4.899-3.976-6.274-7.891-11.577-17.19-35.725-21.179-55-3.374-16.299-3.121-49.855.497-66.087 16.698-74.903 79.102-125.05 155.985-125.345 10.058-.038 17.749-.466 17.75-.986.002-.505-.415-3.655-.925-7-.511-3.345-1.665-11.932-2.566-19.082a2623 2623 0 0 0-3.509-26.5 9797 9797 0 0 1-3.023-21.996c-1.392-10.258-2.709-13.641-6.828-17.528-5.21-4.917-7.685-5.318-33.396-5.4L447 250l-.004-9.25c-.014-31.7-12.907-58.6-37.359-77.94-20.008-15.826-48.383-23.432-71.637-19.203m2.798 29.352c-29.33 5.373-49.086 30.315-50.527 63.791L289.7 250h127.604l-.601-12.25c-1.448-29.487-18.139-52.702-45.028-62.628-6.613-2.441-23.067-3.593-30.877-2.163M290 296.134c0 14.125-3.903 19.975-13.749 20.607-10.814.694-16.187-5.759-16.229-19.491-.026-8.635-.766-8.957-4.591-2-8.256 15.016 1.534 33.324 18.475 34.55 13.911 1.006 26.512-14.054 23.125-27.638-1.069-4.287-5.501-13.162-6.573-13.162-.252 0-.458 3.21-.458 7.134m124.223-2.442c-10.777 15.109-2.773 34.818 14.986 36.902 20.474 2.401 33.465-21.12 20.303-36.762L447 290.847l-.048 8.326c-.075 13.044-4.99 19.827-14.365 19.827-10.055 0-14.819-5.963-15.581-19.5l-.506-9zm74.277 73.987C430.192 375.053 385.555 412.268 368.172 468c-7.698 24.679-6.932 57.62 1.977 85 10.529 32.361 37.682 63.4 69.464 79.406 40.857 20.577 90.987 20.067 129.729-1.319 38.419-21.207 64.536-56.752 72.806-99.087 3.659-18.728 1.955-47.323-3.934-66-16.404-52.033-61.502-89.497-117.342-97.481-9.718-1.389-24.912-1.783-32.372-.84m-9 32.399c-41.877 10.118-71.155 39.315-83.151 82.922-2.841 10.329-2.527 40.545.54 52 20.153 75.256 103.216 106.518 168.611 63.458 48.267-31.782 63.319-99.948 32.845-148.746l-2.99-4.787-13.427 13.826c-7.386 7.604-30.433 31.609-51.217 53.345s-39.177 40.339-40.875 41.342c-4.107 2.426-12.873 2.371-16.768-.106-4.936-3.139-41.643-43.084-43.091-46.892-4.713-12.398 6.624-24.532 19.079-20.421 3.033 1 6.846 4.578 17.656 16.565 7.583 8.408 14.327 15.204 14.986 15.102s7.817-7.161 15.907-15.686 24.028-25.175 35.419-37l30.822-32 10.112-10.5-3.229-2.782c-8.718-7.511-24.221-14.717-40.51-18.831-14.598-3.686-37.31-4.049-50.719-.809"/></symbol>
<symbol id="ps--faq--faq-hero_info-bubble" viewBox="0 0 800 800"><path fill-rule="evenodd" d="M578.212 139.109c-4.623 1.361-6.381 4.847-10.682 21.182-5.938 22.555-10.599 30.642-20.597 35.743-2.207 1.126-12.883 4.951-23.723 8.499C501.216 211.732 499 213.148 499 220c0 6.869 2.258 8.343 23.823 15.55 21.768 7.275 22.046 7.396 28.002 12.211 7.753 6.267 11.027 12.686 16.698 32.739 5.061 17.898 6.58 20 14.453 20 8.013 0 9.13-1.757 16.128-25.376 7.589-25.615 12.406-30.454 38.396-38.58 18.826-5.886 20.426-6.45 22.881-8.058 5.406-3.542 6.024-10.287 1.369-14.921-2.578-2.567-6.04-4.111-16.75-7.473-36.726-11.528-39.141-13.848-47.992-46.092-5.586-20.348-8.405-23.657-17.796-20.891m-354.897 83.899c-36.333 5.312-67.163 33.73-76.539 70.552l-2.276 8.94v87c0 80.366.139 87.644 1.82 95.444 9.482 43.999 45.211 74.405 89.68 76.319l5.5.237.231 34.5c.128 18.975.24 37.246.25 40.602.031 9.972 6.739 17.398 15.717 17.398 6.573 0 3.545 1.903 57.302-36.007 19.84-13.992 61.7-43.635 71.673-50.756l7.173-5.122 59.827-.398c50.57-.336 60.833-.646 66.327-2.001 37.713-9.303 65.69-37.681 73.672-74.732 1.676-7.778 1.828-14.522 1.828-81.056v-72.572l-2.702-4.085c-5.793-8.755-19.505-8.203-24.527.988-1.636 2.994-1.811 8.927-2.291 77.741-.512 73.544-.547 74.574-2.704 80.275q-12.94 34.192-47.153 44.408c-4.9 1.462-13.6 1.753-67.623 2.256-60.43.563-62.114.631-66.5 2.694-4.305 2.025-60.842 41.235-94.5 65.538l-16 11.553-.5-31.612c-.543-34.352-.344-33.167-6.757-40.265-5.408-5.986-8.228-7.022-21.643-7.954-15.555-1.081-21.373-2.379-31.1-6.937-18.622-8.728-32.752-26.486-36.989-46.485-2.26-10.672-2.218-163.065.049-174.263 4.638-22.913 20.292-41.358 42.796-50.426l8.144-3.282L349 251c121.956-.494 123.543-.525 126.965-2.535 9.434-5.543 9.66-18.81.417-24.534-3.039-1.882-6.205-1.928-125.5-1.806-67.31.068-124.715.466-127.567.883m170.484 74.887c-22.849 4.779-26.549 37.862-5.34 47.738 20.271 9.439 43.057-10.087 35.987-30.838-4.163-12.217-17.603-19.628-30.647-16.9m-16.38 68.133c-4.48 1.369-10.172 7.341-11.423 11.986-2.923 10.858 5.071 19.986 17.503 19.986h5.579l-.202 32-.202 32h-5.602c-13.243 0-21.256 11.018-15.884 21.839 4.534 9.135 5.18 9.293 36.454 8.955 31.003-.335 30.792-.281 35.17-9.005 5.252-10.463-2.586-21.783-15.086-21.787l-4.774-.002.081-41.552c.092-46.706.216-45.828-7.374-51.884-3.826-3.052-3.894-3.065-17.5-3.27-7.512-.114-15.045.217-16.74.734"/></symbol>
<symbol id="ps--faq--q-privacy_security-shield" viewBox="0 0 800 800"><path fill-rule="evenodd" d="M393.5 133.469c-2.75.76-10.175 3.706-16.5 6.546a16880 16880 0 0 1-38 16.957 34728 34728 0 0 0-56 24.996 44263 44263 0 0 1-56 25.013c-49.711 22.152-49.996 22.314-53.702 30.533-1.695 3.757-1.779 9.005-1.468 91.486.387 102.769.557 105.195 9.297 131.947 21.849 66.882 91.101 141.338 177.641 190.99 35.376 20.297 40.814 21.438 59.322 12.445C466.628 640.798 518.443 601.92 558.541 559c35.699-38.212 58.479-78.922 66.883-119.528 3.03-14.638 3.555-31.511 3.566-114.526l.01-83.553-2.623-5.264c-3.285-6.591-5.728-8.214-25.877-17.189-8.8-3.919-17.8-7.936-20-8.927s-13.9-6.167-26-11.504a13938 13938 0 0 1-44.5-19.741c-12.375-5.521-34.2-15.192-48.5-21.49-61.631-27.146-59.114-26.265-68-23.809M382 177.621c-9.075 4.162-40.8 18.579-70.5 32.038s-63.991 29.001-76.203 34.538c-12.211 5.536-23.146 10.945-24.299 12.019l-2.096 1.953.315 80.666c.351 89.93.121 86.714 7.905 110.538 14.54 44.5 55.935 95.464 111.378 137.125C356.081 607.223 394.343 630 401.575 630c5.264 0 43.157-23.027 66.257-40.263 76.361-56.978 118.55-117.554 123.158-176.835 1.506-19.364 1.28-151.809-.263-154.86-.883-1.745-4.431-3.873-12.235-7.341-12.007-5.335-29.394-13.14-59.492-26.704a41330 41330 0 0 0-50-22.474c-16.775-7.527-32.75-14.722-35.5-15.99-12.236-5.639-34.342-15.531-34.655-15.506-.19.015-7.77 3.432-16.845 7.594m106.5 132.525c-1.1.597-24.634 23.646-52.297 51.22L385.906 411.5l-23.54-23.808C338.436 363.49 336.578 362 330.336 362c-5.806 0-9.443 2.494-21.571 14.789-13.149 13.331-15.06 16.947-12.85 24.322 1.922 6.413 79.804 84.606 85.585 85.926 9.135 2.085 5.24 5.442 78.737-67.866 71.193-71.009 70.684-70.436 69.272-77.986-.735-3.933-22.959-27.75-28.709-30.768-3.181-1.669-9.468-1.808-12.3-.271"/></symbol>
<symbol id="ps--hero--calgary-pin" viewBox="0 0 800 800"><path fill-rule="evenodd" d="M372 76.141c-112.85 10.325-204.255 92.075-225.084 201.307-6.042 31.685-4.826 71.557 3.086 101.216 10.353 38.805 19.436 53.801 96.513 159.336 11.85 16.225 23.48 32.2 25.845 35.5 35.534 49.579 99.821 136.431 103.338 139.608 12.109 10.94 30.937 11.894 44 2.228 5.655-4.183 12.063-12.543 55.443-72.336 58.478-80.601 104.105-144.058 126.549-176 24.457-34.806 34.957-53.883 42.659-77.5 18.478-56.668 12.067-124.332-17.008-179.5C579.092 118.451 479.605 66.296 372 76.141"/></symbol>
<symbol id="ps--playbooks--hero--playbooks-download" viewBox="0 0 800 800"><path fill-rule="evenodd" d="M384 161.706c-.825.302-2.512 1.47-3.75 2.596l-2.25 2.047v80.519l-16.922.316c-16.324.305-17.014.402-19.5 2.74-1.823 1.714-2.578 3.455-2.578 5.943 0 3.234 1.597 5.129 19.75 23.427C389.877 310.67 394.962 315 400.688 315h4.705l27.804-27.754C459.473 261.016 461 259.291 461 255.835c0-2.856-.674-4.224-3.077-6.246-3.028-2.548-3.328-2.589-19-2.589H423v-39.05c0-42.355-.115-43.314-5.472-45.755-2.646-1.206-30.458-1.611-33.528-.489M277 316.127c-34.375 10.446-64.525 19.709-67 20.584-5.988 2.116-11.401 7.852-12.853 13.619-1.448 5.752-1.553 56.245-.132 63.784 1.123 5.957 5.295 14.952 8.124 17.512 1.754 1.587 1.703 1.79-1.301 5.212-6.322 7.2-7.289 10.907-7.665 29.406-.403 19.768.501 25.018 5.628 32.696l3.754 5.621-3.269 4.286c-5.529 7.25-6.551 12.833-6.141 33.553l.359 18.151 3.249 6.474c7.482 14.912 13.983 18.93 47.747 29.506 9.9 3.101 27.675 8.713 39.5 12.473 11.825 3.759 29.6 9.385 39.5 12.502s26.298 8.329 36.44 11.581c23.385 7.499 28.642 7.49 32.543-.054 4.309-8.332.622-16.24-8.997-19.303A7618 7618 0 0 0 365 606.977a10102 10102 0 0 1-39.5-12.495 20034 20034 0 0 0-77.938-24.662c-24.469-7.685-26.567-10.122-26.534-30.82.019-12.334 2.034-18.475 6.423-19.577 3.14-.788-3.647-2.756 57.049 16.546 28.05 8.921 58.757 18.679 68.238 21.686 20.264 6.427 22.945 6.955 27.404 5.402 5.119-1.782 8.046-6.146 8.124-12.109.094-7.261-2.844-9.946-15.121-13.818-5.305-1.673-21.12-6.625-35.145-11.005-74.723-23.334-104.775-32.957-107.744-34.501-7.249-3.772-9.259-8.684-9.25-22.617.006-11.207 1.09-15.809 4.47-18.984 3.608-3.39 5.373-3.069 35.631 6.48 15.066 4.754 35.268 11.133 44.893 14.175 55.901 17.667 77.21 24.124 83.798 25.39 8.952 1.721 19.92.652 31.702-3.091 5.5-1.747 14.725-4.682 20.5-6.522s15.45-4.9 21.5-6.799 20.45-6.47 32-10.154 34.05-10.765 50-15.735 29.563-9.248 30.25-9.508c.978-.37 1.25 4.626 1.25 22.951v23.425l-5.383 1.697c-12.541 3.953-16.431 14.008-8.492 21.947 2.873 2.873 3.23 2.96 10.176 2.483 13.668-.94 22.913-5.859 26.803-14.262 3.112-6.721 2.841-70.89-.326-77.231-2.423-4.851-6.05-7.911-11.663-9.84l-3.615-1.242-.269-21.502-.269-21.503 3.788-.64c10.33-1.745 15.593-8.157 15.013-18.292-.326-5.686-.706-6.607-4.209-10.194-4.847-4.965-7.027-5.788-46.554-17.58a18430 18430 0 0 1-61.844-18.586c-17.49-5.298-31.094-8.89-33.674-8.89-7.836 0-13.143 6.953-11.378 14.907 1.279 5.764 4.264 7.613 20.396 12.63 26.972 8.388 78.856 24.199 85.427 26.033 7.95 2.218 12.186.493-41.427 16.869-24.2 7.392-57.926 17.742-74.947 23-17.02 5.259-32.272 9.561-33.892 9.561-3.404 0-6.964-1.017-46.161-13.191-60.686-18.848-87.387-27.12-98.712-30.582l-11.712-3.58 9.212-2.959c5.067-1.628 28.705-8.924 52.531-16.214 45.741-13.996 47.066-14.564 49.23-21.121 2.42-7.333-3.592-15.411-11.376-15.286-2.387.038-30.926 8.197-66.673 19.06m-55.667 57.448c-.306.796-.298 8.791.016 17.767.962 27.47.463 26.991 41.298 39.536 14.219 4.368 33.278 10.281 42.353 13.14 88.215 27.796 91.166 28.62 98.295 27.456 2.313-.378 10.505-2.698 18.205-5.157l24.5-7.823c17.901-5.717 41.19-12.971 75.001-23.364 17.875-5.494 33.738-10.46 35.25-11.035L559 423.05v-22.025c0-12.114-.337-22.018-.75-22.01s-4.35 1.147-8.75 2.531c-4.4 1.383-21.275 6.576-37.5 11.54s-34.225 10.544-40 12.402c-37.221 11.975-60.069 18.816-65.381 19.576-8.581 1.227-16.043-.164-37.619-7.012-21.346-6.774-41.072-12.965-73.5-23.068-12.65-3.94-30.65-9.57-40-12.509-32.656-10.266-33.553-10.5-34.167-8.9M475 495.399c-19.582 6.964-52.075 21.492-59.513 26.61-5.479 3.77-9.606 8.558-12.576 14.592-2.358 4.792-2.418 5.543-2.715 34.455-.338 32.92.369 39.144 5.755 50.654 10.58 22.607 34.368 44.395 64.181 58.783 21.753 10.498 32.958 8.406 63.224-11.804 26.162-17.469 43.083-38.444 48.685-60.35 2.622-10.252 2.914-56.223.419-65.879-3.165-12.243-10.252-19.625-25.112-26.157-59.404-26.11-64.25-27.341-82.348-20.904m.5 26.74c-46.149 19.683-46.809 20.016-49.306 24.874-3.65 7.104-2.912 51.01 1.032 61.366 6.912 18.151 24.379 34.609 52.048 49.044 11.459 5.977 13.997 5.977 25.452-.006 25.812-13.482 42.735-29.375 50.488-47.417l3.224-7.5.376-23.373c.425-26.396.054-30.53-3.09-34.391-2.915-3.579-59.261-27.741-64.655-27.725-2.043.006-8.699 2.198-15.569 5.128m39.388 35.36c-1.436.781-7.8 7.851-14.143 15.71-6.342 7.86-12.884 15.866-14.538 17.791l-3.006 3.5-6.922-6.671c-4.927-4.749-7.946-6.864-10.479-7.339-8.665-1.625-16.601 8.288-12.657 15.811.746 1.424 6.664 7.983 13.151 14.575 18.492 18.791 19.133 18.655 41.856-8.876 24.209-29.332 23.85-28.833 23.85-33.116 0-9.748-9.048-15.767-17.112-11.385"/></symbol>
<symbol id="ps--services--privacy" viewBox="0 0 800 800"><path fill-rule="evenodd" d="m339.5 115-5 .686 4 .291c3.267.238 2.632.472-3.46 1.276-4.971.656-7.572.65-7.795-.018-.212-.636-1.713-.693-4.102-.156-5.052 1.135-9.018 2.761-7.143 2.928 2.122.189-1.919 1.852-4.5 1.852h-2l2-.859c4.001-1.719-1.028-.877-5.436.911-2.979 1.207-3.964 2.014-3 2.455.79.361.378.456-.915.212-2.459-.464-7.37 1.255-6.697 2.345.215.347-3.512 2.611-8.281 5.032-10.564 5.362-18.827 10.753-26.342 17.189-5.675 4.859-7.566 5.952-6.241 3.606.388-.687-1.199.55-3.526 2.75-4.814 4.55-13.205 14.301-11.312 13.145 2.122-1.295 1.379.935-.983 2.95-2.21 1.886-2.218 1.885-.75-.095 1.371-1.849 1.352-1.897-.256-.637-.956.75-1.514 1.728-1.238 2.174.477.773-7.262 13.963-8.194 13.963-.483 0-.206-.513 3.432-6.359 1.321-2.123 1.958-3.586 1.415-3.25-2.057 1.272-10.361 16.685-9.79 18.173.325.847.212 1.306-.251 1.019-.464-.286-1.358.612-1.989 1.995-1.392 3.056-1.478 4.484-.146 2.422 1.753-2.713 1.042.693-1.074 5.141-1.905 4.006-2.128 3.238-.476-1.641.428-1.263.142-1.079-.775.5-1.952 3.361-5.931 17.797-5.32 19.301.268.659.523.111.566-1.218s.319-2.176.612-1.883.221 2.489-.162 4.88c-.525 3.286-.863 3.869-1.383 2.387-1.52-4.335-3.235 11.601-3.446 32.033l-.217 21 .623-17c.551-15.006.649-13.224.838 15.185.127 19.056-.184 33.231-.761 34.75L209.05 317h48.925l.275-35.75.276-35.75.237 36.25L259 318l-35.75.012c-26.628.009-37.026.353-40.75 1.347-14.205 3.795-23.853 13.332-28.409 28.083-2.068 6.695-2.091 7.986-2.091 117.953 0 95.329.213 112.002 1.492 116.912 4.474 17.177 16.796 28.867 34.343 32.579 5.515 1.168 252.165 1.684 252.165.529 0-.305-1.964-3.79-4.364-7.743-9.8-16.144-20.012-39.464-24.305-55.504-7.653-28.587-8.597-36.317-9.08-74.338-.398-31.306-.329-32.865 1.646-37.33 4.718-10.666 11.582-15.857 25.103-18.981 32.659-7.547 57.008-18.974 85.5-40.124 6.05-4.491 12.496-8.921 14.325-9.845 4.228-2.135 15.541-3.105 20.425-1.751l3.75 1.04-.054-4.17C552.53 334.519 535.945 317 505.924 317h-9.898l-.276-34.75-.277-34.75-.236 34.586-.237 34.585-75.165.665c-41.341.365-94.216.664-117.5.664H260l.037-35.75c.026-25.314.421-37.736 1.353-42.553.724-3.742.975-6.442.557-6s-1.231 3.278-1.807 6.303l-1.048 5.5.546-5.912c.548-5.931 2.1-11.543 2.375-8.588.076.825.746-.075 1.487-2 1.647-4.277 1.829-6.014.419-4-.805 1.15-.895.916-.388-1 1.184-4.474 5.481-13.322 6.146-12.657.356.357 2.211-1.712 4.122-4.597 1.91-2.885 4.425-6.371 5.587-7.746l2.114-2.5-2.993 2.5-2.993 2.5 1.955-2.5c5.677-7.262 17.837-18.54 14.946-13.862-.387.626 1.885-.774 5.05-3.112s9.418-6.022 13.895-8.187 7.015-3.667 5.64-3.339c-2.127.507-2.236.43-.73-.513.974-.61 2.549-.866 3.5-.569.952.296 4.422-.298 7.713-1.321 3.943-1.227 5.306-2.005 4-2.283-1.091-.232 8.367-.416 21.017-.409s22.1.203 21 .434c-1.429.301-.714.809 2.5 1.776 5.812 1.75 7.489 1.638 3-.2-3.271-1.339-3.304-1.395-.5-.849 4.012.78 17.743 6.286 19 7.619.558.591-.032.528-1.336-.144-1.284-.661-2.516-1.022-2.737-.801s1.199 1.165 3.155 2.098 3.274 1.238 2.928.679c-1.081-1.749.47-1.127 5.06 2.031 4.137 2.846 6.004 4.865 3.18 3.439-.687-.348.074.499 1.692 1.881s3.351 2.26 3.851 1.951c.992-.613 13.179 10.951 14.942 14.181 1.013 1.854.957 1.89-.762.5-1.33-1.075-1.182-.58.524 1.75 2.403 3.282 3.664 4.302 2.475 2-.355-.687.31-.125 1.478 1.25 2.83 3.331 7.884 13.205 10.188 19.902 2.163 6.285 2.375 9.243.295 4.098l-1.415-3.5.62 3.5c.342 1.925.985 4.4 1.428 5.5.77 1.907.81 1.911.871.083.034-1.054.358-1.621.718-1.261.361.361.676 18.998.7 41.417l.044 40.761.569-36 .57-36 .306 26c.168 14.3.267 30.613.219 36.25l-.088 10.25h47.072l.013-33.75c.007-18.562.211-36.225.454-39.25.316-3.95.193-4.795-.437-3-.798 2.272-.887 2.153-.977-1.309-.055-2.095.296-3.564.781-3.265.485.3.27-2.663-.477-6.585-1.465-7.687-2.953-10.91-2.005-4.341.328 2.27-.273.972-1.388-3-2.196-7.822-2.521-11.184-.483-5 .725 2.2 1.328 3.1 1.339 2 .026-2.458-3.706-11.591-3.881-9.5-.088 1.036-.392.882-.986-.5-1.181-2.749-1.181-4.328 0-2.5.643.996.975 1.081.985.253.022-1.791-6.092-14.479-6.69-13.882-.274.275.222 1.529 1.103 2.787s1.6 2.749 1.598 3.315-.929-.491-2.06-2.346-1.809-4.016-1.507-4.802c.348-.907.125-1.167-.61-.713-.761.47-.951.175-.555-.857.56-1.459-4.462-10.755-5.81-10.755-.325 0 .277 1.238 1.336 2.75 2.392 3.415 4.425 7.25 3.844 7.25-.24 0-1.322-1.501-2.405-3.336a194 194 0 0 0-3.849-6.212c-1.415-2.164-1.509-2.68-.38-2.089.825.432.318-.145-1.126-1.282s-3.839-3.758-5.321-5.824c-2.487-3.467-2.371-3.409 1.505.743 2.349 2.518 3.268 3.179 2.086 1.5-3.381-4.8-4.569-6.149-5.802-6.588-1.485-.528-12.342-10.81-12.342-11.687 0-.364 2.813 2.023 6.25 5.306l6.25 5.968-6.423-6.701c-3.533-3.686-6.741-6.506-7.128-6.266-.723.447-9.949-6.194-9.949-7.162 0-.296 1.913.89 4.25 2.635l4.25 3.174-4.494-4.077c-2.472-2.243-4.947-3.977-5.5-3.855-1.034.229-13.506-7.024-13.506-7.855 0-.617 3.802 1.402 7.431 3.946 1.611 1.131 2.601 1.522 2.198.871-1.284-2.077-9.523-6.392-10.754-5.632-.731.452-.919.304-.492-.387.422-.683-1.256-2.105-4.313-3.654-5.809-2.944-8.245-3.369-3.07-.536 4.145 2.27 3.226 2.685-1.05.474-1.622-.839-2.95-1.95-2.95-2.468 0-.519-.693-.677-1.541-.352-.912.35-1.422.105-1.25-.599.269-1.099-14.186-7.157-16.653-6.979-.581.042.519.683 2.444 1.424 4.668 1.798 2.651 1.832-3 .052-2.475-.78-3.825-1.48-3-1.556 2.952-.27-5.615-2.7-11.5-3.261-4.166-.398-5.236-.296-3.5.332 2.011.728 1.718.812-1.5.43-2.2-.261-5.125-.544-6.5-.628-1.698-.104-1.216-.385 1.5-.877 2.339-.424-1.397-.624-9-.482-10.619.199-11.535.117-5-.447l8-.69-8-.03c-4.4-.016-10.25.28-13 .657M537 391.356c-1.375.739-7.45 5.06-13.5 9.601-25.656 19.258-59.697 35.281-84.825 39.926-7.463 1.38-12.116 3.634-14.354 6.953-2.7 4.006-2.33 47.866.567 67.164 6.986 46.538 23.886 81.355 54.555 112.391C499.179 647.363 534.849 671 545.253 671c4.518 0 18.153-6.775 31.315-15.559q69.594-46.449 85.831-124.046c3.512-16.784 4.599-30.178 4.6-56.677.001-30.628-.05-30.73-17.423-34.878-30.901-7.377-62.495-22.437-95.961-45.742-6.411-4.464-11.767-5.348-16.615-2.742m-7.581 38.223c-22.97 15.253-42.493 24.596-64.883 31.05-16.846 4.855-15.936 3.449-15.109 23.355 1.823 43.845 8.956 70.284 26.229 97.213 13.249 20.656 35.198 41.52 58.461 55.572 12.521 7.562 11.617 7.617 25.453-1.527 56.812-37.547 81.425-84.538 81.429-155.469.001-16.102.549-15.294-12.654-18.659-21.396-5.453-47.464-17.236-70.987-32.087-6.993-4.415-13.233-8.027-13.867-8.027s-6.967 3.86-14.072 8.579m5.52-2.423c-25.308 17.592-49.796 29.419-74.242 35.857-5.909 1.556-9.131 2.93-9.8 4.179-1.1 2.056.284 33.149 2.129 47.808 5.98 47.512 32.125 88.11 74.974 116.417 18 11.891 17.378 11.843 31.655 2.439 56.019-36.903 80.168-83.799 80.322-155.984.027-12.706.307-12.347-12.141-15.572-20.755-5.376-48.673-18.019-69.836-31.625-15.298-9.835-14.213-9.67-23.061-3.519m60.561 57.245c-1.65.741-5.704 4.217-9.008 7.723-29.233 31.022-39.736 42.147-44.252 46.872l-5.26 5.504-15.077-15.25C507.446 514.626 506.662 514 502.818 514c-5.361 0-9.441 2.591-11.82 7.505-3.236 6.684-1.804 9.485 12.388 24.219a5338 5338 0 0 1 19.71 20.569c8.075 8.499 11.938 10.178 17.815 7.744 4.507-1.867 69.268-69.31 71.004-73.945 3.418-9.124-7.595-19.651-16.415-15.691m-1.5 2.29c-1.375.9-14.586 14.41-29.358 30.02-14.772 15.611-27.29 28.24-27.818 28.064-.527-.176-7.591-6.947-15.696-15.048C506.721 515.331 506.294 515 502.095 515c-6.313 0-11.095 4.918-11.095 11.41 0 4.604.023 4.635 17.384 22.85 23.87 25.044 22.943 24.24 27.956 24.24 5.23 0 5.522-.234 23.624-19.003a7157 7157 0 0 1 32.191-33.09c10.675-10.895 17.999-19.172 18.409-20.804 2.696-10.742-7.864-19.611-16.564-13.912"/></symbol>
<symbol id="ps--training--hero--book-bulb" viewBox="0 0 800 800"><path fill-rule="evenodd" d="M293 133.357c-44.381 8.7-73.553 52.821-64.422 97.435 3.171 15.495 8.747 25.877 21.137 39.359 9.31 10.13 10.271 12.417 10.279 24.457l.006 8.108-9.25 1.253c-12.131 1.642-28.302 5.17-51.013 11.128-3.947 1.035-9.975 5.698-12.011 9.29-.658 1.162-1.428 7.263-1.711 13.558l-.515 11.445-6 .359c-13.348.797-20.92 5.611-27.132 17.251-1.792 3.357-1.879 8.677-2.137 129.929-.304 142.952-.807 133.334 7.435 142.145C166.577 648.6 159.08 648 269.16 648h96.085l6.563 6.139c11.563 10.817 15.564 12.072 38.623 12.11l19.37.033 6.661-3.118c4.117-1.926 9.059-5.418 12.935-9.141L455.67 648h93.506c100.674 0 98.607.1 106.43-5.176 1.894-1.278 5.121-4.741 7.169-7.695l3.725-5.372.298-127.628c.196-84.11-.048-128.822-.716-131.129-3.619-12.504-14.087-20.177-29.082-21.318l-5.5-.418-.5-15.882c-.594-18.862-2.539-23.56-11.702-28.27-7.797-4.006-40.756-9.6-66.463-11.279-47.628-3.11-105.025 7.557-138.883 25.813l-4.549 2.452-6.172-3.062c-11.415-5.664-25.226-10.363-43.698-14.868l-2.966-.724.306-8.849c.422-12.22 1.815-15.431 10.871-25.054 15.361-16.324 22.198-32.989 22.239-54.203.071-37.817-25.692-71.106-62.563-80.837-8.068-2.13-26.3-2.735-34.42-1.144m173.97 17.022c-4.149 1.34-6.73 6.004-10.028 18.121-5.217 19.163-11.31 24.701-35.274 32.058-5.999 1.842-11.745 4.107-12.769 5.033-3.017 2.73-3.462 7.81-.989 11.283 2.19 3.075 3.047 3.452 21.037 9.256 19.838 6.399 23.451 10.656 29.633 34.91 2.297 9.008 4.008 11.89 8.072 13.588 8.198 3.425 12.048-.667 16.273-17.296 5.322-20.944 9.761-25.369 32.747-32.643 13.843-4.38 15.172-5.088 16.795-8.948 2.992-7.115-.63-10.729-15.252-15.219-23.814-7.311-28.841-12.488-35.284-36.337-3.356-12.425-7.475-16.226-14.961-13.806m-171.694 8.132c-29.799 6.475-50.282 39.545-42.754 69.029 2.693 10.551 6.96 17.741 16.608 27.99 12.037 12.786 14.185 17.407 14.624 31.47.18 5.775.543 11.512.806 12.75l.478 2.25h48.018l-.642-6.263c-1.523-14.869 3.169-28.086 13.574-38.237 13.185-12.861 18.802-23.971 19.718-39 1.062-17.417-3.887-29.835-17.144-43.014-15.505-15.414-33.739-21.222-53.286-16.975M519.5 317.57c-36.056 3.397-65.149 10.33-88.25 21.03l-9.25 4.284v123.558c0 67.957.36 123.558.8 123.558s1.227-.418 1.75-.929c1.661-1.625 22.576-9.798 32.95-12.877 39.036-11.585 93.182-13.623 137.301-5.168 5.665 1.086 10.728 1.974 11.25 1.974.594 0 .949-46.023.949-122.922V327.155l-3.25-1.06c-17.157-5.598-64.489-10.387-84.25-8.525m-232.04 9.495c-2.204 3.567 3.007 11.789 8.536 13.468 4.705 1.429 22.75.681 26.499-1.098 5.773-2.739 9.753-11.358 5.923-12.828-2.877-1.104-40.251-.686-40.958.458m-40.96 2.02c-13.143 2.48-26.845 5.635-32.75 7.542l-4.75 1.534v236.056l2.75-.697c35.601-9.021 91.432-10.061 130.25-2.427 18.638 3.666 38.28 10.007 51.25 16.546l4.75 2.395V342.975l-5.36-2.371C380.1 335.058 361.118 329 356.282 329c-1.573 0-2.141 1.14-3.079 6.183-2.418 13.003-10.61 23.427-22.001 27.997-7.809 3.132-36.483 3.442-44.964.486-11.292-3.937-20.345-15.648-22.483-29.087-1.417-8.905-.585-8.64-17.255-5.494m-70.427 46.55c-2.071 2.632-2.073 2.74-2.073 123.345 0 115.143.083 120.785 1.807 122.345 1.642 1.486 10.579 1.66 97.75 1.905l95.943.27 4.745 2.337c2.61 1.285 7.665 4.983 11.234 8.217 8.494 7.698 13.858 9.375 27.95 8.735 11.69-.53 13.826-1.407 22.696-9.321 3.392-3.027 8.239-6.508 10.771-7.736l4.604-2.232 94.787-.5c82.799-.437 94.906-.69 95.734-2 .584-.923.954-48.045.964-122.576L643 377.349l-2.314-2.175c-1.509-1.417-3.593-2.174-5.988-2.174h-3.672l-.263 110.435-.263 110.434-2.915 3.042c-4.313 4.502-8.619 5.63-14.392 3.769-37.289-12.017-94.847-13.977-135.193-4.602-21.657 5.032-41.835 13.21-54.625 22.14-10.802 7.542-14.586 7.478-26.458-.449-41.746-27.875-121.58-35.817-187.105-18.614l-11.688 3.069-3.799-1.862c-2.089-1.024-4.817-3.391-6.062-5.26L186 591.704V373h-3.927c-3.052 0-4.39.587-6 2.635m327.427.862c-49.23 9.263-74.888 63.17-51.299 107.778 4.419 8.355 17.776 22.134 26.456 27.29 37.205 22.1 84.064 7.532 102.769-31.951 8.727-18.421 9.163-42.668 1.086-60.355-14.051-30.768-47.253-48.737-79.012-42.762m0 24.914c-16.442 4.081-30.369 18.47-34.969 36.131-8.411 32.293 21.91 65.362 54.511 59.45 23.486-4.259 40.932-24.924 40.935-48.492.005-30.232-31.031-54.397-60.477-47.089m6.806 23-2.806 2.411-.286 14.839c-.411 21.372 1.098 23.339 17.901 23.339 11.96 0 16.885-2.592 16.885-8.887 0-5.654-3.247-8.428-11.277-9.632l-4.537-.68-.343-9.488c-.324-8.961-.499-9.623-3.149-11.901-3.709-3.189-8.678-3.189-12.388-.001m-220.413 2.086c-8.181 4.447-8.582 16.674-.703 21.477 4.534 2.765 71.713 3.162 76.947.455 8.281-4.282 8.137-17.65-.236-21.98-4.079-2.11-72.117-2.067-76.008.048m-39.858.798c-6.952 2.417-9.812 10.278-6.009 16.515 4.672 7.663 15.813 7.811 20.268.27 5.733-9.705-3.469-20.536-14.259-16.785m37.52 50.955c-4.187 4.194-5.268 9.444-2.951 14.327 3.342 7.044 2.581 6.923 43.535 6.923h36.729l3.043-2.915c6.333-6.067 5.97-14.737-.809-19.298-3.385-2.279-3.532-2.287-39.85-2.287H290.8zm-39.792-.685c-7.82 4.243-7.32 16.045.844 19.919 11.13 5.281 21.708-5.895 15.389-16.259-3.145-5.158-10.441-6.803-16.233-3.66"/></symbol>
</svg>
