<svg xmlns="http://www.w3.org/2000/svg" width="800" height="800" viewBox="0 0 800 800"><path fill-rule="evenodd" d="M293 133.357c-44.381 8.7-73.553 52.821-64.422 97.435 3.171 15.495 8.747 25.877 21.137 39.359 9.31 10.13 10.271 12.417 10.279 24.457l.006 8.108-9.25 1.253c-12.131 1.642-28.302 5.17-51.013 11.128-3.947 1.035-9.975 5.698-12.011 9.29-.658 1.162-1.428 7.263-1.711 13.558l-.515 11.445-6 .359c-13.348.797-20.92 5.611-27.132 17.251-1.792 3.357-1.879 8.677-2.137 129.929-.304 142.952-.807 133.334 7.435 142.145C166.577 648.6 159.08 648 269.16 648h96.085l6.563 6.139c11.563 10.817 15.564 12.072 38.623 12.11l19.37.033 6.661-3.118c4.117-1.926 9.059-5.418 12.935-9.141L455.67 648h93.506c100.674 0 98.607.1 106.43-5.176 1.894-1.278 5.121-4.741 7.169-7.695l3.725-5.372.298-127.628c.196-84.11-.048-128.822-.716-131.129-3.619-12.504-14.087-20.177-29.082-21.318l-5.5-.418-.5-15.882c-.594-18.862-2.539-23.56-11.702-28.27-7.797-4.006-40.756-9.6-66.463-11.279-47.628-3.11-105.025 7.557-138.883 25.813l-4.549 2.452-6.172-3.062c-11.415-5.664-25.226-10.363-43.698-14.868l-2.966-.724.306-8.849c.422-12.22 1.815-15.431 10.871-25.054 15.361-16.324 22.198-32.989 22.239-54.203.071-37.817-25.692-71.106-62.563-80.837-8.068-2.13-26.3-2.735-34.42-1.144m173.97 17.022c-4.149 1.34-6.73 6.004-10.028 18.121-5.217 19.163-11.31 24.701-35.274 32.058-5.999 1.842-11.745 4.107-12.769 5.033-3.017 2.73-3.462 7.81-.989 11.283 2.19 3.075 3.047 3.452 21.037 9.256 19.838 6.399 23.451 10.656 29.633 34.91 2.297 9.008 4.008 11.89 8.072 13.588 8.198 3.425 12.048-.667 16.273-17.296 5.322-20.944 9.761-25.369 32.747-32.643 13.843-4.38 15.172-5.088 16.795-8.948 2.992-7.115-.63-10.729-15.252-15.219-23.814-7.311-28.841-12.488-35.284-36.337-3.356-12.425-7.475-16.226-14.961-13.806m-171.694 8.132c-29.799 6.475-50.282 39.545-42.754 69.029 2.693 10.551 6.96 17.741 16.608 27.99 12.037 12.786 14.185 17.407 14.624 31.47.18 5.775.543 11.512.806 12.75l.478 2.25h48.018l-.642-6.263c-1.523-14.869 3.169-28.086 13.574-38.237 13.185-12.861 18.802-23.971 19.718-39 1.062-17.417-3.887-29.835-17.144-43.014-15.505-15.414-33.739-21.222-53.286-16.975M519.5 317.57c-36.056 3.397-65.149 10.33-88.25 21.03l-9.25 4.284v123.558c0 67.957.36 123.558.8 123.558s1.227-.418 1.75-.929c1.661-1.625 22.576-9.798 32.95-12.877 39.036-11.585 93.182-13.623 137.301-5.168 5.665 1.086 10.728 1.974 11.25 1.974.594 0 .949-46.023.949-122.922V327.155l-3.25-1.06c-17.157-5.598-64.489-10.387-84.25-8.525m-232.04 9.495c-2.204 3.567 3.007 11.789 8.536 13.468 4.705 1.429 22.75.681 26.499-1.098 5.773-2.739 9.753-11.358 5.923-12.828-2.877-1.104-40.251-.686-40.958.458m-40.96 2.02c-13.143 2.48-26.845 5.635-32.75 7.542l-4.75 1.534v236.056l2.75-.697c35.601-9.021 91.432-10.061 130.25-2.427 18.638 3.666 38.28 10.007 51.25 16.546l4.75 2.395V342.975l-5.36-2.371C380.1 335.058 361.118 329 356.282 329c-1.573 0-2.141 1.14-3.079 6.183-2.418 13.003-10.61 23.427-22.001 27.997-7.809 3.132-36.483 3.442-44.964.486-11.292-3.937-20.345-15.648-22.483-29.087-1.417-8.905-.585-8.64-17.255-5.494m-70.427 46.55c-2.071 2.632-2.073 2.74-2.073 123.345 0 115.143.083 120.785 1.807 122.345 1.642 1.486 10.579 1.66 97.75 1.905l95.943.27 4.745 2.337c2.61 1.285 7.665 4.983 11.234 8.217 8.494 7.698 13.858 9.375 27.95 8.735 11.69-.53 13.826-1.407 22.696-9.321 3.392-3.027 8.239-6.508 10.771-7.736l4.604-2.232 94.787-.5c82.799-.437 94.906-.69 95.734-2 .584-.923.954-48.045.964-122.576L643 377.349l-2.314-2.175c-1.509-1.417-3.593-2.174-5.988-2.174h-3.672l-.263 110.435-.263 110.434-2.915 3.042c-4.313 4.502-8.619 5.63-14.392 3.769-37.289-12.017-94.847-13.977-135.193-4.602-21.657 5.032-41.835 13.21-54.625 22.14-10.802 7.542-14.586 7.478-26.458-.449-41.746-27.875-121.58-35.817-187.105-18.614l-11.688 3.069-3.799-1.862c-2.089-1.024-4.817-3.391-6.062-5.26L186 591.704V373h-3.927c-3.052 0-4.39.587-6 2.635m327.427.862c-49.23 9.263-74.888 63.17-51.299 107.778 4.419 8.355 17.776 22.134 26.456 27.29 37.205 22.1 84.064 7.532 102.769-31.951 8.727-18.421 9.163-42.668 1.086-60.355-14.051-30.768-47.253-48.737-79.012-42.762m0 24.914c-16.442 4.081-30.369 18.47-34.969 36.131-8.411 32.293 21.91 65.362 54.511 59.45 23.486-4.259 40.932-24.924 40.935-48.492.005-30.232-31.031-54.397-60.477-47.089m6.806 23-2.806 2.411-.286 14.839c-.411 21.372 1.098 23.339 17.901 23.339 11.96 0 16.885-2.592 16.885-8.887 0-5.654-3.247-8.428-11.277-9.632l-4.537-.68-.343-9.488c-.324-8.961-.499-9.623-3.149-11.901-3.709-3.189-8.678-3.189-12.388-.001m-220.413 2.086c-8.181 4.447-8.582 16.674-.703 21.477 4.534 2.765 71.713 3.162 76.947.455 8.281-4.282 8.137-17.65-.236-21.98-4.079-2.11-72.117-2.067-76.008.048m-39.858.798c-6.952 2.417-9.812 10.278-6.009 16.515 4.672 7.663 15.813 7.811 20.268.27 5.733-9.705-3.469-20.536-14.259-16.785m37.52 50.955c-4.187 4.194-5.268 9.444-2.951 14.327 3.342 7.044 2.581 6.923 43.535 6.923h36.729l3.043-2.915c6.333-6.067 5.97-14.737-.809-19.298-3.385-2.279-3.532-2.287-39.85-2.287H290.8zm-39.792-.685c-7.82 4.243-7.32 16.045.844 19.919 11.13 5.281 21.708-5.895 15.389-16.259-3.145-5.158-10.441-6.803-16.233-3.66"/></svg>