<svg xmlns="http://www.w3.org/2000/svg" width="800" height="800" viewBox="0 0 800 800"><path fill-rule="evenodd" d="M470.5 154.991c-19.25 3.262-42.2 7.083-51 8.49s-25.675 4.13-37.5 6.049l-55.5 9.009c-18.7 3.035-42.1 6.844-52 8.465a7574 7574 0 0 1-40.5 6.477c-20.609 3.233-23.183 3.865-30.629 7.513-13.783 6.753-23.104 17.039-27.994 30.893l-2.335 6.613-.021 185.727L173 609.954l2.459 6.534c5.645 14.996 17.019 25.418 32.397 29.682 6.227 1.726 13.358 1.83 126.009 1.83h119.409l11.113 5.442c19.988 9.789 22.889 9.695 45.461-1.471 22.592-11.176 36.222-20.879 53.225-37.891 24.6-24.612 37.448-47.577 42.374-75.738 2.291-13.095 2.238-67.974-.071-74.752-2.226-6.532-7.68-11.91-15.937-15.717-3.816-1.759-7.103-3.327-7.303-3.484-.201-.156.637-2.354 1.861-4.883 5.298-10.944 6.229-17.2 6.924-46.506.608-25.648.799-27.779 2.836-31.64 3.592-6.811 4.193-11.805 4.219-35.076l.024-22.217 3.901-6.034c5.884-9.104 6.602-13.317 6.572-38.533-.031-24.871-.675-27.499-8.134-33.192l-3.679-2.808-29.58-.5-29.58-.5-.5-27.5c-.56-30.819-.582-30.914-8.738-38.074-10.333-9.073-14.765-9.222-57.762-1.935m19.5 23.078c-15.723 2.74-76.28 12.718-123.5 20.35-12.1 1.955-37.075 6.007-55.5 9.003s-41.488 6.704-51.25 8.239l-17.75 2.79v151.775c0 133.898.176 151.774 1.492 151.774 1.388 0 33.083-5.121 52.508-8.484 11.444-1.982 56.315-9.245 62.25-10.077l4.75-.666v-17.261c0-28.207 2.043-31.201 28-41.037 15.681-5.942 21.363-8.792 33.893-17.002 29.341-19.225 55.196-23.724 85.357-14.853 1.66.488 1.75-5.569 1.75-117.353 0-90.341-.28-118.147-1.2-119.067-1.52-1.52-1.177-1.551-20.8 1.869m-279.543 48.309c-5.075 3.418-9.471 8.792-11.401 13.937-.724 1.93-1.056 50.121-1.056 153.335v150.52l4.63-4.075c2.546-2.242 6.595-5.317 8.998-6.835l4.368-2.76.002-153.75c.001-84.562-.117-153.75-.261-153.75s-2.521 1.52-5.28 3.378M537 270.5V292l14.25-.006c17.507-.006 20.967-.87 26.5-6.616l4.25-4.413V249h-45zm0 69.605v21.106l11.75-.393c20.424-.682 22.605-3.146 23.069-26.068l.319-15.75H537zm.228 65.971.272 19.075 10.401 5.489c11.747 6.198 10.952 6.402 14.231-3.64 1.947-5.963 4.398-36.724 3.127-39.25-.207-.413-6.66-.75-14.34-.75h-13.962zM476.5 433.654c-12.225 1.939-22.645 6.209-36 14.751-11.648 7.451-30.668 16.655-41.75 20.205l-8.75 2.802v27.663c0 28.992.944 38.721 4.843 49.925 9.163 26.324 26.847 47.836 54.691 66.528C461.073 623.274 482.41 634 486.279 634c1.239 0 7.128-2.455 13.086-5.455 32.243-16.235 58.498-40.628 71.038-65.999 9.88-19.991 11.773-30.87 11.383-65.445l-.286-25.4-14.5-5.211c-18.329-6.587-23.198-8.79-38.276-17.312-23.848-13.478-38.21-17.748-52.224-15.524m47.5 50.397c-1.375.567-13.628 12.138-27.23 25.713l-24.73 24.681-3.77-3.514c-2.073-1.933-7.414-6.922-11.867-11.087-5.854-5.475-9.02-7.708-11.432-8.062-13.256-1.945-22.12 11.284-13.862 20.69 8.521 9.704 32.634 33.861 35.045 35.108 5.341 2.762 11.736 1.496 16.644-3.295 1.569-1.532 15.299-15.983 30.51-32.114 30.021-31.836 31.247-33.582 28.35-40.384-2.986-7.011-10.954-10.501-17.658-7.736m-177.5 47.492c-7.7 1.29-28.4 4.632-46 7.426-60.904 9.666-61.206 9.727-70 13.999-31.026 15.072-42.682 54.56-19.564 66.282l5.423 2.75h199.397l-8.158-7.963c-4.487-4.38-9.495-9.769-11.128-11.976l-2.97-4.014-76.115-.023c-75.656-.024-76.131-.037-78.77-2.112-5.608-4.412-7.065-11.022-3.659-16.608 4.387-7.195-.034-6.773 74.161-7.081l66.707-.277-3.339-7.723c-3.866-8.939-7.093-20.632-8.064-29.221-.527-4.651-1.044-5.98-2.3-5.904-.892.054-7.921 1.154-15.621 2.445"/></svg>