<svg xmlns="http://www.w3.org/2000/svg" width="800" height="800" viewBox="0 0 800 800"><path fill-rule="evenodd" d="M391 180.973c-26.93 3.729-47.818 22.115-55.043 48.452-2.836 10.336-2.431 28.56.856 38.575 12.406 37.793 55.953 56.093 91.687 38.529 44.146-21.698 50.059-81.742 11.033-112.045-13.513-10.494-32.386-15.748-48.533-13.511m166.757 38.992c-23.97 4.382-42.983 22.193-45.527 42.648l-.732 5.887-10.499.567c-14.7.793-21.313 4.673-27.162 15.933-3.079 5.928-4.063 31.13-1.459 37.362 3.291 7.877 14.382 9.277 20.058 2.532 2.445-2.907 2.564-3.611 2.564-15.248 0-17.201-.563-16.646 16.909-16.646 20.064 0 22.763-2.233 24.098-19.934.848-11.254 1.657-13.581 6.635-19.091 6.774-7.498 11.195-8.975 26.865-8.975 15.051 0 18.615 1.035 25.331 7.358 5.771 5.433 7.441 9.914 8.085 21.69.934 17.083 3.329 18.952 24.278 18.952 9.088 0 13.785.386 14.599 1.2.901.901 1.2 13.479 1.2 50.457v49.257l-4.645-4.966C629.052 379.003 619.109 376 595.479 376H580.23l-.675-5.403C577.032 350.403 556.64 333 535.5 333c-21.119 0-40.804 16.889-43.075 36.957l-.663 5.866-19.631.408c-22.285.463-26.107 1.382-33.779 8.118-9.615 8.442-11.388 13.985-12.208 38.151l-.644 19-89 .5-89 .5-5.37 2.974c-5.417 3.001-8.338 6.111-11.762 12.526-1.789 3.351-1.868 7.794-1.868 104.5 0 110.919-.411 103.476 6.232 112.718 2.509 3.49 5.118 5.567 10.033 7.987l6.642 3.27 20.695.374 20.695.374.649 5.195c2.078 16.627 15.351 28.377 30.915 27.368 8.979-.583 9.299-.757 32.169-17.489 10.433-7.633 19.645-14.31 20.47-14.838.906-.579 31.98-1.157 78.5-1.459 71.812-.466 77.223-.622 80.31-2.307 5.448-2.974 11.178-8.749 14.018-14.13l2.672-5.063v-202l-2.71-5.138c-1.491-2.826-4.58-6.739-6.867-8.696-7.586-6.493-8.911-6.666-51.167-6.666-24.204 0-38.586-.374-39.822-1.035-1.792-.96-1.934-2.246-1.934-17.577v-16.542l2.923-2.923 2.923-2.923 25.327-.004c33.423-.005 34.802-.785 34.849-19.714.038-15.324 7.157-24.282 19.297-24.282 13.046 0 19.763 7.763 20.727 23.956 1.177 19.757 1.661 20.044 33.839 20.044 13.192 0 25.116.43 26.498.955 5.696 2.166 5.707 2.257 5.64 45.584-.07 44.972.014 44.424-8.023 52.461-7.105 7.105-11.211 8.359-28.117 8.585-16.606.221-18.674.937-21.238 7.345-2.479 6.196-.292 12.189 5.533 15.161 4.931 2.516 24.946 2.705 34.178.324 20.366-5.254 37.086-22.5 40.574-41.849.596-3.302 1.079-18.823 1.09-35l.019-29.066 5.731-4.525c6.267-4.949 11.445-12.626 13.761-20.407 1.81-6.077 2.187-106.444.423-112.793-1.36-4.896-6.464-11.484-11.818-15.25-4.081-2.871-4.882-3.042-15.718-3.361L627 268.828v-3.309c0-13.808-12.02-31.454-26.787-39.325-10.593-5.646-30.039-8.499-42.456-6.229m-337.492 18.577c-37.084 9.987-54.066 54.768-33.073 87.211 24.364 37.651 81.013 34.12 100.311-6.253 15.677-32.799-4.289-74.155-39.302-81.403-7.229-1.496-21.577-1.268-27.936.445m128.773 91.535c-32.29 7.283-59.409 35.227-65.603 67.596-1.541 8.058-1.927 27.003-.593 29.106.607.957 5.085 1.281 17.735 1.286 9.308.004 38.545-.01 64.973-.029l48.049-.036-.049-13.25c-.039-10.433.349-14.419 1.826-18.75 8.786-25.763 33.355-39.314 60.624-33.439 2.33.502 2.696.012 5.378-7.197 3.412-9.173 3.408-9.183-5.903-14.827-19.066-11.557-25.243-12.558-76.813-12.453-36.689.075-42.082.292-49.624 1.993m-143.58 38.038c-30.562 2.626-54.866 23.102-62.375 52.552-1.875 7.352-2.083 11.063-2.083 37.234v29.067l2.917 3.266 2.917 3.266 30.98.291 30.98.29 2.853-2.452c2.842-2.443 2.855-2.508 3.445-17.441.702-17.775 3.615-25.882 12.351-34.373 8.434-8.198 15.748-11.117 29.134-11.629l11.423-.438v-9.801c0-16.477 3.459-34.199 8.625-44.189 1.443-2.791 1.416-2.843-2.332-4.421-4.319-1.819-52.036-2.666-68.835-1.222M254.2 467.2c-1.74 1.74-1.74 191.86 0 193.6.875.875 8.596 1.2 28.484 1.2h27.284l3.266 2.914 3.266 2.915.5 13.309c.484 12.879.579 13.349 2.937 14.521 3.201 1.592 2.794 1.833 26.563-15.677 11-8.104 21.44-15.464 23.2-16.358 2.87-1.456 11.04-1.624 79.179-1.624 67.738 0 76.149-.17 77.55-1.571 2.073-2.073 2.436-191.164.371-193.229-1.744-1.744-270.856-1.744-272.6 0m112.268 27.199c-2.552 1.112-16.775 15.469-41.051 41.439l-5.084 5.438-8.7-9.025c-6.895-7.152-9.56-9.243-12.845-10.077-10.786-2.738-18.739 8.469-12.474 17.578 5.391 7.837 27.038 28.964 30.433 29.701 6.678 1.449 8.754-.199 37.095-29.455 30.006-30.973 30.631-31.879 27.261-39.497-2.78-6.287-8.621-8.722-14.635-6.102m34.722 27.627c-7.08 4.316-7.621 13.909-1.095 19.4l3.058 2.574h43.473c48.316 0 47.684.082 50.841-6.572 2.933-6.181.507-12.789-5.793-15.779-5.882-2.79-85.835-2.458-90.484.377m-35.69 42.795c-1.65 1.054-6.375 5.463-10.5 9.798a8002 8002 0 0 1-20.404 21.316l-12.905 13.433-8.638-8.982C302.621 589.539 300.53 588 296.228 588c-9.587 0-15.297 9.708-10.294 17.5 1.059 1.65 8.166 9.413 15.792 17.25L315.593 637l5.454.038 5.453.038 27.262-27.712c29.924-30.417 30.981-31.889 27.767-38.662-3.133-6.601-10.608-9.344-16.029-5.881m36.263 24.728c-8.258 4.53-7.178 18.29 1.727 22.011 5.854 2.446 82.571 2.05 88.086-.455 7.816-3.55 9.444-12.693 3.453-19.399l-2.864-3.206-43.832-.227c-37.405-.193-44.234-.006-46.57 1.276"/></svg>