<svg xmlns="http://www.w3.org/2000/svg" width="800" height="800" viewBox="0 0 800 800"><path fill-rule="evenodd" d="M381.432 175.443c-53.157 13.744-75.553 74.649-44.364 120.648 22.206 32.752 63.634 42.911 98.983 24.273 31.33-16.519 48.533-56.083 39.074-89.864-11.366-40.591-53.617-65.419-93.693-55.057m5.259 24.058c-22.688 6.237-38.588 27.43-38.667 51.539-.078 24.161 17.042 46.314 40.518 52.429 36.01 9.379 71.308-26.107 63.333-63.67-3.92-18.461-20.49-35.424-39.335-40.267-7.15-1.838-19.225-1.852-25.849-.031m184.577 21.454C558.785 225.448 550 236.65 550 248.075v3.719l-12.273.353c-15.15.436-22.311 3.335-30.578 12.38-9.582 10.485-9.598 10.579-9.947 59.223-.166 23.238-.499 42.25-.738 42.25-.24 0-4.118-2.697-8.619-5.994-50.935-37.31-129.728-36.868-176.652.989l-6.306 5.088-5.194-4.672c-9.702-8.728-26.531-18.417-36.156-20.817l-2.964-.739 5.464-3.105c22.437-12.752 35.092-41.093 29.524-66.119-10.637-47.812-68.716-67.231-103.835-34.717-32.288 29.893-26.871 79.11 11.218 101.936 2.37 1.42 2.993 2.222 2 2.57-35.142 12.307-55.2 32.391-62.497 62.58-2.94 12.162-2.764 45.972.269 51.643 2.971 5.556 9.423 10.903 14.785 12.253 5.417 1.364 107.103 1.496 112.922.147 8.265-1.918 12.87-7.713 14.547-18.311 3.831-24.219 12.151-40.959 28.475-57.292 47.973-47.999 129.3-45.847 178.226 4.716l5.171 5.344.329 17.554.329 17.555 3.766 7.617c6.531 13.21 17.57 21.065 31.949 22.734 8.449.98 101.473.995 116.285.018 15.973-1.053 27.949-8.939 34.783-22.904l3.217-6.574v-155l-2.28-5.638c-3.131-7.743-12.612-17.938-20.009-21.516-5.015-2.426-7.144-2.811-17.461-3.16l-11.75-.397-.01-4.144c-.023-9.837-9.901-22.597-20.589-26.596-7.765-2.905-36.154-2.966-44.133-.094m19.058 22.007c-16.122.776-16.326 1.013-16.326 18.908 0 13.31.042 13.564 2.687 16.325 2.682 2.8 2.712 2.805 16.077 2.805h13.39l2.923-2.923 2.923-2.923v-13.061c0-12.874-.039-13.103-2.75-15.981-3.371-3.578-4.862-3.827-18.924-3.15m-368.04 3.431c-36.172 11.797-35.329 62.527 1.217 73.151 29.442 8.559 57.583-21.545 46.578-49.829-6.96-17.887-29.994-29.127-47.795-23.322m303.949 34.03-3.735 3.423v74.504c0 84.292-.68 77.366 8.094 82.384l3.906 2.233 57.79.017c55.561.015 57.939-.06 61.655-1.956 4.731-2.413 7.719-6.067 9.072-11.09 1.786-6.633.841-141.731-1.017-145.401-2.849-5.626-7.196-7.537-17.148-7.537H636v2.804c0 6.796-8.113 17.826-16.92 23.003l-4.58 2.693h-44l-4.651-2.734c-8.632-5.074-15.849-15.75-15.849-23.444 0-2.275-.204-2.322-10.015-2.322-10.008 0-10.017.002-13.75 3.423M629.5 319.392c-2.614 1.145-44.448 43.327-45.333 45.71-.936 2.521-4.593-.045-13.107-9.197-10.42-11.201-13.998-13.514-19.347-12.511-8.09 1.518-12.182 8.539-9.023 15.483 2.064 4.537 28.211 32.503 32.429 34.684 4.222 2.184 10.073 1.805 13.991-.906 3.562-2.465 44.322-43.359 52.267-52.438 7.269-8.308 6.002-17.072-3.013-20.838-4.005-1.674-5.016-1.672-8.864.013M220 362.512c-26.829 4.676-48.031 23.251-53.511 46.881-1.084 4.673-1.463 10.621-1.268 19.887l.279 13.22 47.554.26 47.555.259 1.772-9.246c3.026-15.787 10.085-31.931 19.255-44.034 2.4-3.169 4.364-6.1 4.364-6.513s-2.363-2.572-5.25-4.797c-18.766-14.458-38.881-19.728-60.75-15.917m408.02 35.24c-10.734 5.392-10.108 19.044 1.026 22.38 12.828 3.843 21.102-15.193 9.64-22.182-3.936-2.4-6.2-2.442-10.666-.198M392.5 413.115c-25.145 2.561-47.085 20.001-56.147 44.631-2.635 7.162-2.852 8.822-2.842 21.754.016 20.136 4.506 31.615 18.167 46.438l6.178 6.704-6.678 3.275c-24.915 12.22-45.567 34.019-54.081 57.083-4.715 12.775-6.083 21.654-6.09 39.544L291 649.588l3.25 5.363c2.419 3.991 4.653 6.149 8.735 8.435l5.485 3.073 92.075-.112c103.405-.126 95.618.441 103.093-7.509 5.561-5.915 6.675-9.283 7.169-21.681 1.025-25.736-6.082-49.685-20.176-67.981-10.236-13.288-28.216-27.727-42.006-33.735l-6.153-2.681 6.087-6.208c27.983-28.539 25.273-73.556-5.941-98.703-13.639-10.988-32.489-16.53-50.118-14.734m.5 24.896c-14.539 2.508-24.845 10.795-31.701 25.489-4.577 9.811-4.176 24.321.96 34.711 18.589 37.607 73.241 29.396 80.97-12.165 4.976-26.758-22.308-52.851-50.229-48.035m-14.193 113.025c-26.047 6.406-48.783 25.942-58.447 50.223-5.414 13.603-7.511 38.519-3.426 40.706 1.289.689 29.343 1.035 84 1.035H483l2.137-2.137c4.136-4.136 1.089-27.527-5.502-42.234-15.941-35.565-61.769-57.197-100.828-47.593"/></svg>