<svg xmlns="http://www.w3.org/2000/svg" width="800" height="800" viewBox="0 0 800 800"><path fill-rule="evenodd" d="M503 152.585c-36.815 3.141-61.809 8.328-83 17.224-15.496 6.505-25.302 14.251-30.625 24.191-2.391 4.463-2.736 22.656-.482 25.371 2.548 3.07.642 2.577-13.428-3.471-46.334-19.918-40.163-19.495-74.965-5.139-9.35 3.857-23.075 9.497-30.5 12.533s-18.675 7.641-25 10.234-20.05 8.194-30.5 12.447a18559 18559 0 0 0-35.5 14.497c-9.075 3.72-20.325 8.32-25 10.222-17.414 7.083-20.064 11.467-20.732 34.297-.63 21.545 1.308 76.946 3.218 92.009 4.808 37.905 14.606 71.296 29.915 101.946 29.971 60.004 85.142 112.671 151.099 144.241 12.618 6.04 17.547 5.97 30.112-.428 56.586-28.815 100.57-66.474 131.353-112.466 4.862-7.265 8.996-13.593 9.187-14.063.192-.47 6.423-.294 13.848.391 74.914 6.91 140.893-10.915 156.013-42.147 3.636-7.511 3.763-12.595 3.623-144.474-.152-143.533.424-132.132-7.172-141.882-16.226-20.827-64.5-34.505-125.464-35.549-11.825-.203-23.525-.195-26 .016m3 25.005c-46.816 4.029-78.581 12.215-90.836 23.407-8.131 7.427-3.739 13.785 14.663 21.229 46.791 18.93 126.797 20.711 177.673 3.955 17.917-5.901 28.5-12.767 28.5-18.491 0-7.948-18.977-18.093-43.205-23.097-4.147-.857-8.159-1.787-8.917-2.067-7.894-2.92-61.684-6.329-77.878-4.936m-180 50.912c-5.185 2.309-33 13.682-85.5 34.958-25.09 10.168-66.753 27.242-75.5 30.941l-5.5 2.326.239 38.823c.341 55.535 3.634 80.374 15.433 116.45 23.221 70.991 75.17 129.144 147.075 164.637l9.747 4.812 8.753-4.328C420.698 577.592 475.875 510.123 495.413 428c6.987-29.367 8.087-41.537 8.087-89.462v-41.962l-10-4.159c-15.619-6.497-55.357-22.857-73-30.053-8.8-3.589-20.05-8.222-25-10.296-25.061-10.502-59.832-24.751-62-25.409-1.154-.35-4.326.43-7.5 1.843m303.127 16.115c-17.436 7.958-39.248 13.337-70.449 17.371-10.031 1.298-55.052 1.28-64.078-.025-3.794-.548-7.056-.84-7.248-.648s4.038 2.082 9.4 4.2C528.689 278.133 530 279.861 530 309.328v16.966l11.75-.685c13.59-.791 31.476-2.98 42.25-5.172 21.022-4.277 44.389-13.546 49.519-19.642l2.481-2.948v-27.924c0-15.358-.337-27.886-.75-27.841s-3.168 1.186-6.123 2.535M322.489 291.08c-11.698 1.452-22.415 6.85-32.201 16.218-14.638 14.011-20.219 28.965-20.268 54.305l-.02 10.104-7.664.647c-12.331 1.043-20.328 7.133-23.781 18.11-1.455 4.625-1.619 10.468-1.355 48.15.339 48.511.328 48.44 8.847 55.663 3.617 3.068 49.406 29.334 68.399 39.238l8.946 4.665 9.054-.34 9.054-.34 16.406-9c20.526-11.261 20.226-11.093 39.988-22.418 29.813-17.087 27.606-11.603 27.606-68.582 0-50.957-.022-51.125-7.669-58.034-5.255-4.747-9.554-6.475-17.839-7.17l-6.74-.565-.484-16.115c-.418-13.929-.826-17.078-3.009-23.205-10.026-28.15-37.496-45.027-67.27-41.331m.894 25.805c-10.115 2.621-18.463 9.467-23.581 19.335-3.171 6.117-3.265 6.663-3.621 21.03l-.364 14.75H368l-.015-10.25c-.032-22.043-6.821-35.177-21.868-42.301-5.996-2.839-16.918-4.071-22.734-2.564M628 334.147c-19.38 8.943-50.945 15.253-82.75 16.544l-15.25.619v5.971c0 10.937-3.876 48.703-5.642 54.969-.443 1.574.396 1.746 8.325 1.711 43.307-.19 92.439-12.876 101.838-26.295 1.599-2.282 2.3-56.747.729-56.592-.413.041-3.675 1.424-7.25 3.073M322.907 414.32c-10.635 5.599-12.43 20.263-3.502 28.604 2.451 2.29 2.595 2.967 2.595 12.203 0 5.379.5 10.876 1.11 12.216 1.807 3.966 7.382 6.079 11.892 4.506 4.595-1.601 5.998-5.318 5.998-15.89 0-8.94.074-9.228 3.382-13.092 13.695-15.999-3.044-38.25-21.475-28.547m308.786 5.832c-22.731 11.667-59.369 18.744-97.415 18.818l-15.222.03-1.601 5.75c-3.34 11.995-7.857 25.115-12.11 35.17-2.791 6.6-4.057 10.768-3.453 11.372 1.572 1.572 39.8 2.123 54.904.792 31.11-2.742 57.505-10.457 72.031-21.052 6.837-4.987 7.252-6.866 6.942-31.447l-.269-21.386z"/></svg>