<svg xmlns="http://www.w3.org/2000/svg" width="800" height="800" viewBox="0 0 800 800"><path fill-rule="evenodd" d="M397 136.792c0 1.095-.766 1.305-3.08.842-2.223-.445-2.954-.271-2.625.625.25.683.945 1.134 1.544 1.003s.832.432.518 1.25c-.648 1.688-2.932 1.985-3.85.499-.363-.587.086-.721 1.105-.33 2.442.938.861-1.37-1.918-2.798-1.732-.89-1.95-.868-1.034.104 1.954 2.077-.386 7.461-2.519 5.795-1.461-1.142-1.492-1.092-.278.457.75.956 1.732 1.512 2.181 1.234s1.1-.048 1.446.511c.363.587-.452 1.016-1.931 1.016-1.407 0-2.559-.498-2.559-1.107s-.642-.861-1.427-.559-1.935-.066-2.557-.814c-1.304-1.572-6.998.992-7.01 3.157-.003.647-.794 1.382-1.756 1.634-1.317.344-1.193.486.5.573 1.237.064 2.137.658 2 1.321s.387 1.225 1.167 1.25c.779.025 1.618.651 1.865 1.392.355 1.064.018 1.116-1.601.25-1.127-.603-3.092-1.129-4.365-1.167-2.093-.064-2.13-.143-.389-.825 1.902-.746 1.902-.766 0-1.594-3.322-1.445-4.828-1.091-6.086 1.433q-2.385 4.783 2.194 3.043c1.788-.68 2.469-.601 2.48.288.01.763.292.848.75.225.98-1.333 3.884-1.251 5.284.149.805.805.816 1.317.038 1.797-.598.37-1.087.195-1.087-.387s-.477-1.059-1.059-1.059-.8.419-.484.931c1.002 1.621-1.175 2.114-2.466.558-1.637-1.973-3.871-1.881-6.395.261-1.76 1.494-1.873 1.506-.773.081 1.081-1.401.998-1.838-.518-2.72-.993-.578-1.242-1.064-.555-1.081.688-.016 1.25-.473 1.25-1.014s-1.814-.039-4.03 1.117c-3.101 1.616-3.894 2.53-3.439 3.964.325 1.024.08 2.659-.546 3.633-1.062 1.655-1.101 1.657-.592.02.299-.963.06-1.75-.531-1.75-.592 0-.837-.624-.544-1.387.767-1.998-2.597-.932-5.461 1.731-1.275 1.186-2.673 2.041-3.106 1.9-2.005-.652-7.707 2.706-7.134 4.201.328.855.136 1.555-.427 1.555s-1.221-.562-1.462-1.25-.447-.048-.458 1.421c-.014 1.835.402 2.508 1.329 2.153 2.123-.815 4.414 1.94 2.838 3.412-.974.911-1.538.847-2.472-.278-2.353-2.835-4.278-1.771-3.662 2.024.311 1.915.152 3.737-.354 4.049-.505.313-.829 1.646-.72 2.964.142 1.717.532 2.118 1.379 1.416 1.305-1.083 4.415 1.349 4.362 3.41-.017.649-.456.452-.975-.437-1.405-2.403-5.962-1.31-5.458 1.31.277 1.437-.032 1.83-1.115 1.415a1.59 1.59 0 0 0-2.067.908c-.313.816-1.169 1.483-1.903 1.483-1.858 0-2.728 1.711-1.314 2.585.667.413.905.293.552-.277-.382-.619 1.238-.967 4.255-.911 2.949.054 4.654.486 4.317 1.096-.305.554.011.484.704-.156 1.795-1.657.314-3.814-1.555-2.263-1.108.919-1.411.849-1.411-.329 0-2.495 2.593-4.033 4.805-2.85 1.062.569 2.324.713 2.803.32s.069.242-.912 1.411c-2.251 2.686.121 4.1 3.626 2.164 1.905-1.052 1.959-1.248.428-1.57-1.866-.391-2.473-3.22-.691-3.22.582 0 .734.526.336 1.17q-.719 1.167.876.556c.88-.337 1.752-.156 1.939.403.186.56 3.151-.572 6.588-2.515 3.437-1.942 6.351-3.521 6.475-3.508.125.013 1.015-.279 1.977-.648 1.833-.704 2.456-3.458.781-3.458-.532 0-.691-.787-.352-1.75.479-1.361.137-1.258-1.539.466-1.185 1.219-2.791 1.971-3.57 1.673-1.683-.647-2.929-3.389-1.539-3.389.533 0 .969.45.969 1 0 1.539 2.135 1.187 4.214-.694 1.772-1.603 1.902-1.577 2.446.5.315 1.207.997 2.194 1.516 2.194.518 0 .724.354.456.786s.293.785 1.245.785c.951 0 1.79-.803 1.864-1.785s-.314-1.786-.862-1.786-.659.563-.246 1.25c.51.849.209.81-.941-.122-1.919-1.557-2.288-2.615-.534-1.531.799.495.975.021.569-1.533-.547-2.092-.466-2.138 1.176-.652 1.529 1.384 1.764 1.396 1.764.092 0-.827-.465-1.504-1.034-1.504-.675 0-.654-.379.06-1.093.79-.79 1.745-.731 3.45.213 1.296.718 2.728 1.198 3.181 1.068.454-.131.517.26.141.868s-1.719.846-2.985.528c-1.796-.45-2.246-.193-2.046 1.169.141.961.664 1.581 1.161 1.377l2.905-1.19c3.099-1.272 8.142-4.926 6.809-4.933-.655-.004-1.469.443-1.809.993-.948 1.534-2.5 1.187-2.5-.559 0-.981-.463-1.281-1.25-.808-.997.599-.999.441-.009-.783.683-.844 1.024-1.752.758-2.018s.908-.279 2.61-.029c2.314.339 2.753.697 1.742 1.42-1.025.732-.928.83.399.403.962-.31 1.75-.135 1.75.389 0 1.893 6.588-2.192 6.737-4.177.122-1.618-.117-1.767-1.282-.8-.788.654-1.143 1.657-.789 2.23.386.625.155.739-.578.286-.672-.415-.97-1.005-.663-1.312s-.001-1.274-.684-2.15c-1.098-1.409-1.039-1.434.509-.22 1.127.884 1.75.977 1.75.262 0-.612 1.117-1.019 2.483-.906 1.628.135 2.145.544 1.5 1.189-1.857 1.857-.983 2.893.959 1.136 1.068-.967 3.049-1.824 4.404-1.905s2.254-.486 1.999-.898.04-.75.655-.75.866-.408.558-.907c-.309-.498.335-.672 1.429-.386s1.701.989 1.347 1.561c-.354.573-.17.749.407.392.578-.357 2.303 0 3.833.794s3.164 1.208 3.629.92c.466-.287.723.073.572.802-.164.789.596 1.296 1.883 1.255 1.576-.051 2.062.427 1.802 1.776-.199 1.035.08 1.577.636 1.234.545-.337 1.655-.062 2.467.611 1.185.984 1.861.874 3.446-.561 1.807-1.635 1.835-1.885.33-2.985-1.303-.952-1.372-1.368-.336-2.008.863-.533 1.064-.416.592.347-.448.726.03 1.155 1.287 1.155 1.1 0 2.278-.45 2.618-1s1.041-1 1.559-1 .941.45.941 1-.605 1-1.345 1c-1.709 0-4.88 3.442-3.991 4.331.368.368.219.669-.331.669-2.168 0-.849 2.509 1.392 2.648 1.316.081 3.153.807 4.083 1.613s7.092 4.262 13.692 7.68c6.6 3.417 11.876 6.662 11.725 7.211-.151.548.182.715.739.37.558-.344 2.706.132 4.775 1.058 11.196 5.016 12.405 5.713 11.2 6.458-.796.492-.379.772 1.158.776 1.322.003 3.078.117 3.903.253 3.528.583 7.099-.098 6.405-1.222-.433-.699-.276-.883.397-.467.611.377.879 1.289.597 2.025s.215 1.619 1.107 1.961c.891.342 1.341 1.075.998 1.629S483.385 205 484 205s.84.45.5 1c-.876 1.417.839 1.242 2.447-.25 1.007-.935 1.173-.943.659-.029-.436.774.239 1.453 1.846 1.856 1.394.35 2.312.996 2.04 1.436s.476.547 1.663.236c1.187-.31 1.905-.156 1.597.343-.309.5.521 1.012 1.843 1.14 5.833.563 6.283.71 5.409 1.763-1.062 1.28 2.89 1.306 4.951.033.838-.518 1.117-.454.734.167-.342.552.474 1.589 1.811 2.305s2.189 1.796 1.892 2.401.191.199 1.084-.901c1.612-1.985 1.64-1.981 3.661.5 1.12 1.375 1.686 1.825 1.258 1-.669-1.288-.542-1.308.902-.137.925.75 1.46 1.721 1.191 2.157-.27.436.48.54 1.667.229 1.322-.346 1.915-.172 1.532.449-.384.621.33.83 1.843.541 1.359-.26 2.47-.87 2.47-1.356 0-.485.498-.883 1.107-.883s.841.692.517 1.538c-.335.873.048 1.783.887 2.105.813.311 1.254.927.982 1.369-.273.441.405.566 1.506.278s2.001-.133 2.001.343 1.022.867 2.27.867c1.955 0 2.219-.435 1.904-3.132-.201-1.722.035-3.379.525-3.682s.821 1.657.735 4.355c-.088 2.761.246 4.657.762 4.338 1.246-.77 6.004.489 5.42 1.434-.257.415 1.075.703 2.959.641 3.365-.112 4.632.95 2.175 1.824-.687.244.55.394 2.75.333 2.647-.073 3.92.3 3.762 1.103-.138.702.39.973 1.25.643.818-.314 1.488-.046 1.488.595 0 .683.518.842 1.25.385 1.743-1.089 3.75-1.307 3.75-.407 0 1.518 7.897 3.195 9.928 2.108 2.432-1.301 4.072-1.329 4.072-.069 0 .532-.575.747-1.279.478-.703-.27-2.138.138-3.189.906-2.068 1.512-2.389 1.403 5.218 1.774 2.008.098 13.499 3.982 14.25 4.817.869.966 8.467.601 9.235-.444.415-.565.741-.238.75.75.014 1.692.849 2.086 4.015 1.898q1.51-.092.25.464c-.957.425-1.198 5.976-1.028 23.721l.221 23.167.557-23c.473-19.533.608-21.04.894-10 .186 7.15.534 12.261.775 11.357.5-1.881 4.331-1.374 5.597.742.421.704 1.671 1.106 2.777.893 1.18-.228 1.752.031 1.384.627-.345.558-.866.775-1.159.483-.292-.293-1.398-.067-2.459.5-1.577.844-1.871.722-1.618-.672.185-1.02-.415-1.816-1.497-1.986-1.455-.228-1.577-.008-.627 1.136.904 1.09.904 1.42-.004 1.42-.649 0-.903.45-.563 1s.174 1-.368 1-1.191-.788-1.443-1.75c-.251-.962-.509.557-.573 3.378-.078 3.436.375 5.535 1.373 6.363.819.68 1.242 1.635.941 2.122-.95 1.538.265.961 1.698-.805.932-1.15.971-1.451.122-.941-.855.514-1.255.021-1.265-1.558-.013-1.858-.205-2.016-.985-.809-.841 1.302-.971 1.283-.985-.143-.017-1.82 2.595-3.216 4.182-2.235.643.397.776-.246.362-1.747-.616-2.234-.581-2.256.578-.375 2.699 4.377 5.735 6.155 3.843 2.25-1.047-2.161-1.029-2.173.465-.309.894 1.116 1.555 1.405 1.555.679 0-.695.675-1.938 1.5-2.763 2.173-2.173 1.84-.643-.61 2.798-1.924 2.701-1.967 3.069-.484 4.154 1.418 1.038 1.295 1.21-.958 1.339-1.752.101-2.423-.271-2.083-1.156.617-1.609-2.409-4.396-4.106-3.781-.93.337-.859.832.284 1.975 1.175 1.175 1.26 1.846.369 2.92-.908 1.095-.808 1.394.466 1.394.892 0 1.622.563 1.622 1.25 0 .778-1.416 1.25-3.75 1.25-3.192 0-3.8.355-4.087 2.387-.186 1.313.264 2.768 1 3.235 1.079.684 1.085.85.028.863-.72.008-1.01.498-.646 1.088.414.669 1.228.268 2.16-1.063 1.45-2.069 3.05-2.934 8.295-4.48 2.176-.641 2.296-.561.93.617-.863.744-2.351 2.613-3.306 4.153-1.273 2.053-2.254 2.635-3.68 2.182-1.14-.362-1.944-.151-1.944.51 0 .619.45.848 1 .508s1-.141 1 .441-.477 1.059-1.059 1.059-.77.468-.416 1.04c.414.67-.367.846-2.191.494l-2.834-.546 2.756 1.091c1.679.665 2.484 1.547 2.058 2.256-.424.708-.068.654.91-.138 1.375-1.114 1.712-.969 2.327 1 .897 2.875 2.53 3.981 4.033 2.733 1.258-1.044 4.204 1.615 3.059 2.761-.354.353-.643.215-.643-.307 0-.523-1.237-.888-2.75-.813-4.05.201-5.15-.476-4.715-2.9.364-2.03.301-2.054-.967-.375-.746.989-1.108 2.746-.805 3.907.374 1.428.182 1.881-.594 1.401-.742-.458-.937-.163-.553.838.714 1.86 2.384 1.072 2.384-1.123 0-1.277.275-1.335 1.5-.319.825.685 1.5 1.94 1.5 2.789s-.296 1.248-.658.886-1.214-.196-1.894.368c-.876.728-1.76.507-3.036-.758-1.685-1.671-1.758-1.673-1.137-.035.364.962.252 1.75-.249 1.75s-1.097-1.913-1.324-4.25c-.4-4.119-.414-4.096-.44.75-.014 2.75-.311 7.475-.658 10.5-.406 3.533-.314 4.785.257 3.5.489-1.1.693-2.337.455-2.75-.239-.413.193-.75.958-.75.766 0 1.393.675 1.393 1.5s-.375 1.5-.834 1.5-.833.389-.833.864 1.641.813 3.646.75c2.422-.076 3.82.39 4.163 1.386.443 1.286.28 1.305-1.146.128-1.062-.877-1.663-.971-1.663-.262 0 .611-.788 1.044-1.75.964-3.32-.278-5.25.173-5.25 1.229 0 .582.419.8.931.484s1.22-.107 1.574.465.074.918-.621.767c-.696-.151-1.423.437-1.616 1.308-.198.896.3 1.584 1.147 1.584.823 0 1.265-.375.982-.834-.694-1.123.33-1.049 2.646.19 1.543.826 1.799.729 1.328-.5-.322-.838-.06-1.523.581-1.523s.924.392.628.871.352 1.898 1.441 3.153 1.972 2.776 1.964 3.379c-.009.616-.387.512-.861-.237-.689-1.087-.951-1.059-1.416.152-.367.956.191 1.684 1.568 2.044 1.175.307 1.823.873 1.439 1.256-.384.384-.188 1.312.435 2.063.895 1.079.789 1.233-.509.735-.902-.347-1.641-1.122-1.641-1.723 0-.731-.397-.696-1.2.107-.66.66-2.348 1.168-3.75 1.13-2.212-.061-2.294-.171-.616-.828 1.401-.549 1.591-.968.69-1.525-.934-.578-.794-1.119.566-2.175 1.728-1.343 1.724-1.377-.101-.736-1.586.557-1.814.303-1.343-1.497.453-1.733.133-2.166-1.59-2.154-1.382.01-1.724.29-.952.781.663.421 1.132 1.733 1.043 2.916s-.519 1.929-.955 1.66-.828.324-.871 1.319c-.048 1.106-.279 1.31-.594.525-.284-.706-.002-1.903.627-2.661.711-.856.777-1.603.176-1.975-.532-.328-1.277.813-1.656 2.536-.476 2.171-.271 3.392.669 3.972.746.462 1.413 1.305 1.482 1.876.069.57.181 1.576.25 2.236.092.887.418.907 1.247.078.617-.617 1.742-.884 2.5-.593.818.314 1.378-.124 1.378-1.078 0-.884.477-1.607 1.059-1.607s.741.563.353 1.25c-.543.963-.414.981.563.078.698-.644 1.869-.941 2.602-.66 1.975.758-.545 3.153-2.719 2.585-1.427-.373-1.659.22-1.438 3.681.168 2.641-.13 3.992-.829 3.753-.6-.205-.95-1.344-.778-2.53s-.192-2.157-.809-2.157-.844-.45-.504-1 .254-.993-.191-.985c-1.568.03-3.047 1.51-3.746 3.75-.389 1.245-1.082 2.032-1.541 1.749-.765-.473-2.05 6.971-1.81 10.486.056.825-.224 2.512-.622 3.75-.445 1.381-.312 2.25.343 2.25.587 0 1.103 1.012 1.146 2.25s.291 1.733.55 1.1c.341-.833 1.553-.725 4.393.391 2.157.847 3.686 1.922 3.398 2.388-.288.467.1.609.863.316s2.27.275 3.349 1.261c1.079.987 1.266 1.344.415.794-1.333-.862-1.364-.766-.224.691.728.929 1.893 1.471 2.59 1.204s1.901.296 2.677 1.251c1.228 1.513 1.216 1.624-.09.854-1.328-.783-1.33-.675-.017.941 1.412 1.738 1.509 1.713 2.042-.548.382-1.616.805-1.977 1.327-1.133.421.682.445 1.76.053 2.395-.428.691-.276.883.378.479.6-.371 1.007-2.691.904-5.154s.103-4.48.457-4.48.622-1.012.596-2.25.29-4.441.704-7.12c.586-3.79.475-4.698-.5-4.095-.843.521-1.002.368-.486-.468.907-1.467 2.17-.368 2.793 2.433.245 1.1.401-1.937.347-6.748-.065-5.766-.482-8.749-1.226-8.75-.62-.001-1.696-.688-2.392-1.526-1.69-2.037-2.41-1.149-1.082 1.333.81 1.514.705 2.275-.443 3.228-2.053 1.704-3.069.417-1.348-1.705.898-1.105.952-1.451.154-.972-.872.524-1.048.212-.595-1.058 1.11-3.114 1.478-3.427 2.765-2.359.689.572 1.621.706 2.071.298.45-.407.495-.178.099.509-.445.773-.124 1.25.84 1.25.863 0 1.559-.845 1.559-1.893 0-1.982-1.841-3.107-5.082-3.107-1.055 0-1.918-.403-1.918-.895 0-.506 1.518-.552 3.493-.107 1.921.434 3.264.417 2.984-.036s-.052-1.106.507-1.452 1.084-3.639 1.166-7.319c.146-6.512.171-6.571.906-2.191.725 4.311.74 4.269.375-1-.21-3.025-.383-6.77-.385-8.322-.002-2.017-.366-2.604-1.275-2.058-.93.559-.909.318.079-.9 2.036-2.512 2.929-42.72.948-42.72-.769 0-2.004.563-2.745 1.25-1.094 1.016-1.187.973-.497-.232.467-.816.907-2.272.978-3.236s.847-2.547 1.725-3.517c1.331-1.473 1.611-4.84 1.694-20.366.099-18.733-.286-22.43-2.212-21.239-.604.373-.754.17-.354-.477.383-.62.001-2.188-.849-3.485s-1.35-2.553-1.111-2.791c.238-.239-.94-.49-2.619-.559-1.678-.068-3.345-.6-3.704-1.18-1.036-1.675-9.25-3.205-11.053-2.059-1.193.759-1.032.845.699.371 2.655-.725 2.956.703.558 2.648-.931.754-1.383.857-1.006.227.378-.63-.037-1.423-.92-1.762-1.207-.463-1.334-.946-.509-1.94 1.456-1.754-7.404-3.974-10.101-2.531-1.381.739-1.794.554-1.872-.837-.069-1.235-.346-1.015-.9.715-.44 1.375-.845 1.911-.9 1.191-.056-.727-.614-.991-1.258-.594-.786.487-.983.051-.614-1.361.425-1.627-.028-2.213-2.092-2.704-1.45-.345-3.421-.86-4.38-1.145-1.231-.366-1.578-.088-1.182.946.31.806.158 1.714-.335 2.019-.988.611-1.009-2.298-.028-3.884.378-.613-1.086-.94-3.798-.848-2.427.081-4.413-.298-4.413-.843s-.675-.718-1.5-.384c-4.604 1.863-5.033 1.902-3 .273 1.732-1.388 1.774-1.607.309-1.634-.93-.018-1.974.425-2.319.984-.346.559-1.047.758-1.559.441-.512-.316-.931.802-.931 2.484 0 3.147.711 3.511 4.739 2.432 1.292-.347 1.964-1.081 1.589-1.737-.357-.625-.263-.785.207-.357 2.16 1.965 1.007 3.233-3.165 3.48-4.366.26-4.37.257-4.37-3.191 0-1.897-.521-3.772-1.158-4.165-.789-.488-.982-.045-.606 1.393.304 1.159.037 2.282-.592 2.493-.829.28-.793.811.132 1.932 1.051 1.274.996 1.653-.314 2.155-.874.336-1.273 1.121-.886 1.747.431.697.165.948-.687.65-.764-.267-2.402-.112-3.639.346-1.364.504-2.25.447-2.25-.144 0-.536.9-.975 2-.975 2.295 0 2.543-.991.75-3.002-1.04-1.166-.992-1.209.284-.257.984.734 2.059.812 3 .217 1.208-.764 1.139-.93-.391-.943-1.164-.009-1.66-.53-1.328-1.393.291-.758.024-1.883-.593-2.5-.829-.829-.809-1.122.078-1.122 1.112 0 1.637 1.349 1.294 3.324-.079.454.261.574.756.269.495-.306.9-1.708.9-3.116 0-3.168 1.072-4.382 2.224-2.518.991 1.602 3.776 2.255 4.515 1.059.274-.443-.737-1.16-2.246-1.595-4.295-1.237-6.243-1.246-6.243-.027 0 .618-.938 1.708-2.084 2.424s-1.844 1.926-1.551 2.69c.314.816-.3 1.652-1.491 2.03-2.929.929-3.391-.117-.969-2.191 1.152-.986 2.095-2.804 2.095-4.04 0-1.586.441-2.077 1.5-1.671.825.317 1.5.108 1.5-.464 0-1.371-3.665-2.499-5.146-1.584-.724.447-.894.283-.449-.435.42-.681.085-1.155-.815-1.155-.883 0-1.305.578-1.001 1.371.289.754-.198 1.649-1.083 1.989-1.048.402-1.365.221-.909-.517.487-.787-.078-.939-1.844-.496-1.758.441-2.718.187-3.105-.822-.667-1.737.841-2.902 2.602-2.01.688.348.376-.075-.691-.941-2.247-1.822-4.238-2.036-4.747-.511-.195.585-1.6 1.2-3.122 1.367-1.706.187-2.621-.125-2.386-.813.21-.614 1.353-.976 2.539-.804 3.028.439 2.702-1.459-.384-2.234-1.397-.351-2.343-.962-2.101-1.358s-1.06-.799-2.894-.895c-1.833-.096-5.388-1.083-7.899-2.194-3.713-1.643-4.565-1.75-4.565-.576 0 .794.45 1.444 1 1.444s1 .675 1 1.5c0 .848-.895 1.5-2.059 1.5-1.132 0-1.781.45-1.441 1s.189 1-.335 1-.889-1.125-.809-2.499.481-2.5.894-2.5c1.39-.002.764-3.058-.744-3.637-.822-.316-1.294-.897-1.05-1.293.87-1.407-3.978-.545-5.22.929-.696.825-1.205 1.05-1.132.5.295-2.224-.155-3.587-1.01-3.058-.498.308-.671 1.46-.383 2.559.357 1.367.03 1.999-1.037 1.999-1.017 0-1.426-.69-1.177-1.984.217-1.128-.347-2.409-1.307-2.97-.93-.542-1.218-.999-.64-1.016.577-.016 1.59.51 2.25 1.17.829.829 1.2.856 1.2.087 0-1.015-13.156-6.772-15.5-6.782-.55-.003-1.27-.372-1.6-.821-.33-.45-1.23-.924-2-1.055-2.635-.448-7.966-3.713-7.443-4.559.287-.464-.036-.824-.718-.8-5.283.191-6.931-.334-6.344-2.02.581-1.667.545-1.667-.753 0-2.705 3.474-5.437 1.538-4.795-3.397.186-1.428-3.77.466-4.177 2-.241.906-.49.361-.554-1.211-.098-2.419-.462-2.784-2.366-2.375-1.238.266-3.375.135-4.75-.292l-2.5-.776 2.5-.141c2.362-.134 2.306-.245-1-2.005-1.924-1.024-3.837-1.654-4.25-1.399s-.75-.088-.75-.762-.304-.921-.676-.55c-.372.372-1.673-.26-2.892-1.405s-2.827-2.178-3.574-2.295c-2.699-.422-11.7-6.089-11.131-7.009.32-.518.1-.644-.489-.28-.588.364-2.198.232-3.577-.292-1.87-.711-2.811-.586-3.706.493-1.361 1.641-4.955 1.964-4.955.446 0-.994 1.362-1.385 3.75-1.075.688.09 1.243-.645 1.235-1.631-.009-1.007-.338-1.355-.75-.794-.404.55-1.804 1.15-3.111 1.334-2.121.298-2.329.014-1.938-2.646.34-2.321.111-2.855-1.038-2.414-1.034.396-1.231.169-.658-.759q.813-1.317-.327-.616c-.63.39-4.152-.973-7.826-3.027s-6.375-3.242-6.002-2.639c.372.603.112 1.365-.579 1.693s-.259.412.96.188c1.263-.233 2.123.065 2 .692-.119.605.459 1.166 1.284 1.245s1.964.213 2.532.297c1.366.201 1.748 5.152.398 5.152-.577 0-.77-.45-.43-1s-.068-1-.906-1-1.976-.845-2.529-1.878c-1.306-2.442-6.096-3.375-8.099-1.578-1.317 1.18-1.705 1.103-2.736-.547-.984-1.575-.945-1.825.212-1.381 1.047.402 1.261-.036.828-1.693-.385-1.471-.213-2.006.503-1.563.599.37 1.371.215 1.717-.344.88-1.424-1.833-1.273-3.29.184-.718.718-1.2.785-1.2.167 0-.569-.675-1.034-1.5-1.034s-1.5.657-1.5 1.459m-67.414 32.251c-1.603.48-3.403.58-4 .223-.597-.358-.46.122.305 1.065 1.234 1.52 1.177 1.646-.5 1.11-1.809-.578-1.807-.536.05.977 1.614 1.315 1.67 1.582.333 1.582-.884 0-1.811.563-2.06 1.25-.356.984-.889.993-2.498.045-2.259-1.331-5.004.621-3.743 2.661.963 1.559-.114 1.26-1.902-.527-.864-.865-1.571-1.104-1.571-.532s-.629.799-1.399.503c-.769-.295-1.696-.056-2.059.532-.363.587-.001 1.068.805 1.068.973 0 1.29.672.943 2-.61 2.333-1.843 2.607-2.62.581-.623-1.621-4.911-1.455-6.991.271-.75.622-1.584.91-1.854.639-.271-.27-.492.16-.492.955 0 1.073.457 1.202 1.768.5 2.555-1.367 3.598-1.175 4.351.804.534 1.403.417 1.502-.593.5-1.828-1.815-3.341-1.535-1.792.331 1.046 1.26 1.064 1.98.089 3.541-.673 1.078-.914 2.461-.535 3.073.415.672.234.834-.455.408-.74-.458-.933-.159-.548.845.328.854.146 1.552-.404 1.552-2.01 0-2.136-3.086-.193-4.75 2.533-2.169 2.525-3.783-.021-3.975-2.205-.166-2.725 1.266-.75 2.063.979.395.972.521-.031.583-.705.043-1.541-.596-1.857-1.421-.869-2.263-3.314-1.846-2.864.488.21 1.094-.266 2.637-1.058 3.429-1.88 1.881-1.819 2.583.227 2.583.916 0 1.4.266 1.075.591-1.003 1.003-4.742-.646-4.742-2.091 0-.751.939-1.663 2.087-2.028 2.035-.645 2.039-.695.179-1.999-1.86-1.302-6.701-1.371-7.959-.113-.346.345.113 1.447 1.019 2.448 1.27 1.403 1.375 2.091.46 3.006s-.912 1.186.014 1.186c2.379 0 1.139 1.569-1.406 1.779-1.963.163-2.457-.153-2-1.281l1.229-3.039c.401-.992.134-1.437-.75-1.25-.755.16-1.246-.314-1.092-1.053.155-.739-.295-1.133-1-.875-.704.258-1.101 1.088-.881 1.844s.51 2.579.645 4.051.551 3.272.924 4c.374.728.002.493-.826-.523s-1.261-2.484-.962-3.263c.58-1.514-1.303-4.39-2.875-4.39-.522 0-.238.711.632 1.581.869.869 1.311 2.016.982 2.549-.33.533-1.459-.022-2.51-1.233s-1.91-1.71-1.91-1.107c0 .602-.9.922-2 .71s-2-.007-2 .455c0 1.935-5.601 7.045-7.723 7.045-1.252 0-2.277-.36-2.277-.8 0-1.565 2.268-3.034 3.786-2.452 1.012.389 1.294.19.819-.578-.981-1.588-2.162-1.47-4.034.401-1.967 1.968-1.985 3.512-.069 5.988 1.068 1.379 1.341 1.471.942.319-.399-1.155.167-1.762 1.963-2.105 2.919-.558 3.674.732 2.418 4.126-.727 1.962-.642 2.194.467 1.274.798-.663 1.736-.759 2.282-.233.549.529 1.523.239 2.393-.714 1.303-1.426 1.275-1.533-.25-.948-1.681.645-2.562-2.1-1.132-3.529.904-.905 4.38 2.47 3.79 3.679-.288.59.185.198 1.051-.869 1.353-1.669 1.574-1.709 1.574-.282 0 1.118.528 1.458 1.615 1.04 1.304-.5 1.476-.18.893 1.657-.538 1.697-.401 2.078.539 1.497.873-.539 1.013-.377.455.526-.64 1.035-1.058.964-2.015-.346-1.39-1.9-5.031-2.198-6.082-.496-.441.712-.275.883.433.445.63-.389 1.893-.29 2.806.221 2.298 1.285-3.455 1.315-5.894.03-1.133-.597-1.75-.557-1.75.114 0 .569.373 1.035.829 1.035.457 0 .794.967.75 2.149-.043 1.182.596 2.341 1.421 2.576 1.333.38 1.333.309 0-.634-1.102-.779-1.153-1.064-.191-1.076.72-.008 1.031-.465.691-1.015-.351-.567.49-1 1.941-1 1.407 0 2.559.45 2.559 1s-.506.888-1.125.75c-.619-.137-1.352.375-1.63 1.139-.338.932-.082 1.128.78.596.842-.521 1.038-.396.57.36-.392.635-1.699 1.207-2.904 1.271-1.692.09-1.792.22-.441.573.962.252 1.75 1.325 1.75 2.384 0 1.06.48 1.927 1.067 1.927.597 0 .8-.845.46-1.916-.612-1.927 1.041-3.85 2.261-2.63.36.36.057 1.024-.674 1.475-.73.452-.942 1.056-.471 1.343s1.721-.631 2.778-2.04 1.425-2.255.819-1.88c-1.79 1.106-2.18-.714-.612-2.858 1.6-2.189 3.858-.375 2.873 2.308-.263.716-.015 1.016.551.666s.768-1.461.448-2.468-.044-2.164.614-2.57c.728-.45.933-.315.524.346-.369.597-.206 1.373.362 1.724s.821.98.563 1.399c-.259.418.521.67 1.733.559s2.08-.741 1.929-1.403c-.168-.736.215-.901.984-.426.693.428 3.048.87 5.234.981 2.983.153 3.548-.035 2.266-.753-.94-.526-1.724-1.722-1.742-2.657-.028-1.408-.359-1.309-1.928.571-1.042 1.25-2.155 1.851-2.473 1.336s-.013-1.164.678-1.443c.691-.278.356-.555-.744-.615-1.848-.102-1.866-.188-.242-1.134.967-.563 2.153-.779 2.637-.48.483.299 1.389-.072 2.013-.824.886-1.068.693-1.482-.887-1.895-1.112-.291-2.021-1.021-2.021-1.622 0-1.377 1.675-1.429 2.51-.078.346.559 1.117.715 1.714.346.647-.401.797-.206.371.483-.422.685-.078 1.155.846 1.155 1.88 0 1.928-.436.334-2.989-.954-1.527-.959-2.227-.023-3.163s1.107-.713.777 1.002c-.241 1.252-.008 1.946.54 1.608.53-.328.719-.993.419-1.477-.299-.484.381-1.376 1.512-1.981s1.812-1.495 1.514-1.978.476-2.057 1.722-3.499c2.011-2.33 2.474-2.468 4.146-1.239 1.602 1.177 1.64 1.383.25 1.383-.897 0-1.632-.43-1.632-.956s-.692-.382-1.537.32c-.845.701-1.419 1.994-1.275 2.872s-.122 2.21-.591 2.959c-.518.827-.399 1.642.303 2.076.748.463.273 1.118-1.344 1.855-2.567 1.169-4.283 5.221-3.054 7.21.466.754 1.17.529 2.168-.693.813-.996 1.134-1.135.712-.31-.613 1.201-.479 1.27.676.346.793-.635 2.567-1.321 3.942-1.524s2.387-.921 2.25-1.596c-.308-1.512.298-1.538 2.936-.126 1.294.692 1.82.719 1.42.072-.349-.566.271-1.316 1.379-1.667 1.108-.352 2.015-1.086 2.015-1.631 0-.546.436-.723.969-.393s2.67-.305 4.75-1.41l3.781-2.008-3.25.593c-2.375.434-3.254.224-3.265-.781-.013-1.1-.202-1.081-.946.096-1.818 2.875-2.203.115-.407-2.924 1.568-2.656 1.925-2.842 2.527-1.32.606 1.534.71 1.551.771.127.038-.906 1.685-3.065 3.659-4.798 2.056-1.805 3.361-3.743 3.056-4.539-.293-.763-.129-1.529.364-1.702 1.382-.485 2.469-8.815 1.15-8.815-.603 0-.888.563-.632 1.25.255.688.054 2.6-.446 4.25-.873 2.882-.917 2.902-1.114.5-.112-1.375-.132-3.175-.044-4 .143-1.333.045-1.333-.88 0-.571.825-.779 2.738-.462 4.25.438 2.083.195 2.75-1.002 2.75-1.837 0-2.133 1.649-.399 2.227.679.226.894 1.138.507 2.146-.823 2.144-2.687 1.208-2.687-1.349 0-1.021-.562-2.084-1.25-2.362-.796-.321-.659-.533.378-.583 2.812-.136 4.172-2.636 2.399-4.409-.973-.973-1.164-1.776-.518-2.175.563-.348.765-1.052.448-1.564-.316-.512.127-.931.984-.931s1.559-.47 1.559-1.044.788-.911 1.75-.75c1.121.188 1.705-.307 1.624-1.377-.078-1.04.398-1.47 1.262-1.139.953.366 1.193.028.768-1.079-.34-.886-.682-1.572-.761-1.525s-1.454.478-3.057.957m-71.615 28.826c1.944 1.351 1.189 1.956-3.016 2.419-1.909.211-4.451.907-5.648 1.548-1.196.64-3.16 1.164-4.364 1.164-1.629 0-1.927.319-1.166 1.25.713.872.615 1.625-.324 2.49-.832.766-1.578.867-1.951.264-.331-.537-2.043-.788-3.802-.558-1.76.231-4.043.449-5.072.487-1.632.058-1.696.285-.5 1.759 1.183 1.459 1.165 1.573-.128.828-1.011-.582-.908-.188.315 1.209 1.308 1.494 1.488 2.275.643 2.797-.868.536-.82.947.185 1.584 1.05.665.951.863-.437.875-1.158.01-1.689-.606-1.5-1.735.162-.963-.252-1.643-.92-1.512-.732.144-.998-.451-.668-1.5.508-1.619.45-1.623-.844-.06-.872 1.053-1.885 1.371-2.721.855-.99-.612-.591-1.224 1.558-2.388 3.468-1.879 2.302-2.105-2.29-.444-1.827.66-3.321 1.609-3.321 2.107s-.638.661-1.417.362c-.78-.299-1.685.154-2.012 1.006-.48 1.251-.881 1.312-2.083.314-.958-.795-1.488-.853-1.488-.162 0 .59.787 1.531 1.75 2.092s1.263 1.033.667 1.05c-.596.016-1.374-.261-1.73-.616-1.068-1.068-6.917-1.215-9.124-.229-1.827.815-1.776.866.445.44 1.38-.265 3.18-.057 4 .461 1.12.708.704.947-1.664.959-2.624.012-3.072.341-2.651 1.947.59 2.257-3.476 1.798-4.354-.491-.313-.815-1.464-1.073-3.165-.709-1.471.314-4.318.616-6.327.67s-3.445.436-3.191.848-.092.75-.768.75c-.677 0-2.053.745-3.059 1.655s-1.829 1.213-1.829.673c0-.542-1.454-.76-3.25-.487l-3.25.495 3.286.87c1.934.512 3.014 1.309 2.625 1.939-.461.745-.874.724-1.366-.072-.388-.627-1.468-.848-2.4-.49-1.404.538-1.476.916-.421 2.194 1.134 1.372 1.032 1.393-.909.184-1.202-.749-1.966-1.716-1.698-2.15.735-1.189-3.005.38-3.852 1.616-.521.761-.739.758-.75-.01-.008-.596-.67-1.084-1.471-1.084s-1.243.344-.984.765c.26.42.058 1.02-.45 1.334-.507.313-.669 1.54-.359 2.725.358 1.368.179 1.918-.489 1.505-.579-.358-1.305.007-1.614.812-.308.804-.061 1.771.55 2.148.673.416.83.232.397-.467-.392-.635-.236-1.155.346-1.155 1.405 0 1.599 2.202.703 7.973-.335 2.153-.084 3.763.658 4.235 1.083.688-1.22 1.279-3.552.91-1.748-.276-.535 1.474 1.759 2.538 1.371.637 2.261.78 1.976.32-.285-.461-.06-1.12.499-1.466.586-.362 1.016.442 1.016 1.9 0 1.518-.499 2.406-1.25 2.223-.687-.168-.995-.144-.684.053s.44 1.965.285 3.93c-.236 3-.007 3.476 1.434 2.975 1.375-.478 1.33-.298-.226.907-1.696 1.312-1.727 1.502-.25 1.502.93 0 1.691.477 1.691 1.059s.338.86.75.617c1.212-.713 5.431 1.222 4.82 2.211-.307.497.132 1.168.976 1.492 1.04.399 1.441.067 1.244-1.031-.213-1.188.533-1.651 2.794-1.734 1.695-.063 3.083.372 3.083.965 0 .594-1.057.878-2.348.631-1.915-.366-2.223-.122-1.669 1.32.581 1.514.282 1.67-2.069 1.08-2.004-.503-2.548-.366-2.01.504.451.731.313.933-.355.519-.601-.371-.919-1.578-.707-2.681s-.04-1.742-.561-1.42c-.522.322-.948 1.459-.948 2.527s-.408 1.941-.906 1.941-.719-1.012-.489-2.25.15-1.687-.177-1-1.345 1.243-2.261 1.235c-1.353-.013-1.404-.182-.271-.899.796-.504 1.121-1.599.757-2.548-.923-2.405-2.653-.891-2.653 2.32 0 2.19.66 2.979 3.286 3.929 3.798 1.373 4.661 4.636 1.652 6.246-2.079 1.113-2.238.862-1.986-3.116.108-1.704-.348-2.584-1.339-2.584-.826 0-1.474.263-1.439.584s.01 1.633-.056 2.916c-.148 2.916-2.606 2.343-2.648-.617-.017-1.16-.354-2.433-.75-2.829s-.72 1.557-.72 4.339c0 3.651.432 5.226 1.552 5.656.89.341 1.291.173.941-.393-.343-.556.537-.989 2.007-.989 1.519 0 2.354.427 1.99 1.016-.346.559-1 .787-1.454.506-1.245-.769-1.899 1.745-1.287 4.946.466 2.435.267 2.769-1.386 2.337-1.733-.453-1.945.093-2.077 5.345-.081 3.218.245 5.85.724 5.85 1.407 0 2.108-1.794.864-2.209-.795-.265-.658-1.307.454-3.458.876-1.694 1.385-3.286 1.132-3.54-.253-.253.176-.46.954-.46 1.167 0 1.135.426-.187 2.443-1.513 2.31-1.495 2.42.336 2.024 1.066-.23 1.852-.872 1.748-1.426s1.429-.978 3.405-.944c2.685.046 3.659-.38 3.851-1.684.141-.96-.106-1.746-.548-1.746s-1.088-.739-1.435-1.641c-.511-1.333-.36-1.418.804-.452.978.811 1.64.856 2.082.142.356-.577 1.071-1.049 1.589-1.049 1.353 0 1.163 2.759-.222 3.221-.639.213-1.27 1.119-1.401 2.014-.151 1.031.272 1.43 1.157 1.091.767-.295 1.104-1.008.747-1.585-.379-.613-.169-.753.505-.336.635.392 1.155 1.613 1.155 2.713s.419 1.741.931 1.425 1.256-.049 1.654.595c.452.731.291.903-.43.457-.645-.398-1.171-.135-1.19.596-.02.725-.577.417-1.25-.691-1.404-2.31-7.115-2.986-6.253-.74.319.833.075 1.072-.643.628-.763-.472-.95-.173-.548.875.82 2.138-.93 3.372-5.962 4.202l-4.19.691.562 13.172c.662 15.52.664 16.78.043 22.672-.261 2.475-.276 3.488-.033 2.25s1.114-2.25 1.934-2.25c.874 0 1.197-.479.78-1.155-.938-1.517 1.36-.209 4.333 2.466 1.664 1.498 1.962 2.346 1.163 3.308-.59.711-.778 1.77-.418 2.354.943 1.525 2.536.241 1.866-1.505-.309-.807-.038-1.468.603-1.468s.888.45.548 1 .069 1 .91 1c.952 0 1.309.569.947 1.513-.751 1.955 1.553 4.736 3.351 4.046 1.091-.419 1.057-.062-.161 1.677-1.975 2.819-1.973 4.141.005 3.382.954-.366 1.297-.183.891.474-.364.589-1.625.835-2.802.548-2.109-.515-4.956.904-5.74 2.86-.221.55-.959.938-1.64.863-.682-.075-.993.262-.691.75.301.488-.18.887-1.07.887s-1.359-.419-1.043-.931.124-1.21-.429-1.551c-1.072-.663-.22 8.563.876 9.482.328.275.68 2.3.782 4.5.394 8.443 1.274 13.987 2.274 14.32.572.191 1.04.786 1.04 1.322 0 .537-.421.716-.936.398-.574-.355-.599.595-.064 2.46s.51 2.815-.064 2.46c-.515-.318-.936.15-.936 1.04s.45 1.34 1 1 1.007-.029 1.015.691c.01.83.285.931.75.276.404-.569 1.298-.963 1.985-.875s1.727.214 2.309.283.81.528.506 1.02c-.305.493.09 1.142.875 1.444.817.313 1.394 1.796 1.347 3.46-.046 1.602.216 3.397.581 3.988.366.591.207 1.357-.352 1.703-.559.345-1.016.166-1.016-.4 0-.565-.749-.74-1.664-.389-1.071.411-1.422.246-.984-.462.732-1.183-1.099-2.825-2.069-1.856-.991.992 6.938 27.598 8.025 26.927.551-.341.7-.131.331.465-.914 1.48 1.554 10.362 3.038 10.931.658.253.924 1.171.59 2.041-.384 1.001-.203 1.331.494.901.605-.374 1.388-.216 1.739.352s1.135.726 1.742.35c.607-.375.373.361-.519 1.636-1.445 2.061-1.464 2.697-.181 5.768.793 1.899 1.539 4.724 1.657 6.28.119 1.555.649 2.56 1.178 2.233.558-.345.686.127.304 1.121-.362.944-.25 1.463.25 1.155 1.17-.724 4.485 2.551 3.393 3.352-.453.333-.962 1.244-1.13 2.024-.238 1.1.004 1.161 1.073.274 1.617-1.342 3.723.207 3.748 2.757.01.993.28 1.155.75.451 1.065-1.592 4.432-1.358 3.809.266-.281.733-.049 1.333.516 1.333s.733.477.373 1.06c-.421.681-1.076.484-1.835-.555-.701-.958-1.858-1.354-2.848-.974-1.537.59-1.543.898-.079 3.968 1.124 2.357 2.055 3.151 3.193 2.72 1.414-.534 1.405-.405-.07 1.085-1.782 1.798-1.498 2.369 4.343 8.718.916.996 1.433 2.045 1.148 2.33-.853.853 2.295 4.699 3.185 3.892.451-.409.485-.162.074.55-.41.711-.219 1.929.426 2.706s.839 1.952.432 2.611c-.503.813-.315.935.583.379.96-.593 1.15-.363.691.834-.391 1.019-.169 1.561.58 1.414.668-.131 1.146.58 1.064 1.579-.083.999.109 1.558.425 1.242.886-.886 4.193 4.675 3.496 5.879-.338.584.467.162 1.79-.938 1.632-1.357 1.987-1.459 1.105-.317-1.078 1.396-1.032 2.091.271 4.08.863 1.318 1.231 2.77.817 3.227s-.191.507.496.111c1.11-.639 1.693.447 1.389 2.588-.054.378.854.505 2.017.281s1.827-.12 1.476.232c-.352.351.056 1.699.906 2.996s1.215 2.908.812 3.58c-.404.672.114.547 1.15-.278s1.565-.969 1.176-.319c-.39.649-.221 1.482.376 1.851.596.369.834 1.323.528 2.121-.307.798-.159 1.205.327.905.914-.565 2.319 1.831 2.968 5.064.069.343.811.054 1.649-.642s1.813-.976 2.167-.623c.353.354.062.643-.647.643-1.015 0-1.032.309-.08 1.456.664.801.875 1.996.468 2.655-.452.731-.318.936.345.527 1.312-.811 4.393 3.277 3.527 4.679-.337.546-.135.696.45.335.585-.362 2.195.687 3.577 2.329 1.652 1.964 2.702 2.564 3.066 1.753.304-.679.463-.109.355 1.266s.08 2.5.42 2.5 1.489.788 2.554 1.752 2.237 1.451 2.605 1.084c.368-.368.725.306.794 1.497.245 4.241.39 4.668 1.625 4.792.688.069 1.748.181 2.357.25s.857.777.551 1.574q-.56 1.452.893.893c.983-.377 1.449.122 1.449 1.551 0 1.159.384 2.107.854 2.107s3.793 2.925 7.386 6.5c4.313 4.292 7.335 6.505 8.896 6.515 1.913.013 2.078.207.864 1.019-1.294.866-1.226 1.209.5 2.501 1.985 1.485 12.587 11.065 21.265 19.215 2.489 2.337 4.732 4.25 4.986 4.25 1.29 0 6.041 4.893 5.444 5.606-.382.455.179.168 1.247-.639s1.634-.954 1.259-.326c-.942 1.571 3.771 4.478 7.429 4.582 2.039.058 2.573.359 1.68.947-.974.641-.158 1.861 3.184 4.76 3.051 2.645 4.732 3.524 5.235 2.734.49-.77.746-.596.756.515.008.923 2.251 3.127 4.983 4.897 2.822 1.829 4.691 3.695 4.328 4.322-.352.606.257.318 1.352-.64 1.807-1.581 2.17-1.599 3.922-.195 1.858 1.489 1.848 1.508-.258.49-1.873-.905-2.167-.779-2.042.876.08 1.063.521 1.7.981 1.416 1.134-.701 3.864 1.661 3.186 2.757-.297.481.231.579 1.175.217 1.08-.415 1.474-.267 1.063.398-.372.601.097.998 1.086.92.956-.075 1.644.373 1.528.995-.116.623.559 1.073 1.5 1s1.592.45 1.447 1.161c-.208 1.015.194 1.047 1.87.15 1.177-.63 1.859-.696 1.52-.148s.086 1.264.943 1.593 1.309 1 1.005 1.492.23.832 1.187.757c.956-.075 1.658.332 1.558.905-.099.574.688 1.108 1.75 1.188 1.198.09 1.937-.495 1.946-1.542.014-1.455.149-1.481.985-.188.843 1.305.971 1.289.985-.128.024-2.632 2.592-4.225 4.713-2.923 1.593.979 1.513 1.075-.698.829-2.082-.231-2.448.099-2.187 1.972.196 1.408-.21 2.25-1.083 2.25-.768 0-1.397.632-1.397 1.405 0 .836.606 1.172 1.498.83 1.027-.395 1.251-.176.712.695-.619 1.002-.337 1.03 1.336.135 1.594-.853 2.121-.847 2.121.022 0 .867.357.861 1.421-.022 1.167-.968 1.325-.81.884.878-.318 1.215-.057 2.057.637 2.057.647 0 .855-.52.463-1.155-.446-.721-.274-.882.457-.43.644.398.913 1.14.598 1.65s.563 1.444 1.952 2.077 2.291 1.529 2.005 1.993c-.287.463.177.574 1.031.247.854-.328 1.552-.21 1.552.261 0 1.415 14.089.831 14.986-.621.453-.732 1.331-.944 2.057-.496.774.479 1.016.379.624-.255-.614-.995 5.028-4.002 6.583-3.509.413.131.75-.212.75-.762s.45-1 1-1 1.9-.9 3-2 2.9-2 4-2 2-.477 2-1.059.403-.81.895-.506c.493.305 1.164-.147 1.493-1.004s1.015-1.3 1.524-.985 1.606-.107 2.436-.937 2.066-1.509 2.747-1.509.947-.292.59-.648.327-1.495 1.519-2.529c2.117-1.836 2.124-1.92.287-3.601-1.791-1.639-1.815-1.634-.506.098 1.326 1.754 1.244 1.757-2.262.085-2-.954-3.408-2.105-3.128-2.558s-.143-.574-.94-.268c-1.644.631-8.054-5.125-7.216-6.481.297-.479-.217-1.485-1.142-2.235s-1.373-.849-.996-.22c.418.698-.332 1.399-1.926 1.799-3.198.803-4.363.006-1.377-.941 2.047-.65 2.067-.772.42-2.592-.95-1.05-2.446-1.902-3.323-1.894-1.372.013-1.39.146-.123.947 1.771 1.12-1.022 2.617-3.272 1.753-1.486-.57-5.412 1.288-5.884 2.785-.174.55-.843.943-1.487.874s-.933.494-.643 1.25c.342.892-.193 1.376-1.52 1.376-1.126 0-2.3.408-2.608.906-.886 1.434-4.55.034-4.637-1.773-.05-1.036-.263-1.176-.583-.383-.278.687-1.48 1.218-2.671 1.18-2.054-.067-2.065-.11-.203-.838 1.746-.683 1.636-.859-1-1.594-1.63-.454-3.414-.715-3.964-.579s-.663-.089-.251-.501c.411-.412-1.517-2.042-4.285-3.623s-4.785-3.275-4.483-3.764c.549-.889-5.325-.521-6.236.391-.266.266.133 1.164.886 1.996 3.385 3.74 3.913 4.582 2.877 4.582-.589 0-1.305-.611-1.591-1.357s-1.548-1.244-2.802-1.106c-1.404.154-2.282-.286-2.282-1.143 0-.767.444-1.394.987-1.394s.039-.822-1.119-1.826l-2.105-1.825 2.007-2.008c1.324-1.324 1.557-2.008.683-2.008-2.85 0-13.149-7.603-11.988-8.849.386-.415-.283-.243-1.487.383-1.645.855-2.368.85-2.905-.019-.47-.761-.235-.909.689-.43.773.4.055-.429-1.595-1.841s-3.405-2.569-3.899-2.572-2.519-1.675-4.5-3.716-2.926-3.319-2.101-2.84 1.151.488.724.019c-1.322-1.453-4.958-1.652-4.05-.221.437.689.802 1.59.811 2.003.008.413.24.658.515.546.275-.113 1.473.629 2.662 1.647 2.536 2.171 2.069 4.561-.748 3.824-1.639-.428-1.75-.766-.685-2.081.699-.863.821-1.316.271-1.006s-1.866-.278-2.925-1.308c-1.246-1.212-1.467-1.872-.628-1.872.902 0 .994-.382.304-1.25-.547-.687-.861-2.079-.698-3.092s.054-1.599-.242-1.302-2.911-1.214-5.811-3.356-5.646-3.581-6.103-3.197-.171-.177.636-1.245.955-1.635.33-1.261-1.692.011-2.372-.808c-1.75-2.109-3.527-1.86-1.863.261 1.242 1.584 1.207 1.62-.367.387-.956-.75-1.533-1.697-1.281-2.105.554-.897-3.295-4.492-5.73-5.352-.962-.339-1.75-1.255-1.75-2.034s-1.139-2.163-2.532-3.075c-1.486-.974-2.246-2.157-1.84-2.865.381-.663.324-.872-.126-.465-1.119 1.015-3.637-1.213-2.836-2.509.386-.625.155-.739-.578-.286-.716.442-1.775-.003-2.561-1.079-1.41-1.927-7.887-2.118-10.101-.298-.64.527-1.548.409-2.25-.293-1.462-1.462-1.518-2.776-.117-2.776.582 0 .781.45.441 1s.132 1 1.048 1c1.032 0 1.458-.543 1.118-1.427-.451-1.176-.02-1.244 2.444-.385 4.669 1.628 4.43.433-1.044-5.216-2.786-2.876-5.066-4.929-5.066-4.561 0 .367-.625.088-1.39-.622-.764-.709-1.228-2.137-1.031-3.174s.068-1.596-.286-1.241c-.355.354-1.691-.338-2.969-1.539S282 543.153 282 543.767s.408 1.367.906 1.675.653 1.53.343 2.715c-.387 1.477-.2 1.93.593 1.44.637-.393 1.158-.287 1.158.237s-.698 1.22-1.552 1.548c-.89.341-1.291.173-.941-.393.336-.544.134-.989-.448-.989s-1.059.579-1.059 1.287c0 .767-1.315 1.325-3.25 1.381-1.788.052-2.284-.103-1.104-.343 5.013-1.021 7.303-7.915 2.573-7.746-1.221.044-2.219-.32-2.219-.809 0-.488-.45-.61-1-.27s-1.007.029-1.015-.691c-.011-.951-.281-.899-.985.191-.678 1.049-.974 1.115-.985.219-.008-.705.657-1.54 1.479-1.855.822-.316 1.216-1.025.875-1.576-.387-.627.27-.75 1.756-.33 1.306.37 1.876.306 1.267-.142-.61-.449-.987-1.606-.838-2.571s-.109-1.52-.573-1.233-1.13.056-1.481-.512-1.057-.774-1.569-.457c-.512.316-.931-.104-.931-.934s-.611-1.869-1.358-2.309-2.104-2.15-3.015-3.8c-1.159-2.101-1.576-2.401-1.391-1 .145 1.1.71 2.319 1.256 2.708.633.453.542 1.158-.25 1.95-.989.989-1.242.897-1.242-.452 0-1.214-.637-1.575-2.25-1.274-1.238.231-3.15.46-4.25.509-1.175.053-1.557.393-.927.824 1.064.729 2.489 3.581 2.99 5.985.31 1.491-1.184 1.672-2.063.25-.34-.55-.115-1 .5-1s.866-.408.558-.906-1.409-.684-2.446-.413-2.218-.044-2.624-.701c-.525-.848-.123-.999 1.387-.52 1.184.376 2.125.239 2.125-.309 0-.542-.562-1.174-1.25-1.405-.975-.328-.948-.787.122-2.083 1.085-1.314 1.103-1.663.084-1.663-.709 0-1-.289-.647-.643.354-.353 1.239-.147 1.969.459.729.605 2.315.842 3.524.526 2.484-.65 2.988-2.342.698-2.342-.825 0-1.5-.498-1.5-1.107s.645-.859 1.434-.557c.935.359 1.387-.067 1.299-1.226-.073-.977-.699-1.777-1.389-1.777s-1.024.375-.741.834.008.833-.611.833c-.672 0-.87-.808-.492-2 .349-1.1.191-2-.351-2s-1.961-1.578-3.153-3.506c-1.193-1.931-2.647-3.21-3.236-2.846-.588.364-.793.215-.456-.331.764-1.236-2.139-5.537-3.268-4.839-1.051.65-1.792-1.336-1.558-4.182.1-1.212-.197-1.97-.658-1.685s-1.611-.827-2.555-2.472c-1.459-2.543-2.2-2.928-4.955-2.575-2.579.33-3.121.106-2.658-1.1.428-1.115.923-1.231 1.876-.441 2.004 1.664 2.488-.29.63-2.542-2.602-3.153-7.885-2.817-7.515.479.157 1.397.042 1.747-.255.778-.296-.969-.95-1.509-1.452-1.198s-.645-.134-.318-.988c.328-.854.098-1.552-.511-1.552s-1.107.477-1.107 1.059-.489.757-1.087.387c-.665-.41-.728-1.031-.164-1.595 1.207-1.207 8.4-1.901 7.683-.741-.302.489-.126.89.392.89 1.531 0 2.016-4.644.505-4.833-.731-.092-1.984-.242-2.785-.334-.801-.091-1.22-.549-.931-1.016s.977-.57 1.53-.229c.553.342.427-.303-.278-1.433-.766-1.226-1.702-1.717-2.324-1.219-.995.797-5.541-.329-5.541-1.372 0-.276.749-.214 1.664.137 1.119.43 1.427.256.941-.531-.398-.644-1.461-1.17-2.364-1.17-1.259 0-1.367-.274-.463-1.178s1.614-.676 3.052.982c2.16 2.491 3.584 1.839 2.089-.956-.557-1.039-.797-2.237-.535-2.661.263-.425-.498-.845-1.691-.935-1.717-.13-1.859.032-.68.777.896.567 1.014.946.296.956-.655.008-1.48-.453-1.834-1.026-.354-.572-1.505-.767-2.559-.432-1.352.429-1.916.129-1.916-1.02 0-1.238.701-1.517 2.931-1.165 2.257.356 2.804.13 2.377-.982-.305-.795-1.052-1.279-1.66-1.076-1.543.514-3.497-1.515-2.916-3.029.265-.69-.016-1.255-.625-1.255s-1.107.675-1.107 1.5-.466 1.5-1.035 1.5c-.702 0-.691-.644.035-2 1.318-2.463 2.584-2.544 3.92-.25 1.618 2.779 1.241.462-.461-2.829-.847-1.639-1.225-3.529-.84-4.2s.336-.89-.11-.487c-.446.404-1.452-.046-2.234-1-.848-1.033-1.114-1.128-.657-.234.661 1.295.533 1.311-.938.117-1.4-1.135-1.479-1.662-.442-2.942 1.041-1.286 1.016-1.411-.143-.712-.917.553-1.173.472-.737-.234 1.131-1.829-1.461-6.388-2.936-5.164-.969.804-1.138.565-.723-1.023.298-1.14.938-2.318 1.422-2.617.483-.298.865-1.079.849-1.734s-.503-.379-1.081.614c-.69 1.186-1.452 1.493-2.22.895-2.507-1.953-5.261-1.969-5.407-.032-.084 1.125.297 1.605.953 1.199.678-.419.807-.211.338.547-.563.911-1.209.76-2.538-.596-1.711-1.745-1.697-1.915.351-4.228 1.839-2.077 1.885-2.321.332-1.762-1.075.387-1.555.25-1.191-.339.841-1.362 3.84-1.242 5.293.211 1.72 1.72 1.526-.207-.486-4.828-.927-2.13-1.57-4.322-1.428-4.872.141-.55-.315-.437-1.015.25-1.515 1.49-3.251 1.673-2.371.25.34-.55.115-1-.5-1s-.852-.43-.527-.956 1.313-.68 2.195-.341c1.094.42 1.455.167 1.135-.794-.258-.775-1.07-1.409-1.803-1.409s-1.521-.563-1.75-1.25.071-1.25.667-1.25c.595 0 1.083-.408 1.083-.906s-.9-.671-2-.384c-1.412.37-2 .031-2-1.152 0-.922.453-1.396 1.007-1.054.554.343 1.257-.028 1.562-.824.758-1.973-2.276-8.979-3.548-8.193-.562.347-1.021.192-1.021-.345s.563-1.243 1.25-1.57.236-.406-1.003-.176c-1.913.355-2.187.055-1.816-1.989.405-2.233-1.33-4.18-3.764-4.225-.459-.008-1.134-.35-1.5-.759s-.046-.384.713.056c.945.547 1.231.361.908-.59-.259-.764-1.78-1.389-3.38-1.389-2.26 0-2.98-.505-3.229-2.265-.208-1.461-.74-1.996-1.5-1.506-2.409 1.549-5.282.916-5.38-1.185-.052-1.124.12-1.485.384-.802.354.92.993.967 2.462.181 1.24-.664 2.427-.713 3.169-.13.652.512 2.442 1.231 3.977 1.598s2.55 1.057 2.256 1.534c-.295.476.137 1.123.959 1.439.822.315 1.494 1.289 1.494 2.164 0 .874.481 1.293 1.068.93s.818-1.313.512-2.111c-.331-.861-.128-1.185.5-.798.581.359.815 1.283.52 2.052-.296.77-.049 1.399.548 1.399.637 0 .836-.928.482-2.25-.331-1.238-.609-3.064-.616-4.059s-.399-1.571-.87-1.28c-.47.291-.672-.47-.448-1.691.544-2.968-2.11-14.286-3.275-13.97-.507.137-.921.716-.921 1.286 0 1.04-2.371 2.92-3.719 2.949-.395.008-.46-.657-.145-1.479s.976-1.246 1.469-.941c.492.304.895-.4.895-1.565s-.419-1.859-.931-1.543-1.256.049-1.654-.595c-.478-.774-.288-.902.56-.377.862.532 1.118.336.78-.596-.278-.764-1.011-1.276-1.63-1.139-.619.138-1.125-.2-1.125-.75 0-1.602 1.545-1.16 3.5 1 2.084 2.303 3.5 2.581 3.5.687 0-.723-1.575-1.932-3.5-2.687s-3.5-1.755-3.5-2.222.87-.383 1.934.187c2.482 1.328 4.066 1.319 4.066-.024 0-.582-.354-.841-.786-.573-.432.267-.785-.382-.785-1.441s.327-1.927.728-1.927.505-1.012.232-2.25c-1.055-4.781-1.385-7.458-1.633-13.25-.227-5.318-2.256-8.54-2.256-3.583 0 1.054-.41 2.291-.91 2.75-.529.484-.609.309-.191-.417.473-.822.038-1.25-1.273-1.25-1.113 0-2.271.882-2.626 2-.651 2.052-2.5 2.792-2.5 1 0-.55.45-1 1-1s1-.927 1-2.059.421-1.799.935-1.481c1.196.739 6.065-4.082 6.065-6.005 0-.8-.562-1.461-1.25-1.469-.687-.007-2.262-.285-3.5-.616-1.436-.385-2.25-.161-2.25.62 0 .677.67.967 1.5.648.972-.373 1.505.029 1.515 1.143.012 1.346.202 1.425.875.362.529-.834 1.098-.971 1.479-.355.341.552-.038 1.255-.843 1.564-.804.308-1.732.123-2.063-.412s-.998-.728-1.482-.428c-.484.299-1.369-.369-1.966-1.484-.811-1.514-.781-2.028.116-2.028.662 0 .898-.304.527-.676-.372-.372.324-1.741 1.547-3.042 1.911-2.035 2.045-2.652.952-4.403-.992-1.588-1.008-2.354-.072-3.482 1.593-1.919.376-3.025-1.561-1.417-1.042.865-1.524.91-1.524.142 0-2.019.479-2.613 1.85-2.298.743.17 1.11-.079.816-.555-.972-1.573.781-3.231 2.36-2.232.997.63 1.069.937.224.948-.687.008-1.214.803-1.171 1.765.048 1.056.28 1.252.585.494.279-.691.918-1.002 1.421-.691.508.313.915-1.708.915-4.538 0-4.305-.274-5.057-1.75-4.809-.978.164-1.64-.258-1.5-.956.137-.687-.473-1.25-1.357-1.25-.992 0-1.394.554-1.051 1.449.346.902-.256 1.706-1.596 2.132-3.086.979-5.035 3.223-4.35 5.008.324.846 1.038 1.261 1.585.922.586-.362.738.059.368 1.021-.451 1.177-.835 1.3-1.367.439-.556-.899-.875-.858-1.282.166-.424 1.067-.559 1.078-.621.054-.043-.72-.574-1.003-1.179-.629-.786.485-.806.13-.07-1.245.6-1.12.67-2.508.169-3.319-.646-1.046-1.036-.699-1.559 1.387-.523 2.082-1.168 2.658-2.568 2.292-1.029-.269-2.122-.081-2.43.417s.089.906.882.906c.794 0 1.69.945 1.992 2.101.302 1.155.999 1.823 1.548 1.483a1.19 1.19 0 0 1 1.626.4c1.15 1.861-2.152 1.047-3.99-.984-.995-1.1-2.415-2-3.155-2-2.076 0-1.675-.693 2.905-5.012 3.596-3.392 4.419-3.779 5.349-2.514.604.822 1.385 1.209 1.734.859 1.201-1.2-2.728-3.25-4.08-2.128-1.374 1.14-1.555.653-1.284-3.455.1-1.512-.329-2.75-.953-2.75s-.856-.45-.516-1-.084-1-.941-1a1.564 1.564 0 0 1-1.559-1.559c0-.857-.45-1.281-1-.941s-1-.098-1-.973c0-1.682 4.277-3.867 4.815-2.461.173.453-.18 1.748-.785 2.879-.872 1.628-.803 2.055.328 2.055.785 0 1.701.712 2.036 1.583.621 1.62 3.094 1.488 3.121-.166.009-.504.354-1.448.767-2.098a1.37 1.37 0 0 0-.42-1.904q-1.171-.724-.362.585c.571.924.421 1.069-.508.495-1.018-.629-.822-1.215.867-2.582 1.284-1.039 1.763-2.029 1.162-2.4-.561-.347-1.021-.128-1.021.487s-.422.857-.939.538-1.402.217-1.969 1.191-1.031 1.321-1.03.771.662-1.874 1.47-2.941c.807-1.068 1.468-1.575 1.468-1.128s.578.335 1.284-.251c2.184-1.813 4.135.168 2.738 2.778-.651 1.218-.923 2.475-.603 2.794.32.32.581.001.581-.708 0-1.007.314-1.028 1.436-.097 1.072.89 1.964.909 3.521.076 1.146-.613 2.525-.843 3.064-.51.538.333.979.227.979-.235s-1.292-1.327-2.871-1.923c-2.638-.996-2.839-.912-2.479 1.031.378 2.045.36 2.049-.559.114-1.419-2.987-1.286-3.5.909-3.5 2.309 0 2.319-.032 1.025-3.435-.537-1.411-.589-2.565-.117-2.565 1.58 0 1.927-3.849.4-4.435-2.321-.891-2.453-.708-1.214 1.685 1.164 2.249 1.164 2.249-.82.25-1.091-1.1-1.597-2.151-1.123-2.335s.658-.666.408-1.069c-.249-.403 1.157-1.315 3.123-2.026 2.456-.888 3.172-1.542 2.288-2.089-1.431-.884-4.202-.165-3.534.916.234.378-.556.756-1.755.84-1.935.136-1.984.041-.431-.842.963-.547 1.75-1.647 1.75-2.445s.477-1.45 1.059-1.45.781-.45.441-1-.086-1 .563-1c.885 0 .871-.375-.054-1.489-.68-.819-1.635-1.242-2.122-.941-.488.301-.887.109-.887-.428 0-.536.538-1.155 1.195-1.374.659-.219 1.219-2.271 1.25-4.58.03-2.3.505-4.19 1.055-4.2s.366-.42-.41-.911c-1.188-.752-1.202-1.392-.09-4.077 1.059-2.556 1.07-3.339.056-3.965-.988-.611-1.005-1.262-.078-2.993 1.429-2.67.805-3.69-.958-1.566-1.736 2.091-2.745 1.914-4.13-.726-1.159-2.207-1.142-2.216.865-.435 2.155 1.912 3.679.981 2.676-1.634-.366-.954.184-1.741 1.511-2.163 1.148-.364 1.81-1.11 1.471-1.658s-1.268-.746-2.066-.44c-.798.307-1.195.143-.883-.362.313-.506.111-1.202-.448-1.548-.559-.345-1.016-.076-1.016.598s-.281.945-.624.602-.365-1.297-.049-2.12c.464-1.209 1.159-.983 3.624 1.18 3.365 2.953 3.83 4.23 1.541 4.23-1.255 0-1.3.334-.268 1.987 1.202 1.924 1.263 1.928 1.939.103.383-1.037 1.178-2.183 1.767-2.547.588-.363 1.038-1.422 1-2.352-.058-1.379-.229-1.321-.93.309-.753 1.752-1.048 1.376-.981-1.25.01-.412 1.205-1.067 2.655-1.455 1.993-.533 2.354-.423 1.481.45-1.434 1.434-1.52 4.755-.124 4.755.568 0 1.301-.701 1.629-1.557.329-.857 1.238-1.312 2.021-1.012.788.303 1.15.105.812-.442-.336-.544-.134-.989.448-.989s1.059.45 1.059 1 .675 1 1.5 1 1.5-.637 1.5-1.417c0-.779.563-1.643 1.25-1.921.688-.277.252-.54-.969-.583-1.598-.057-2.048-.521-1.61-1.663.467-1.218.789-1.29 1.392-.313.623 1.007 1.268 1.019 3.111.057 2.229-1.162 2.235-1.195.147-.798-1.595.303-2.145-.053-2.049-1.328.088-1.164.733-1.584 1.945-1.267 2.763.723 3.295 2.385 1.245 3.885-1.015.741-1.421 1.362-.903 1.38.517.017.067.692-1 1.5-1.068.807-1.437 1.468-.822 1.468s1.907-.787 2.87-1.75c1.082-1.082 3.43-1.798 6.154-1.875 5.126-.146 9.529-2.177 8.805-4.063-.284-.741.183-1.312 1.072-1.312.99 0 1.362.558 1 1.5-.316.825-.139 1.5.393 1.5.533 0 .969-.9.969-2s.498-2 1.107-2 .848.675.531 1.5c-.603 1.572.494 2.035 1.779.75.412-.412 1.05-.769 1.416-.793 2.581-.165 8.167-2.852 8.167-3.928 0-1.325 2.769-3.012 4.355-2.653.471.107 1.483-.327 2.25-.963 1.096-.91 1.395-.81 1.395.465 0 .892-.506 1.509-1.125 1.372-1.797-.399-2.124 1.94-.365 2.615.896.344 1.334.192 1.001-.347-.326-.528.551-1.246 1.948-1.597 1.398-.351 2.541-1.025 2.541-1.498s.675-.601 1.5-.285c.825.317 1.5.174 1.5-.318 0-1.361-3.996-1.369-4.03-.008-.017.653-.489.401-1.05-.562-.706-1.212-.674-2.288.106-3.5 1.071-1.667 1.099-1.667.581 0-.676 2.175.711 2.277 2.451.18.716-.863 2.121-1.355 3.122-1.093s1.82.068 1.82-.431c0-.498-.635-.906-1.412-.906-1.438 0-1.588-1.61-.337-3.611.74-1.183-.005-2.389-1.477-2.389-.49 0-.64.408-.332.907.309.498-.34.671-1.441.383s-2.001-.907-2.001-1.375c0-.469-.749-.565-1.664-.214-1.071.411-1.422.246-.984-.462 1.002-1.621-.638-2.246-2.363-.9-1.576 1.229-2.389 5.027-.876 4.091.488-.301.887-1.223.887-2.048s.43-1.234.956-.909.701 1.257.388 2.072c-.312.814-.071 2.079.535 2.81 1.39 1.674.445 2.704-1.727 1.882-2.082-.788-3.557-2.363-3.982-4.251-.182-.807-.857-1.851-1.5-2.321-.747-.545-.537-.65.58-.291.963.31 1.75.127 1.75-.405 0-.533-.562-.976-1.25-.984-.915-.012-.885-.247.113-.879 1.151-.729 1.151-.948 0-1.406-1.021-.406-1.042-.562-.082-.621.705-.043 1.54.593 1.855 1.415.316.822.984 1.241 1.485.931s.594-1.077.206-1.704c-.388-.628.949-.166 2.971 1.027l3.676 2.169 1.182-2.208c.65-1.215 1.068-2.359.93-2.542-.139-.184.082-.634.491-1 .409-.367.449-.152.089.478s-.074 1.368.635 1.64c.764.294 1.351-.316 1.44-1.495.082-1.094.918-2.551 1.857-3.238 1.777-1.299 1.049-4.07-.774-2.943-.655.405-.681.871-.069 1.266.532.344-.525 1.346-2.349 2.227-3.109 1.501-3.26 1.494-2.397-.119.506-.946.599-2.076.206-2.512s-.2-.497.43-.137 1.403-.018 1.719-.84c.315-.822 1.295-1.494 2.178-1.494 2.009 0 1.55-3.173-.542-3.743-1.311-.358-1.314-.28-.029.612m-37.721 15.848c-.687.247-1.25.889-1.25 1.425 0 .537.45.698 1 .358s1-.115 1 .5.45.84 1 .5 1 .11 1 1c0 1.004-.474 1.35-1.25.912-.989-.558-.994-.429-.024.618 1.011 1.09 1.613.983 3.422-.604 1.208-1.059 1.898-1.414 1.535-.789-.74 1.272 2.002 4.011 3.008 3.006.353-.354.213-.643-.312-.643-.524 0-1.02-.886-1.102-1.968-.126-1.681.125-1.798 1.723-.8 1.029.643 1.588 1.641 1.243 2.218-.345.578.063.491.907-.191.844-.683 1.902-.908 2.352-.5.45.407.49.171.089-.525s-1.132-1.018-1.624-.714-1.879-.432-3.082-1.635c-2.07-2.07-6.894-3.155-9.635-2.168m11.534 11.566c.342 1.308.144 1.79-.557 1.357-.599-.37-1.414-.146-1.812.498q-.725 1.171.585.362c.867-.536 1.068-.418.594.348-.486.787-1.289.85-2.508.198-1.546-.828-1.725-.609-1.304 1.593.48 2.511.442 2.528-2.397 1.084-1.729-.879-3.687-1.168-4.885-.72-1.1.411-2.338.551-2.75.313s-.75.076-.75.698c0 .623.787.971 1.75.773s2.264.315 2.892 1.139c.887 1.164 1.456 1.237 2.553.328.847-.704 3.468-.998 6.567-.738 4.032.339 5.043.14 4.639-.912-.284-.74.213-1.626 1.105-1.968.891-.342 1.341-1.075.998-1.629-1.057-1.71-2.376-1.126-3.932 1.743-.821 1.512-1.508 2.3-1.528 1.75s.829-2.419 1.886-4.153c1.833-3.006 1.839-3.174.123-3.623-1.402-.367-1.682-.022-1.269 1.559m-41.034.929c-.963.983-1.863 2.126-2 2.538s-1.375.673-2.75.579c-1.449-.1-1.759.037-.738.325 2.477.699 1.191 2.277-1.32 1.621-1.36-.356-1.866-1.085-1.496-2.156.467-1.354.337-1.335-.792.115-.744.954-1.645 1.442-2.003 1.084s-.651-.126-.651.515c0 .642 1.281 1.167 2.847 1.167 4.733 0 9.668 5.995 5.954 7.233-.738.246-.525.659.551 1.072.964.37 1.508.278 1.211-.203-.676-1.093 1.88-3.325 2.779-2.427.362.362.658.107.658-.567s.403-.977.895-.673c.493.305 1.148-.104 1.457-.909.308-.804.127-1.73-.403-2.057-.53-.328-1.233.108-1.563.968-.82 2.136-2.716 1.961-4.9-.453-1.768-1.953-1.765-2.059.084-3.411 2.284-1.671 3.582-1.134 2.716 1.123-.434 1.132-.247 1.398.612.867.681-.421.967-1.471.636-2.334s-.198-1.83.296-2.149c.493-.319.621-1.272.284-2.118-.536-1.344-.835-1.312-2.364.25M393 235.117c0 .624.882.886 2.001.593 1.101-.288 1.75-.115 1.441.383-.308.499-.123.907.41.907 1.559 0 .609 3.471-1.038 3.793-.824.161-2.074-.402-2.778-1.25-.792-.954-.875-1.543-.217-1.543.584 0 1.341.45 1.681 1s1.074 1 1.63 1c.557 0 .338-.675-.487-1.5s-1.982-1.5-2.572-1.5c-.589 0-1.071-.45-1.071-1s-.477-1-1.059-1-.8.419-.484.931.049 1.256-.595 1.654c-.734.454-.903.29-.453-.438 1.518-2.455-2.308-2.157-4.843.378-1.677 1.676-3.284 2.437-4.36 2.062-1.573-.546-1.571-.487.028.759.954.744 1.442 1.645 1.084 2.003s-.142.651.48.651 1.608.89 2.19 1.977c.863 1.614.778 1.87-.465 1.394-.838-.322-1.523-.987-1.523-1.478s-.45-.893-1-.893c-2.215 0-.922 3.803 1.5 4.411 1.375.345 2.5 1.069 2.5 1.608 0 1.537-2.15 1.152-4.304-.769-1.893-1.689-1.937-1.671-1.26.505.703 2.258.605 2.345-4.353 3.874-1.08.333-1.14.714-.25 1.604.642.642 1.16 1.865 1.152 2.717-.013 1.257-.179 1.292-.879.187-.603-.951-.981-1.013-1.25-.206-.212.637-1.403 1.234-2.645 1.328-1.389.105-2.07.666-1.767 1.456.271.707.005 1.285-.592 1.285-1.059 0-.855-1.608.68-5.349.688-1.678.556-1.724-1.418-.5-1.854 1.15-2.332 1.127-3.239-.151-.895-1.262-.974-1.222-.501.25.363 1.128.041 1.75-.905 1.75-1.583 0-1.818.927-.864 3.412.332.867 1.007 1.328 1.5 1.023.492-.304.895-.079.895.5s-1.012.89-2.25.691c-1.482-.238-2.144-.946-1.938-2.073.345-1.892-3.563-5.825-4.941-4.973-1.48.915-.959 2.391.629 1.782.963-.37 1.5.02 1.5 1.09 0 .916.45 1.388 1 1.048s1-.141 1 .441-.675 1.059-1.5 1.059-1.5-.356-1.5-.792-1.359-.774-3.021-.752c-2.626.035-2.803.2-1.353 1.26.918.671 2.052.983 2.521.693s.853.148.853.973-.45 1.778-1 2.118-1 .113-1-.504-1.012-.981-2.25-.809c-1.971.274-2.231-.101-2.093-3.027.152-3.218.103-3.263-1.318-1.233-.812 1.158-2.008 1.841-2.657 1.516-.65-.325-.308.117.759.983 1.948 1.579 1.335 2.026-2.441 1.778-.275-.018-.548 1.279-.606 2.882-.059 1.603.305 2.914.809 2.914.503 0 .64-.445.304-.989-.357-.577.069-.727 1.025-.36.9.345 1.26.902.802 1.238-.459.336-.987 1.487-1.173 2.557-.28 1.609-.084 1.735 1.128.729 1.199-.995 1.566-.838 2.01.861.416 1.592.248 1.833-.72 1.03-.695-.577-1.577-.735-1.961-.351-.383.384-.957-.295-1.274-1.509-.621-2.375-1.826-2.853-2.883-1.143-.361.585.011 1.822.828 2.75.984 1.118 1.304 2.866.948 5.184-.485 3.161-.378 3.365 1.113 2.127.908-.753 1.65-.972 1.65-.487s.902 1.445 2.004 2.133c1.607 1.004 1.953 1.002 1.75-.009-.14-.694.408-1.115 1.218-.937 1.134.25 1.061-.13-.315-1.651-1.164-1.286-1.416-2.204-.722-2.633.586-.362 1.065.044 1.065.901s.45 1.559 1 1.559 1 1.077 1 2.393.675 2.652 1.5 2.969c2.047.785 1.892 2.183-.259 2.345-.968.073-2.41.281-3.205.463-.795.181-1.466-.195-1.491-.837-.07-1.804-1.545-2.869-1.545-1.116 0 .852-.993 1.809-2.206 2.127s-1.927.856-1.586 1.197 1.559.119 2.706-.495c1.386-.742 2.086-.769 2.086-.081 0 .569-.354 1.035-.787 1.035s-.855.9-.938 2c-.2 2.648 1.342 2.572 2.041-.101.35-1.336.994-1.826 1.771-1.345.781.483.965.339.508-.399-.92-1.49-.402-1.455 2.754.182 1.554.806 2.214 1.7 1.664 2.25-.551.551.059.913 1.537.913 3.304 0 3.086-1.051-.55-2.66-1.65-.731-3-1.743-3-2.251s.296-.626.658-.264 1.281.141 2.042-.491c1.044-.866 1.67-.864 2.542.008.877.877.867 1.158-.042 1.158-.66 0-1.2.45-1.2 1s.635 1 1.412 1c2.033 0 1.294-3.01-1.243-5.064-1.193-.966-2.169-2.247-2.169-2.846s-.45-1.09-1-1.09-1-.45-1-1c0-1.783 1.663-1.059 2.873 1.25 1.068 2.038 1.143 2.057.8.202-.278-1.5.18-2.091 1.711-2.206 1.15-.087 1.646.16 1.103.548-1.344.961-1.749 3.926-.63 4.618.501.309 1.5-.894 2.22-2.675s1.569-3.462 1.887-3.737c1.978-1.714 2.955-6.16 1.777-8.089-1.039-1.702-.959-2.243.493-3.321.954-.708 1.442-1.581 1.084-1.939s-.126-.651.515-.651c.642 0 1.167.675 1.167 1.5v2.25c0 .413-.45.75-1 .75s-1 .337-1 .75v1.446c0 .383 1.492-.75 3.316-2.517 1.823-1.768 3.721-2.869 4.217-2.447s.324.012-.381-.912c-1.704-2.234 1.723-4.453 3.897-2.523 1.117.992 1.145.924.161-.389-.656-.876-.897-1.888-.535-2.25 1.261-1.261-.763-.646-3.259.989-1.938 1.27-2.446 1.333-2.215.277.464-2.129 4.039-3.733 6.063-2.721 1.255.628 1.688.509 1.5-.41-.145-.711.411-1.293 1.236-1.293s1.401.521 1.281 1.157c-.159.837.812.789 3.5-.174a3023 3023 0 0 1 5.719-2.044c3.471-1.234 19.772-.608 20.7.795.647.977 1.144.867 2.179-.484 1.832-2.39 2.621-2.196 2.621.643 0 1.316.704 2.663 1.563 2.993.86.33 1.287 1.048.948 1.595-.365.591.067.734 1.061.353 1.036-.397 2.029-.011 2.601 1.012 1.368 2.443 2.617 2.008 2.094-.728-.336-1.762-.951-2.252-2.361-1.883-1.294.338-1.906-.021-1.906-1.118 0-.89-.525-1.617-1.167-1.617-.641 0-.83-.337-.418-.748.412-.412 1.382.118 2.156 1.177s1.702 1.631 2.061 1.272.117-1.298-.538-2.088c-.747-.9-.826-1.661-.212-2.04.539-.333 1.262-.148 1.608.411.345.559 1.084 1.016 1.64 1.016.557 0 .306-.707-.559-1.571-1.971-1.971-1.973-2.429-.012-2.429.857 0 1.31.403 1.006.895-.305.493.119 1.153.941 1.469.822.315 1.494.17 1.494-.322s.563-1.089 1.25-1.325c.688-.237.539-.332-.329-.212-2.521.348-4.93-1.882-3.849-3.563.704-1.093 1.118-1.149 1.712-.232.579.893 1.065.762 1.853-.5.918-1.47.668-1.692-1.785-1.585-4.615.202-5.001.324-4.352 1.375.34.55.25 1-.2 1-.451 0-1.449-1.012-2.22-2.25-1.318-2.116-1.294-2.161.404-.758 1.675 1.386 1.748 1.315 1.016-.992-.712-2.243-.626-2.349.888-1.093 1.528 1.269 1.585 1.152.644-1.323-1.242-3.265-1.284-3.858-.232-3.208.44.272.8-.652.8-2.053v-2.547l-1.75 2.161c-.962 1.188-1.521 2.757-1.241 3.487.341.888-.335 1.326-2.05 1.326-3.051 0-3.379-1.355-.544-2.255 3.062-.972 1.501-2.224-2.113-1.694-2.141.314-2.965.11-2.512-.623.371-.6 1.222-.959 1.892-.798s.878.103.462-.129-.442-.946-.058-1.586-.133-.49-1.148.335-2.001 1.387-2.192 1.25c-.19-.137-.346-.025-.346.25v3.107c0 1.895.406 2.451 1.485 2.037.87-.334 1.915.234 2.523 1.371.828 1.547.745 1.827-.408 1.385-.842-.323-1.911.313-2.558 1.522-.84 1.568-.817 2.078.089 2.078.662 0 .936.266.611.592s-1.341.172-2.256-.34c-1.549-.867-1.548-1.048.024-2.619 3.029-3.029.049-5.106-3.529-2.461-1.692 1.251-3.522 1.834-4.536 1.445-.934-.358-2.316-.139-3.072.488-1.028.853-1.719.853-2.748-.001-1.696-1.407-1.824-6.104-.167-6.104 2.02 0 2.485 1.119 1.271 3.062-.634 1.016-.771 2.205-.304 2.643s1.05.233 1.295-.455c.246-.687 1.047-1.25 1.78-1.25s1.522-.338 1.753-.75.282-.187.114.5c-.412 1.694 1.817 1.578 4.192-.218 1.9-1.437 1.895-1.469-.221-1.5-2.733-.04-2.51-3.395.256-3.836 1.556-.248 1.636-.12.435.696-1.797 1.221-.834 2.41 1.576 1.946 1.55-.299 1.453-.672-.801-3.105-2.492-2.688-2.578-2.706-3.116-.648-.304 1.164-1.006 1.836-1.559 1.495-.553-.342-1.371.027-1.818.821-.702 1.249-1.072 1.252-2.752.021-1.068-.782-1.405-1.478-.75-1.547s1.619-.181 2.141-.25c.523-.069 1.535-.778 2.25-1.577 1.122-1.253 1.061-1.27-.45-.127-1.174.888-1.75.955-1.75.201 0-.617-.337-1.069-.75-1.004-2.609.412-3.215-.491-.75-1.118 2.564-.653 2.238-.781-2.25-.882-3.27-.073-5.25.303-5.25.999m-19.092 5.055c-.858 1.602-1.315 1.787-1.936.783-.63-1.02-1.587-.724-4.269 1.322-1.901 1.45-3.809 2.318-4.24 1.93s-.46-.144-.064.543c.445.774.123 1.25-.847 1.25-.861 0-2.554 1.138-3.764 2.528s-2.775 2.307-3.481 2.036-1.188-.171-1.073.222c.116.393-.631 1.975-1.66 3.515-1.372 2.054-1.567 3.057-.731 3.759.627.526.926.66.664.297-.262-.362.305-1.252 1.259-1.976q1.738-1.32.425-1.349c-1.739-.042-.617-1.735 2.115-3.19 1.944-1.036 2.046-.99.893.408-1.094 1.327-.957 1.897.86 3.59 2.621 2.442 4.935 1.853 4.173-1.061-.405-1.549-.207-1.881.765-1.281.828.512 1.07.419.657-.25-.361-.583-1.626-.807-2.811-.497-1.39.364-1.92.183-1.493-.508.364-.59.109-1.257-.568-1.482s-.229-.672.995-.992c1.224-.321 1.974-.174 1.665.324-.308.499-.053.907.566.907.672 0 .87-.808.492-2-.495-1.56-.18-2 1.433-2 1.137 0 2.067-.477 2.067-1.059s.445-.784.989-.448c.543.336.751-.007.461-.762-.389-1.014.415-1.358 3.066-1.313 2.923.05 3.506.389 3.131 1.823-.254.974-.029 1.495.505 1.165.531-.328.89-1.567.796-2.752-.349-4.432.139-5.142 1.636-2.38.828 1.525 1.252 3.182.944 3.681a1.07 1.07 0 0 0 .342 1.465c.496.306 1.137-.337 1.423-1.431s.085-1.989-.446-1.989-.687-.45-.347-1 .115-1-.5-1-.869-.403-.565-.895c.305-.493-.112-1.151-.925-1.463-.883-.339-1.932.278-2.602 1.53M391.787 243c.42 2.865-.354 3.604-3.206 3.062-.506-.096-.338.526.372 1.382 1.043 1.256 1.048 1.85.027 3.08-.696.838-.976 1.813-.623 2.167.354.353.643.091.643-.583s.457-.943 1.016-.598c.559.346.787 1 .506 1.454-.281.455.185 1.093 1.036 1.42.85.326 1.3.195 1-.291-.59-.955 2.306-2.557 3.942-2.18.55.126.381-.365-.375-1.092-1.057-1.015-1.479-1.038-1.824-.1-.353.961-.729.961-1.77 0-.726-.672-1.117-1.559-.867-1.971s-.098-.75-.772-.75-.936-.289-.583-.643c.354-.353 1.393-.019 2.311.743 1.492 1.238 1.593 1.148.959-.852-.553-1.742-.378-2.108.792-1.659.827.317 1.287 1.139 1.023 1.827s.217 1.251 1.069 1.251c1.386 0 1.39-.242.043-2.298-1.834-2.799-1.915-3.698-.256-2.841.688.355.125-.283-1.25-1.419-3.333-2.752-3.732-2.642-3.213.891M436 252c0 .55-.765 1-1.7 1-1.322 0-1.433.267-.5 1.2 1.757 1.757 1.466 2.736-.688 2.321-1.101-.211-2.977.772-4.496 2.358l-2.607 2.721h2.56c1.973 0 2.452-.413 2.089-1.801-.26-.991-.073-1.555.415-1.254.487.301 1.834.04 2.992-.58 2.574-1.378 3.328-.778 2.459 1.959-.557 1.754-.98 1.902-2.743.959-1.794-.96-1.991-.874-1.418.621.528 1.375.247 1.627-1.348 1.21-1.108-.29-2.015-.119-2.015.38 0 .498.337.929.75.957s2.775.228 5.25.445 3.647.148 2.605-.152c-1.287-.371-1.516-.781-.715-1.276 1.789-1.106 2.253-8.06.494-7.385-.837.321-1.384-.127-1.384-1.135 0-.916.445-1.391.989-1.055.566.35.734-.051.393-.941-.676-1.761-1.382-2.043-1.382-.552m5.25 8.706c-2.499.481-2.902 2.191-1 4.241 1 1.077 1 1.205 0 .641-.687-.388-1.25-.203-1.25.412s-.375.886-.833.603c-.459-.283-.834.115-.834.885 0 .771.263 1.373.584 1.338 1.904-.205 2.384.341 1.083 1.234-1.179.809-.942.969 1.111.747 2.546-.276 5.889 1.589 5.889 3.284 0 .465-.788.593-1.75.283-1.355-.436-1.439-.341-.372.42.758.54 1.061 1.595.674 2.344s.197.34 1.3-.909c1.18-1.339 2.263-1.852 2.635-1.25.347.561.128 1.021-.487 1.021s-.797.52-.405 1.155c.406.655.278.885-.294.531-1.112-.687-3.529 3.753-2.567 4.714 1.021 1.022 3.421.659 2.756-.416-.346-.559-1.047-.758-1.559-.441-.512.316-.931.312-.931-.009 0-.767 5.236-2.92 6.419-2.639.506.12.45-.37-.125-1.089-1.422-1.779-.972-5.764.776-6.871 1.224-.774 1.226-.907.013-.92-1.656-.018-.475-1.493 1.25-1.56.642-.025 1.043-.621.892-1.325-.151-.703.156-1.013.681-.688.526.325 1.214.173 1.53-.338.583-.944-.191-.869-4.153.401-2.125.682-3.978 3.927-3.407 5.967.15.535-.661.127-1.802-.905S445 270.075 445 270.545c0 1.267-2.348-1.31-2.57-2.821-.105-.712.605-1.295 1.576-1.295s1.582.482 1.356 1.071.425 1.134 1.447 1.211c3.082.232 2.09-2.665-1.496-4.367-2.671-1.267-3.121-1.871-2.211-2.967.629-.758.975-1.316.77-1.241s-1.384.331-2.622.57m-95.623 5.5c.317.512 1.205.689 1.974.394.77-.296 1.399-.053 1.399.538s.642.83 1.427.528c1.246-.478 4.493 2.06 3.823 2.988-1.02 1.413.107 3.045 2 2.896 1.238-.097 2.949.158 3.804.567s2.205.282 3-.281c1.174-.832 1.117-.919-.304-.462-1.116.359-1.75.043-1.75-.874 0-.79.578-1.215 1.285-.944.8.307 1.328-.367 1.398-1.781.062-1.251-.102-1.716-.366-1.033-.334.867-1.018.953-2.266.285-.984-.526-2.072-.672-2.42-.325-1.214 1.214-.62-1.314.619-2.632.688-.731.016-.547-1.492.41-1.727 1.096-3.393 1.453-4.5.966-.967-.425-2.095-.868-2.508-.985s-.863-.325-1-.464c-.758-.765-4.605-.571-4.123.209m109.255 3.044c-.066.688-.055 1.773.023 2.413.09.732-.699.942-2.131.569-2.12-.553-2.162-.481-.612 1.07 2.2 2.203.508 8.82-2.053 8.031-1.247-.385-1.19-.153.252 1.027 1.297 1.061 1.879 2.902 1.922 6.076.034 2.504.255 4.359.492 4.122.237-.236 1.452-.042 2.701.433 1.458.554 2.673.46 3.397-.264.836-.836 1.127-.799 1.127.144 0 .928.404.868 1.497-.225.824-.824 1.235-2.18.915-3.014s-.704-3.005-.854-4.824c-.55-6.659-.489-6.466-1.521-4.834-.592.937-.556 1.705.1 2.11.619.383.398.88-.553 1.245-1.126.433-1.584.019-1.584-1.432 0-1.813-.167-1.873-1.5-.54-1.695 1.695-2.018 3.081-.5 2.143.55-.34 1-.194 1 .324 0 .519-.87 1.17-1.933 1.448-1.619.424-1.805.158-1.145-1.633.433-1.177.705-3.131.604-4.343-.102-1.212.188-1.973.645-1.691 1.268.784.986-1.048-.371-2.405-.933-.933-.907-1.2.117-1.2.824 0 1.121-.748.793-2-.287-1.1-.115-2 .384-2 .498 0 .906.648.906 1.441s.432 1.708.96 2.034c.569.352.529-.643-.098-2.441-1.07-3.068-2.763-4.082-2.98-1.784m-4.405 26.787c-.338.547-1.003.756-1.477.463s-1.19.037-1.591.734c-.401.696-.373.944.062.551.436-.393 1.633-.265 2.66.285 1.374.735 1.873.66 1.884-.285.012-1.008.198-.998.862.05.466.735 1.134 1.297 1.485 1.25 1.565-.209 1.646.032.638 1.915-.589 1.1-1.531 2-2.094 2s-.775-.403-.471-.895c.305-.493-.104-1.148-.909-1.457-.804-.308-1.728-.13-2.053.396s-.189.956.301.956c.491 0 .893.651.893 1.446 0 1.073-.457 1.202-1.768.5-2.409-1.289-2.899-1.196-2.899.554 0 .825.337 1.387.75 1.25a.79.79 0 0 1 1 .5c.137.413-.037.712-.388.665-.799-.107-2.331 2.249-2.331 3.585 0 .55.33.49.734-.134s1.635-1.326 2.735-1.56 1.887-.961 1.75-1.615c-.137-.655.452-1.191 1.309-1.191.981 0 1.281.463.808 1.25-.516.86-.226.824.93-.113.925-.75 1.464-1.715 1.198-2.146s.181-1.037.994-1.348 1.235-1.199.939-1.971c-.374-.974.167-1.363 1.766-1.269 1.422.083 2.263.734 2.195 1.699-.061.861.421 1.565 1.07 1.565 1.264 0 1.402-2.465.243-4.341-.387-.626-1.65-.891-2.805-.589s-2.393.148-2.749-.344c-1.317-1.816-5.047-3.366-5.671-2.356m-9.296 9.465c.241 7.168.008 9.502-.947 9.5-.774-.001-1.182 1.098-1.05 2.831.119 1.559.75 2.834 1.403 2.834 1.32 0 1.312-1.437-.02-3.572-.6-.961-.512-1.179.278-.69 1.036.64 1.609-.57 1.266-2.676-.068-.424 1.116-.488 2.632-.142l2.757.629-2.5-1.776c-1.375-.977-2.724-1.963-2.998-2.19-.275-.228.319-1.012 1.319-1.743 1.758-1.285 1.758-1.368-.001-2.494-1.739-1.112-1.74-1.139-.011-.597 1.524.477 1.735.104 1.345-2.373-.264-1.676.033-3.173.691-3.482.635-.298.034-.257-1.337.092-2.123.541-2.309.415-1.259-.851.679-.817.938-1.782.576-2.144-1.911-1.91-2.432.241-2.144 8.844M460 305.8c0 .44.51 1.31 1.133 1.933 1.337 1.337.34 4.677-1.126 3.771-1.429-.883-1.251.851.243 2.355 1.001 1.009.951 1.181-.25.864-.825-.217-1.163-.206-.75.024.413.231.75 1.084.75 1.895 0 .828-.488 1.174-1.112.789-.611-.378-1.487-.08-1.945.662-1.514 2.449-2.308-.039-.908-2.845a249 249 0 0 0 1.695-3.446c.178-.383-.581-.523-1.687-.31-1.913.368-1.932.268-.4-2.07 1.511-2.306 1.693-2.348 2.952-.69 1.196 1.576 1.345 1.59 1.373.125.05-2.551-2.798-3.027-4.991-.834-2.447 2.447-2.559 4.951-.227 5.056 1.045.047 1.247.282.5.583-.687.278-1.25 1.142-1.25 1.921 0 1.963-2.018 1.775-3.558-.331-.703-.962-1.62-1.407-2.037-.99-.418.417.036 1.34 1.008 2.051 1.62 1.184 1.633 1.404.153 2.632-.888.737-1.903 1.051-2.257.698-.353-.354-.091-.643.583-.643 1.713 0 .43-1.78-2.198-3.05-1.87-.904-1.96-.868-.606.245 1.991 1.637 1.355 3.871-.903 3.167-1.456-.454-1.438-.323.132.965.999.82 1.786 1.757 1.75 2.082-.22 1.945.019 2.838.602 2.255.368-.367 1.439.028 2.38.88 1.579 1.429 1.763 1.273 2.38-2.015.367-1.959.359-4.064-.02-4.676-.416-.673-.139-.913.702-.608.764.278 1.278 1.006 1.143 1.617-.135.612.765 1.006 2 .875 1.421-.15 2.145.25 1.971 1.087-.151.729.187 1.04.75.691.564-.348 1.032-1.394 1.04-2.324.009-.963.332-1.26.75-.691.865 1.177 4.235 1.897 4.235.904 0-.376-.788-1.281-1.75-2.012-1.069-.811-1.263-1.341-.5-1.36 1.508-.039 5.25 3.544 5.25 5.027 0 .582-.419.8-.931.484s-1.213-.118-1.559.441.018 1.016.809 1.016c.79 0 1.996.675 2.681 1.5s.836 1.5.335 1.5-.964 1.012-1.031 2.25l-.121 2.25 1.08-2.291c.698-1.482 1.638-2.087 2.658-1.713.869.319.434-.45-.966-1.708-2.483-2.233-3.006-6.501-.629-5.14.674.387.82.285.341-.238-.459-.5-1.134-.913-1.5-.917-1.536-.017-5.094-3.238-4.411-3.993.409-.451.229-.526-.401-.166-1.433.819-2.441-1.576-1.384-3.288.626-1.012.887-.994 1.278.091.27.75.397-.025.282-1.723-.115-1.697-.534-3.609-.929-4.25-.818-1.323-2.602-1.573-2.602-.364m-294 1.141c0 .518.468 1.23 1.041 1.584.572.354.767 1.505.432 2.559-.434 1.37-.128 1.916 1.075 1.916 1.558 0 1.563.182.067 2.465-.888 1.355-1.601 2.818-1.585 3.25s.491-.005 1.054-.972c.756-1.298 1.479-1.512 2.773-.819 1.064.569 2.318.577 3.197.022 1.344-.851.59-1.392-1.427-1.024-.48.088-.635-.421-.346-1.131 1.971-4.829 2.026-5.098.893-4.399-.706.437-1.624-.286-2.33-1.836-1.097-2.406-4.844-3.656-4.844-1.615m239.732 10.144c.3 1.146 1.125 2.307 1.834 2.579 1.202.461 1.171 3.932-.045 5.148-.801.802-6.539-4.974-5.926-5.965.287-.466.046-.847-.536-.847-1.197 0-1.342 1.099-.452 3.418.334.87 1.223 1.582 1.975 1.582 1.049 0 1.145.588.411 2.518-.764 2.011-.558 2.917 1.025 4.5 1.09 1.09 1.982 1.622 1.982 1.182s-.54-1.34-1.2-2c-.933-.933-.878-1.203.25-1.215 1.252-.014 1.249-.143-.021-.946-.809-.512-1.2-1.201-.869-1.532s1.218-.018 1.971.695c1.938 1.837 5.316 2.326 4.247.615-1.196-1.916-1.34-3.817-.29-3.817 1.233 0 .704-2.254-.819-3.496-2.192-1.787.235-4.273 2.687-2.754 2.492 1.545 3.376 1.596 2.478.143-.766-1.239 3.692-.165 4.566 1.1.275.398 1.286.603 2.246.454 2.133-.329 3.351 1.356 1.974 2.733-.674.674-1.75.607-3.264-.204-1.95-1.043-2.174-.988-1.639.408.809 2.109-.262 2.074-1.822-.06-1.07-1.463-1.225-1.305-1.221 1.25.002 1.609-.265 3.979-.595 5.265-.471 1.843-.322 2.11.703 1.259.716-.594 1.598-.785 1.96-.423s.658.16.658-.449c0-.61-.511-1.424-1.136-1.81-1.414-.874 2.972-4.416 4.664-3.767 1.774.681 4.028-2.493 2.708-3.813-.594-.594-.842-1.7-.551-2.458.427-1.111-1.313-1.378-8.984-1.378-9.15 0-9.493.08-8.969 2.085m25.433-1.382c2.086.515 3.279 3.405 1.785 4.328-.749.463-.595.891.466 1.298 1.704.654 2.226 4.671.607 4.671-1.452 0-4.295-4.751-3.557-5.945.386-.625-.001-.787-.981-.411-1.148.441-1.309.932-.552 1.689 1.474 1.474 1.343 2.946-.183 2.054-.687-.402-.462.169.5 1.27s1.764 2.415 1.781 2.922c.018.506 1.101 1.698 2.409 2.648 2.251 1.637 2.363 1.637 2.123 0-.14-.95-.736-1.727-1.325-1.727-2.059 0-2.3-1.25-.34-1.763 1.508-.394 2.361.289 3.587 2.873 1.732 3.65 3.506 4.474 3.53 1.64.014-1.513.162-1.547 1.095-.25.91 1.266.991 1.227.516-.25-.821-2.552 1.938-2.21 3.817.473.971 1.386 1.557 1.687 1.557.8 0-1.107.267-1.156 1.2-.223.66.66 1.61 1.2 2.111 1.2s-.152-.938-1.45-2.084c-1.709-1.508-1.877-1.931-.611-1.531 2.277.718 2.21.026-.25-2.615-1.1-1.181-2-1.768-2-1.304s-.788.163-1.75-.67-2.755-1.758-3.983-2.057c-1.936-.471-2.098-.291-1.22 1.349.557 1.041 1.337 1.843 1.733 1.784 1.715-.259 3.22.191 3.22.961 0 .459-.655.834-1.456.834s-1.195-.422-.877-.937-.601-.164-2.044.781c-2.372 1.554-2.623 1.564-2.623.104 0-.888-.525-1.615-1.167-1.615-.641 0-.882-.284-.535-.631s.145-1.541-.45-2.652c-.883-1.651-.807-1.915.419-1.445 1.262.484 1.34.057.494-2.7-.855-2.787-1.471-3.275-4.133-3.277-1.72-.001-2.379.183-1.463.408m-261.56 21.467c.486.787.178.961-.941.531-1.377-.528-1.647.002-1.564 3.08.148 5.534 1.406 9.233 2.369 6.969.41-.962 1.237-1.75 1.838-1.75.731 0 .696.397-.107 1.2-.66.66-1.2 1.485-1.2 1.833 0 .954 2.983.762 3.111-.2.524-3.929.146-5.352-1.507-5.671-1.266-.244-1.6.036-1.068.896.532.861.366 1-.533.444-1.03-.637-.944-1.072.405-2.059.955-.698 1.285-1.515.746-1.848-.532-.328-.731-1.497-.443-2.596.303-1.162.03-1.999-.653-1.999-.647 0-.851.526-.453 1.17m315.581 13.885c-1.911.766-2.331 2.945-.568 2.945.275 0 .222-.45-.118-1s-.25-1 .2-1c.451 0 1.367.878 2.037 1.951 1.074 1.719.955 1.939-1.009 1.858-5.055-.209-6.194.125-4.886 1.433.988.988 1.433.938 2.184-.25.778-1.23.958-1.141 1.029.508.08 1.868.134 1.878.812.153.651-1.654.862-1.684 2.018-.291 1.102 1.328.912 1.651-1.297 2.205-1.423.357-2.588 1.067-2.588 1.577 0 .531.825.485 1.934-.109 2.68-1.434 2.954-1.322 2.356.965-.56 2.142-2.29 2.772-2.29.833 0-.641-.296-.87-.658-.508s-1.222.19-1.911-.382c-.88-.73-1.475-.682-1.996.163-.472.763-.321.942.41.489.677-.417 1.155-.093 1.155.784 0 .823.788 1.465 1.75 1.425.962-.039 2.524.257 3.47.658 1.55.657 1.707-.07 1.597-7.367-.068-4.452-.392-8.066-.72-8.032s-1.638.481-2.911.992m-308.496 3.588c-.37.37-.162 1.288.461 2.039.624.752.82 1.68.437 2.063s-1.098.048-1.589-.746c-.754-1.221-.991-1.184-1.538.241-.355.926-1.535 1.966-2.622 2.311-1.898.603-1.905.682-.158 2.006 1.74 1.32 1.732 1.381-.181 1.427-1.608.037-1.715.227-.548.965.799.506 1.811.697 2.25.426s.798-.043.798.507-.408 1.252-.906 1.56-.672 1.454-.386 2.548c.285 1.093.926 1.736 1.422 1.43s.676-.924.4-1.372c-.776-1.255 3.49-6.154 4.705-5.403.637.394.784.194.36-.49-.652-1.056.613-1.623 2.759-1.239 1.965.352 4.442-1.098 4.239-2.481-.241-1.645-2.093-2.03-2.093-.435 0 .55-.338 1-.75 1s-.71-.297-.66-.66-.651-1.074-1.556-1.581c-1.306-.731-1.398-1.218-.448-2.363.981-1.182.883-1.321-.545-.773-.959.368-2.066.146-2.46-.492-.395-.639-1.02-.858-1.391-.488m432.817 1.368c.336.544.065.989-.603.989-.791 0-.638.637.441 1.829.91 1.006 1.648 2.468 1.64 3.25-.013 1.195-.154 1.202-.889.043-.48-.758-1.373-1.069-1.984-.691-1.44.89-1.444 3.569-.005 3.569.641 0 .827-.736.441-1.75-.511-1.342-.391-1.477.515-.578.649.644 1.875.905 2.723.58 1.005-.386 1.293-.189.826.567-.488.789-.141.943 1.086.482 1.593-.597 1.64-.477.409 1.036-.765.941-1.113 1.99-.773 2.33s.902-.118 1.247-1.018c.346-.901 1.101-1.346 1.678-.989.583.361.756.174.389-.42-.363-.588-.32-1.259.096-1.491s.208-.29-.462-.129c-1.758.422-2.534-1.309-.873-1.947.769-.295 2.291-.303 3.382-.017 1.091.285 2.286.029 2.655-.569.37-.598.195-1.087-.387-1.087a1.063 1.063 0 0 1-1.059-1.059c0-.582.45-.781 1-.441s1 .141 1-.441c0-1.226-.269-1.277-2.412-.454-.867.332-1.35.971-1.074 1.418.277.448-.848 1.111-2.499 1.474-3.375.741-6.673-1.439-4.883-3.229.67-.67.466-1.208-.617-1.624-.943-.362-1.364-.208-1.008.367M481.89 367.368c-1.038.778-1.288 1.913-.799 3.632.39 1.375.754 1.938.809 1.25s.577-1.25 1.159-1.25.738.52.346 1.155c-.433.699-.276.883.397.467.611-.377.857-1.347.547-2.154s-.016-1.468.652-1.468c.808 0 .998.867.567 2.584-.361 1.438-.251 2.338.247 2.03.493-.304.671.625.396 2.065-.284 1.482-.097 2.369.43 2.043.512-.316.93.319.93 1.412 0 2.001-.741 2.047-4.985.31-1.502-.615-1.724-.478-1.029.636 1.425 2.286 1.558 5.076.314 6.575-.636.766-.867 1.682-.514 2.036.354.353.643.143.643-.467s.9-.936 2-.724c1.283.247 2-.153 2-1.116 0-.826-.399-1.256-.886-.954-.488.301-1.127-.373-1.422-1.498-.415-1.59-.246-1.807.76-.972 2.645 2.195 4.282.148 4.413-5.517.069-2.994-.27-5.443-.753-5.443s-1.123-.936-1.422-2.079c-.397-1.518-.159-1.931.883-1.531.785.301 1.427.111 1.427-.421 0-.533-.562-1.003-1.25-1.046-.687-.042-1.948-.214-2.801-.382s-2.23.204-3.059.827m-302.194 8.24q-1.804 2.412-4 2.013c-1.741-.315-2.196.079-2.196 1.907 0 1.268.225 2.29.5 2.27 2.429-.17 4.008.381 3.49 1.218-.346.559-.962.81-1.371.558-.408-.253-.775 1.32-.815 3.496-.041 2.175.291 4.18.736 4.455 1.4.865 5.961-1.771 5.945-3.436-.014-1.391-.136-1.402-.985-.089-.915 1.416-1.071 1.312-1.375-.917-.069-.504-.535-1.291-1.035-1.75-.521-.476-.63-.343-.256.312.36.63-.028 1.407-.863 1.728-1.218.467-1.318.209-.505-1.309 1.131-2.113 3.018-2.152 5.475-.113 1.35 1.121 1.859 1.131 2.851.06.944-1.02.943-1.155-.006-.621-.667.376-2.129-.233-3.25-1.354-1.16-1.16-1.51-2.036-.813-2.036.672 0 .214-.706-1.017-1.568-2.25-1.576-2.199-3.598.076-3.052.67.161.862.097.426-.141-.435-.238-.259-1.076.393-1.86.651-.785 1.007-1.597.792-1.805-.216-.208-1.205.707-2.197 2.034m308.186 21.142c-.066.413-.042 1.159.052 1.658.095.5-.415 1.287-1.131 1.75-1.06.685-1.045 1.008.079 1.733 1.08.696.888 1.047-.882 1.609-1.763.559-1.958.913-.882 1.594 1.07.678.949.879-.535.891-1.054.008-1.615.316-1.247.684s-.098 1.515-1.034 2.55c-1.379 1.524-1.5 2.417-.639 4.699.74 1.96.747 3.392.023 4.7-.927 1.677-.858 1.733.637.51 1.444-1.182 1.677-1.148 1.677.25 0 .892-.675 1.622-1.5 1.622-1.723 0-2.003 1.571-.451 2.53.717.443.68 1.092-.118 2.054-.642.773-.931 2.308-.642 3.412.288 1.104.116 1.755-.382 1.446-.499-.308-.907.367-.907 1.499s-.436 2.059-.969 2.059-.709-.675-.393-1.5c.401-1.045-.073-1.5-1.563-1.5-1.282 0-2.461.87-2.943 2.171-.492 1.331-1.066 1.745-1.484 1.069-.374-.606-.223-1.384.336-1.73.559-.345 1.016-1.078 1.016-1.628s-.48-.703-1.067-.341c-.586.363-1.712-.173-2.502-1.191-1.388-1.788-1.413-1.786-.764.064.377 1.071.268 1.677-.247 1.375-.506-.296-1.82-.136-2.92.357-1.875.839-1.863.869.193.483 1.235-.232 2.807.305 3.598 1.229 2.636 3.081 2.73 3.881.443 3.76-1.469-.078-2.223.459-2.227 1.586-.004.937-.863 2.33-1.908 3.097-1.479 1.084-1.612 1.573-.596 2.201.863.533 1.064.416.592-.347-.392-.635-.236-1.155.346-1.155s1.059 1.161 1.059 2.579c0 2.389.241 2.528 3.25 1.875 1.788-.388 3.475-1.011 3.75-1.385s2.863-2.193 5.75-4.043c2.887-1.849 5.25-3.539 5.25-3.753 0-.215-.399-.144-.887.157-.487.301-1.5-.206-2.25-1.128-1.19-1.464-1.141-1.593.387-1.021.965.362 1.75.19 1.75-.384 0-1.263 2.586-3.978 3.202-3.362.242.242.525-4.729.628-11.047.121-7.327-.184-11.488-.84-11.488-.565 0-.79 1.012-.499 2.25.778 3.309-.782 5.256-3.122 3.897-1.028-.598-1.359-1.1-.736-1.117.624-.016 1.35-1.159 1.613-2.539.387-2.021.217-2.29-.872-1.386-.744.617-1.105 1.521-.804 2.008s.071.887-.511.887c-1.867 0-1.135-2.58 1.41-4.971 1.358-1.276 2.235-2.699 1.948-3.163s.177-.575 1.031-.248c1.264.486 1.552-.258 1.552-4.011 0-3.883-.721-6.371-1.118-3.857M590.5 406c-4.524.864-4.804 1.146-32.796 33-9.425 10.725-17.393 19.725-17.707 20s-12.255 13.729-26.534 29.898c-47.15 53.389-54.487 61.599-55.293 61.873-.439.15-7.351-6.6-15.359-15-52.566-55.133-49.632-53.696-69.169-33.87-16.972 17.224-17.115 16.721 13.79 48.797 37.428 38.846 58.88 60.658 62.012 63.052 5.828 4.453 15.538 2.628 21.081-3.964 1.519-1.807 5.561-6.436 8.981-10.286 13.399-15.084 22.956-25.966 43.91-50 11.988-13.75 24.606-28.15 28.04-32s10.893-12.4 16.575-19c13.747-15.968 28.447-32.77 39.372-45 13.115-14.682 14.598-16.959 14.59-22.4-.003-2.709-.732-5.701-1.772-7.278C618.15 420.683 600.155 406 598.378 406c-.668 0-1.814-.172-2.546-.382-.733-.21-3.132-.039-5.332.382m-137.597 12.181c-.544 1.016-.632 1.77-.196 1.675.436-.096 1.586.173 2.556.597 1.014.444 2.356.278 3.161-.39.832-.69 1.633-.78 1.978-.221.579.936-3.497 4.158-5.26 4.158-.51 0-1.212-.739-1.559-1.643-.346-.904-.917-1.357-1.267-1.006-1.254 1.254-.943 6.274.47 7.594 1.466 1.369 1.373.593-.593-4.945-.414-1.168-.089-1.112 1.469.252 1.1.964 2.216 1.537 2.48 1.273s1.352-.617 2.419-.784c2.282-.358 6.446-3.737 6.424-5.213-.009-.566-.439-.359-.956.459-.796 1.26-1.265 1.136-3.08-.811-2.046-2.197-2.203-2.218-3.596-.487-1.38 1.716-1.427 1.701-.89-.272.729-2.682-2.149-2.873-3.56-.236m18.24.709c-.99.628-1.045 1.053-.201 1.574.863.533.868 1.06.02 2.081-.624.752-.844 1.837-.489 2.411.368.596-.238 1.044-1.414 1.044-1.132 0-2.059.408-2.059.906 0 1.212 4.158.074 5.831-1.596.731-.731 1.805-1.035 2.386-.676.637.394.11 1.368-1.331 2.46l-2.386 1.809 2.25-.165c1.238-.09 2.25-.518 2.25-.951s.788-.787 1.75-.787c1.181 0 1.75-.781 1.75-2.405 0-1.322-.337-2.195-.75-1.94s-.75 1.129-.75 1.943c0 1.216-.249 1.251-1.395.191-.767-.709-1.197-1.617-.954-2.018.542-.895-1.447-4.777-2.436-4.756-.393.009-1.326.402-2.072.875m-81.699 3.2c-.301.488.224.591 1.168.229 1.164-.447 1.484-.283.993.511-.398.644-.273 1.17.277 1.17s1.278-.45 1.618-1c.898-1.453 6.209-1.225 8.785.378 2.97 1.848 8.491 2.793 9.24 1.581.332-.537-.438-1.434-1.711-1.994-2.027-.892-1.905-.955.986-.507 2.095.325 3.07.141 2.671-.504-.775-1.255-23.246-1.127-24.027.136m25.806 8.643c-1.238.831-2.251 1.119-2.252.639-.002-.48-1.312-.918-2.912-.974-2.147-.075-2.765.276-2.356 1.34.34.887 1.447 1.27 2.881.996 1.281-.245 2.11-.091 1.842.341s.001 1.088.596 1.455c.718.444.475 1.39-.727 2.819l-1.808 2.151 2.493-2.12c3.776-3.211 5.993-2.735 5.993 1.287 0 3.324 1.243 4.367 2.595 2.178.457-.737.273-.882-.508-.399-1.657 1.024-.991-4.192.913-7.145 1.136-1.762 1.724-1.971 2.959-1.048 1.277.954 1.33.913.305-.238-1.494-1.676-5.264-2.399-5.264-1.009 0 .547-.788.987-1.75.979-1.363-.012-1.45-.206-.393-.875.746-.473.971-1.091.5-1.374-.471-.282-1.869.167-3.107.997m25.32 6.8c-1.174 1.793-1.179 2.134-.028 2.134.754 0 1.167-.328.92-.729-.498-.806 1.908-1.938 4.12-1.938.78 0 1.382.788 1.339 1.75-.052 1.157-.258 1.302-.607.43-.384-.962-.922-.758-1.979.752-.798 1.139-1.205 2.47-.904 2.956.61.988-.996 2.467-3.746 3.45-1.462.523-1.694.266-1.19-1.321.567-1.788.226-1.936-3.685-1.591-2.834.25-4.875-.123-5.961-1.088-1.342-1.194-1.792-1.223-2.41-.153-.418.723-.391.981.059.574 1.221-1.107 3.491 1.183 3.581 3.613.043 1.171.306 1.566.583.878.278-.687.944-1.25 1.48-1.25.537 0 .698.45.358 1s-.111 1 .508 1c.687 0 .868-.814.465-2.086-.591-1.862-.437-1.965 1.432-.965 1.152.617 2.095 1.525 2.095 2.019 0 1.281 6.35.962 7.25-.363.519-.764 1.054-.642 1.735.395q.985 1.504 1 .25c.008-.687.492-1.25 1.074-1.25s.745.508.361 1.13c-.413.668-.167.952.603.696 1.831-.611 2.057-3.515.382-4.905-1.109-.92-1.405-.824-1.405.457 0 1.946-1.351 2.109-2.82.338-.676-.813-.726-1.82-.138-2.75.81-1.28.933-1.276.973.034.036 1.172.271 1.113 1.076-.27 2.674-4.592-3.593-7.665-6.521-3.197m-77.237 1.104c0 .75.6 1.363 1.334 1.363.733 0 1.333.498 1.333 1.107s-.638.862-1.417.563c-.78-.299-1.677.131-1.993.957-.319.831-1.094 1.18-1.737.782-.723-.446-.892-.281-.448.436.947 1.533 3.321 1.474 3.849-.095.327-.973.792-.943 2.096.133 1.315 1.086 1.421 1.688.494 2.804-.995 1.2-.449 1.385 3.488 1.181 3.172-.164 4.668-.681 4.668-1.614 0-.755.457-1.089 1.016-.744.559.346.758 1.047.441 1.559-.316.512-.147.931.377.931s1.211-.675 1.528-1.5c.363-.946-.012-1.5-1.016-1.5-1.301 0-1.364-.274-.346-1.5.86-1.036.898-1.5.122-1.5-.617 0-1.122.45-1.122 1s-.675 1-1.5 1-1.5.477-1.5 1.059-.45.781-1 .441-1-.072-1 .596c0 .747-.782.507-2.032-.625-1.117-1.011-1.965-2.543-1.885-3.405.281-2.993-.093-3.835-1.916-4.312-1.116-.292-1.834.054-1.834.883"/></svg>