<svg xmlns="http://www.w3.org/2000/svg" width="1024" height="1024" viewBox="0 0 1024 1024"><path fill-rule="evenodd" d="M272.773 189.546c-16.832 4.107-29.45 16.502-33.262 32.673-2.315 9.818-2.259 533.598.058 543.786 2.859 12.568 11.096 22.57 23.384 28.392l6.547 3.103h454.104l7.538-3.726c13.613-6.727 22.309-19.201 23.697-33.988.376-4.007.591-97.061.478-206.786-.198-193.11-.265-199.696-2.11-205.604-2.479-7.939-7.666-15.645-15.447-22.948-3.443-3.233-31.01-30.2-61.26-59.929-74.84-73.549-70.644-69.758-82-74.105-4.84-1.853-9.963-1.92-160.5-2.09-130.207-.147-156.432.051-161.227 1.222m2.816 37.531L273 230.153v262.989c0 191.726.303 263.581 1.117 265.174.614 1.201 2.077 2.961 3.25 3.912 2.006 1.625 15.1 1.729 220.294 1.75l218.161.022 2.589-3.077 2.589-3.076-.015-195.174c-.01-121.116-.375-195.742-.963-196.673-.812-1.286-7.554-1.572-47.235-2.005l-46.287-.504-6.697-2.681c-18.065-7.231-29.695-19.145-35.931-36.81-2.241-6.348-2.303-7.562-2.643-51.969-.231-30.135-.707-45.902-1.411-46.75-.855-1.031-30.424-1.281-151.352-1.281H278.178zM617 283.436c0 32.671.153 33.587 6.658 39.761 6.231 5.914 8.173 6.234 40.092 6.614 16.087.191 29.25.157 29.25-.076s-13.837-14.097-30.75-30.809-34.013-33.704-38-37.76l-7.25-7.375zm-129.745 96.133c-26.124 5.725-47.27 25.35-55.413 51.431-2.213 7.087-2.342 8.988-2.342 34.5 0 36.039 2.168 43.67 18.058 63.572 6.135 7.685 7.442 9.95 7.442 12.902 0 6.907-2.793 8.849-28 19.467-21.9 9.225-31.084 14.055-37.293 19.612-21.965 19.656-27.074 54.783-10.014 68.845 7.779 6.413 1.373 6.102 125.789 6.102h113.125l5.152-2.567c17.329-8.635 21.047-31.178 9.13-55.347-8.5-17.24-16.618-22.928-55.136-38.629-28.284-11.53-29.698-14.335-15.865-31.457 14.967-18.526 17.612-27.838 17.612-62 0-29.168-.911-34.296-8.777-49.415-14.956-28.747-50.092-44.329-83.468-37.016"/></svg>