<svg xmlns="http://www.w3.org/2000/svg" width="1024" height="1024" viewBox="0 0 1024 1024"><path fill-rule="evenodd" d="M504.734 196.027c-5.533 1.394-11.086 4.425-21.734 11.867-58.41 40.821-114.854 61.55-201.828 74.123-24.383 3.524-29.591 5.361-37.484 13.22-10.259 10.215-11.413 16.37-12.315 65.684-.665 36.323.499 72.473 3.208 99.579C250.362 618.429 329.524 734.289 477 815.306c18.962 10.417 25.542 12.88 34.5 12.916 11.94.047 15.62-1.437 44.286-17.866 124.255-71.209 197.778-166.908 223.568-291.004 9.503-45.721 12.772-82.412 12.791-143.557.018-57.724-.71-64.781-7.774-75.423-7.707-11.612-14.594-14.621-43.217-18.884-84.534-12.59-145.26-34.962-199.818-73.615-16.399-11.618-25.637-14.608-36.602-11.846m2.93 28.464c-1.559.814-6.959 4.349-12 7.857-58.769 40.902-128.174 65.909-212.617 76.607-25.747 3.262-24.443.47-24.899 53.318-.814 94.457 7.106 151.977 29.016 210.727C320.92 663.517 393.37 741.522 490 791.39c24.53 12.659 22.183 12.952 57.5-7.172 87.245-49.714 151.622-119.057 184.063-198.265 25.544-62.367 35.321-126.839 34.237-225.771-.565-51.487 1.979-47.433-33.012-52.608-58.353-8.63-104.546-22.156-150.155-43.968-21.253-10.163-33.415-17.446-61.018-36.536-6.293-4.352-9.436-4.933-13.951-2.579m-3.712 115.087c-3.282 1.364-34.707 33.706-40.809 41.999-6.034 8.203.365 20.408 10.706 20.419 5.38.006 9.84-2.794 16.948-10.642 3.663-4.045 7.007-7.354 7.432-7.354.424 0 .772 22.163.773 49.25.001 44.885.156 49.56 1.75 52.75 4.6 9.208 19.032 9.121 23.823-.145 1.526-2.95 1.61-7.602.961-53.294l-.71-50.061 8.837 8.698c4.86 4.784 10.104 9.172 11.652 9.75 10.481 3.916 20.55-4.51 17.694-14.806-1.201-4.329-35.628-42.15-41.729-45.844-4.449-2.693-11.843-3-17.328-.72M324.5 379.164c-8.264 4.56-8.869 6.935-10.52 41.354-1.056 22-1.017 25.459.326 28.672 3.951 9.457 17.754 10.153 22.946 1.157 1.352-2.345 2.002-6.384 2.534-15.748l.714-12.594 10 12.181c32.437 39.51 61.102 72.6 64.892 74.911 8.354 5.095 19.27.184 20.297-9.131.636-5.768.39-6.119-23.803-33.974-34.797-40.061-48.828-56.48-48.857-57.172-.016-.374 1.424-.264 3.199.245 17.51 5.022 29.103-.108 27.486-12.161-1.165-8.689-3.734-9.807-34.022-14.812-25.829-4.268-31.854-4.769-35.192-2.928m338.104 2.891c-26.419 4.587-25.64 4.399-28.917 6.977-4.098 3.223-5.221 8.971-2.816 14.409 3.309 7.481 8.833 8.964 22.56 6.056 3.812-.808 7.115-1.284 7.341-1.059.416.417-40.825 48.722-59.21 69.353-14.846 16.659-16.616 21.034-11.464 28.327 4.176 5.91 15.437 6.591 21.047 1.274 4.435-4.204 41.283-47.484 62.355-73.24l10-12.222.714 12.632c.809 14.295 2.122 17.777 7.82 20.74 6.893 3.585 15.792-.287 17.803-7.745.478-1.773.109-14.963-.878-31.397-1.873-31.171-1.85-31.078-8.949-35.91-4.591-3.125-10.718-2.829-37.406 1.805M503.838 531.758c-2.564 1.508-16.514 13.8-31 27.315s-31.379 29.191-37.54 34.835c-16.198 14.838-17.433 18.164-14.861 40.009 5.797 49.232 24.187 84.211 56.893 108.217 26.459 19.421 39.907 19.345 66.17-.372 34.147-25.637 50.692-56.423 57-106.063 3.194-25.135 3.274-24.943-20.285-49.107-58.295-59.793-55.698-57.535-66.215-57.562-4.213-.01-6.591.628-10.162 2.728M496 572.679a9915 9915 0 0 1-30.979 29.194c-7.413 6.945-14.726 13.83-16.25 15.3-3.499 3.375-3.703 10.178-.812 27.088 6.016 35.191 22.91 62.982 48.374 79.575 12.757 8.314 17.4 8.04 30.455-1.797 29.558-22.273 47.913-58.272 48.574-95.268l.138-7.73-14.082-14.27c-7.745-7.849-20.761-21.471-28.923-30.271-14.841-16.001-17.388-18.549-18.436-18.444-.308.031-8.434 7.511-18.059 16.623"/></svg>