<svg xmlns="http://www.w3.org/2000/svg" width="1024" height="1024" viewBox="0 0 1024 1024"><path fill-rule="evenodd" d="M667 230.045c-47.17 4.541-78.841 47.706-69.171 94.274 6.021 28.993 26.903 51.634 55.671 60.361 10.41 3.158 36.644 2.587 47-1.024 57.132-19.917 73.562-89.392 31.016-131.156-17.606-17.282-39.412-24.872-64.516-22.455m-6 35.298c-19.018 6.732-29.85 20.962-30.761 40.407-1.68 35.855 34.842 59.353 67.041 43.134 29.878-15.049 32.476-59.19 4.581-77.818-12.188-8.139-27.842-10.331-40.861-5.723M488.748 398.427c-5.918 2.112-10.379 6.119-13.176 11.837l-2.584 5.281.256 163.727L473.5 743H436l-.006-105.25c-.003-65.203-.376-106.582-.979-108.75-1.318-4.737-6.32-10.583-11.362-13.279-4.043-2.162-5.134-2.229-41.153-2.524-40.952-.336-42.895-.119-49.493 5.529-8.696 7.444-8.007-2.689-8.007 117.734V743h-19.54c-17.492 0-19.946.207-23.416 1.977-11.22 5.725-12.083 20.155-1.701 28.452l3.843 3.071 225.157.285c123.836.157 226.629.022 228.428-.299 4.062-.726 10.082-5.889 11.878-10.188 4.456-10.664-3.931-23.298-15.465-23.298H731V603.968c0-153.473.452-142.723-6.301-149.84-6.712-7.075-6.757-7.082-49.77-7.106l-38.57-.022-5.345 2.75c-3.378 1.738-6.48 4.35-8.43 7.098l-3.084 4.349-.26 140.901L618.98 743H584V579.468c0-180.567.483-167.189-6.301-174.34-7.501-7.908-8.75-8.113-49.199-8.074-27.469.026-36.889.351-39.752 1.373M506 586.5V743h45V430h-45zm146 14.844c0 66.19.293 125.14.652 131l.652 10.656H698V481h-46zM358.245 644.25l.255 98.25 22.25.269 22.25.269V546h-45.01z"/></svg>