<svg xmlns="http://www.w3.org/2000/svg" width="1024" height="1024" viewBox="0 0 1024 1024"><path fill-rule="evenodd" d="M344.233 212.111c-12.624 2.103-24.969 11.535-30.967 23.658-3.703 7.484-3.772 7.836-4.093 20.922L308.845 270h-28.028c-22.162 0-29.314.328-34.173 1.567-20.186 5.147-36.68 20.036-44.521 40.191L199.5 318.5v433l3.12 7.691a66.52 66.52 0 0 0 48.88 40.294c13.357 2.62 518.601 1.821 526.5-.833 21.476-7.214 37.837-22.699 44.06-41.702l2.44-7.45v-430l-2.885-7.5c-7.181-18.67-20.906-32.019-40.34-39.235-5.317-1.974-8.123-2.175-35.395-2.532l-29.62-.387-.466-12.899c-.449-12.437-.598-13.167-4.183-20.419-13.646-27.612-50.408-33.861-72.025-12.244-9.408 9.408-12.556 18.16-12.574 34.966L627 270H397.196l-.39-13.25c-.36-12.261-.617-13.735-3.441-19.75-8.775-18.691-27.968-28.414-49.132-24.889m5.119 30.971c-1.732.508-4.563 2.533-6.291 4.501l-3.142 3.579.29 30.901.291 30.901 3.181 3.18c2.613 2.612 4.132 3.248 8.5 3.56 6.591.472 9.564-1.001 12.563-6.223 2.253-3.925 2.282-4.383 2.021-32.481-.233-25.064-.478-28.891-2.036-31.741-3.025-5.536-9.157-7.999-15.377-6.177m318.148-.016c-3.598 1.148-5.52 2.605-7.796 5.907-2.307 3.346-2.587 57.978-.325 63.391 4.019 9.619 17.357 10.603 23.341 1.724 2.244-3.33 2.28-3.845 2.276-32.486-.003-27.082-.139-29.324-1.952-32.298-3.485-5.715-9.553-8.151-15.544-6.238M279 301l-25.5.5-5.86 2.966c-6.175 3.125-10.79 7.98-14.769 15.534-2.311 4.386-2.379 5.229-2.677 33.25l-.307 28.75h564.227l-.307-28.25c-.35-32.192-.998-35.085-9.766-43.594-8.553-8.301-9.981-8.616-40.641-8.964l-27.099-.308-.58 9.308c-.915 14.709-6.127 25.275-16.229 32.902-29.648 22.384-70.098 4.392-72.374-32.192-.34-5.465-.955-9.929-1.368-9.919s-51.99.017-114.616.017H397.267l-.474 9.862c-.617 12.81-4.032 20.644-12.692 29.118-27.577 26.984-73.372 9.122-74.936-29.23-.219-5.363-.683-9.784-1.031-9.827-.349-.042-1.309-.154-2.134-.25-.825-.095-12.975.052-27 .327m-48.762 277.75.262 165.75 2.352 5.202c2.974 6.574 11.105 14.347 17.651 16.871 4.887 1.885 10.634 1.927 261.997 1.927h257l5.5-2.591c6.546-3.084 12.164-8.554 15.828-15.409l2.672-5 .262-166.25.261-166.25H229.977zm472.936-139.715c-37.249 7.454-72.397 30.908-95.107 63.465l-4.186 6-12.19.041c-19.143.063-33.215 6.406-47.691 21.495-10.494 10.938-13.5 16.754-13.5 26.12 0 7.477.116 7.854 3.5 11.378 5.067 5.276 17.318 10.972 41 19.062 7.989 2.729 9.092 3.475 18.358 12.404 14.855 14.316 18.895 19.951 27.087 37.783 13.345 29.051 14.591 31.033 21.273 33.857 7.51 3.174 15.617-.171 26.686-11.01 18.402-18.022 27.459-39.21 24.548-57.433l-1.063-6.652 6.805-6.022c38.635-34.19 56.641-70.389 56.719-114.023.033-18.581-1.527-24.378-8.407-31.259-7.397-7.397-23.391-9.297-43.832-5.206M711 468.554c-39.412 8.456-73.801 37.706-101.918 86.686l-6.165 10.74 16.191 15.76c8.906 8.668 16.546 15.657 16.979 15.531s5.706-3.323 11.717-7.104c41.486-26.094 65.759-56.364 74.31-92.667.648-2.75 1.45-10.738 1.782-17.751l.604-12.752-3.5.081c-1.925.045-6.425.709-10 1.476m-45.5 40.949c-12.788 4.524-13.791 23.227-1.579 29.457 11.972 6.107 24.471-1.569 24.345-14.95-.113-12.012-10.718-18.77-22.766-14.507m-86.191 30.506c-2.427.978-16.309 10.874-16.309 11.626 0 .57 10.677 5.365 11.944 5.365.489 0 2.964-4.05 5.502-9 4.831-9.423 4.7-10.342-1.137-7.991M355 587.368c-22.482 6.776-42.649 26.585-45.633 44.824l-.604 3.691-19.131.309c-18.408.296-19.253.399-22.335 2.711-8.531 6.401-7.594 20.354 1.684 25.087 3.499 1.785 5.884 2.01 21.342 2.01h17.402l.554 11.75c.304 6.462 1.275 14.394 2.157 17.626 6.311 23.116 25.41 41.288 48.564 46.208 8.422 1.79 70.904 2.018 76.101.278 9.752-3.265 13.843-9.932 13.877-22.612L449 711l28.25-.008c15.538-.004 31.175-.474 34.75-1.044 18.133-2.891 31.929-15.237 39.498-35.347 5.489-14.582 13.919-28.721 23.041-38.643 8.674-9.435 10.897-15.586 8.074-22.341-2.777-6.648-10.495-9.803-18.623-7.614-10.683 2.876-31.006 31.427-40.536 56.947-3.673 9.838-8.751 15.413-15.943 17.504-7.958 2.313-57.014 2.283-57.904-.036-.334-.87-.607-7.62-.607-15V652l23.25-.004c21.296-.003 23.519-.168 26.451-1.956 8.991-5.482 8.551-20.604-.735-25.288-2.997-1.512-6.547-1.749-26.216-1.75L449 623l-.022-10.75c-.024-11.967-1.458-16.623-6.602-21.447-6.034-5.658-7.208-5.808-45.094-5.749-33.156.051-35.133.159-42.282 2.314m11.355 27.663c-10.4 2.08-20.755 9.96-25.313 19.261-4.301 8.778-5.314 15.811-4.855 33.708.488 18.997 3.149 26.451 12.492 34.99 9.529 8.709 12.468 9.362 44.08 9.8l27.26.377-.26-49.333-.259-49.334-24.5-.149c-13.475-.082-26.365.224-28.645.68m288.869 3.941c-4.002 2.727-7.982 5.353-8.846 5.836-1.379.772-1.245 1.52 1.101 6.151l2.671 5.271 2.995-2.865c3.828-3.661 6.569-8.111 8.862-14.383 2.236-6.12 2.183-6.12-6.783-.01"/></svg>