<svg xmlns="http://www.w3.org/2000/svg" width="1024" height="1024" viewBox="0 0 1024 1024"><path fill-rule="evenodd" d="M739.415 159.421c-4.469 1.946-6.85 5.509-9.908 14.827-10.481 31.937-31.69 54.965-60.007 65.154-17.652 6.352-20.412 8.631-21.271 17.569-1.001 10.415 2.279 14.107 17.746 19.972 29.959 11.361 51.502 33.09 61.94 62.476 4.241 11.939 5.584 14.031 10.671 16.625 4.867 2.481 10.443 2.492 15.271.029 5.128-2.616 5.75-3.537 9.111-13.478 11.001-32.545 32.769-54.861 64.026-65.636 13.035-4.494 15.403-5.994 17.421-11.039 2.799-6.995 1.465-14.012-3.536-18.604-1.309-1.201-7.497-3.986-13.752-6.187-31.169-10.971-53.45-34.608-65.16-69.129-4.105-12.1-12.673-16.88-22.552-12.579m3.583 61.315c-6.849 12.986-22.771 28.804-36.234 36l-3.736 1.997 6.236 3.818c7.948 4.866 25.815 22.752 32.257 32.292 4.22 6.249 5.11 7.085 5.969 5.611 8.866-15.208 30.147-37.3 38.478-39.944 3.189-1.012 2.503-1.972-4.718-6.609-8.847-5.68-25.695-22.759-30.75-31.173-2.2-3.661-4.226-6.673-4.502-6.692s-1.626 2.095-3 4.7M403 265.56c-1.375.239-6.55.925-11.5 1.524-49.484 5.99-94.212 27.582-131.366 63.416-51.388 49.561-73.835 108.903-69.267 183.11.673 10.939 1.642 29.256 2.154 40.703 2.561 57.366 16.457 94.213 47.87 126.942C285.877 728.123 349.844 750.38 411 740.441c3.267-.531 3.65-.302 5.751 3.445 4.505 8.033 17.994 24.74 28.303 35.054 53.628 53.657 130.413 77.968 200.593 63.51 82.025-16.898 149.867-82.643 174.852-169.445 7.101-24.674 8.909-38.259 8.915-67.005.009-45.041-6.87-76.807-24.36-112.5-36.197-73.869-102.109-117.169-184.371-121.121l-14.183-.681-3.766-7.599c-5.252-10.597-15.568-24.672-26.556-36.231-30.859-32.461-71.386-52.899-119.792-60.41-9.368-1.454-48.037-2.829-53.386-1.898m-8.711 35.436c-57.546 9.151-104.755 39.243-136.492 87.004-44.29 66.652-40.089 148.852 10.171 199.011 26.408 26.354 67.806 44.89 108.508 48.584l7.024.638-.324-20.599c-1.067-67.944 18.602-123.388 60.208-169.721 30.737-34.228 74.602-59.192 121.888-69.366 3.35-.721 3.168-1.169-4.771-11.731-23.511-31.278-59.863-53.55-101.856-62.405-17.107-3.607-46.506-4.254-64.356-1.415m191.695 106.51c-82.099 11.213-146.701 75.159-162.646 160.994-2.082 11.209-2.88 42.62-1.433 56.436 6.993 66.788 44.777 122.242 103.348 151.68 51.431 25.848 106.433 27.693 158.06 5.302 69.191-30.01 116.881-111.308 111.625-190.286-4.552-68.384-39.186-128.11-93.025-160.417-32.93-19.76-77.743-28.925-115.929-23.709m-.734 48.56c-50.109 6.515-95.638 45.849-112.661 97.33-7.702 23.294-9.672 56.034-4.754 79.015 8.695 40.631 31.295 73.38 67.165 97.326 41.694 27.833 95.235 30.453 139.638 6.832 44.641-23.748 78.007-74.225 78.706-119.069.224-14.336-3.725-19.867-15.074-21.114-10.709-1.176-17.566 5.625-18.639 18.486-5.344 64.08-63.867 110.759-126.189 100.651-80.981-13.135-120.852-108.162-74.776-178.22 17.161-26.095 42.586-42.447 74.373-47.834 12.674-2.147 17.277-4.425 19.901-9.845 5.887-12.162-2.604-24.844-16.402-24.497-2.771.07-7.851.492-11.288.939M233 599.548c0 .88 1.127 4.956 2.504 9.058 18.36 54.693 81.294 97.019 147.404 99.137 15.789.506 16.379.454 15.623-1.359-4.316-10.34-7.245-20.042-9.504-31.482l-1.105-5.597-13.342-.603c-50.571-2.286-104.234-27.583-135.719-63.978-3.223-3.726-5.861-6.056-5.861-5.176"/></svg>