<svg xmlns="http://www.w3.org/2000/svg" width="1024" height="1024" viewBox="0 0 1024 1024"><path fill-rule="evenodd" d="M485.5 176.048c-119.548 9.965-225.361 83.078-275.436 190.315-42.453 90.915-41.328 201.264 2.953 289.637 55.434 110.631 162.189 179.987 286.185 185.927 160.506 7.689 306.647-106.515 339.196-265.069 8.51-41.456 8.518-89.952.021-133.961C811.262 302.246 694.671 194.565 551 177.445c-15.608-1.86-50.917-2.613-65.5-1.397m0 31.989C354.833 221.276 249.914 311.505 218.677 437.5c-5.985 24.14-8.089 42.43-8.108 70.5-.023 32.933 3.33 57.345 11.937 86.907 10.058 34.544 33.443 79.034 54.104 102.936l3.122 3.612 17.384-17.903c9.561-9.846 18.895-19.286 20.741-20.977s4.643-4.695 6.215-6.675l2.858-3.599-9.715-4.887c-12.196-6.135-18.997-12.543-22.094-20.819l-2.186-5.844-.002-114.625c-.001-71.548.364-115.861.973-117.911 1.433-4.83 4.603-9.539 9.245-13.733 4.139-3.739 6.762-5.073 41.349-21.024a79489 79489 0 0 0 33.5-15.461c127.017-58.674 120.421-55.729 127.022-56.72 13.958-2.094 14.806-1.764 119.978 46.679 8.525 3.927 15.81 7.231 16.19 7.342.379.111 14.442-13.506 31.25-30.26l30.561-30.462-2.751-2.312c-31.079-26.118-82.196-49.95-125.781-58.641-27.559-5.495-66.028-7.91-88.969-5.586m213.826 115.651-26.174 26.448 4.174 1.815c42.282 18.389 47.749 22.076 51.698 34.863 3.187 10.318 3.074 228.419-.124 238.773-4.47 14.474-8.201 16.826-87.9 55.422a18727 18727 0 0 0-60 29.218c-60.829 29.782-61.998 30.218-74.74 27.885-8.049-1.474-18.518-6.376-94.193-44.105l-54.432-27.138-28.401 28.401-28.4 28.401 9.833 8.753c38.502 34.272 78.707 55.77 127.333 68.083 114.954 29.11 235.026-10.578 308.965-102.123C835.142 589.21 836.366 434.335 749.932 323c-7.366-9.488-22.662-26.107-23.82-25.88-.337.066-12.39 12.022-26.786 26.568M503.5 315.41c-4.4 1.856-28.7 12.922-54 24.591-38.323 17.677-84.554 38.719-100.74 45.851-3.561 1.569-4.934 3.148-2.738 3.148.562 0 4.949 1.84 9.75 4.088 4.8 2.248 20.878 9.731 35.728 16.628s47.639 22.151 72.865 33.895 46.454 21.475 47.173 21.622 25.151-23.484 54.293-52.513l52.985-52.78-5.075-2.571c-2.791-1.414-14.787-6.975-26.658-12.356a12351 12351 0 0 1-33.583-15.28c-6.6-3.022-14.025-6.413-16.5-7.535a3085 3085 0 0 1-13.35-6.119c-10.63-4.9-10.154-4.884-20.15-.669m118.993 85.7c-14.846 14.91-26.543 26.933-25.993 26.717s11.575-5.614 24.5-11.994c12.925-6.381 31.363-15.279 40.973-19.774 9.61-4.494 17.602-8.301 17.761-8.459.293-.294-28.816-13.607-29.741-13.602-.279.001-12.654 12.201-27.5 27.112M323.75 511.762c.182 72.285.567 100.513 1.399 102.555.906 2.22 3.681 4.086 13.091 8.803 6.568 3.293 12.241 5.85 12.608 5.683.366-.167 10.107-9.978 21.645-21.803 30.467-31.222 98.792-100.202 108.292-109.33l8.15-7.83-7.718-3.546c-25.614-11.768-102.058-47.922-133.974-63.363-11.142-5.391-21.042-10.05-22-10.354-1.65-.524-1.73 4.745-1.493 99.185m372.723-98.44c-1.085.727-9.398 4.846-18.473 9.153a7065 7065 0 0 0-33 15.789 8689 8689 0 0 1-36 17.229 9895 9895 0 0 0-33.5 16.005c-7.7 3.704-18.5 8.862-24 11.462s-12.514 5.921-15.588 7.379c-3.464 1.645-6.029 3.622-6.75 5.204C528.129 497.811 527.276 701 528.3 701c.166 0 24.353-11.983 53.75-26.629 29.398-14.645 66.95-33.249 83.45-41.34s30.9-15.732 32-16.977c1.968-2.227 2.004-3.877 2.264-103.159.145-55.492-.092-100.895-.527-100.895s-1.68.595-2.764 1.322M438.697 585.803l-57.803 57.81L392.197 649c6.217 2.964 32.18 15.662 57.695 28.218 25.516 12.557 46.556 22.667 46.756 22.467.2-.199.248-38.912.108-86.027l-.256-85.665z"/></svg>