<svg xmlns="http://www.w3.org/2000/svg" width="1024" height="1024" viewBox="0 0 1024 1024"><path fill-rule="evenodd" d="M502.929 196.304c-5.494 1.558-10.775 4.576-21.429 12.249-54.632 39.345-113.866 61.034-200.434 73.389-16.452 2.348-21.207 3.404-26.508 5.884-10.956 5.127-17.668 13.331-21.186 25.894-3.536 12.627-2.8 105.831 1.147 145.28 16.149 161.399 95.001 276.12 246.384 358.466 29.869 16.247 35.082 15.763 74.597-6.927C681.765 738.036 754.413 642.57 780.401 515c8.381-41.14 10.735-69.138 11.316-134.611.59-66.47-.024-71.697-9.723-82.743-8.355-9.516-16.311-12.562-43.478-16.644-81.944-12.312-143.629-35.189-197.18-73.129-6.141-4.35-13.243-8.829-15.782-9.952-5.797-2.564-16.569-3.334-22.625-1.617m1.421 29.979c-2.667 1.806-8.45 5.799-12.85 8.874-55.995 39.133-125.988 63.643-212.362 74.366-13.301 1.651-16.891 3.646-19.672 10.928-2.278 5.964-1.583 104.06.921 130.049C272.869 580.03 321.909 671.183 420 747.177 451.196 771.346 501.554 800 512.832 800c5.819 0 17.877-5.883 43.637-21.29C656.552 718.851 720.09 639.322 747.421 539.7c13.314-48.531 17.448-83.783 18.278-155.879.61-52.971.234-61.158-3.032-65.954-4.179-6.138-5.665-6.642-30.562-10.378-36.294-5.446-58.224-10.36-87.605-19.632-48.517-15.311-83.041-32.428-123.859-61.407-6.274-4.454-9.901-4.491-16.291-.167m-.85 114.161c-4.296 2.604-39.132 38.235-41.314 42.256-4.518 8.326 2.106 19.286 11.663 19.296 5.289.006 9.552-2.633 17.114-10.594 3.867-4.071 7.258-7.402 7.534-7.402.277 0 .506 21.488.509 47.75.003 28.365.406 49.194.993 51.307 3.028 10.897 18.086 13.249 24.029 3.753 2.048-3.272 2.064-3.889 1.419-53.81l-.654-50.5 8.854 8.698c11.647 11.443 17.221 13.384 24.455 8.515 7.455-5.016 7.118-13.74-.862-22.294a29400 29400 0 0 1-18.614-20c-18.639-20.043-24.997-23.116-35.126-16.975m-180.895 39.478c-6.388 4.211-6.657 5.405-8.325 36.826-1.373 25.867-1.372 29.12.013 32.424 4.347 10.368 20.707 9.697 23.692-.972.569-2.035 1.368-8.701 1.775-14.813l.74-11.114 22.163 26.614C412.33 508.528 415.633 512 422.689 512c10.015 0 16.595-11.224 11.432-19.5-1.029-1.65-11.283-13.8-22.785-27C380.889 430.559 363 409.627 363 408.941c0-.331 2.813-.013 6.25.708 16.884 3.538 26.62-1.547 24.383-12.734-1.721-8.604-4.497-9.813-34.079-14.843-27.113-4.61-32.722-4.937-36.949-2.15m356.949-.797c-2.17.509-12.07 2.297-22 3.975s-19.536 3.752-21.348 4.61c-8.308 3.934-8.3 17.604.012 21.903 3.53 1.825 14.411 1.458 20.588-.695 6.867-2.394 8.811-4.906-38.756 50.082-10.705 12.375-21.61 24.887-24.233 27.805-6.297 7.003-7.739 11.662-5.196 16.783 2.691 5.417 6.345 7.75 12.279 7.838 8.193.122 6.295 2.112 66.85-70.063 12.036-14.346 16.263-18.784 16.301-17.116.245 10.841 1.932 24.077 3.342 26.23 5.554 8.477 17.267 7.988 21.57-.9 1.97-4.071 1.971-4.275.106-32.813-2.086-31.91-2.59-33.885-9.486-37.158-3.732-1.77-13.521-2.005-20.029-.481M505.28 530.959c-2.473 1.123-11.168 8.46-21.009 17.728-9.234 8.697-26.475 24.665-38.314 35.485-25.502 23.306-26.489 24.725-26.326 37.828.116 9.246 1.353 18.848 4.478 34.745 7.382 37.547 28.153 68.799 59.739 89.883 23.07 15.399 34.159 14.887 58.008-2.68 36.363-26.784 52.666-57.875 58.747-112.03 2.631-23.431 5.409-18.79-37.654-62.888-27.094-27.744-36.941-37.21-39.97-38.422-5.352-2.141-12.522-1.999-17.699.351m-10.453 43.19c-10.08 9.432-21.477 20.158-25.327 23.836a732 732 0 0 1-14 12.967c-8.56 7.678-9.42 9.123-9.465 15.92-.221 33.493 17.076 70.439 42.662 91.124 18.288 14.786 24.374 15.289 40.014 3.31 27.54-21.095 43.792-53.286 45.95-91.018l.641-11.212-14.402-14.788c-13.125-13.476-20.181-20.861-38.75-40.554-3.493-3.703-6.946-6.734-7.674-6.734-.727 0-9.57 7.717-19.649 17.149"/></svg>