<svg xmlns="http://www.w3.org/2000/svg" width="1024" height="1024" viewBox="0 0 1024 1024"><path fill-rule="evenodd" d="M456.945 161.885C433.714 169.319 421 188.144 421 215.105c0 28.465 15.561 45.363 41.75 45.337 5.7-.006 9.254.387 9.26 1.024.005.569.197 4.973.427 9.788.481 10.071.472 10.083-8.437 11.214-3.025.385-11.8 2.199-19.5 4.032-73.338 17.461-133.957 60.868-173.771 124.432-70.166 112.022-54.034 256.719 38.968 349.54 127.498 127.252 339.411 106.889 439.213-42.203 45.263-67.618 58.918-155.012 36.526-233.769-15.352-53.993-48.595-105.566-89.276-138.5-8.884-7.193-9.164-7.708-5.858-10.814l2.303-2.163 10.14 9.433c20.291 18.877 24.094 18.525 46.755-4.325 15.376-15.504 17.885-19.172 17.885-26.147 0-7.686-3.474-11.959-33.857-41.645-34.061-33.281-35.243-34.064-47.331-31.359-5.256 1.177-6.352 2.016-19.426 14.884-25.144 24.746-25.791 29.112-6.939 46.853l7.668 7.217-5.086 5.107-5.085 5.107-10.915-6.007c-24.279-13.361-57.703-25.166-82.414-29.108-13.487-2.151-12-.581-12-12.667V259.77l5.25.629c25.5 3.06 45.789-17.366 45.735-46.043-.049-26.078-15.159-46.721-38.629-52.772-9.703-2.501-99.439-2.25-107.411.301m10.21 27.118c-10.975 1.646-17.523 10.616-17.523 24.001 0 8.53 1.685 12.659 6.69 16.391 2.771 2.067 3.756 2.11 54.276 2.39 58.33.322 56.356.562 61.024-7.404 4.595-7.839 2.884-22.741-3.41-29.701-5.547-6.134-5.82-6.166-52.712-6.33-23.65-.082-45.405.212-48.345.653M500 270v10h24v-20h-24zm185.75 5.309c-3.163 3.354-5.75 6.389-5.75 6.746 0 .356 3.038 3.502 6.75 6.99s13.418 12.822 21.568 20.742c16.823 16.347 14.666 15.769 22.768 6.105l3.863-4.608-21.004-20.892c-11.552-11.491-21.328-20.957-21.724-21.037s-3.308 2.6-6.471 5.954M490 307.612c-80.889 7.163-148.329 47.621-193.334 115.983-37.588 57.096-49.831 125.687-34.699 194.405C287.929 735.897 396.376 819.141 519.5 815.681c124.417-3.495 226.655-93.043 245.676-215.181 2.912-18.701 3.192-56.949.545-74.558C748.904 414.06 662.072 326.524 551 309.48c-10.1-1.55-50.593-2.79-61-1.868m32.5 69.331c-3.447 1.406-7.157 5.811-26.989 32.044a15058 15058 0 0 1-34.413 45.333c-48.06 62.97-91.483 121.491-92.274 124.357-2.025 7.332 2.86 15.037 10.95 17.271 2.446.675 18.817.803 47.969.376 36.38-.534 44.257-.414 44.257.674 0 .728-3.616 18.239-8.036 38.913-19.135 89.504-18.07 83.98-16.974 88.051 2.664 9.896 12.565 14.716 21.509 10.471 2.029-.962 6.159-5.3 10.711-11.25 9.46-12.365 119.509-153.773 138.519-177.992 7.904-10.069 15.247-19.744 16.318-21.5 4.118-6.754 1.634-16.476-5.288-20.696-3.141-1.915-5.134-1.988-54.903-1.991L522.213 501l.862-3.75c.474-2.062 4.287-20.625 8.474-41.25 4.186-20.625 8.953-43.575 10.592-51 3.217-14.571 3.156-18.37-.376-23.329-3.469-4.872-13.111-7.239-19.265-4.728m-27.616 79.794a61355 61355 0 0 1-65.732 86.632C419.168 556.497 411 567.699 411 568.264c0 .692 12.74.858 39.185.512 42.584-.557 44.18-.403 48.683 4.727 4.786 5.451 4.8 8.11.153 29.661-2.293 10.635-5.236 24.286-6.539 30.336-1.304 6.05-3.495 16.163-4.87 22.472s-2.293 11.68-2.04 11.934c.65.65.084 1.349 22.712-28.05a34299 34299 0 0 1 25.421-33c2.702-3.496 12.561-16.256 21.908-28.356 19.995-25.884 31.683-40.839 35.168-45l2.512-3-46.574-.5c-52.457-.563-49.761-.141-54.077-8.459-2.337-4.501-2.373-4.219 4.69-36.541 7.05-32.261 8.845-41.157 8.395-41.607-.231-.23-5.11 5.775-10.843 13.344"/></svg>