<svg xmlns="http://www.w3.org/2000/svg" width="1536" height="1024" viewBox="0 0 1536 1024"><path fill-rule="evenodd" d="M282.929 125.75c-13.162 6.667-14.471 25.762-2.273 33.155l4.281 2.595.031 10.656.032 10.657-23.25.439c-26.518.501-31.159 1.414-47.286 9.299-16.499 8.066-27.726 19.298-36.181 36.199l-4.628 9.25h-5.18c-6.236 0-11.109 2.843-13.75 8.02-2.846 5.582-2.158 51.56.834 55.659 2.609 3.576 9.865 7.321 14.184 7.321 2.265 0 3.512.556 3.924 1.75 10.859 31.433 30.557 50.06 60.539 57.248 11.201 2.685 102.562 3.065 114.979.478 28.867-6.015 52.225-26.659 61.214-54.103l1.68-5.126 5.035-.484c5.32-.511 8.931-2.605 12.324-7.146 2.917-3.903 3.732-49.349.988-55.131-2.448-5.159-6.877-7.896-13.733-8.486l-5.807-.5-2.24-5.5c-8.045-19.754-26.458-36.485-48.624-44.182-11.328-3.934-18.501-4.818-39.087-4.818H301v-22.624l2.992-2.212c11.067-8.182 8.629-26.707-4.306-32.73-6.7-3.119-10.101-3.055-16.757.316m965.156 14.802c-10.125 4.691-26.095 24.214-29.808 36.44-.921 3.029-1.782 5.669-1.916 5.865s-5.316-.653-11.518-1.888c-25.643-5.106-45.578-.307-72.752 17.516-4.624 3.033-9.041 5.515-9.813 5.515s-13.391-3.825-28.04-8.5c-29.215-9.324-29.784-9.432-33.623-6.412-5.819 4.577-5.615 1.832-5.615 75.714v67.902l2.25 3.398c1.892 2.857 7.266 5.906 33.75 19.148 17.325 8.662 33.119 16.251 35.098 16.863 3.343 1.034 4.491.716 16.28-4.5 6.975-3.087 12.859-5.613 13.074-5.613s9.089-4.099 19.72-9.108c23.145-10.907 32.946-14.893 36.604-14.888 1.498.003 15.999 3.426 32.224 7.607 42.851 11.044 42.285 10.928 45.913 9.425 7.362-3.049 7.087-.283 7.087-71.339 0-65.704-.076-67.001-4.179-71.381-1.939-2.07-1.984-2.623-.856-10.567 2.542-17.908-3.792-34.086-20.041-51.192-11.517-12.125-15.582-13.831-23.839-10.005m-538.876.432c-5.811 1.377-7.209 3.493-7.213 10.921-.005 9.829-1.618 11.837-14.442 17.976-5.824 2.789-12.261 6.207-14.304 7.595-6.136 4.169-11.274 3.285-19.638-3.379-2.138-1.703-4.519-3.097-5.292-3.097-5.576 0-27.32 30.074-27.32 37.785 0 1.891 1.871 4.373 7 9.282 7.933 7.595 8.412 9.455 5.52 21.433-.797 3.3-1.465 7.803-1.484 10.007-.086 9.668-3.225 14.248-12.71 18.545-8.214 3.72-9.037 5.402-6.774 13.839.975 3.635 3.299 10.191 5.163 14.57 8.419 19.773 10.829 21.645 23.15 17.986 6.978-2.072 8.236-1.508 17.727 7.941 4.481 4.462 10.231 9.947 12.778 12.189 5.14 4.526 5.723 7.198 3.495 16.044-2.057 8.171 1.035 10.914 21.135 18.74 19.437 7.568 21.618 7.3 26.974-3.309 5.26-10.421 9.722-11.807 22.746-7.067 22.62 8.234 28.154 5.03 79.846-46.213l36.065-35.753 3.967 2.917c11.289 8.302 13.756 5.31 21.363-25.911 6.389-26.227 4.218-29.746-15.747-25.529-35.498 7.498-39.253 9.746-34.219 20.493 4.302 9.186 8.05 4.087-46.684 63.511-26.314 28.569-28.321 30.179-31.667 25.402-1.841-2.628-1.154-4.322 4.261-10.51 1.977-2.26 15.899-18.407 30.937-35.883l27.343-31.774-.656-8.117c-.361-4.465-1.132-10.683-1.713-13.819-1.609-8.68-.616-11.752 5.743-17.766 7.456-7.052 8.776-9.231 7.929-13.09-.889-4.047-13.53-22.959-19.431-29.069-6.457-6.687-8.278-6.89-17.635-1.96-9.613 5.065-10.601 5.062-18.504-.045-3.516-2.273-9.098-5.257-12.405-6.633s-7.7-4.225-9.763-6.33c-3.568-3.643-3.75-4.148-3.75-10.433 0-8.139-.988-10.098-5.762-11.424-4.277-1.188-31.085-1.236-36.029-.065m535.867 20.766c-13.473 14.694-17.892 28.965-13.593 43.896 1.836 6.374 11.652 21.996 18.742 29.827l4.303 4.753 4.565-5.863c24.784-31.825 25.227-48.425 1.964-73.613-3.429-3.713-6.828-6.75-7.555-6.75s-4.518 3.488-8.426 7.75m5.281 18.242c-5.995 2.419-7.294 11.201-2.28 15.419 4.374 3.681 8.98 3.499 12.334-.488 6.526-7.755-.816-18.659-10.054-14.931M1175.5 195.4c-11.337 2.175-23.026 7.415-36.064 16.169-6.634 4.455-13.113 8.375-14.396 8.71-1.516.397-10.944-2.143-26.936-7.256-13.532-4.326-25.617-8.157-26.854-8.512l-2.25-.646V326.75l29.25 14.643c16.088 8.055 29.757 14.636 30.376 14.626.619-.011 16.294-6.767 34.832-15.015 37.61-16.733 45.544-19.579 51.798-18.579 2.268.363 16.976 3.834 32.684 7.714s30.023 7.413 31.81 7.852l3.25.798-.059-56.144c-.046-43.849-.319-55.731-1.25-54.252-3.753 5.963-13.511 18.496-18.047 23.179-8.414 8.687-13.568 7.43-24.963-6.089-12.841-15.235-20.422-29.364-23.187-43.216-.591-2.959-1.212-3.414-7.32-5.357-8.395-2.672-23.079-3.35-32.674-1.51m-901 4.639c-34.238.499-37.411.694-42.504 2.612-27.487 10.349-41.581 27.597-45.043 55.123-1.367 10.859-.35 38.413 1.723 46.726 5.517 22.118 23.54 40.129 47.212 47.182 8.416 2.507 97.489 3.205 109.503.858 23.805-4.651 42.359-21.249 50.346-45.04 2.591-7.719 2.687-8.79 2.724-30.5.044-25.338-.733-30.041-7.048-42.643-8.054-16.075-25.309-29.149-44.095-33.411-5.993-1.36-25.26-1.6-72.818-.907m438.935.376c-15.092 3.443-31.179 15.727-38.197 29.166-16.134 30.898-.644 69.436 32.548 80.979 38.159 13.271 78.996-17.739 75.802-57.56-.656-8.176-2.304-15.306-3.424-14.812-.766.338-10.936 5.926-26.414 14.515-7.931 4.4-9.75 5.838-9.75 7.705 0 6.319-7.651 12.794-15.815 13.385-20.103 1.454-27.747-24.103-9.985-33.382 3.529-1.844 11.543-1.793 15.164.095 3.916 2.042 2.483 2.576 21.787-8.113 26.459-14.652 28.209-16.128 24.282-20.467-2.326-2.57-4.679-2.427-9.433.574-4.988 3.149-4.847 3.161-10.126-.87-13.16-10.048-31.809-14.552-46.439-11.215m495.688 38.52c-3.372 7.84-2.335 12.065 2.962 12.065 7.808 0 10.741-4.565 7.261-11.3-3.716-7.192-7.341-7.463-10.223-.765m-89.2-.012c-7.786 7.786.41 20.576 10.005 15.614 3.391-1.753 4.072-3.286 4.072-9.164 0-8.738-8.085-12.442-14.077-6.45m65.964-.81c-4 4-.369 12.796 5.937 14.379 5.282 1.326 8.098-6.874 4.65-13.542-1.924-3.721-7.28-4.144-10.587-.837m-948.965 13.161c-9.486 6.392-11.566 17.85-4.743 26.126 10.51 12.751 30.821 5.568 30.821-10.9 0-13.229-15.561-22.314-26.078-15.226M333 249.722c-18.379 6.905-12.025 35.689 7.521 34.068 21.716-1.801 20.112-35.107-1.672-34.711-2.392.043-5.024.333-5.849.643m834.783 6.028c-5.512 6.319-4.846 15.954 1.213 17.539 3.841 1.004 11.004-7.275 11.004-12.721 0-1.729-6.688-6.568-9.077-6.568-.887 0-2.3.787-3.14 1.75m-46.603 15.533c-6.642 8.003 1.668 21.869 8.82 14.717 2.501-2.501 2.714-9.981.385-13.535-1.802-2.75-7.316-3.458-9.205-1.182m44.871 16.892c-4.171 4.478-3.862 13.043.544 15.05 6.869 3.13 14.381-9.729 9.277-15.88-1.775-2.138-7.507-1.653-9.821.83m-907.775 12.351c-4.061 1.708-5.743 6.421-3.881 10.876 1.415 3.388 11.665 10.525 21.12 14.708 15.53 6.869 37.591 2.505 50.569-10.004 5.667-5.462 6.465-9.312 2.666-12.858-4.256-3.972-6.668-3.764-14.273 1.234-15.422 10.135-27.841 10.092-43.03-.15-7.196-4.852-9.263-5.449-13.171-3.806m863.179.929c-3.215 3.215-3.097 5.359.578 10.431 4.488 6.196 7.558 7.29 10.585 3.772 7.204-8.376-3.443-21.924-11.163-14.203m30.045 8.754c-6.445 2.26-8.506 7.8-4.93 13.257 1.495 2.282 1.752 2.332 5.386 1.049 9.789-3.453 11.662-5.443 9.897-10.508-1.655-4.747-4.582-5.821-10.353-3.798m-310.845 98.62c-.91 1.006-1.655 2.806-1.655 4 0 1.263-.627 2.171-1.5 2.171-.825 0-1.5.675-1.5 1.5s.675 1.5 1.5 1.5c1.2 0 1.5 1.5 1.5 7.5s.3 7.5 1.5 7.5 1.5-1.5 1.5-7.5c0-7.333.056-7.5 2.5-7.5 1.556 0 2.5-.567 2.5-1.5 0-.944-.952-1.5-2.57-1.5-3.419 0-3.132-4.329.32-4.82 1.237-.175 2.25-.963 2.25-1.75 0-2.058-4.37-1.784-6.345.399M850 420c0 10.889.244 13 1.5 13s1.5-2.111 1.5-13-.244-13-1.5-13-1.5 2.111-1.5 13m284-.083c0 11.076.235 13.083 1.53 13.083 2.033 0 1.761-25.074-.28-25.752-.957-.318-1.25 2.647-1.25 12.669m96 .114c0 7.979.385 12.969 1 12.969.55 0 1-.423 1-.941 0-.517 1.237-.295 2.75.494 3.892 2.03 5.02 1.83 8.327-1.476 2.285-2.285 2.923-3.823 2.923-7.046 0-7.036-7.171-11.717-11.429-7.46-1.428 1.429-1.571 1.121-1.571-3.393 0-3.49-.445-5.135-1.5-5.54-1.286-.493-1.5 1.277-1.5 12.393m-887 .469c0 10.444.247 12.5 1.5 12.5.825 0 1.5-.416 1.5-.923s1.3-.275 2.889.517c5.61 2.799 10.111-.937 10.111-8.393 0-7.422-6.475-11.796-11.171-7.546-1.749 1.583-1.829 1.431-1.829-3.5 0-3.916-.361-5.155-1.5-5.155-1.253 0-1.5 2.056-1.5 12.5m-75-7.5c0 1.111-.667 2-1.5 2-.825 0-1.5.675-1.5 1.5s.675 1.5 1.5 1.5c1.167 0 1.5 1.333 1.5 6 0 6.409 2.367 10.464 5.729 9.811 2.556-.495 2.613-2.625.079-2.984-3.387-.48-4.138-12.483-.814-13.001 2.849-.445 3.024-2.252.256-2.646-1.446-.205-2.25-1.009-2.25-2.25 0-1.061-.675-1.93-1.5-1.93-.833 0-1.5.889-1.5 2m49-.107c0 1.041-.788 2.198-1.75 2.571-1.667.647-1.667.74 0 1.968 1.224.901 1.75 2.664 1.75 5.863 0 7.657 2.524 11.381 6.75 9.959 1.933-.651 1.476-2.254-.643-2.254-2.385 0-3.107-1.877-3.107-8.082 0-4.579.172-4.918 2.5-4.918 1.556 0 2.5-.567 2.5-1.5 0-.951-.957-1.5-2.617-1.5-2.124 0-2.518-.376-2.093-2 .388-1.483.03-2-1.384-2-1.203 0-1.906.698-1.906 1.893m67 .107c0 1.111-.667 2-1.5 2-.825 0-1.5.675-1.5 1.5s.675 1.5 1.5 1.5c1.172 0 1.503 1.368 1.515 6.25.018 7.246.52 8.344 4.245 9.279 2.07.52 2.74.323 2.74-.804 0-.82-.9-1.727-2-2.015-1.724-.451-2-1.364-2-6.616 0-5.427.219-6.094 2-6.094 1.111 0 2-.667 2-1.5s-.889-1.5-2-1.5q-2 0-2-2c0-1.111-.667-2-1.5-2s-1.5.889-1.5 2m234 0c0 1.111-.667 2-1.5 2-.825 0-1.5.675-1.5 1.5s.675 1.5 1.5 1.5c1.177 0 1.5 1.375 1.5 6.378 0 6.662.895 8.331 4.877 9.098 3.1.597 3.637-1.33.683-2.453-3.633-1.381-3.965-12.677-.388-13.203 3.201-.472 3.544-2.82.411-2.82-1.916 0-2.583-.516-2.583-2 0-1.111-.667-2-1.5-2s-1.5.889-1.5 2m79 0c0 1.111-.667 2-1.5 2-.825 0-1.5.675-1.5 1.5s.675 1.5 1.5 1.5c1.178 0 1.5 1.381 1.5 6.429 0 6.86 1.436 9.571 5.071 9.571 2.546 0 2.489-2.62-.071-3.29-1.724-.451-2-1.364-2-6.616 0-5.427.219-6.094 2-6.094 1.111 0 2-.667 2-1.5s-.889-1.5-2-1.5q-2 0-2-2c0-1.111-.667-2-1.5-2s-1.5.889-1.5 2m464.5 0c.495 1.56.18 2-1.433 2-1.171 0-2.067.65-2.067 1.5 0 .825.81 1.5 1.799 1.5 1.468 0 1.724.645 1.39 3.506-.913 7.822 2.061 13.487 6.239 11.883 2.226-.854 1.952-2.389-.428-2.389-1.1 0-2.02-.562-2.045-1.25s-.287-3.613-.583-6.5c-.524-5.117-.473-5.25 2.045-5.25 1.629 0 2.583-.554 2.583-1.5 0-.944-.952-1.5-2.567-1.5-2.113 0-2.455-.355-1.933-2 .499-1.574.18-2-1.5-2s-1.999.426-1.5 2m-969.639 3.914c-2.869 2.326-1.776 3.914 1.491 2.165 3.456-1.849 7.083-1.038 7.468 1.671.281 1.979-.118 2.25-3.316 2.25-6.27 0-9.58 3.121-7.477 7.05 1.772 3.311 4.673 4.246 8.01 2.582 1.63-.814 2.963-1.063 2.963-.555s.675.923 1.5.923c2.73 0 2.094-14.471-.723-16.443a8.246 8.246 0 0 0-9.916.357m17.591.519c-2.207 3.369-.51 6.205 4.523 7.56 4.567 1.23 5.686 2.506 3.989 4.551-1.579 1.902-5.866 1.874-6.602-.044-.813-2.117-3.587-1.905-3.173.242.877 4.557 9.598 5.039 12.448.689 2.101-3.206.589-5.555-4.806-7.463-4.472-1.582-5.787-4.16-2.45-4.803 1.035-.199 2.947.208 4.249.905 3.101 1.659 4.175.477 1.876-2.064-2.643-2.919-8.011-2.692-10.054.427m17.771-.876c-4.202 2.943-2.068 6.95 4.777 8.974 3.129.925 4.204 2.519 2.82 4.185-1.462 1.762-4.801 1.611-6.928-.314-2.448-2.215-4.556-.793-2.384 1.607 3.413 3.771 10.218 3.239 12.473-.974 1.598-2.985-.066-5.269-5.15-7.067-4.472-1.582-5.787-4.16-2.45-4.803 1.035-.199 2.947.208 4.249.905 3.101 1.659 4.175.477 1.876-2.064-2.171-2.398-6.221-2.594-9.283-.449M242 424c0 7.333.278 9 1.5 9s1.5-1.667 1.5-9-.278-9-1.5-9-1.5 1.667-1.5 9m9.605-7.701c-3.459 2.53-1.745 6.927 3.395 8.707 3.281 1.136 4.5 2.091 4.5 3.526 0 2.596-4.049 3.186-6.519.95-2.055-1.859-4.2-1.217-3.349 1.002.95 2.476 6.902 3.848 10.09 2.325 5.493-2.625 3.939-8.015-2.838-9.84-4.951-1.333-5.658-4.969-.967-4.969 1.604 0 3.083.501 3.288 1.114s1.249.945 2.322.739c1.875-.362 1.864-.462-.288-2.614-2.499-2.499-6.912-2.93-9.634-.94m29.145-.219c-.962.561-1.75 1.672-1.75 2.47 0 1.643 2.559 1.972 3.5.45 1.002-1.621 6.219-1.174 6.896.59.956 2.49-.204 3.41-4.3 3.41-5.941 0-9.493 5.766-5.561 9.029 1.889 1.568 7.101 1.518 9.034-.087 1.02-.845 1.431-.864 1.431-.064 0 .617.675 1.122 1.5 1.122 3.217 0 1.572-14.916-1.9-17.235-1.588-1.061-6.807-.875-8.85.315M297 424c0 7.333.278 9 1.5 9 1.154 0 1.5-1.285 1.5-5.566 0-6.656 1.276-9.434 4.335-9.434 3.627 0 4.665 1.936 4.665 8.7 0 4.933.325 6.3 1.5 6.3 1.925 0 2.084-11.281.212-15-1.418-2.818-5.43-3.756-8.663-2.026-1.373.734-2.049.755-2.049.061 0-.569-.675-1.035-1.5-1.035-1.222 0-1.5 1.667-1.5 9m68.712-6.988c-5.068 3.987-3.912 13.821 1.884 16.024 3.697 1.406 8.787-.386 10.257-3.612 4.376-9.606-4.358-18.535-12.141-12.412m215.511-.455c-2.762 1.934-2.859 3.443-.223 3.443 1.1 0 2-.479 2-1.063 0-2.273 6.484-.549 6.82 1.813.281 1.979-.118 2.25-3.316 2.25-5.227 0-7.504 1.521-7.504 5.012 0 4.444 3.863 6.702 7.964 4.656 1.67-.833 3.036-1.099 3.036-.591 0 .507.675.923 1.5.923 2.41 0 2.125-14.124-.329-16.345-2.302-2.084-7.047-2.131-9.948-.098M598 422.894c0 7.596.151 8.159 2.625 9.78 2.449 1.604 2.817 1.609 5.5.069 1.581-.907 2.875-1.221 2.875-.696 0 .524.675.953 1.5.953 1.222 0 1.5-1.667 1.5-9s-.278-9-1.5-9c-1.175 0-1.5 1.368-1.5 6.309 0 7.281-1.464 10.043-5.056 9.536-2.287-.323-2.476-.821-2.944-7.766-.726-10.769-3-10.909-3-.185m32.455-5.439c-5.81 5.809-2.16 16.108 5.636 15.904 5.476-.144 7.909-2.861 7.909-8.835 0-8.666-7.851-12.764-13.545-7.069m18.212-1.788c-1.496 1.495-.734 17.333.833 17.333 1.161 0 1.5-1.312 1.5-5.809 0-6.767 1.547-9.531 5.056-9.036 2.303.325 2.461.763 2.738 7.595.225 5.546.636 7.25 1.75 7.25 1.123 0 1.456-1.461 1.456-6.378 0-6.978 1.248-9.008 5.195-8.449 2.132.303 2.327.87 2.599 7.577.225 5.546.636 7.25 1.75 7.25 2.369 0 2.046-14.156-.373-16.345-2.291-2.073-6.523-2.14-8.192-.13-1.134 1.367-1.441 1.367-2.951 0-1.965-1.778-4.376-1.945-7.094-.49-1.333.714-1.934.714-1.934 0 0-1.167-1.325-1.377-2.333-.368m30.471.949c-1.599 1.12-1.987 1.935-1.265 2.657.723.723 1.496.665 2.524-.188 2.414-2.003 7.049-.964 7.423 1.665.284 2.002-.109 2.25-3.559 2.25-4.147 0-7.006 1.564-7.31 4-.637 5.089 3.421 7.959 8.013 5.668 1.67-.833 3.036-1.099 3.036-.591 0 .507.675.923 1.5.923 2.41 0 2.125-14.124-.329-16.345-2.327-2.106-7.056-2.124-10.033-.039M708 424c0 7.333.278 9 1.5 9s1.5-1.667 1.5-9-.278-9-1.5-9-1.5 1.667-1.5 9m10.881-7.993c-4.321 2.525-4.813 11.935-.812 15.556 4.663 4.219 12.309 1.27 13.526-5.217 1.532-8.165-5.98-14.274-12.714-10.339M736 424c0 7.333.278 9 1.5 9 1.177 0 1.5-1.375 1.5-6.378 0-6.978 1.248-9.008 5.195-8.449 2.132.303 2.327.87 2.599 7.577.225 5.546.636 7.25 1.75 7.25 2.114 0 2.033-12.731-.101-15.777-1.735-2.478-6.22-2.999-8.368-.973-1.06 1-1.417 1-1.783 0-1.311-3.574-2.292-.256-2.292 7.75m33.085-6.591c-2.935 3.125-3.261 10.634-.588 13.587 1.971 2.179 6.459 2.633 9.569.969 2.62-1.403 2.703 2.029.105 4.38-2.299 2.081-4.104 2.091-7.033.039q-2.307-1.615-3.307-.615c-1.56 1.56 3.059 4.231 7.319 4.231 6.212 0 7.85-3.159 7.85-15.135 0-8.102-.268-9.865-1.5-9.865-.825 0-1.5.745-1.5 1.655 0 1.54-.127 1.54-1.829 0-2.611-2.363-6.457-2.044-9.086.754m19.399.792c-4.642 5.517-2.102 13.825 4.638 15.173 2.986.598 8.878-1.548 8.878-3.233 0-1.754-1.363-2-3.354-.606-2.863 2.006-5.274 1.837-7.646-.535-3.294-3.294-2.412-4 5-4 7.498 0 7.572-.061 5.895-4.872-2.126-6.098-9.063-7.094-13.411-1.927m19.739-1.644c-2.762 1.934-2.859 3.443-.223 3.443 1.1 0 2-.479 2-1.063 0-2.273 6.484-.549 6.82 1.813.281 1.979-.118 2.25-3.316 2.25-5.227 0-7.504 1.521-7.504 5.012 0 3.957 4.012 6.759 7.44 5.197 1.297-.591 3.304-.827 4.459-.525 1.996.522 2.101.176 2.101-6.912 0-5.959-.368-7.795-1.829-9.117-2.302-2.084-7.047-2.131-9.948-.098M825 424c0 7.333.278 9 1.5 9 1.175 0 1.5-1.367 1.5-6.3 0-6.518 1.053-8.7 4.2-8.7.99 0 1.8-.675 1.8-1.5 0-1.794-3.111-1.989-4.8-.3-.933.933-1.2.933-1.2 0 0-.66-.675-1.2-1.5-1.2-1.222 0-1.5 1.667-1.5 9m35.224-7.204c-4.847 3.73-3.722 13.927 1.788 16.209 7.414 3.071 13.748-4.142 10.987-12.509-1.832-5.55-8.036-7.347-12.775-3.7M876 415.604c0 2.77 5.504 17.396 6.547 17.396 1.176 0 4.453-8.883 4.453-12.071 0-2.567 1.546.394 3.081 5.899 2.261 8.115 4.028 7.837 6.643-1.045 1.179-4.006 2.447-8.071 2.817-9.033.465-1.209.188-1.75-.895-1.75-1.481 0-4.646 8.073-4.646 11.848 0 2.771-1.493.019-3.081-5.676-2.108-7.564-3.857-7.335-6.327.828l-1.967 6.5-1.956-6.75c-1.175-4.054-2.498-6.75-3.313-6.75-.746 0-1.356.272-1.356.604m203.861 1.31c-2.869 2.326-1.776 3.914 1.491 2.165 3.456-1.849 7.083-1.038 7.468 1.671.284 2.002-.109 2.25-3.559 2.25-5.199 0-7.522 1.814-7.097 5.542.476 4.169 4.913 6.292 8.389 4.015 1.346-.882 2.447-1.143 2.447-.58s.675 1.023 1.5 1.023c2.73 0 2.094-14.471-.723-16.443a8.246 8.246 0 0 0-9.916.357M1097 424c0 7.333.278 9 1.5 9 1.177 0 1.5-1.375 1.5-6.378 0-6.978 1.248-9.008 5.195-8.449 2.132.303 2.327.87 2.599 7.577.225 5.546.636 7.25 1.75 7.25 2.369 0 2.046-14.156-.373-16.345-2.081-1.884-6.242-2.184-7.858-.568-.783.783-1.275.783-1.759 0-1.749-2.829-2.554-.334-2.554 7.913m19.861-7.086c-2.869 2.326-1.776 3.914 1.491 2.165 3.456-1.849 7.083-1.038 7.468 1.671.284 2.002-.109 2.25-3.559 2.25-4.147 0-7.006 1.564-7.31 4-.637 5.089 3.421 7.959 8.013 5.668 1.67-.833 3.036-1.099 3.036-.591 0 .507.675.923 1.5.923 2.41 0 2.125-14.124-.329-16.345-2.451-2.218-7.408-2.094-10.31.259m24.017.262c.486 1.278 2.1 5.212 3.587 8.743 2.847 6.763 2.48 11.081-.944 11.081-.836 0-1.521.675-1.521 1.5 0 2.073 2.621 1.879 4.858-.358 1.718-1.718 7.322-15.027 8.79-20.876 1.247-4.968-2.094-1.765-4.156 3.984-2.731 7.614-2.834 7.623-5.621.513-1.495-3.814-3.118-6.379-4.164-6.581-1.411-.272-1.558.08-.829 1.994M1173 424c0 7.333.278 9 1.5 9s1.5-1.667 1.5-9-.278-9-1.5-9-1.5 1.667-1.5 9m9.635-6.927c-2.839 2.232-3.714 9.043-1.656 12.888 2.138 3.995 10.853 4.473 13.235.726 1.827-2.872-.291-3.753-2.857-1.187-4.911 4.912-10.89-2.899-7.322-9.566 1.178-2.201 5.007-2.549 7.933-.722 2.912 1.819 3.887-.096 1.171-2.298-3.076-2.494-7.212-2.431-10.504.159m17.97-.774c-3.459 2.53-1.745 6.927 3.395 8.707 3.281 1.136 4.5 2.091 4.5 3.526 0 2.596-4.049 3.186-6.519.95-2.045-1.85-4.202-1.221-3.357.98.723 1.883 5.694 3.52 8.558 2.818 3.568-.875 4.818-2.266 4.818-5.361 0-2.501-.593-3.047-5-4.613-5.854-2.079-7.106-5.306-2.059-5.306 1.618 0 3.219.45 3.559 1 .925 1.497 2.5 1.205 2.5-.465 0-3.167-7.048-4.683-10.395-2.236m50.256.615c-2.869 2.326-1.776 3.914 1.491 2.165 3.456-1.849 7.083-1.038 7.468 1.671.285 2.011-.105 2.25-3.679 2.25-4.76 0-7.373 2.198-6.945 5.844.476 4.055 4.597 5.905 8.649 3.883 1.754-.875 2.93-1.171 2.613-.659-.317.513.238.933 1.233.934 2.417.003 2.06-13.477-.431-16.252-2.08-2.318-7.442-2.234-10.399.164M1268 424c0 7.333.278 9 1.5 9 1.161 0 1.5-1.312 1.5-5.809 0-6.134 1.261-8.806 4.417-9.357 1.055-.184 2.105-.896 2.333-1.584.541-1.624-3.936-1.664-5.55-.05-.933.933-1.2.933-1.2 0 0-.66-.675-1.2-1.5-1.2-1.222 0-1.5 1.667-1.5 9m13.655-7.171c-3.268 3.611-1.052 7.332 5.152 8.652 2.653.564 3.247 1.131 3 2.861-.398 2.794-4.322 3.407-6.896 1.078-2.228-2.017-3.83-1.1-2.304 1.318 3.241 5.139 11.893 3.16 11.893-2.719 0-3.196-.337-3.572-4.5-5.019-4.625-1.608-6.018-4.18-2.619-4.835 1.035-.199 2.947.208 4.249.905 3.101 1.659 4.175.477 1.876-2.064-2.308-2.55-7.618-2.645-9.851-.177m-934.62 3.105c-3.455 6.457 2.624 14.264 7.394 9.495C358.036 425.821 355.69 418 351 418c-1.873 0-3.303.698-3.965 1.934m20.165-.734c-1.554 1.554-1.554 9.046 0 10.6 4.683 4.683 11.152-3.536 7.765-9.866-1.173-2.192-5.864-2.635-7.765-.734m264.835.734c-1.53 2.86-1.257 7.701.536 9.495 3.434 3.433 8.429.727 8.429-4.566 0-4.595-1.652-6.863-5-6.863-1.873 0-3.303.698-3.965 1.934m87.378.559c-3.945 6.02 3.21 14.28 7.692 8.881 1.833-2.209 1.747-9.224-.128-10.409-2.669-1.688-5.882-1.039-7.564 1.528M771.2 419.2c-1.639 1.639-1.514 7.988.203 10.336 2.107 2.881 6.73.981 7.949-3.267 1.656-5.776-4.289-10.932-8.152-7.069m90.041.786c-2.725 4.364-.193 11.014 4.193 11.014 3.135 0 4.766-2.224 4.766-6.5 0-1.955-.55-4.217-1.222-5.027-1.774-2.137-6.269-1.838-7.737.513m372.794-.052c-3.737 6.984 3.042 15.077 7.408 8.843 3.247-4.635 1.284-10.777-3.443-10.777-1.873 0-3.303.698-3.965 1.934M193.145 560.07c-4.629 1.854-8.408 5.297-10.24 9.331-1.776 3.913-1.862 8.85-1.883 108.533-.025 117.305-.519 109.544 7.315 114.843 6.059 4.099 8.201 4.223 72.935 4.223h62.785l5.972 3.014c22.053 11.133 49.424 6.571 66.462-11.078 21.457-22.225 20.679-58.447-1.741-81.121L389 702v-76.008l-16.431-17.246a5661 5661 0 0 0-32.25-33.522L324.5 558.948l-64.5.089c-37.848.053-65.473.479-66.855 1.033m467.15 1.037c-3.864 1.118-6.295 4.303-6.295 8.25 0 2.388 2.339 5.292 13 16.143l13 13.231v5.351c0 5.333-.024 5.374-7.427 12.634-11.809 11.581-15.285 10.586-35.523-10.165-7.223-7.405-9.841-8.573-13.641-6.083-4.258 2.79-5.731 7.804-4.943 16.832 1.921 22.026 13.785 40.196 32.296 49.461 10.756 5.383 17.129 6.618 30.738 5.957 13.286-.645 14.66-.137 23.35 8.631l6.258 6.314-4.566 5.079-4.566 5.079-15.238.356c-18.303.428-19.721.992-30.488 12.118-5.782 5.974-7.25 8.11-7.25 10.545 0 2.118-1.535 5.082-5.005 9.667-9.165 12.108-9.401 13.163-4.495 20.064 3.569 5.019 4.237 8.36 2.557 12.779-1.913 5.031.487 9.219 12.603 21.99 15.315 16.142 14.425 15.645 28.013 15.653 12.326.008 11.969.155 21.585-8.882 3.501-3.291 4.152-3.516 9.564-3.302 6.905.272 8.858-1.003 19.539-12.758 11.475-12.631 13.198-19.708 7.595-31.214-2.736-5.621-1.953-8.481 3.884-14.181l3.715-3.627 31.472 32.934c32.748 34.269 36.218 37.234 45.126 38.548 18.166 2.681 34.641-17.199 28.684-34.612-2.139-6.255-5.464-9.89-33.973-37.141-59.305-56.687-83.624-80.732-85.365-84.402-1.35-2.844-1.8-6.702-1.958-16.775-.343-21.806-4.893-33.91-17.534-46.643-14.666-14.774-38.464-22.529-54.712-17.831m157.099 5.871c-3.183 1.286-60.21 58.407-61.378 61.479-1.642 4.32-1.188 7.098 1.62 9.907 5.051 5.05 7.255 4.05 20.986-9.524l12.301-12.161 4.037 4.161c5.191 5.348 10.112 5.763 14.934 1.259 4.812-4.495 4.399-9.203-1.284-14.648l-4.391-4.207 9.734-9.697 9.733-9.697 15.318 15.088 15.317 15.089-7.882 8.236c-4.334 4.531-7.983 8.401-8.107 8.601-.125.2-1.436-.587-2.914-1.75-9.182-7.222-20.961 4.474-14.451 14.35l1.953 2.964-13.7 13.818c-7.535 7.601-14.041 14.742-14.458 15.869-1.743 4.711 2.012 9.885 7.174 9.885 2.686 0 63.754-59.752 66.636-65.2 4.089-7.731 2.387-10.522-19.755-32.397-23.912-23.625-24.682-24.149-31.423-21.425m-619.739 8.851c-2.473 2.733-2.555 201.129-.084 203.6 1.391 1.39 7.888 1.571 56.385 1.571h54.813l-3.304-6.25c-16.133-30.513-1.114-68.545 31.535-79.855 6.854-2.375 23.785-3.246 32.5-1.673l4 .722-.194-28.222-.194-28.222-23.466-.5-23.466-.5-3.84-3.089c-8.233-6.624-8.797-8.818-9.169-35.661l-.33-23.75h-56.765c-53.724 0-56.855.098-58.421 1.829M328.5 601.482c0 21.926-1.266 20.661 20.316 20.294l16.208-.276-18.262-18.238-18.262-18.238zm829-11.343c-12.643 1.6-36.459 10.698-42.347 16.177-6.376 5.932-6.153 3.32-6.153 72.194 0 68.671-.159 66.805 5.967 69.973 4.269 2.207 8.375 1.886 19.038-1.488 22.538-7.134 30.783-7.439 52.996-1.964 21.293 5.248 32.752 7.179 40.273 6.787l6.101-.318 3.244 7.816c6.043 14.56 9.131 16.62 22.735 15.163 7.359-.788 10.215-.152 11.689 2.602 1.999 3.734-.273 5.256-12.718 8.519-6.504 1.705-16.55 4.85-22.325 6.989-10.468 3.876-10.545 3.888-25.2 3.85-16.018-.042-18.8-.939-18.8-6.059 0-3.664 2.84-4.335 18.14-4.29 15.925.048 17.619-.283 18.454-3.607 1.323-5.273.645-5.646-34.094-18.726-21.766-8.195-25.268-8.175-48 .277-5.382 2.001-8.145 2.259-26.817 2.504-26.84.353-24.683-1.438-24.683 20.495 0 12.184.339 16.99 1.25 17.71.688.543 9.8 1.254 20.25 1.58 23.223.725 37.429 2.538 60.688 7.746 31.669 7.092 32.897 6.971 66.312-6.545 9.9-4.004 20.974-8.25 24.608-9.436s7.65-3.266 8.924-4.622c2.045-2.176 3.158-2.466 9.482-2.466 50.571 0 76.265-60.632 40.955-96.644l-6.399-6.526-.285-36.752-.285-36.752-2.945-4.248c-5.292-7.633-30.05-17.881-48.667-20.145-15.709-1.91-34.87 1.463-49.01 8.629-4.589 2.325-5.251 2.424-7.293 1.086-4.516-2.959-19.725-7.587-29.9-9.098-11.39-1.691-14.652-1.744-25.185-.411m1.785 15c-6.798.976-21.088 5.723-28.465 9.456-8.359 4.229-7.82-.06-7.82 62.211 0 30.448.338 55.211.75 55.027s5.925-2.923 12.25-6.088c14.734-7.373 21.415-9.072 36-9.156 12.096-.069 21.649 1.617 30.391 5.364l4.626 1.983-.259-55.718-.258-55.718-8.5-3.164c-12.992-4.835-25.114-6.149-38.715-4.197m83.229.475c-3.293.796-9.031 2.85-12.75 4.565l-6.764 3.117v111.921l2.456-.617c6.486-1.628 7.372-2.423 9.649-8.667 6.554-17.977 23.68-33.107 41.694-36.836 9.011-1.865 21.032-1.255 27.451 1.395 1.645.679 1.75-1.174 1.75-30.867v-31.589l-10.25-5.001c-17.873-8.718-36.899-11.371-53.236-7.421M223.913 620.282c-4.251 3.264-4.602 8.879-.773 12.345 1.798 1.627 4.627 1.765 34.049 1.657 36.331-.133 36.211-.107 36.211-7.891 0-7.331-.328-7.397-36.261-7.361-23.294.023-32.058.353-33.226 1.25m-.032 39.725c-4.792 2.8-4.232 11.013.925 13.584 1.817.906 75.527 1.328 86.921.498 4.189-.305 5.707-8.934 2.224-12.641l-2.3-2.448-43.075.03c-25.207.018-43.748.423-44.695.977m-.288 40.243c-4.087 3.652-4.339 7.158-.772 10.725l3.025 3.025h51.245l2.454-2.455c3.441-3.441 3.359-8.689-.18-11.472-4.255-3.347-51.997-3.196-55.772.177M1296.537 726c-7.221 7.15-13.575 13-14.12 13-.546 0-3.208-2.25-5.917-5-5.832-5.921-9.928-6.663-14.045-2.545-4.323 4.322-3.382 6.855 6.175 16.621 13.328 13.621 14.35 13.412 34.954-7.16 8.382-8.369 15.435-16.236 15.673-17.482.942-4.923-3.542-10.434-8.489-10.434-.606 0-7.01 5.85-14.231 13m-612.341 4.298c-4.274 4.41-4.217 7.881.204 12.302 4.349 4.349 5.959 4.276 10.718-.482 4.973-4.974 5.057-7.879.347-12.014-4.519-3.968-7.281-3.921-11.269.194M362 740.5c-6.307 6.325-11.94 11.5-12.518 11.5s-3.495-2.475-6.482-5.5c-6.083-6.16-8.443-6.744-12.644-3.13-5.427 4.669-4.163 8.425 6.299 18.72 13.342 13.128 14.362 12.908 33.77-7.263 16.191-16.828 16.164-16.788 14.13-20.721-1.847-3.572-4.328-5.106-8.256-5.106-2.28 0-5.065 2.24-14.299 11.5m301.923 9.423c-4.02 4.02-3.955 8.31.183 12.176 3.823 3.572 6.825 3.671 10.764.357 5.402-4.546 4.966-9.54-1.165-13.329-4.573-2.827-6.3-2.686-9.782.796m40.477.477c-4.129 4.129-4.349 7.378-.743 10.984 3.436 3.436 7.018 4.309 10.249 2.495 5.742-3.222 6.448-9.616 1.599-14.465-3.417-3.416-7.023-3.096-11.105.986m117.817 12.161c-7.231 5.065-6.293 16.094 1.648 19.383 9.789 4.055 18.624-6.297 13.625-15.964-2.61-5.046-10.446-6.801-15.273-3.419m-138.146 7.866c-4.334 4.471-4.388 8.007-.18 11.767 4.195 3.748 7.864 3.652 11.919-.313 4.018-3.927 4.04-6.844.086-11.346-4.086-4.654-7.39-4.684-11.825-.108M247 845.155c0 4.931-.08 5.083-1.829 3.5-4.869-4.407-11.171-.06-11.171 7.705 0 7.677 5.484 11.791 10.777 8.083 1.246-.872 2.223-1.092 2.223-.5 0 .581.675 1.057 1.5 1.057 1.253 0 1.5-2.056 1.5-12.5s-.247-12.5-1.5-12.5c-1.139 0-1.5 1.239-1.5 5.155m179 7.345c0 10.444.247 12.5 1.5 12.5 1.177 0 1.5-1.375 1.5-6.378 0-6.978 1.248-9.008 5.195-8.449 2.132.303 2.327.87 2.599 7.577.225 5.546.636 7.25 1.75 7.25 2.369 0 2.046-14.156-.373-16.345-2.1-1.9-4.465-2.103-7.237-.62-1.78.953-1.934.674-1.934-3.5 0-3.364-.387-4.535-1.5-4.535-1.253 0-1.5 2.056-1.5 12.5m57 0c0 10.444.247 12.5 1.5 12.5 1.09 0 1.5-1.123 1.5-4.108v-4.108l3.25 4.056c2.164 2.701 4.071 4.074 5.708 4.108 2.309.049 2.189-.222-1.958-4.448l-4.416-4.5 4.416-4.5c5.628-5.734 2.615-6.483-3.208-.797L486 854.406v-7.203c0-5.736-.305-7.203-1.5-7.203-1.253 0-1.5 2.056-1.5 12.5m124 .117c0 11.802.12 12.585 1.858 12.13 1.022-.267 2.614-.062 3.538.455 2.814 1.574 7.492-.085 9.121-3.236 4.448-8.601-2.007-17.985-9.583-13.931-1.78.953-1.934.674-1.934-3.5 0-3.364-.387-4.535-1.5-4.535-1.254 0-1.5 2.069-1.5 12.617m47-.117c0 10.444.247 12.5 1.5 12.5s1.5-2.056 1.5-12.5-.247-12.5-1.5-12.5-1.5 2.056-1.5 12.5m20.247-8c.474 4.203-.324 5.802-1.747 3.5-1.674-2.708-8.059-.754-10.037 3.072-4.342 8.395 2.401 17.838 9.733 13.631 1.594-.915 2.625-1.223 2.292-.683-.333.539.208.98 1.203.98 1.649 0 1.809-1.107 1.809-12.5 0-11.567-.14-12.5-1.88-12.5-1.637 0-1.814.583-1.373 4.5m115.753 8c0 10.444.247 12.5 1.5 12.5 1.154 0 1.5-1.285 1.5-5.566 0-6.773 1.269-9.434 4.5-9.434s4.5 2.661 4.5 9.434c0 4.449.323 5.566 1.609 5.566 2.539 0 1.591-14.65-1.075-16.598-2.552-1.867-5.469-1.771-7.705.253-1.749 1.583-1.829 1.431-1.829-3.5 0-3.916-.361-5.155-1.5-5.155-1.253 0-1.5 2.056-1.5 12.5m52 0c0 10.444.247 12.5 1.5 12.5 1.161 0 1.5-1.312 1.5-5.809 0-6.767 1.547-9.531 5.056-9.036 2.303.325 2.461.763 2.738 7.595.245 6.051.576 7.25 2 7.252 1.482.002 1.662-.949 1.371-7.25-.448-9.728-3.401-12.837-9.231-9.717-1.78.953-1.934.674-1.934-3.5 0-3.364-.387-4.535-1.5-4.535-1.253 0-1.5 2.056-1.5 12.5m306 0c0 10.444.247 12.5 1.5 12.5s1.5-2.056 1.5-12.5-.247-12.5-1.5-12.5-1.5 2.056-1.5 12.5M380 845c0 1.111-.667 2-1.5 2-.825 0-1.5.675-1.5 1.5s.675 1.5 1.5 1.5c1.167 0 1.5 1.333 1.5 6s.444 6.444 2 8c2.351 2.351 6 2.656 6 .5 0-.825-.852-1.5-1.893-1.5-2.385 0-3.107-1.877-3.107-8.082 0-4.579.172-4.918 2.5-4.918 1.556 0 2.5-.567 2.5-1.5s-.944-1.5-2.5-1.5c-1.833 0-2.5-.533-2.5-2 0-1.111-.667-2-1.5-2s-1.5.889-1.5 2m797 0c0 1.111-.667 2-1.5 2-.825 0-1.5.675-1.5 1.5s.675 1.5 1.5 1.5c1.178 0 1.5 1.381 1.5 6.429 0 6.86 1.436 9.571 5.071 9.571 2.546 0 2.489-2.62-.071-3.29-1.724-.451-2-1.364-2-6.616 0-5.427.219-6.094 2-6.094 1.111 0 2-.667 2-1.5s-.889-1.5-2-1.5q-2 0-2-2c0-1.111-.667-2-1.5-2s-1.5.889-1.5 2m74 0c0 1.111-.667 2-1.5 2-.825 0-1.5.675-1.5 1.5s.675 1.5 1.5 1.5c1.178 0 1.5 1.381 1.5 6.429 0 6.86 1.436 9.571 5.071 9.571 2.546 0 2.489-2.62-.071-3.29-3.041-.795-3.005-12.413.04-12.89 2.812-.441 2.956-2.25.21-2.64-1.446-.205-2.25-1.009-2.25-2.25 0-1.061-.675-1.93-1.5-1.93-.833 0-1.5.889-1.5 2m-1122.777 3.557c-3.962 2.774-2.089 7.209 3.777 8.947 3.949 1.17 5.223 2.522 3.89 4.129-1.486 1.791-5.328 1.749-6.841-.074-.657-.792-1.908-1.167-2.779-.833-1.307.502-1.11 1.015 1.129 2.941 4.08 3.51 9.235 2.754 11.62-1.703 1.54-2.878-.063-5.028-5.151-6.907-4.503-1.664-5.818-4.25-2.487-4.892 1.035-.199 2.947.208 4.249.905 3.101 1.659 4.175.477 1.876-2.064-2.171-2.398-6.221-2.594-9.283-.449m18.006-.888c-1.936.779-4.229 5.854-4.229 9.358 0 3.854 4.728 8.973 8.288 8.973 3.246 0 8.229-3.883 6.807-5.305-.73-.73-1.609-.54-2.9.629-2.569 2.324-5.789 2.094-7.638-.547-4.264-6.087 2.095-14.117 7.387-9.328 2.708 2.451 4.758.253 2.174-2.331-2.019-2.019-6.749-2.712-9.889-1.449m18.032.86c-3.187 2.233-4.515 7.928-2.802 12.026 3.877 9.281 15.541 6.036 15.541-4.323 0-7.542-6.96-11.75-12.739-7.703M181 859.5c0 10.444.247 12.5 1.5 12.5 1.082 0 1.5-1.108 1.5-3.975 0-3.91.045-3.958 2.711-2.945 5.787 2.2 10.289-1.99 10.289-9.576 0-6.435-7.36-11.001-11.331-7.03-1.3 1.299-1.542 1.299-2.04 0-1.703-4.435-2.629-.549-2.629 11.026m22.913-11.218c-6.476 4.972-3.556 17.718 4.06 17.718 2.575 0 8.027-2.694 8.027-3.967 0-1.794-2.041-2.135-3.579-.597-2.249 2.249-6.051 1.93-7.864-.659C202.12 857.298 202.549 857 210 857c3.85 0 7-.239 7-.532 0-1.991-3.183-7.496-4.85-8.388-2.639-1.412-6.25-1.324-8.237.202m52.542 1.173c-5.99 5.989-1.483 17.451 6.368 16.194C273.088 864.006 272.337 847 262 847c-1.948 0-3.998.907-5.545 2.455m19.951-.128c-5.687 4.892-3.184 14.767 4.113 16.227 3.576.715 9.409-3.026 7.576-4.859-.73-.73-1.609-.54-2.9.629-4.181 3.783-8.195 1.421-8.195-4.824 0-6.071 4.004-8.617 7.944-5.051 2.708 2.451 4.758.253 2.174-2.331-2.793-2.793-7.324-2.705-10.712.209M292 854.5c0 10.29 3.786 14.14 9.777 9.943 1.246-.872 2.223-1.092 2.223-.5 0 .581.693 1.057 1.539 1.057 2.014 0 1.736-17.082-.289-17.753-.905-.299-1.25 1.204-1.25 5.447 0 6.329-1.874 10.306-4.857 10.306-3.15 0-4.143-2.206-4.143-9.2 0-5.378-.314-6.8-1.5-6.8-1.2 0-1.5 1.5-1.5 7.5m19.507-6.511c-.336.544-.525 4.594-.418 9 .16 6.671.466 8.011 1.828 8.011 1.301 0 1.559-.806 1.261-3.935-.613-6.425 1.456-11.244 4.668-10.872 2.568.297 2.664.542 2.948 7.557.225 5.546.636 7.25 1.75 7.25 1.108 0 1.456-1.39 1.456-5.809 0-6.767 1.547-9.531 5.056-9.036 2.303.325 2.461.763 2.738 7.595.225 5.546.636 7.25 1.75 7.25 2.369 0 2.046-14.156-.373-16.345-2.266-2.051-5.073-2.113-7.841-.173-1.869 1.308-2.259 1.308-3.345 0-1.627-1.96-4.887-1.881-7.156.173-1.702 1.54-1.829 1.54-1.829 0 0-1.819-1.528-2.227-2.493-.666m30.948 1.466c-2.739 2.738-3.389 9.745-1.173 12.632 3.276 4.266 9.758 4.737 13.179.956 2.195-2.425.116-3.875-2.353-1.641-2.247 2.034-5.518 2.045-7.537.027-3.265-3.266-1.972-4.429 4.929-4.429 6.298 0 6.5-.079 6.5-2.545 0-3.56-4.18-7.455-8-7.455-1.948 0-3.998.907-5.545 2.455M360 856c0 7.333.278 9 1.5 9 1.154 0 1.5-1.285 1.5-5.566 0-6.754 1.271-9.434 4.476-9.434 3.168 0 3.368.46 3.623 8.309.173 5.362.532 6.691 1.809 6.692 2.214.001 1.384-15.575-.908-17.023-1.972-1.246-4.672-1.224-7.066.057-1.333.714-1.934.714-1.934 0 0-.569-.675-1.035-1.5-1.035-1.222 0-1.5 1.667-1.5 9m50.913-7.718c-7.2 5.528-3.761 17.718 4.999 17.718 2.765 0 7.46-4.028 6.183-5.305-.73-.73-1.609-.54-2.9.629-5.842 5.287-12.172-3.827-6.992-10.068 1.407-1.696 5.275-1.59 6.748.185.657.792 1.908 1.167 2.779.833 1.307-.502 1.11-1.015-1.129-2.941-2.941-2.53-7.165-2.988-9.688-1.051m35.542 1.173c-5.675 5.674-1.432 16.545 6.457 16.545 2.765 0 7.46-4.028 6.183-5.305-.73-.73-1.609-.54-2.9.629-2.326 2.105-5.579 2.15-7.624.105-3.265-3.266-1.972-4.429 4.929-4.429 6.298 0 6.5-.079 6.5-2.545 0-3.56-4.18-7.455-8-7.455-1.948 0-3.998.907-5.545 2.455m20.458-1.173c-7.2 5.528-3.761 17.718 4.999 17.718 2.765 0 7.46-4.028 6.183-5.305-.73-.73-1.609-.54-2.9.629-3.765 3.407-9.195.558-9.195-4.824 0-5.111 6.063-8.539 8.951-5.059.657.792 1.862 1.184 2.676.872 1.213-.466 1.078-.998-.747-2.941-2.452-2.61-7.297-3.14-9.967-1.09M627 854.977c0 9.17 2.123 12.042 7.743 10.474 1.516-.423 3.545-.669 4.507-.547 1.555.197 1.75-.796 1.75-8.924 0-6.871-.311-9.044-1.25-8.734-.781.258-1.364 2.809-1.553 6.795-.347 7.295-1.45 9.185-5.111 8.76-2.504-.291-2.595-.548-2.878-8.051-.226-5.989-.623-7.75-1.75-7.75-1.155 0-1.458 1.655-1.458 7.977M646 856c0 7.333.278 9 1.5 9s1.5-1.667 1.5-9-.278-9-1.5-9-1.5 1.667-1.5 9m49-8.385c0 .43 1.139 4.518 2.532 9.083 3.092 10.137 4.701 10.667 7.043 2.321 1.978-7.052 2.633-6.988 4.414.434 2.013 8.39 4.003 7.527 6.906-2.994 1.296-4.697 2.105-8.792 1.797-9.1-1.26-1.26-2.506.927-3.768 6.615-1.529 6.892-2.072 6.739-4.341-1.224-2.347-8.236-3.91-7.475-6.675 3.25-1.276 4.95-1.505 4.73-4.087-3.928-1.121-3.759-3.821-6.908-3.821-4.457M722 856c0 7.333.278 9 1.5 9 1.175 0 1.5-1.367 1.5-6.3 0-6.518 1.053-8.7 4.2-8.7.99 0 1.8-.675 1.8-1.5 0-1.743-1.361-1.912-4.005-.497-1.252.67-2.079.67-2.493 0-1.696-2.743-2.502-.166-2.502 7.997m14.913-7.718c-5.637 4.328-4.958 14.214 1.151 16.744 4.931 2.043 13.046-1.316 10.158-4.204-.791-.791-1.546-.641-2.729.542-2.313 2.314-6.101 2.033-7.936-.587-2.435-3.476-2.007-3.777 5.373-3.777h6.93l-.916-3.25c-1.635-5.798-7.895-8.643-12.031-5.468m16.754-.615c-.367.366-.667 4.416-.667 9 0 7.269.223 8.333 1.75 8.334 1.492.002 1.7-.794 1.413-5.403-.396-6.359 1.012-9.598 4.172-9.598 3.627 0 4.665 1.936 4.665 8.7 0 4.933.325 6.3 1.5 6.3 2.517 0 2.098-13.402-.5-16-2.263-2.263-5.951-2.612-7.925-.75-1.06 1-1.417 1-1.783 0-.504-1.374-1.592-1.616-2.625-.583m20.788 1.788c-2.892 2.891-3.387 9.769-.954 13.243 2.969 4.239 12.441 3.559 13.31-.956.412-2.138-1.428-2.267-3.454-.242-3.635 3.635-8.357.81-8.357-5 0-5.834 4.163-8.289 8.968-5.288 2.912 1.819 3.887-.096 1.171-2.298-3.285-2.664-7.704-2.44-10.684.541m51.851-.042c-5.655 4.864-2.331 16.587 4.703 16.587 2.653 0 6.782-2.012 7.392-3.603.807-2.104-1.348-2.755-3.293-.995-4.02 3.638-8.308 1.108-8.308-4.902 0-5.787 4.981-8.878 8.151-5.059.657.792 1.862 1.184 2.676.872 1.213-.466 1.078-.998-.747-2.941-2.877-3.062-6.985-3.046-10.574.041M861 856c0 7.333.278 9 1.5 9s1.5-1.667 1.5-9-.278-9-1.5-9-1.5 1.667-1.5 9m8 3.5c0 10.444.247 12.5 1.5 12.5 1.114 0 1.5-1.173 1.5-4.557 0-4.509.023-4.54 2.223-3 5.242 3.672 10.777-.408 10.777-7.943 0-7.427-6.999-12.358-11.357-8-.825.825-1.757 1.5-2.072 1.5-.314 0-.571-.675-.571-1.5s-.45-1.5-1-1.5c-.613 0-1 4.833-1 12.5m251 0c0 10.444.247 12.5 1.5 12.5 1.086 0 1.5-1.115 1.5-4.035 0-3.68.17-3.944 1.934-3 5.601 2.997 11.066-1.184 11.066-8.465 0-7.564-6.465-12.104-11.171-7.845-1.702 1.54-1.829 1.54-1.829 0 0-.91-.675-1.655-1.5-1.655-1.253 0-1.5 2.056-1.5 12.5m20-3.5c0 7.333.278 9 1.5 9s1.5-1.667 1.5-9-.278-9-1.5-9-1.5 1.667-1.5 9m18.389-6.658c-3.102 2.668-3.867 10.172-1.347 13.209 3.662 4.412 11.057 4.091 13.475-.585 5.13-9.92-4.101-19.529-12.128-12.624M1202 856c0 7.333.278 9 1.5 9 1.175 0 1.5-1.367 1.5-6.3 0-6.498 1.054-8.7 4.165-8.7 2.432 0 3.335 2.503 3.335 9.247 0 4.439.341 5.747 1.5 5.75 1.181.003 1.426-1.065 1.152-5.022-.422-6.09 1.781-10.267 5.161-9.786 1.987.283 2.214.973 2.481 7.561.225 5.546.636 7.25 1.75 7.25 1.143 0 1.456-1.581 1.456-7.345 0-7.792-1.478-10.655-5.5-10.655-1.013 0-2.665.745-3.671 1.655-1.702 1.54-1.956 1.54-3.658 0-2.172-1.966-5.255-2.142-7.096-.405-1.06 1-1.417 1-1.783 0-1.311-3.574-2.292-.256-2.292 7.75m30.455-6.545c-4.347 4.346-2.817 13.324 2.655 15.591 3.272 1.355 7.018.683 9.384-1.683 2.381-2.381.207-4.308-2.299-2.039-2.421 2.191-5.475 2.129-7.54-.153-3.056-3.377-2.052-4.171 5.275-4.171h6.93l-.916-3.25c-1.885-6.685-8.874-8.91-13.489-4.295M1262 856c0 7.333.278 9 1.5 9 1.175 0 1.5-1.367 1.5-6.3 0-6.518 1.053-8.7 4.2-8.7.99 0 1.8-.675 1.8-1.5 0-2.075-3.674-1.888-4.92.25-.971 1.667-1.021 1.667-1.05 0-.016-.962-.705-1.75-1.53-1.75-1.222 0-1.5 1.667-1.5 9m13 0c0 7.333.278 9 1.5 9s1.5-1.667 1.5-9-.278-9-1.5-9-1.5 1.667-1.5 9m9.455-6.545c-5.25 5.249-2.483 15.041 4.568 16.169 4.137.662 9.356-2.586 7.385-4.595-.801-.816-1.435-.702-2.373.429-3.084 3.716-9.035.69-9.035-4.595 0-6.192 4.033-8.733 8.968-5.651 2.912 1.819 3.887-.096 1.171-2.298-3.285-2.664-7.704-2.44-10.684.541m17.505-.624c-3.546 2.871-2.078 6.63 3.288 8.418 3.031 1.011 4.252 1.968 4.252 3.334 0 2.586-4.094 3.095-6.606.821-2.571-2.327-4.825-.478-2.388 1.959 5.094 5.095 14.802 1.22 12.46-4.973-.541-1.431-2.296-2.488-5.449-3.281-3.52-.887-4.572-1.587-4.323-2.879.427-2.217 3.444-2.762 6.436-1.16 3.194 1.709 4.02.58 1.453-1.987-2.571-2.571-6.137-2.669-9.123-.252m-1136.925 3.103c-1.405 2.625-1.308 8.393.165 9.866 3.245 3.245 8.8.129 8.8-4.937 0-4.595-1.652-6.863-5-6.863-1.873 0-3.303.698-3.965 1.934m20 0c-3.721 6.953 2.39 14.674 7.31 9.237C195.919 857.222 193.756 850 189 850c-1.873 0-3.303.698-3.965 1.934m53.165-.734c-1.473 1.473-1.57 7.241-.165 9.866 2.261 4.225 8.965.811 8.965-4.566 0-4.963-5.703-8.397-8.8-5.3m19.835.734C255.371 856.911 257.553 863 262 863c3.264 0 5-2.257 5-6.5s-1.736-6.5-5-6.5c-1.873 0-3.303.698-3.965 1.934m353 0c-2.545 4.756-.276 11.066 3.98 11.066 4.171 0 6.625-8.217 3.414-11.429-2.173-2.172-6.141-1.977-7.394.363m55.168-.678c-3.564 4.293-1.535 11.744 3.198 11.744 4.453 0 6.817-7.623 3.575-11.529-1.494-1.8-5.356-1.923-6.773-.215m206.832.678c-3.804 7.109 2.964 15.189 7.408 8.843C883.69 856.142 881.727 850 877 850c-1.873 0-3.303.698-3.965 1.934m251 0c-2.697 5.04-.246 11.066 4.501 11.066 2.701 0 4.464-2.567 4.464-6.5 0-4.243-1.736-6.5-5-6.5-1.873 0-3.303.698-3.965 1.934m36.165-.734c-.66.66-1.2 3.045-1.2 5.3 0 8.645 8.537 9.371 9.683.823.796-5.929-4.706-9.9-8.483-6.123"/></svg>