<svg xmlns="http://www.w3.org/2000/svg" width="1024" height="1024" viewBox="0 0 1024 1024"><path fill-rule="evenodd" d="M504.387 134.949c-47.261 7.386-60.756 68.495-20.887 94.584 2.75 1.799 6.688 3.856 8.75 4.57l3.75 1.299V317h-40.039c-22.022 0-44.41.475-49.75 1.055-64.404 7-119.839 46.628-148.907 106.445-2.94 6.05-6.123 12.575-7.075 14.5l-1.729 3.5-11 .648c-26.169 1.543-46.159 17.046-51.421 39.88-1.775 7.707-1.396 85.335.452 92.43 6.093 23.394 27.909 39.478 53.614 39.527l7.645.015 3.518 8.75c28.219 70.185 84.313 116.861 157.986 131.462 10.961 2.172 13.09 2.229 97.206 2.558 75.106.294 87.647.129 99-1.303 54.295-6.847 105.769-37.097 139.477-81.967 11.235-14.955 17.943-26.826 27.122-48l4.769-11 5.816-.222c30.018-1.147 50.417-16.937 55.885-43.257 2.652-12.769 1.627-84.446-1.32-92.314-3.622-9.668-7.258-15.398-13.681-21.566-10.36-9.949-20.207-13.929-37.025-14.966l-10.958-.675-7.542-15c-21.764-43.281-48.638-71.215-86.543-89.958C646.488 320.229 628.637 317 567.949 317H528l.004-40.75.003-40.75 4.747-1.921c25.18-10.194 38.113-38.457 29.283-63.998-8.043-23.269-33.294-38.438-57.65-34.632m-.887 33.71c-19.116 10.06-12.531 38.394 8.907 38.325 16.853-.055 26.053-20.71 14.786-33.197-6.031-6.684-16.451-8.939-23.693-5.128M401.195 350.551c-55.664 8.227-103.927 48.929-123.128 103.837-7.228 20.67-8.296 29.16-8.8 69.96-.579 46.827.883 60.743 8.81 83.908 20.488 59.864 69.493 102.434 133.457 115.93L422.5 726.5H512c98.218 0 94.026.223 116.497-6.209 60.223-17.241 111.038-70.764 122.94-129.496 4.554-22.468 4.991-93.278.705-114.06-12.983-62.949-59.615-110.722-121.943-124.925-9.64-2.197-10.342-2.211-114.699-2.422-84.78-.171-106.792.053-114.305 1.163m6.131 47.916c-47.5 7.373-86.155 46.468-96.932 98.033-2.611 12.495-2.64 42.12-.054 54.964 14.58 72.409 77.479 126.741 158.694 137.078 17.632 2.244 79.393 1.634 93.966-.928 79.741-14.021 139.123-68.542 151.513-139.114 2.106-11.997 2.1-37.061-.012-49-9.422-53.259-48.866-93.424-99.198-101.011-13.324-2.008-195.058-2.028-207.977-.022m7.674 30.59c-55.736 7.252-89.874 70.138-70.42 129.722 16.058 49.186 60.435 85.643 118.586 97.425 17.447 3.535 83.719 3.497 100.334-.057 72.63-15.536 123.397-72.15 121.191-135.147-1.558-44.488-27.035-79.206-66.191-90.2l-8-2.247-94.5-.171c-51.975-.094-97.425.21-101 .675m-179.29 46.051c-9.621 1.481-17.354 8.143-19.741 17.006-.713 2.648-.979 16.095-.777 39.208.296 33.829.391 35.331 2.466 39.178 3.945 7.309 10.645 12.031 18.623 13.125l4.316.592-1.35-13.359c-1.565-15.484-1.089-81.712.652-90.804.573-2.995.943-5.499.822-5.564-.122-.066-2.377.213-5.011.618m548.962 7.779c1.067 11.094 1.078 80.882.015 92.501l-.814 8.888 4.169-.667c8.879-1.419 15.866-7.075 18.96-15.345 2.602-6.954 3.069-68.389.582-76.65-2.765-9.189-9.39-15.072-18.616-16.53l-5.125-.81zm-368.926 5.199c-9.987 2.353-19.721 10.34-24.004 19.694-3.434 7.501-3.177 21.817.528 29.362 15.22 30.99 61.758 22.59 65.352-11.797 2.367-22.65-19.879-42.444-41.876-37.259m178.477-.082c-9.925 2.091-19.512 9.884-24.331 19.78-3.273 6.72-3.384 21.568-.213 28.433 12.4 26.841 49.673 27.245 62.671.68 12.524-25.598-10.225-54.771-38.127-48.893m-145.398 97.469c-6.984 4.745-8.61 14.733-3.617 22.215 4.667 6.994 25.531 18.919 40.859 23.354 9.383 2.715 30.232 3.729 41.822 2.034 17.266-2.524 40.793-13.62 50.297-23.721 13.389-14.229-3.928-34.222-19.823-22.887-10.939 7.8-13.949 9.581-20.259 11.985-22.199 8.459-51.343 4.449-67.306-9.263-8.369-7.188-15.171-8.339-21.973-3.717"/></svg>