<svg xmlns="http://www.w3.org/2000/svg" width="1024" height="1024" viewBox="0 0 1024 1024"><path fill-rule="evenodd" d="M318.951 188.352c-8.596 2.337-16.456 8.835-19.532 16.148-1.552 3.688-1.668 14.254-1.486 135.628l.197 131.628-9.315.439c-16.646.784-19.782 3.345-35.99 29.389-44.128 70.905-54.182 87.172-56.119 90.793L194.5 596.5l-.275 92.388c-.18 60.34.082 94.322.755 97.963 3.165 17.119 17.115 32.372 33.48 36.607 9.044 2.34 557.021 2.349 566.005.009 16.588-4.32 30.781-18.557 34.475-34.582 1.664-7.219 1.404-186.424-.279-192.015-.736-2.447-6.643-12.981-13.126-23.409-62.694-100.845-58.997-95.67-70.988-99.374-5.72-1.767-9.348-2.087-23.629-2.087h-16.871l-.273-77.75-.274-77.75-2.848-5.618c-4.555-8.988-112.724-116.646-121.152-120.581l-6-2.801-125-.192c-96.661-.149-126.031.088-129.549 1.044M329 403.5V587l24.25.016c40.54.026 43.505 1.588 62.75 33.067 7.998 13.081 11.436 17.799 14.426 19.796l3.927 2.621 76.073.279c87.12.319 81.907.798 88.409-8.127 2.063-2.834 7.716-11.567 12.561-19.407 14.877-24.076 22.055-28.225 48.854-28.239L671 587V336h-35.818c-38.642 0-40.783-.236-51.522-5.674-9.411-4.766-18.227-14.794-21.676-24.658-2.39-6.835-2.89-15.991-2.941-53.918L559 220H329zm262.022-136.494c.034 36.657-.439 36.186 35.922 35.763l23.071-.269-29.508-29.494L591 243.513zM505.02 333.25c-9.044 4.622-8.52 1.002-8.52 58.824 0 28.009-.064 50.926-.142 50.926-.079 0-3.307-3.757-7.174-8.35-3.867-4.592-8.596-9.092-10.509-10-12.673-6.014-26.841 5.227-22.638 17.962 1.472 4.46 41.988 46.91 47.996 50.286 4.677 2.629 10.869 2.703 15.798.188 6.136-3.13 46.863-45.332 48.265-50.012 3.025-10.097-4.678-20.074-15.499-20.074-5.774 0-8.004 1.476-16.443 10.889l-8.101 9.035-.277-50.712-.276-50.712-2.401-3.367c-4.73-6.632-12.81-8.597-20.079-4.883M287.618 507.366c-1.715 1.852-7.095 9.839-11.956 17.75-4.862 7.911-15.324 24.91-23.25 37.775S238 586.443 238 586.641c0 .197 13.5.359 30 .359h30v-83h-3.632c-2.839 0-4.313.735-6.75 3.366M704 545.5V587h82.23l-1.81-2.75c-.995-1.513-10.463-16.7-21.039-33.75-27.9-44.978-27.671-44.633-30.196-45.607-1.273-.491-8.361-.893-15.75-.893H704zM225.233 700.927c.298 90.452-.308 82.941 7.152 88.511l2.762 2.062 276.119.255 276.119.256 3.886-2.572c7.042-4.66 6.729-.505 6.729-89.407V620h-73.435c-46.726 0-74.395.365-76.075 1.004-3.657 1.39-4.169 2.009-12.398 14.996-17.116 27.011-19.617 29.856-31.092 35.374l-6.5 3.126h-173l-6.5-3.093c-9.684-4.608-14.85-10.085-24.902-26.407-11.282-18.318-14.064-22.17-17.131-23.722-1.906-.965-19.475-1.252-77.234-1.263L224.965 620z"/></svg>