<svg xmlns="http://www.w3.org/2000/svg" width="1024" height="1024" viewBox="0 0 1024 1024"><path fill-rule="evenodd" d="M693.5 135.014c-28.957 3.076-55.127 15.023-75.267 34.358-40.88 39.246-50.295 98.45-23.478 147.628 1.949 3.575 15.306 24.275 29.681 46s33.32 50.523 42.1 63.996c17.938 27.525 25.239 36.057 32.535 38.025 9.411 2.538 19.595-1.062 26.236-9.277 5.147-6.366 82.976-123.47 88.734-133.511 5.992-10.45 12.087-25.783 14.602-36.733 2.485-10.821 2.525-37.448.074-49.061-13.513-64.023-72.29-108.111-135.217-101.425m-3.5 47.47c-38.237 8.605-63.255 38.854-63.285 76.516-.015 19.328 3.42 28.442 20.917 55.5 21.323 32.973 57.621 87.5 58.241 87.488.604-.011 5.933-8.003 47.668-71.488 29.28-44.539 30.853-48.101 30.904-70 .057-24.751-9.596-45.653-28.188-61.035-17.687-14.634-45.273-21.704-66.257-16.981m1.061 37.49c-10.902 4.029-19.194 11.517-24.366 22.005-4.786 9.705-4.788 26.275-.005 36.021 15.663 31.913 60.6 31.99 76.744.131 10.283-20.293 1.325-46.377-19.36-56.374-8.715-4.212-24.179-5.047-33.013-1.783m-314.666 35.994c-3.796.812-20.704 7.543-139.777 55.647-43.083 17.404-47.905 19.819-53.964 27.019-3.468 4.122-7.315 11.93-8.578 17.408-1.699 7.375-1.424 461.065.283 467.458 4.19 15.685 14.527 24.557 29.531 25.345 10.114.531 3.325 2.893 86.61-30.138a74435 74435 0 0 1 86.62-34.294l8.62-3.41 4.88 1.951c29.652 11.854 173.426 68.876 179.656 71.254 7.445 2.84 9.314 3.142 19.724 3.187 11.149.048 12.095-.127 31-5.717 10.725-3.171 51.675-15.004 91-26.295 131.496-37.754 123.43-35.163 131.13-42.119 5.35-4.834 9.51-11.016 12.133-18.031l2.144-5.733-.318-200.5c-.271-171.649-.524-201.004-1.756-204-6.768-16.461-30.97-17.662-39.062-1.938l-2.338 4.543.05 195.698c.027 107.633-.148 195.697-.388 195.697s-15.886 4.463-34.767 9.918A98626 98626 0 0 1 680 787.376c-35.475 10.197-66.75 19.229-69.5 20.071s-5.112 1.536-5.25 1.542S605 781.1 605 747s-.163-62-.362-62-3.236 1.294-6.75 2.875C589 691.876 568.773 697 561.869 697c-.481 0-.869 23.225-.869 52 0 28.6-.174 52-.387 52s-10.9-4.084-23.75-9.076-25.613-9.889-28.363-10.884c-2.75-.994-18.95-7.301-36-14.017l-47.75-18.803-16.75-6.594v-173.35l-8.492-8.153c-9.142-8.777-18.704-15.466-27.957-19.558-7.69-3.401-8.658-3.322-8.446.685.095 1.788.098 47.575.008 101.75l-.165 98.5-22.724 8.849c-12.498 4.867-44.508 17.354-71.133 27.75C242.466 788.494 220.034 797 219.243 797c-1.243 0-1.391-12.05-1.091-88.75l.348-88.75 12.062-15c34.304-42.662 54.918-69.33 56.695-73.348 5.755-13.01-4.798-28.109-20.256-28.982-11.421-.645-13.541.874-31.699 22.728-8.501 10.231-15.875 18.753-16.385 18.937-.567.205-.829-33.965-.672-87.921l.255-88.257 7-2.89c3.85-1.59 26.35-10.712 50-20.271s52.9-21.423 65-26.363l22-8.981.5 60.58.5 60.58 10.969 2.86c6.426 1.676 15.641 5.107 22.25 8.285L408 446.882v-68.441c0-38.782.382-68.441.881-68.441.934 0 45.904 18.212 100.619 40.748 37.458 15.428 39.929 16.033 48.837 11.955 15.481-7.087 18.036-30.129 4.283-38.629-1.869-1.155-35.736-15.192-75.259-31.194l-81.54-33.013c-10.464-4.237-21.201-5.659-29.426-3.899M577.5 373.924c-6.825 1.686-11.757 5.589-14.883 11.776-1.458 2.887-1.617 13.363-1.617 106.75 0 56.953.305 103.55.677 103.55s4.535-1.854 9.25-4.12c9.725-4.673 22.126-16.217 29.858-27.796l4.215-6.312v-83.418c0-91.208.24-87.328-5.803-93.696-5.21-5.489-14.751-8.45-21.697-6.734m-258.538 82.999c-28.287 5.542-32.83 43.752-5.846 49.171 15.531 3.119 34.185-9.581 36.472-24.831 2.273-15.158-13.502-27.695-30.626-24.34m76.075 16.192c-14.242 4.33-20.763 21.634-12.728 33.776 2.89 4.366 24.576 21.31 30.409 23.758 19.495 8.183 39.872-16.203 27.934-33.43-3.28-4.733-20.084-18.812-26.239-21.983-5.099-2.628-14.371-3.643-19.376-2.121m302.727 30.821c-9.414 3.041-13.78 8.329-18.223 22.073-6.433 19.9-3.412 31.308 9.959 37.614 13.719 6.469 28.047.258 34.32-14.877 8.049-19.419 7.958-27.725-.409-37.67-5.233-6.218-17.73-9.698-25.647-7.14m-239.438 45.2c-12.152 2.136-18.833 11.147-18.159 24.491.35 6.932.601 7.566 6.349 16.02 12.434 18.29 19.15 22.812 30.438 20.493 14.596-2.998 23.048-19.567 16.47-32.288-1.784-3.448-12.858-19.302-15.854-22.697-4.33-4.906-11.975-7.297-19.244-6.019M651 577.716c-3.304 1.737-19.55 14.851-26.838 21.664-7.981 7.46-9.736 20.62-3.923 29.405 6.037 9.122 20.095 12.768 28.98 7.517 4.036-2.386 24.907-19.561 28.483-23.44 8.504-9.225 6.299-25.396-4.529-33.209-5.561-4.012-16.423-4.961-22.173-1.937m-127.725 37.255c-21.883 5.199-20.71 38.206 1.616 45.459 14.276 4.638 40.062 6.012 47.471 2.53 19.276-9.061 19.507-33.686.395-41.992-3.979-1.73-8.174-2.467-17.257-3.036-6.6-.413-15.15-1.458-19-2.324-7.667-1.723-8.487-1.763-13.225-.637"/></svg>