<svg xmlns="http://www.w3.org/2000/svg" width="1024" height="1024" viewBox="0 0 1024 1024"><path fill-rule="evenodd" d="M615.848 161.018c-6.615 3.494-8.297 7.696-8.701 21.732l-.353 12.25-11.147.012c-21.989.023-36.632 7.931-44.438 23.996-4.943 10.174-5.193 14.213-5.201 83.825-.005 35.384-.345 64.184-.758 64s-3.737-2.031-7.388-4.106c-38.975-22.156-108.957-34.073-174.362-29.691-91.623 6.138-147.543 31.479-157.992 71.595-2.23 8.562-2.261 329.949-.033 338.324 8.203 30.822 44.506 54.982 99.188 66.008 29.598 5.968 44.627 7.382 79.337 7.461 31.142.071 36.052-.257 60.5-4.043 10.884-1.686 36.547-7.801 39.605-9.437 1.474-.789 3.648-.251 9.652 2.389 38.757 17.041 79.102 19.308 116.733 6.559 49.67-16.826 87.903-56.528 103.036-106.994 16.349-54.518-1.189-117.125-43.807-156.389-24.886-22.928-58.552-39.12-89.469-43.032l-5.25-.665V483.77l2.5 1.615 4.75 3.066c1.237.798 5.4 2.71 9.25 4.25l7 2.799h176l6.5-2.394c18.928-6.97 33.344-22.527 37.506-40.475 1.353-5.833 1.511-20.309 1.269-116.396-.275-109.562-.278-109.743-2.417-114.954-3.22-7.845-8.758-14.715-15.48-19.204-8.38-5.596-11.331-6.311-28.128-6.816l-14.75-.444v-11.449c0-9.431-.348-12.131-1.977-15.324-5.252-10.294-19.348-12.133-26.918-3.51-3.986 4.539-5.093 9.037-5.099 20.716L725 195h-83.794l-.353-12.25c-.292-10.141-.707-12.852-2.409-15.749-4.287-7.298-14.825-10.089-22.596-5.983m-36.636 89.732L579 262l104.75-.245 104.75-.246-104.216-.259-104.216-.259-.322-10.746-.321-10.745zm.013 116.5.275 72.25 2.75 5.217c3.656 6.935 8.86 11.973 15.664 15.163l5.586 2.62h83c93.259 0 86.46.54 94.5-7.5 7.427-7.427 7-2.217 7-85.401V295H578.949zm98.275-46.102c-3.119 1.697-41.46 40.024-43.067 43.052-3.329 6.274-1.154 15.727 4.556 19.792 8.119 5.781 14.217 4.895 22.761-3.308l6.25-6.001v25.757c0 29.146.331 30.766 7.225 35.328 8.379 5.545 19.737 2.137 23.211-6.964 1.454-3.811 1.61-9.631 1.353-50.804l-.289-46.5-2.405-3.868c-3.845-6.187-13.977-9.539-19.595-6.484"/></svg>