<svg xmlns="http://www.w3.org/2000/svg" width="1024" height="1024" viewBox="0 0 1024 1024"><path fill-rule="evenodd" d="M490.5 188.655c-57.237 4.564-103.3 18.673-147.5 45.181C201.684 318.587 146.144 498.463 215.274 647.5c5.37 11.577 5.603 12.025 13.275 25.5 51.481 90.426 147.453 152.358 252.634 163.029 18.014 1.828 61.747.768 79.317-1.921 95.625-14.638 179.716-71.102 231.747-155.608 45.281-73.544 58.044-172.242 33.275-257.31-15.082-51.796-43.202-99.732-80.52-137.263-11.739-11.806-29.531-27.288-37.839-32.927-2.026-1.375-7.279-5.019-11.673-8.098-27.035-18.943-65.386-36.352-98.649-44.78-30.111-7.63-77.012-11.805-106.341-9.467m-8.5 35.483c-158.246 16.235-273.376 154.353-260.071 311.996C233.069 668.118 332.121 775.494 463 797.463c115.274 19.349 227.185-28.925 291.351-125.677 109.935-165.763 24.227-390.088-168.021-439.762-30.657-7.921-72.879-11.113-104.33-7.886m3.5 52.913c-103.784 10.094-188.862 88.095-209.203 191.8-3.473 17.706-4.027 62.337-.988 79.649C299.392 685.722 429.74 773.877 564.5 744.081c161.594-35.73 239.339-224.745 148.583-361.245C662.966 307.458 578.16 268.038 485.5 277.051m-9 36.909c-89.885 16.151-157.329 87.366-167.903 177.29l-.559 4.75h15.665c17.88 0 21.887 1.148 26.19 7.506 4.157 6.141 2.897 16.755-2.577 21.708-4.336 3.924-8.727 4.786-24.382 4.786h-15.13l.685 6.25c2.107 19.224 10.28 45.401 20.557 65.842 30.438 60.538 92.981 104.216 159.623 111.476l6.169.672.331-18.37c.366-20.286.814-21.892 7.184-25.731 7.658-4.614 16.292-3.488 22.039 2.873l3.608 3.994V714l2.75-.018c1.513-.01 6.8-.642 11.75-1.404 85.027-13.096 152.004-76.859 168.969-160.859 18.162-89.933-27.003-181.247-108.969-220.308-19.752-9.413-48.414-17.508-67.75-19.134l-6.75-.567v16.913c0 16.28-.091 17.047-2.439 20.502-6.633 9.762-21.983 9.09-28.061-1.23-1.732-2.94-2.045-5.572-2.336-19.645l-.336-16.25-4.164.082c-2.29.045-8.664.89-14.164 1.878m141.842 81.954c-4.251 1.071-3.772.657-38.397 33.198-16.745 15.736-35.796 33.552-42.336 39.591l-11.891 10.979-3.996-1.93c-4.884-2.36-15.946-2.521-21.239-.31l-3.574 1.494-6.704-6.309c-10.992-10.344-49.164-44.873-53.481-48.376-13.623-11.057-31.489-1.186-27.788 15.352 1.318 5.893.525 5.085 41.564 42.365l22.231 20.194c4.015 3.648 4.2 4.062 3.641 8.142-.787 5.737 1.886 15.864 5.792 21.952 12.248 19.086 39.465 22.167 55.364 6.268 7.08-7.079 9.909-14.098 9.944-24.664l.028-8.639 6.5-5.783c3.575-3.18 15.932-14.592 27.461-25.36a58498 58498 0 0 1 37.5-34.994c9.096-8.479 17.552-17.212 18.789-19.407 7.275-12.905-4.633-27.484-19.408-23.763M506.19 506.298c-3.768 4.011-3.904 8.142-.384 11.662 5.972 5.971 15.194 2.657 15.194-5.46 0-7.549-9.721-11.619-14.81-6.202"/></svg>