<svg xmlns="http://www.w3.org/2000/svg" width="1024" height="1024" viewBox="0 0 1024 1024"><path fill-rule="evenodd" d="M493.5 195.036c-87.803 4.223-164.449 37.929-226.074 99.42-57.845 57.719-90.351 130.12-96.509 214.957-1.394 19.198-.705 23.439 4.709 29.013 4.991 5.139 7.912 5.562 38.467 5.568 26.953.006 27.695-.048 32-2.319 11.296-5.959 11.767-20.041.917-27.425-3.161-2.151-4.198-2.25-23.658-2.25H203l.016-4.25c.008-2.337.879-10.325 1.934-17.75 8.632-60.724 34.095-115.717 75.166-162.341l3.384-3.842 12.746 13.115c13.3 13.685 15.308 15.068 21.869 15.068 7.146 0 12.91-4.499 14.775-11.532 1.998-7.532.316-10.538-14.003-25.023l-12.904-13.054 2.758-2.616c1.518-1.439 8.683-7.04 15.923-12.446 46.782-34.932 104.043-56.243 163.586-60.884l8.75-.682v17.884c0 15.485.248 18.352 1.852 21.369a14.778 14.778 0 0 0 26.296 0c1.602-3.015 1.852-5.881 1.852-21.25 0-17.76.001-17.766 2.25-17.756 4.829.02 28.783 3.04 38.75 4.885 51.746 9.576 101.751 32.129 141.166 63.667l9.665 7.734-12.165 12.393C693.873 327.72 691 331.678 691 336.267c0 7.448 6.236 14.667 13.364 15.471 7.657.863 9.409-.182 23.181-13.82 7.176-7.105 13.338-12.918 13.694-12.918 1.645 0 22.992 26.997 31.629 40.001 21.031 31.664 35.335 66.006 43.049 103.357C818.55 481.109 822 504.21 822 509.092c0 1.814-.997 1.909-20.25 1.924-22.376.019-25.27.72-30.156 7.307-2.922 3.941-2.94 13.397-.032 17.292 5.241 7.02 4.354 6.855 38.469 7.176 34.595.325 36.077.072 41.135-7.018 4.491-6.297 2.696-41.523-3.76-73.773-27.73-138.528-141.15-243.807-284.453-264.037-12.522-1.768-44.489-4.123-51.453-3.791zm154 167.839c-1.65 1.028-27.651 23.253-57.78 49.39l-54.78 47.521-4.72-1.555c-6.785-2.236-26.7-2.159-35.22.135-32.693 8.803-56.086 40.237-53.653 72.096 3.91 51.21 55.924 80.773 102.632 58.333 11.063-5.315 24.598-18.477 30.331-29.495 10.001-19.22 10.396-44.352.996-63.318l-2.855-5.76 2.525-2.944c1.388-1.62 22.932-25.348 47.874-52.729 43.235-47.463 48.179-53.499 48.128-58.767-.039-4.083-3.739-10.666-7.17-12.758-4.317-2.632-12.204-2.704-16.308-.149M502.746 489.022c-29.898 7.555-39.342 44.398-16.742 65.321 7.83 7.249 14.74 9.944 25.496 9.944 41.336 0 53.522-55.737 15.948-72.939-6.22-2.848-18.18-3.974-24.702-2.326M686.5 538.624c-63.917 6.814-114.465 52.669-126.631 114.876-2.09 10.687-1.85 43.773.393 54.159 9.614 44.52 37.764 80.098 79.009 99.859 43.557 20.869 97.202 17.119 136.859-9.567 90.8-61.102 82.342-195.943-15.374-245.074-20.661-10.388-52.744-16.546-74.256-14.253m4.5 32.046c-77.662 6.692-124.131 88.387-89.491 157.33 23.066 45.907 75.434 70.196 123.991 57.508 66.063-17.263 100.469-89.596 71.964-151.292-18.998-41.12-62.866-67.303-106.464-63.546m57.35 57.258c-3.072 1.873-12.569 12.161-48.338 52.361l-17.488 19.655-15.012-14.878c-16.418-16.271-19.378-18.046-26.711-16.021-7.434 2.052-12.801 11.75-10.704 19.342 1.761 6.379 38.149 44.129 46.235 47.966 7.542 3.579 13.813 1.112 24.336-9.574 17.507-17.778 69.407-77.371 70.485-80.933 3.938-13.011-11.262-24.955-22.803-17.918"/></svg>