<svg xmlns="http://www.w3.org/2000/svg" width="1024" height="1024" viewBox="0 0 1024 1024"><path fill-rule="evenodd" d="M688.267 179.001c-14.414 3.028-20.208 11.368-20.245 29.138L668 218.777l-3.363.631c-1.849.347-7.474 2.632-12.499 5.078l-9.137 4.447-6.251-5.607c-10.925-9.801-20.223-11.901-30.304-6.845-6.839 3.431-32.405 28.488-35.288 34.585-4.911 10.39-2.121 20.126 8.579 29.93l6.571 6.021-3.588 7.741c-1.973 4.258-4.067 9.542-4.654 11.742-1.658 6.225-1.746 6.271-12.649 6.65-12.265.426-17.883 3.199-22.891 11.298l-3.026 4.895v23.579c0 25.726.2 26.774 6.364 33.42 4.94 5.325 9.653 7.01 20.891 7.467l10.255.418 1.545 5.137c.849 2.825 3.01 7.985 4.8 11.468l3.256 6.331-7.312 7.312C571.138 432.636 569 436.652 569 443.819c0 9.913 3.963 15.96 22.21 33.895 19.602 19.265 28.709 20.24 44.716 4.787l6.753-6.519 7.606 3.514c4.183 1.933 9.88 4.039 12.66 4.681l5.055 1.166.022 10.079c.052 23.876 10.131 30.597 43.931 29.293 28.237-1.089 36.445-7.649 36.515-29.181l.032-9.967 5-1.333c6.427-1.713 12.269-4.128 15.789-6.526l2.788-1.899 7.712 7.364c8.09 7.727 12.351 9.836 19.827 9.817 7.73-.019 13.636-4.007 29.322-19.796C845.186 456.839 848 452.542 848 444.085c0-7.259-1.906-10.687-10.67-19.184l-7.544-7.315 3.464-7.043c1.905-3.874 4.036-9.18 4.737-11.793l1.273-4.75h8.744c13.793 0 21.046-3.718 26.334-13.5 1.978-3.659 2.19-5.741 2.488-24.421.36-22.576-.274-26.963-4.856-33.622-4.689-6.816-11.108-9.457-22.984-9.457h-9.62l-1.716-7.25c-.944-3.988-3.084-9.725-4.755-12.75l-3.039-5.5 6.992-6.5c11.681-10.86 14.202-20.182 8.248-30.5-4.174-7.233-28.243-30.457-35.042-33.812-10.374-5.12-20.191-2.851-30.903 7.142l-5.348 4.989-6.652-3.329c-6.925-3.467-15.164-6.49-17.686-6.49-1.182 0-1.465-1.801-1.465-9.322 0-15.357-4.033-23.099-14.77-28.356-5.549-2.716-6.284-2.811-23.23-3.008-9.625-.111-19.405.198-21.733.687m11.604 27.72-3.628.385-.442 11.697c-.676 17.89-3.505 21.951-18.301 26.267-10.488 3.06-14.314 4.656-21.955 9.162-12.697 7.487-20.611 6.3-31.542-4.729-3.545-3.577-6.94-6.503-7.546-6.503C615.38 243 599 259.342 599 260.416c0 .3 3.328 3.819 7.396 7.822 11.166 10.986 11.888 15.849 4.636 31.205-5.609 11.876-6.729 14.796-7.539 19.659-2.659 15.959-8.799 20.898-25.982 20.898h-10.569l.279 13.25.279 13.25 11 .5c16.566.753 21.04 4.173 24.452 18.692.671 2.856 3.881 10.384 7.134 16.73 8.875 17.314 8.075 23.613-4.491 35.35-8.076 7.543-8.109 7.276 2.193 17.517l7.801 7.755 8.297-7.5c12.583-11.375 17.036-12.011 31.656-4.522 5.392 2.762 13.664 6.178 18.381 7.592 12.716 3.812 13.82 4.329 17.027 7.982 3.892 4.433 5.038 9.009 5.044 20.154L696 496h12c8.896 0 12.018-.323 12.071-1.25.038-.687.021-4.625-.04-8.75-.226-15.392 5.122-23.737 16.621-25.936 7.412-1.417 15.323-4.456 22.348-8.584 14.005-8.23 20.711-7.202 33.145 5.081 7.057 6.97 7.4 6.895 17.349-3.814l7.562-8.14-6.428-6.554c-12.578-12.824-13.43-18.528-5.193-34.81 2.989-5.908 6.342-14.051 7.451-18.095 3.981-14.508 7.878-17.45 24.033-18.148l11.581-.5.278-13.141.279-13.141-11.354-.361c-16.882-.536-21.445-4.243-25.178-20.455-.874-3.796-3.896-11.796-6.716-17.777-8.425-17.872-7.858-22.328 4.386-34.475l7.024-6.968-7.354-7.687c-10.474-10.947-9.714-10.823-18.054-2.956-12.496 11.789-16.786 12.218-34.295 3.431-6.609-3.316-15.31-6.927-19.336-8.023-14.279-3.888-17.502-8.547-18.032-26.075l-.351-11.628-4.538-.622c-4.59-.629-8.778-.602-15.388.099m-7.409 74.752c-48.227 10.499-70.327 69.927-41.19 110.759 32.85 46.036 104.503 35.556 123.222-18.022 18.101-51.808-28.426-104.406-82.032-92.737m7.694 28.102c-13.07 2.756-24.008 11.198-29.704 22.925-4.492 9.248-4.383 25.979.233 35.723 4.245 8.961 10.982 15.996 19.189 20.036 9.279 4.568 26.237 4.829 35.379.545 26.135-12.248 32.961-45.605 13.572-66.332-6.714-7.177-15.165-12.017-22.628-12.958a881 881 0 0 1-7.197-.934c-1.375-.189-5.355.259-8.844.995m-377.152 13.61c-18.172 9.356-5.402 37.278 13.271 29.018 15.003-6.637 11.782-29.191-4.411-30.878-3.251-.338-5.511.136-8.86 1.86m51.202-.058c-10.944 5.417-10.869 22.807.123 28.564 13.998 7.331 28.759-7.732 21.346-21.784-4.319-8.187-13.053-10.946-21.469-6.78m54.294-.71c-10.515 4.694-13.134 18.149-5.097 26.186 8.831 8.831 23.151 5.293 26.714-6.599 3.853-12.86-9.527-24.983-21.617-19.587m51.755.072c-13.427 5.836-12.862 24.45.91 29.96 13.844 5.54 26.434-8.914 19.585-22.483-3.87-7.668-12.67-10.878-20.495-7.477m-156.854 55.369c-15.664 7.294-10.562 30.609 6.698 30.609 9.166 0 14.948-5.437 15.607-14.676.885-12.403-11.258-21.077-22.305-15.933m0 54c-12.483 5.813-12.257 23.779.37 29.365 14.948 6.612 29.186-11.07 19.441-24.146-4.517-6.06-13.131-8.329-19.811-5.219M302 519.485c-8.813 1.758-20.755 6.504-31 12.319-11.168 6.339-35.447 20.519-56 32.706-28.379 16.828-28.306 16.802-48.958 17.517-23.735.823-29.789 3.62-36.257 16.757l-3.285 6.671-.309 61.022c-.374 74.061-.257 75.013 10.347 84.347 8.276 7.285 9.144 7.397 55.245 7.074 29.282-.206 42.058.052 45.493.918 2.626.662 14.776 5.542 27 10.843 45.941 19.927 61.41 26.619 67.724 29.303 3.575 1.52 23.825 10.303 45 19.519 63.111 27.466 75.027 32.265 86.609 34.876 28.743 6.48 57.475 3.055 83.542-9.959 9.614-4.799 68.154-38.195 154.349-88.053 6.6-3.817 21.225-12.272 32.5-18.789 46.081-26.632 51.83-31.943 56.615-52.306C797.756 653.862 771.082 622 738.5 622c-10.917 0-9.482-.539-102.5 38.501-62.082 26.056-71.089 29.408-82.765 30.803l-4.265.51 5.029-5.503c11.895-13.016 15.998-27.987 12.966-47.311-1.56-9.939-6.129-18.364-14.373-26.5-10.442-10.306-6.801-8.666-122.592-55.238-29.425-11.834-58.9-23.743-65.5-26.462-29.731-12.251-44.452-14.916-62.5-11.315m8.751 26.577c-10.274 1.669-11.647 2.378-65.769 33.95-50.897 29.69-49 28.94-73.232 28.971-16.714.021-17.714.57-17.809 9.767-.403 39.012.362 107.947 1.215 109.541 1.017 1.9 1.997 1.933 37.194 1.263 49.309-.939 43.383-2.279 103.65 23.447 15.125 6.457 56.75 24.234 92.5 39.506 84.127 35.937 85.059 36.242 107.5 35.187 19.448-.915 34.082-6.505 67-25.595 10.725-6.22 25.575-14.82 33-19.112s29.25-16.911 48.5-28.043a26673 26673 0 0 1 58-33.445 42114 42114 0 0 0 35.85-20.602c15.167-8.731 20.264-12.838 22.764-18.341 5.449-11.996-2.063-28.285-14.614-31.691-7.102-1.927-13.252-.478-31.643 7.456-83.465 36.007-130.615 54.795-144.857 57.721-14.275 2.933-34.867 2.371-49-1.337-8.275-2.171-131.517-50.694-145.772-57.393-10.718-5.037-12.395-18.474-3.038-24.345 6.572-4.124 9.183-3.328 72.31 22.051l58 23.317 9 .083c7.428.068 9.699-.296 13-2.08 13.406-7.248 19.423-24.8 13.001-37.926-4.837-9.886.843-7.221-114.501-53.726a18743 18743 0 0 1-61-24.733c-34.103-13.92-40.46-15.643-51.249-13.891M700.02 558.25c-10.981 5.611-12.261 19.888-2.454 27.368 8.106 6.183 21.498 2.777 24.469-6.224 1.58-4.786.73-12.876-1.704-16.218C718.007 559.983 710.606 556 707 556c-1.417 0-4.558 1.013-6.98 2.25"/></svg>