<svg xmlns="http://www.w3.org/2000/svg" width="1024" height="1024" viewBox="0 0 1024 1024"><path fill-rule="evenodd" d="M492 263.431c-11.266 3.135-17.963 8.075-26.319 19.416-10.36 14.06-64.979 89.206-78.503 108.006-10.759 14.957-12.625 17.098-13.514 15.5-2.956-5.313-14.962-20.445-19.137-24.12-16.442-14.473-40.501-14.571-56.793-.23-5.13 4.515-2.152.539-63.273 84.497-25.225 34.65-55.066 75.6-66.313 91-37.989 52.017-34.497 41.915-34.916 100.987-.363 51.035-.053 54.491 5.999 66.721 3.882 7.846 14.413 18.5 21.857 22.113 12.494 6.066-1.076 5.723 215.475 5.439l197.937-.26 6.273-2.897c13.189-6.091 23.649-22.309 21.809-33.816-1.52-9.508 2.114-4.341-69.483-98.787-18.971-25.025-45.737-60.35-59.479-78.5s-30.661-40.43-37.597-49.512l-12.61-16.512 14.362-9.803c9.68-6.608 14.748-9.506 15.544-8.89 1.705 1.32 31.18 25.499 37.681 30.911 9.157 7.623 12.381 9.39 18.141 9.939 7.283.695 8.362.036 34.688-21.157 12.281-9.887 23.319-18.597 24.528-19.356 2.056-1.291 4.375.004 35.671 19.915 42.726 27.184 42.257 26.924 48.574 26.947 7.076.025 10.673-2.664 17.777-13.291 9.939-14.868 9.436-17.895-6.634-39.97-34.862-47.89-123.828-166.095-129.097-171.527-11.518-11.871-28.06-16.822-42.648-12.763m3.204 32.199c-2.187 2.129-15.143 19.17-28.791 37.87-26.899 36.854-58.509 79.782-67.058 91.069-2.945 3.888-5.355 7.448-5.355 7.911 0 .627 7.001 10.521 11.572 16.353.144.184 8.286-5.166 18.095-11.889 28.71-19.678 30.578-19.971 46.563-7.3 3.998 3.17 10.195 8.056 13.77 10.859a2650 2650 0 0 1 16.688 13.254l10.188 8.158 23.158-18.549c23.784-19.052 28.908-22.322 34.966-22.322 5.012 0 8.581 1.888 36.466 19.282 13.732 8.566 25.14 15.402 25.351 15.19.524-.523.906-.005-53.253-72.156-26.366-35.123-51.635-68.81-56.154-74.86-10.499-14.056-12.199-15.609-17.758-16.236-4.139-.466-4.768-.216-8.448 3.366M319.288 403.75c-1.726 1.512-10.433 12.65-19.35 24.75-8.916 12.1-18.107 24.475-20.424 27.5s-16.065 21.7-30.552 41.5c-48.934 66.88-50.148 68.531-74.987 102-3.674 4.95-7.759 11.025-9.077 13.5l-2.398 4.5v44c0 43.135.042 44.079 2.153 48 2.632 4.892 5.469 7.551 11.347 10.637l4.5 2.363h194.391c176.862 0 194.482-.144 195.397-1.595 1.784-2.828-.059-6.124-12.033-21.521a7565 7565 0 0 1-22.421-29L494.442 616.5c-31.973-41.624-126.307-167.289-144.49-192.479C335.514 404.019 332.484 401 326.844 401c-3.394 0-5.147.638-7.556 2.75m392.732 74.002c-4.707 2.364-6.433 5.219-15.524 25.66-4.301 9.674-8.281 17.588-8.845 17.588-.563 0-5.472-2.079-10.909-4.62-8.635-4.037-10.508-4.561-14.823-4.146-7.268.698-11.919 6.023-11.919 13.646 0 2.498 7.95 38.037 10.893 48.695 1.232 4.462 1.092 4.42-7.768-2.325-13.116-9.984-15.31-11.241-19.625-11.242-6.163-.001-10.16 3.041-13.57 10.327l-2.942 6.287-7.244-1.271c-11.368-1.995-22.599-1.737-26.445.609-7.847 4.784-8.095 11.455-1.148 30.963l5.15 14.465-2.4 1.529c-4.359 2.776-9.76 8.674-10.446 11.407-2.164 8.622.767 12.005 33.511 38.686 11.806 9.619 22.89 18.854 24.631 20.521l3.164 3.03-1.85 9.47c-3 15.349-2.145 20.026 4.388 24.009 4.667 2.847 8.793 2.524 39.416-3.079 15.147-2.772 27.671-4.908 27.832-4.747s-.012 2.991-.386 6.289c-1.851 16.344 3.684 24.564 15.635 23.217 9.136-1.03 12.775-7.725 11.311-20.808-.517-4.626-.843-8.51-.723-8.63.121-.12 13.171 2.018 29.001 4.75 32.948 5.687 35.042 5.829 39.703 2.688 6.379-4.299 7.272-9.829 3.992-24.72-1.029-4.675-1.547-8.725-1.15-9 4.842-3.356 54.891-46.173 57.091-48.841 7.091-8.603 3.815-17.995-8.723-25.012-1.416-.792-1.002-2.555 3.464-14.773 7.63-20.877 7.744-22.45 2.097-28.881-4.054-4.618-8.543-5.743-17.942-4.497a876 876 0 0 1-12.97 1.616l-5.552.632-3.178-6.454c-6.462-13.127-12.7-13.178-29.92-.244-6.388 4.798-11.302 7.908-10.919 6.912.827-2.157 10.429-47.074 10.679-49.958.503-5.799-.204-7.882-3.939-11.618-5.615-5.614-11.033-5.472-24.553.644-9.585 4.336-11.482 4.537-11.55 1.218-.008-.415-4.026-9.018-8.927-19.118-8.636-17.793-9.049-18.429-13.316-20.494-5.345-2.588-8.189-2.673-12.752-.38m3.092 49.514c-9.1 23.757-13.971 27.819-27.292 22.758-2.86-1.087-5.335-1.843-5.498-1.679s2.397 12.296 5.69 26.961c3.293 14.666 5.988 28.151 5.988 29.967 0 9.698-8.766 17.32-18.82 16.363-5.873-.559-5.508-.327-24.961-15.823l-12.281-9.783-4.444 4.637-4.444 4.638-10.038-.611c-10.036-.612-10.038-.611-8.89 1.533 2.156 4.029 5.848 17.266 5.863 21.02.012 2.906-.789 4.637-3.567 7.712-1.971 2.181-3.322 4.388-3.003 4.904.319.515 9.869 8.475 21.222 17.687 31.997 25.965 32.744 26.94 30.272 39.506-.65 3.303-.982 6.204-.739 6.447s10.541-1.35 22.886-3.539c35.141-6.233 31.583-6.24 73.287.145 10.914 1.671 20.015 2.866 20.225 2.656s-.13-3.136-.756-6.502c-2.096-11.267-1.576-11.946 27.828-36.36l25.506-21.177-3.078-2.811c-5.983-5.465-6.34-9.592-1.964-22.726 1.706-5.123 2.931-9.487 2.721-9.697s-2.169.033-4.353.539c-2.185.507-6.612.932-9.84.945-5.525.023-6.1-.209-9.867-3.976-2.2-2.2-4.182-4-4.404-4s-5.689 4.199-12.148 9.331c-18.987 15.084-22.078 16.667-29.737 15.23-4.561-.855-11.012-6.626-12.523-11.202-1.49-4.516-1.008-7.632 5.751-37.142 3.059-13.356 5.319-24.527 5.022-24.824s-2.044.254-3.883 1.224c-2.007 1.06-5.632 1.788-9.071 1.824-7.681.079-10.093-2.433-17.215-17.933-3.03-6.596-5.858-12.101-6.283-12.234s-1.849 2.563-3.162 5.992"/></svg>