<svg xmlns="http://www.w3.org/2000/svg" width="1024" height="1024" viewBox="0 0 1024 1024"><path fill-rule="evenodd" d="M330 144.296c-15.986 4.579-28.281 17.166-32.467 33.239-1.054 4.046-1.533 10.664-1.533 21.175V214h-32.042c-36.122 0-42.518.766-54.458 6.519-15.293 7.369-26.04 19.607-32.873 37.433L174.5 263.5l-.262 239.256c-.292 266.414-.798 246.646 6.693 261.744 6.798 13.701 16.576 23.632 29.569 30.032 13.842 6.818 8.406 6.534 119.775 6.237 99.815-.267 100.6-.285 103.34-2.331 9.714-7.253 9.49-21.478-.436-27.65L429.5 768.5l-99-.5-99-.5-5.546-2.601c-7.914-3.712-12.437-8.104-16.183-15.713l-3.271-6.643-.263-183.272L205.974 376H799.97l.265 93.427c.263 92.593.283 93.452 2.327 96.188 7.511 10.06 22.829 9.511 27.815-.996 2.476-5.218 2.483-291.498.007-301.555-5.172-21.011-21.294-38.309-42.483-45.583l-8.401-2.884-33.25-.39-33.25-.39v-15.198c0-10.501-.479-17.038-1.55-21.149-8.953-34.373-50.737-46.054-75.421-21.084-10.933 11.059-13.158 17.575-13.783 40.364l-.473 17.25H386v-16.532c0-18.358-1.299-24.484-7.133-33.641-9.911-15.558-31.965-24.372-48.867-19.531m5.27 32.132c-7.424 3.353-7.328 2.617-7.033 53.4l.263 45.327 3.735 3.423c7.609 6.971 19.518 3.654 21.816-6.078 1.078-4.569 1.081-77.256.003-85.309-1.293-9.657-10.081-14.693-18.784-10.763m325.986.217c-7.36 3.628-7.256 2.879-7.256 52.075v43.984l2.28 3.384c4.765 7.07 14.23 8.221 20.485 2.49l3.735-3.423.28-44.613c.253-40.281.115-44.961-1.42-48.196-3.175-6.69-11.06-9.174-18.104-5.701m-432.988 71.31c-8.949 3.221-15.675 9.376-19.662 17.994-1.998 4.317-2.122 6.416-2.423 40.801l-.317 36.25h594.225l-.295-37.25-.296-37.25-2.946-5.319c-3.588-6.476-8.174-10.64-15.508-14.08L775.5 246.5l-31.25-.29-31.25-.291v14.831c0 22.133-3.375 31.911-14.5 42.007-22.213 20.158-58.37 13.69-71.309-12.757-4.179-8.54-5.191-14.516-5.191-30.636V246H386v15.411c0 21.776-3.059 30.758-13.942 40.938-17.343 16.223-43.94 16.311-61.76.207C299.406 292.712 296 282.764 296 260.79V246l-31.25.036c-28.028.032-31.789.23-36.482 1.919M588 499.44c-76.497 10.984-133.858 65.803-148.647 142.06-2.454 12.651-2.447 44.262.011 57.5q12.06 64.934 60.636 105.463c61.428 51.252 150.861 53.255 215.161 4.819 66.971-50.449 89.062-137.262 53.891-211.782-23.914-50.669-71.414-86.372-129.198-97.109-11.569-2.15-39.889-2.669-51.854-.951"/></svg>