<svg xmlns="http://www.w3.org/2000/svg" width="1024" height="1024" viewBox="0 0 1024 1024"><path fill-rule="evenodd" d="M851.408 195.99c-39.077 7.829-100.254 43.291-149.357 86.578-7.132 6.287-13.212 11.432-13.51 11.432-.297 0-.541-9.019-.541-20.042 0-28.415-2.354-38.291-12.52-52.539-5.253-7.361-16.347-16.469-25.074-20.587-13.127-6.192-.904-5.886-223.16-5.596L224.5 195.5l-7.962 2.814c-19.29 6.818-32.677 20.625-39.152 40.38L174.5 247.5v532l3.06 8.544c6.592 18.407 19.309 31.539 37.008 38.218l5.932 2.238 206.304.259c229.946.29 212.538.808 227.072-6.757 14.395-7.492 24.924-19.704 30.737-35.649l2.862-7.853.293-90.026.292-90.026 5.22-1.809c9.45-3.274 31.025-14.346 42.22-21.666 40.569-26.529 69.902-61.625 87.895-105.164 8.948-21.654 6.524-32.45-8.52-37.935-3.258-1.188-5.8-2.275-5.649-2.417s3.968-1.678 8.483-3.414c20.583-7.915 36.283-23.501 43.807-43.49 2.247-5.969 11.016-36.314 34.839-120.553 12.298-43.485 12.229-43.057 8.278-51.541-6.721-14.434-26.527-19.818-53.225-14.469m9.661 30.098c-35.575 6.979-97.18 46.176-154.35 98.208-76.841 69.935-121.862 132.387-130.297 180.743-2.8 16.058-1.223 37.431 3.66 49.571l1.251 3.111 13.624-22.611c49.799-82.649 87.495-132.448 135.203-178.61 20.189-19.535 50.81-45.584 65.773-55.953 11.142-7.722 26.067-.452 26.067 12.697 0 7.135-1.846 9.53-17.246 22.382-20.774 17.337-35.078 30.543-58.815 54.297-41.269 41.3-62.747 68.426-96 121.245-16.767 26.632-39.216 64.888-38.499 65.606.258.257 6.226.45 13.264.429 54.609-.166 120.028-39.065 153.614-91.342 5.347-8.322 15.137-26.787 14.494-27.337-.171-.147-5.3-2.361-11.396-4.919-21.035-8.829-27.705-14.921-26.042-23.786 1.579-8.417 2.756-9.268 39.939-28.91 19.145-10.113 27.23-15.74 31.133-21.666 1.615-2.453 7.797-22.178 17.94-57.243 13.554-46.856 26.799-91.961 28.117-95.75.505-1.455-4.482-1.525-11.434-.162m-633.665 3.662c-7.407 2.672-12.848 7.418-16.101 14.042L208.5 249.5v524l2.79 5.682c3.161 6.437 8.006 11.134 14.659 14.212l4.551 2.106h402l5-2.664c6.283-3.347 11.794-9.016 14.423-14.836 1.991-4.407 2.034-6.22 2.055-87.68l.022-83.18-3.25 1.022c-6.465 2.034-38.666 2.269-49.269.36-5.362-.965-10.032-1.357-10.491-.881-1.129 1.173-18.329 32.659-37.561 68.761-8.761 16.447-17.081 31.141-18.49 32.654-5.776 6.204-16.41 6.023-22.97-.391-6.948-6.792-6.859-13.057.383-26.92 18.848-36.085 30.166-57.53 38.912-73.733 9.677-17.928 9.932-18.564 8.418-21-24.188-38.916-25.579-82.383-4.145-129.546 14.309-31.484 44.797-72.867 85.704-116.329l12.836-13.637-.289-39.5-.288-39.5-2.712-4.613c-3.29-5.596-8.742-10.537-14.381-13.031-6.562-2.903-401.068-3.97-409.003-1.106m71.567 147.334c-12.039 7.014-11.205 24.272 1.45 30.02 3.873 1.759 8.645 1.853 94.617 1.874l90.538.022 4.454-2.25c11.556-5.838 12.422-21.173 1.647-29.158-4.429-3.282-187.118-3.763-192.706-.508m1.479 101.323c-12.376 5.39-13.347 23.519-1.65 30.793l3.7 2.3H373c69.317 0 70.559-.034 73.997-2.054 12.148-7.137 11.13-25.602-1.715-31.075-4.664-1.987-140.263-1.954-144.832.036m2.824 115.67c-15.273 3.129-17.446 24.693-3.219 31.951 5.658 2.887 124.221 3.088 129.92.22 11.751-5.913 12.609-23.722 1.441-29.923-3.881-2.155-4.46-2.177-64.621-2.5-33.388-.179-61.972-.065-63.521.252"/></svg>