<svg xmlns="http://www.w3.org/2000/svg" width="1024" height="1024" viewBox="0 0 1024 1024"><path fill-rule="evenodd" d="M408.5 194.136c-10.661 1.297-20.364 5.96-27.17 13.058-3.669 3.827-1.522.3-128.023 210.306-27.498 45.65-52.081 86.415-54.629 90.589-8.541 13.993-10.882 20.081-11.431 29.737-1.164 20.461 9.535 38.967 27.428 47.441l6.825 3.233 113.614.267 113.614.266.7 8.734c5.606 69.922 54.207 131.153 160.49 202.197 29.61 19.792 33.027 19.424 70.853-7.628 83.049-59.394 120.657-100.86 137.712-151.836 9.218-27.552 9.699-34.087 9.326-126.579l-.309-76.579-3.036-4.921c-4.615-7.481-10.207-10.293-30.616-15.395-50.101-12.524-102.129-33.453-148.042-59.554-18.417-10.469-21.965-10.273-43.426 2.397-21.47 12.676-42.39 23.522-43.405 22.503-.962-.965-31.323-49.707-68.975-110.731-36.12-58.542-39.32-63.252-46.783-68.872-9.52-7.17-21.749-10.21-34.717-8.633m-1.166 31.149c-3.532 1.981-3.872 2.525-61.015 97.717C270.293 449.65 250.743 482.091 235.134 507.5 218.484 534.604 217 537.424 217 541.958c0 5.908 3.807 12.193 8.962 14.792l4.462 2.25h218.502l.287-59.75.287-59.75 2.352-4.777c3.322-6.746 6.402-8.662 25.933-16.133 14.896-5.697 52.043-21.19 53.061-22.13.191-.176-.979-2.264-2.599-4.64-2.672-3.918-47.863-76.255-69.819-111.757-36.252-58.622-34.275-56.094-43.826-56.028-2.806.02-6.077.582-7.268 1.25m1.922 96.36c-7.452 3.674-7.193 1.409-7.289 63.614-.075 48.305.116 56.001 1.458 58.596 5.466 10.57 22.699 10.271 27.188-.472 2.344-5.609 2.012-110.633-.365-115.363-3.656-7.279-13.25-10.192-20.992-6.375M607 392.073c-33.424 19.707-65.2 34.757-107.781 51.05l-19.281 7.377.341 75.5c.331 73.23.406 75.779 2.504 84.77 11.71 50.204 40.436 86.794 107.717 137.208C610.812 763.198 637.442 781 639.899 781c3.454 0 48.071-31.362 69.601-48.925 45.23-36.895 67.343-64.261 79.5-98.388 8.733-24.516 9.154-29.953 8.799-113.605l-.299-70.419-13.5-3.358c-49.186-12.235-102.362-33.418-144-57.365-6.875-3.954-12.95-7.321-13.5-7.482s-9.325 4.615-19.5 10.615m-195.316 92.343c-16.98 6.201-12.677 31.155 5.355 31.053 9.469-.054 15.316-6.133 15.359-15.969.049-11.283-10.362-18.864-20.714-15.084m299.733 11.005c-1.696.738-5.162 3.758-7.703 6.71-3.553 4.128-81.38 99.933-87.486 107.694-1.112 1.414-4.17-1.27-24.5-21.507-12.775-12.717-24.668-23.841-26.428-24.72-12.919-6.45-26.09 7.281-19.368 20.192 2.852 5.477 58.689 60.775 63.286 62.674 4.985 2.06 9.576 1.935 14.123-.383 4.574-2.332 8.354-6.56 32.805-36.693a9183 9183 0 0 1 20-24.543c27.037-33.044 53.524-66.28 55.104-69.143 6.812-12.343-6.59-26.048-19.833-20.281"/></svg>