<svg xmlns="http://www.w3.org/2000/svg" width="1024" height="1024" viewBox="0 0 1024 1024"><path fill-rule="evenodd" d="M222.601 197.594c-20.107 4.865-36.846 21.589-42.087 42.047-1.366 5.33-1.508 34.659-1.275 263.927L179.5 761.5l2.579 6.62c8.102 20.801 24.453 35.226 44.666 39.406 6.352 1.314 41.326 1.466 284 1.236L787.5 808.5l5.775-2.205c21.46-8.193 34.24-21.261 41.363-42.295 1.79-5.288 1.873-13.953 2.144-225 .206-160.628-.024-221.337-.857-226.348-3.017-18.146-16.603-34.531-34.689-41.836L795.5 268.5 645 268l-150.5-.5-5-2.606c-3.794-1.977-9.451-7.526-23.45-23-32.874-36.339-37.693-40.334-53.51-44.372-8.605-2.197-180.831-2.132-189.939.072m7.899 28.794c-11.758 3.751-18.864 11.533-21.378 23.411-1.213 5.729-1.618 83.167-.491 93.942l.631 6.035 7.119-3.826c4.333-2.329 9.662-4.256 13.619-4.924 4.637-.782 85.322-1.015 281.5-.811l275 .285 6.126 2.629c3.369 1.447 7.869 3.815 10 5.264l3.874 2.635.278-14.663c.361-19.071-.825-23.542-8.196-30.914-9.15-9.149 4.2-8.451-161.553-8.451-158.414 0-150.665.263-162.592-5.513-6.202-3.003-13.254-10.124-45.32-45.766-9.776-10.865-14.663-15.499-18.457-17.5l-5.16-2.721-85.5-.194c-67.017-.153-86.365.081-89.5 1.082m3.286 145.637c-10.771 1.825-20.043 9.448-23.482 19.304-1.713 4.909-1.804 14.233-1.804 184.192v179.022l3.295 6.693c3.513 7.135 7.716 11.291 15.174 15.007l4.531 2.257 272.941.259c299.29.284 279.64.661 288.918-5.542 2.278-1.522 5.607-4.951 7.4-7.619 6.718-10 6.306 3.264 6.01-193.668L806.5 393.5l-2.137-4.622c-3.06-6.617-8.569-12.273-14.621-15.008l-5.242-2.37-273-.137c-150.15-.075-275.121.223-277.714.662m269.134 46.964c-10.267 1.785-18.537 8.572-23.799 19.53-1.843 3.84-7.829 17.106-13.301 29.481-14.555 32.916-11.959 31.227-49.32 32.092-31.478.729-34.528 1.425-43.952 10.039-7.958 7.272-11.052 14.133-10.991 24.369.089 14.945 2.407 17.93 36.443 46.938 10.725 9.141 19.934 17.76 20.465 19.153.742 1.948-.621 10.492-5.893 36.945-7.614 38.206-7.806 41.378-3.092 51.012 5.954 12.169 21.733 19.194 35.02 15.59 3.545-.961 27.087-14.213 51.5-28.989 13.154-7.962 12.004-8.239 43.77 10.558 14.6 8.639 28.836 16.499 31.637 17.467 18.563 6.417 37.931-5.682 39.281-24.538.346-4.827-.961-13.058-6.124-38.592-6.351-31.406-7.21-37.196-5.989-40.379.316-.824 10.554-9.973 22.75-20.331 12.196-10.359 23.693-20.409 25.547-22.334 12.166-12.627 11.484-34.043-1.464-45.978-9.998-9.216-16.493-10.588-51.839-10.952-29.711-.306-27.337 1.723-44.569-38.07-12.819-29.603-12.976-29.894-18.98-35.292-7.237-6.507-17.408-9.404-27.1-7.719m3.215 27.761c-.514.962-6.633 14.537-13.599 30.165-15.945 35.777-15.913 35.715-20.891 40.919-9.4 9.829-15.569 11.166-51.503 11.166-40.137 0-39.936-.728-7.642 27.673 40.028 35.204 38.513 30.705 27.93 82.91-6.938 34.223-7.225 36.954-3.875 36.859 1.131-.033 13.506-6.842 27.5-15.132 35.622-21.101 34.8-20.718 44.445-20.702 10.118.017 9.589-.225 42.675 19.478 28.21 16.798 30.16 17.798 31.258 16.022.363-.587-2.553-17.163-6.48-36.837-8.417-42.171-8.446-44.004-.892-56.07.791-1.265 13.026-12.27 27.189-24.457 35.454-30.507 35.746-29.447-8.25-29.918l-30.5-.326-5.958-2.79c-13.477-6.31-14.573-7.923-31.36-46.106-7.229-16.443-13.838-30.956-14.686-32.25-1.826-2.787-4.06-3.039-5.361-.604"/></svg>