<svg xmlns="http://www.w3.org/2000/svg" width="1024" height="1024" viewBox="0 0 1024 1024"><path fill-rule="evenodd" d="M675.618 262.066c-37.835 5.247-70.823 34.921-81.079 72.934-2.657 9.847-3.228 34.012-1.075 45.5 3.45 18.408 13.14 36.721 26.847 50.738 51.054 52.207 141.956 31.996 165.481-36.793 5.856-17.125 6.879-44.28 2.27-60.271-13.879-48.157-62.114-79.089-112.444-72.108m-378.109 18.595c-31.887 6.831-57.688 35.263-62.472 68.839-1.386 9.725-1.375 200.357.012 211.416C240.403 603.62 273.585 633 316.458 633H327v76.641l2.75 5.43c4.487 8.858 15.638 12.883 23.883 8.619 2.492-1.289 31.175-26.45 83.443-73.196 7.383-6.604 14.921-13.241 16.751-14.75l3.326-2.744h113.293c124.094 0 122.843.054 137.459-5.895 18.777-7.641 34.369-21.879 42.847-39.126 8.68-17.656 8.533-16.59 8.985-65.262l.398-42.782-3.468-3.468c-3.87-3.87-7.777-4.496-12.576-2.014-4.847 2.506-5.023 4.126-5.316 49.047l-.275 42-2.894 7c-7.465 18.059-19.51 29.573-38.584 36.88-5.484 2.101-6.343 2.119-125.522 2.618-112.766.472-120.197.61-123.27 2.288-1.798.982-11.698 9.25-22 18.374a59293 59293 0 0 1-34.708 30.714c-8.788 7.769-22.288 19.888-30 26.93L347.5 703.108l-.5-40.304c-.47-37.893-.618-40.5-2.478-43.575-3.522-5.825-8.185-7.227-24.088-7.244-16.289-.017-23.317-1.394-33.688-6.602-14.182-7.122-26.8-23.612-30.901-40.383-1.985-8.117-1.978-209.926.007-218 5.474-22.26 22.441-39.917 44.135-45.929 7.381-2.046 9.065-2.071 137.32-2.071h129.847l2.923-2.923c4.648-4.648 3.506-12.69-2.222-15.652-4.231-2.188-260.076-1.965-270.346.236m380.991 1.991c-31.442 5.006-56.668 27.853-64.544 58.455-2.821 10.958-2.36 32.687.902 42.564 17.614 53.34 78.974 73.455 124.648 40.862 35.134-25.071 42.147-78.18 14.789-111.998-10.285-12.713-27.21-23.804-42.795-28.043-5.934-1.614-27.032-2.791-33-1.84m4.806 28.76-2.806 2.412-.3 25.26c-.426 35.882-1.91 33.916 25.599 33.916h19.355l2.923-2.923c2.161-2.161 2.923-3.873 2.923-6.566 0-8.402-3.802-10.511-18.95-10.511H701v-18.05c0-19.082-.709-22.653-4.945-24.92-3.539-1.895-9.717-1.225-12.749 1.382M546.973 419.635c-1.36.899-20.805 19.904-43.21 42.232l-40.737 40.598-21.763-21.619c-11.97-11.891-22.815-21.939-24.1-22.328-8.081-2.448-15.801 4.988-13.239 12.752 1.034 3.133 46.25 49.257 52.049 53.094 3.434 2.273 9.815 2.056 14.027-.475 1.925-1.158 23.637-22.195 48.25-46.751 48.439-48.328 46.869-46.393 43.555-53.666-2.296-5.039-10-7.032-14.832-3.837"/></svg>