<svg xmlns="http://www.w3.org/2000/svg" width="1024" height="1024" viewBox="0 0 1024 1024"><path fill-rule="evenodd" d="M328.411 189.484c-17.422 3.791-32.956 17.942-37.813 34.448-1.444 4.907-1.598 27.743-1.598 236.644 0 227.815.029 231.308 1.985 237.641 4.418 14.302 15.523 26.199 29.87 32.001l5.645 2.282 102.321.5 102.321.5.449 19.957c.48 21.323.814 22.797 5.924 26.145 1.368.896 4.652 1.662 7.301 1.702 4.595.069 5.815-.604 26.706-14.739 12.04-8.146 23.154-15.744 24.696-16.885l2.806-2.074 20.738 14.037c11.406 7.719 22.803 15.233 25.326 16.696 8.76 5.081 17.953 2.942 20.922-4.866.545-1.432.99-11.078.99-21.435v-18.832l16.327-.353 16.327-.353 8.769-4.346c14.986-7.427 24.896-19.726 28.108-34.884 1.789-8.442 2.204-451.988.434-463.27-3.069-19.556-21.003-37.291-41.399-40.939-9.544-1.707-359.217-1.304-367.155.423m1.741 22.512c-7.728 2.78-13.502 7.936-17.112 15.28l-3.06 6.224.26 228.5.26 228.5 2.491 4.877c1.369 2.682 4.432 6.586 6.805 8.675 8.325 7.327 2.169 6.948 112.776 6.948h99.215l-.201-32.355-.201-32.355-5.153-5.153c-28.481-28.481-35.629-77.444-16.666-114.159 13.273-25.7 36.549-44.333 65.192-52.187 11.512-3.157 35.257-3.132 47.458.049 45.067 11.75 75.089 48.497 76.518 93.66.88 27.819-6.965 49.263-25.852 70.665L667 645.83v65.358l14.25-.367c16.674-.429 19.561-1.48 27.103-9.868 8.332-9.268 7.647 12.281 7.647-240.597V235.075l-2.119-5.665c-2.891-7.726-9.622-14.5-17.169-17.279L690.925 210l-177.713.036c-172.804.035-177.86.089-183.06 1.96m46.263 76.422c-6.601 2.881-9.084 9.454-5.898 15.615 3.305 6.392-6.188 6.014 143.931 5.728l136.507-.261 2.597-2.597c5.27-5.271 3.988-14.381-2.569-18.254-3.803-2.247-269.438-2.47-274.568-.231m-.963 69.988c-8.008 3.488-8.636 15.911-.98 19.399 1.981.903 29.138 1.195 111.152 1.195h108.53l2.923-2.923c5.427-5.427 3.503-14.683-3.676-17.683-4.831-2.018-213.313-2.008-217.949.012M372.4 429.4c-2.787 2.787-3.4 4.157-3.4 7.6s.613 4.813 3.4 7.6l3.4 3.4h69.635c76.654 0 72.803.309 76.116-6.099 1.851-3.578 1.832-6.259-.068-9.934-3.188-6.164-.656-5.967-76.533-5.967H375.8zM592 494.68c-40.983 4.218-71.02 36.893-70.993 77.23.039 58.845 60.095 95.735 112.993 69.408 19.567-9.739 35.503-29.839 41.01-51.728 8.77-34.858-10.117-72.448-44.206-87.983-10.935-4.983-28.034-8.036-38.804-6.927m-3 30.446c-12.933 2.097-26.95 12.473-33.247 24.61-14.337 27.637-.844 60.496 28.502 69.41 9.157 2.781 24.4 2.282 33.067-1.083 32.604-12.659 41.191-55.12 16.123-79.721-11.991-11.768-26.595-16.111-44.445-13.216m0 22.351c-13.056 4.227-20.597 19.079-16.625 32.742 5.763 19.824 31.865 26.387 46.548 11.704 12.9-12.9 9.223-34.655-7.289-43.12-5.292-2.713-16.351-3.361-22.634-1.326m-36 159.645c0 36.517.258 45.847 1.25 45.271.688-.399 9.125-6.211 18.75-12.915 21.662-15.089 21.104-14.8 27.53-14.267 5.499.456 4.59-.103 38.22 23.503l6.25 4.387v-92.135l-4.75 2.401c-23.478 11.863-55.43 12.186-80.511.814L553 661.125z"/></svg>