<svg xmlns="http://www.w3.org/2000/svg" width="1024" height="1024" viewBox="0 0 1024 1024"><path fill-rule="evenodd" d="M408 205.659c-11.455 1.771-24.383 7.347-32.921 14.199-13.816 11.088-20.217 21.822-31.207 52.332l-6.372 17.69-53 .349c-58.755.388-57.402.251-72.44 7.344-19.348 9.126-33.913 27.454-38.482 48.427-1.487 6.821-1.609 24.972-1.356 200.5l.278 193 2.33 7c7.035 21.131 24.49 38.408 46.67 46.192l8 2.808 209.5.5 209.5.5 8.724 3.672c48.524 20.425 106.856 7.963 145.776-31.145 24.291-24.407 37.151-50.288 40.512-81.527.355-3.3 1.738-8.261 3.073-11.024 5.651-11.692 5.484-6.082 5.158-173.265-.283-144.779-.405-154.06-2.105-159.711-7.359-24.468-25.019-42.298-50.138-50.622-6.91-2.29-7.685-2.324-60.108-2.655l-53.108-.334-6.276-17.695c-13.372-37.698-22.62-50.512-43.508-60.287-15.21-7.118-11.611-6.923-124.708-6.771-55.711.075-102.417.31-103.792.523m-2.936 35.479c-5.305 1.689-7.506 3.131-12.525 8.205l-6.089 6.157-9.345 26c-11.331 31.525-12.331 33.719-17.074 37.475-6.39 5.061-5.934 5.025-62.96 5.025-31.815 0-55.999.411-59.185 1.005-13.083 2.442-24.457 11.413-29.155 22.995l-2.231 5.5V542c0 177.772.101 188.827 1.776 194.245 3.046 9.848 13.517 20.508 23.547 23.971 2.908 1.004 42.002 1.325 187.021 1.537l183.345.268-4.191-4.76c-2.306-2.619-6.023-7.593-8.262-11.054-2.996-4.633-4.488-6.121-5.653-5.642-83.619 34.388-185.047 5.743-242.782-68.565-54.264-69.841-59.107-172.72-11.58-246 41.71-64.311 122.235-103.719 198.279-97.035 107.943 9.487 186.944 85.607 197.156 189.966l1.159 11.848 8.093 1.719c31.102 6.609 62.46 26.521 78.319 49.732l4.773 6.985.274-113.857c.307-127.707.545-122.918-6.646-134.033-4.285-6.623-8.645-10.272-16.893-14.137L788.5 324.5l-59-.5-59-.5-3.771-2.345c-6.188-3.847-8.347-7.803-16.786-30.751-4.43-12.047-9.181-24.909-10.558-28.581-3.321-8.856-8.776-14.906-17.166-19.036l-6.676-3.287-102.021-.206c-100.368-.202-102.126-.172-108.458 1.844M503.5 362.631c-97.732 6.714-169.493 78.364-172.242 171.974-1.316 44.789 10.133 82.045 35.567 115.738l6.675 8.842.646-8.842c1.774-24.299 11.713-41.564 33.054-57.42 13.111-9.741 40.629-21.637 60.052-25.961l5.751-1.281-3.789-1.696c-12.24-5.48-25.863-24.123-31.916-43.678-3.902-12.604-4.185-48.015-.486-60.794 19.456-67.214 104.761-80.231 140.389-21.422 8.462 13.969 11.828 26.89 12.481 47.909.776 25.007-3.389 41.424-14.862 58.578-5.041 7.536-17.976 20.422-20.501 20.422-.79 0-1.159.45-.819 1s1.69 1 3.001 1c3.509 0 24.788 6.6 33.893 10.512l7.894 3.392 2.09-2.702c13.316-17.212 37.229-33.398 60.622-41.033 9.439-3.081 22.945-6.154 27.083-6.162 4.841-.009 4.739.342 3.255-11.249-7.852-61.333-42.347-110.265-97.006-137.608-26.87-13.441-63.799-21.377-90.832-19.519m-.5 72.731c-15.504 3.369-28.281 15.228-33.105 30.729-2.792 8.97-2.738 35.969.09 45.126 3.96 12.821 12.29 22.677 23.662 27.998 25.195 11.791 53.622-2.114 60.82-29.75 2.071-7.952 2.064-32.588-.013-41.397-5.441-23.084-28.443-37.704-51.454-32.706M682.5 566.12c-17.875 4.107-35.234 13.223-49.969 26.239-7.834 6.922-18.909 20.255-18.211 21.927.279.668 5.562 7.064 11.739 14.214s13.804 16.213 16.946 20.139l5.714 7.139 19.391-42.498c24.702-54.142 22.26-48.301 20.143-48.18-.964.056-3.553.514-5.753 1.02m38.164 2.05c-.786 1.832-4.803 10.755-8.927 19.83-10.143 22.322-12.093 26.978-11.53 27.54.263.264 22.184.363 48.713.22l48.233-.26-5.251-7c-16.693-22.254-42.412-39.096-65.605-42.96-4.061-.676-4.252-.587-5.633 2.63M491 597.052c-33.508 4.161-66.88 18.652-76.741 33.324-5.514 8.205-6.259 12.517-6.259 36.228v21.24l4.061 3.476c5.178 4.432 26.882 15.626 37.939 19.567 35.208 12.548 75.751 13.481 111.798 2.571 4.786-1.448 9.025-2.939 9.42-3.313s-.263-5.172-1.462-10.663c-1.87-8.563-2.185-13.18-2.218-32.482-.041-24.392 1.28-32.844 7.872-50.358l2.549-6.77-5.446-2.409c-19.61-8.672-57.029-13.452-81.513-10.411m111.601 48.729c-4.781 15.983-2.575 44.852 4.8 62.839 2.619 6.388 9.039 17.916 10.469 18.8.804.496 39.813-13.981 43.404-16.109.825-.489-8.631-11.574-35.243-41.311-9.106-10.175-17.987-20.174-19.736-22.219-2.604-3.046-3.273-3.408-3.694-2m75.536 13.741-7.364 15.53 9.364 12.477 9.363 12.477 14.925-.253 14.925-.253 8.773-12.5 8.772-12.5-7.866-15-7.867-15-17.831-.254-17.831-.254zM753 644.434c0 .239 8.15 17.226 18.11 37.75 9.961 20.524 18.742 38.778 19.513 40.566 1.95 4.515 2.462 4.225 7.212-4.076 11.473-20.053 15.85-47.394 11.118-69.458L807.834 644h-27.417c-15.079 0-27.417.195-27.417.434m-10.324 72.483C731.695 734.114 708 772.871 708 773.636c0 1.282 17.653-.505 26.021-2.634 14.212-3.616 35.619-15.295 37.627-20.527.272-.71-4.454-11.183-10.503-23.274l-10.998-21.984zM671 739.266c-16.225 6.068-29.676 11.179-29.892 11.358-1.673 1.392 16.872 13.143 25.997 16.474 10.517 3.838 10.239 3.911 14.529-3.848 2.053-3.712 7.258-13.005 11.566-20.65s7.713-14.005 7.566-14.134c-.146-.128-13.541 4.732-29.766 10.8"/></svg>