<svg xmlns="http://www.w3.org/2000/svg" width="1024" height="1024" viewBox="0 0 1024 1024"><path fill-rule="evenodd" d="M482.5 156.115C312.885 168.965 179.964 292.73 155.595 460.5c-10.942 75.34 3.946 158.153 40.063 222.833 75.771 135.696 225.528 207.113 379.881 181.159 72.777-12.236 137.637-45.849 191.019-98.992 62.441-62.162 96.554-135.087 104.505-223.407 1.522-16.907.668-63.327-1.436-78.093C850.849 332.255 769.966 229.318 647 180.67c-51.873-20.522-107.712-28.857-164.5-24.555m3.5 33.878C360.188 200.162 254.859 277.141 208.23 393c-42.119 104.652-23.46 229.687 47.595 318.94l7.521 9.448 154.577-155.051c85.017-85.278 163.083-163.636 173.479-174.13l18.902-19.08-3.31-2.813c-8.726-7.418-13.852-9.697-27.89-12.4-10.34-1.991-13.657-5.869-16.093-18.815-4.968-26.401-29.402-43.755-59.511-42.266-6.151.304-6.776 1.095-4.513 5.711 5.484 11.188 5.433 10.42 5.774 86.406l.316 70.45-15.777 15.8c-8.677 8.69-16.007 15.8-16.288 15.8-.282 0-.512-37.238-.512-82.75V325.5l-2.277-5.631c-6.533-16.152-29.95-26.642-48.961-21.933-38.767 9.604-53.854 53.305-28.186 81.648 7.578 8.368 8.899 14.189 4.65 20.494-14.751 21.89-44.764-5.358-48.345-43.892-.754-8.113-.62-8.053-8.881-3.936-44.543 22.199-48.816 80.336-7.525 102.368 11.29 6.024 14.684 14.726 9.202 23.596-6.044 9.779-19.679 8.452-36.499-3.55-8.174-5.833-18.145-17.678-21.019-24.968-.615-1.561-4.674 3.128-9.146 10.566-11.169 18.577-7.937 39.632 8.556 55.738 9.838 9.606 10.57 16.102 2.799 24.838-15.021 16.885-14.103 41.593 2.154 57.968 6.322 6.369 12.863 9.861 22.069 11.78 13.547 2.825 15.908 5.568 16.213 18.843l.196 8.518-11.454 11.497c-10.503 10.542-11.595 11.369-13.147 9.965-2.134-1.931-3.899-8.818-3.899-15.211v-4.917l-6.351-2.085c-24.03-7.888-42.555-30.372-47.235-57.328-2.541-14.64-.301-31.815 5.562-42.639l2.913-5.379-3.327-4.675c-17.635-24.779-17.802-61.296-.396-86.505 4.411-6.387 13.017-15.634 17.862-19.19l4.972-3.65v-11.457c0-28.725 10.639-50.645 33.491-69.001 12.438-9.991 35.266-20.357 44.871-20.376 1.645-.004 3.002-1.687 5.883-7.299 19.53-38.046 67.427-55.572 106.558-38.99l8.304 3.518 5.837-2.619c13.086-5.873 31.592-8.665 44.122-6.658 32.451 5.199 59.178 26.983 68.477 55.812l2.563 7.945 5.497 1.231c8.68 1.942 20.771 8.547 27.962 15.274l6.438 6.022 43.248-43.734c23.787-24.053 43.36-44.243 43.497-44.866.934-4.271-50.648-35.964-76.748-47.155-46.609-19.984-105.923-29.612-157-25.484m213.165 143.342-47.327 47.335 2.185 7.97 2.184 7.97 6.956 1.792c41.192 10.611 68.116 61.41 53.77 101.445-1.114 3.109-2.263 6.365-2.552 7.234-.37 1.114 2.116 3.541 8.409 8.209 50.669 37.583 67.485 113.132 37.969 170.581-16.132 31.399-44.921 57.309-76.303 68.671-17.913 6.486-26.365 7.851-48.956 7.908-18.67.047-20.698-.132-30.5-2.691-27.124-7.08-48.877-19.303-67.013-37.656-57.99-58.682-53.66-153.489 9.361-204.978 38.074-31.107 83.883-40.127 128.411-25.284l11.259 3.754.985-3.548c1.482-5.334 1.196-19.849-.525-26.587-5.438-21.303-19.697-34.371-41.478-38.015-13.371-2.237-18.072-5.831-20.531-15.695-.377-1.512-.975-2.75-1.329-2.75-1.083 0-266.59 265.883-266.048 266.426 1.331 1.33 12.124 5.482 18.171 6.989 6.88 1.714 21.795 2.308 27.237 1.084 16.35-3.678 29.468-11.118 39.554-22.436 7.567-8.49 10.174-10.065 16.646-10.056 5.793.008 9.758 2.356 12.987 7.689 4.847 8.007 1.77 16.849-9.993 28.713-31.083 31.352-80.722 37.984-119.384 15.951-4.24-2.416-8.046-4.273-8.457-4.127-.411.147-11.602 11.042-24.869 24.21-22.945 22.774-24.03 24.02-22.215 25.5 43.005 35.086 69.002 50.7 109.731 65.902 160.94 60.074 342.414-14.095 411.903-168.348 48.629-107.947 34.601-235.957-36.195-330.283C765.651 306.146 748.32 286 747.216 286c-.398 0-22.021 21.301-48.051 47.335m-283.769 82.094c-7.258 3.16-10.415 13.206-6.397 20.355 7.923 14.097 29.334 8.727 29.334-7.357 0-10.788-12.169-17.685-22.937-12.998m-14.344 61.969c-8.993 3.249-12.43 14.889-6.877 23.287 3.027 4.577 2.826 7.513-1.026 15.038-6.22 12.149-19.263 18.277-38.903 18.277h-8.481l-3.8 3.799c-4.404 4.404-5.639 8.984-4.032 14.951 2.53 9.395 9.671 12.861 24.567 11.921 31.996-2.017 57.741-22.523 63.039-50.208 4.853-25.369-7.038-43.369-24.487-37.065m225.584 40.815c-15.177 1.375-30.469 6.415-43.717 14.407l-7.58 4.573 10.046 9.797 10.046 9.797 4.004-3.427c9.325-7.982 20.701-10.863 32.784-8.301 3.455.733 12.131 1.357 19.281 1.387 19.038.079 21.535 1.415 42.944 22.982 23.059 23.229 26.347 30.366 23.511 51.024-.97 7.067-1.024 11.238-.217 16.985 1.666 11.876-.43 19.019-7.989 27.219l-4.025 4.368 8.303 8.444c4.567 4.645 8.654 8.229 9.082 7.965 1.437-.888 8.848-15.081 11.508-22.039 13.196-34.519 8.303-73.345-12.841-101.894-21.682-29.276-59.564-46.512-95.14-43.287m-78.505 45.097c-19.842 28.839-23.82 69.153-10.081 102.156 25.088 60.263 98.701 83.028 156.274 48.328l6.823-4.112-10.306-10.341C685.173 693.653 680.255 689 679.913 689s-.888 3.166-1.213 7.036c-1.399 16.688-13.212 24.1-31.7 19.89-8.835-2.011-11.936-5.132-22.17-22.31-3.446-5.786-6.459-7.247-19.559-9.486-37.878-6.474-57.51-29.352-50.922-59.34.881-4.01 1.746-11.348 1.923-16.307.361-10.106 3.27-17.879 9.946-26.573l3.524-4.589-9.013-9.161c-4.958-5.038-9.153-9.16-9.323-9.16-.171 0-1.644 1.94-3.275 4.31M615 571.264c-1.375.621-2.702 1.28-2.949 1.465-.4.299 62.339 63.737 74.196 75.021l4.747 4.518 2.111-4.773c1.854-4.19 2.03-5.888 1.443-13.884-.517-7.052-.316-10.1.892-13.487 2.8-7.853 1.577-17.667-2.84-22.803l-2.307-2.682-3.476 5.43C681.547 608.302 670.522 616 664 616c-9.912 0-13.775-11.919-5.834-18 12.498-9.571 15.437-15.421 10.746-21.385-4.351-5.531-9.968-6.714-21.031-4.43-4.813.994-7.007.914-13.583-.5-8.926-1.918-15.658-2.064-19.298-.421m-31.88 24.176c-3.803 4.188-4.532 6.935-4.661 17.56-.101 8.264-.589 11.626-2.293 15.787-3.47 8.47-2.586 13.695 3.235 19.134 3.332 3.112 3.412 2.991 5.012-7.536C586.76 624.946 591.185 618 598.676 618c8.323 0 11.476 8.927 7.324 20.74-2.377 6.762-2.578 14.241-.493 18.273 1.586 3.068 2.845 3.549 15.493 5.923 13.786 2.588 18.997 6.725 24.214 19.228 4.763 11.413 10.49 14.995 13.871 8.677 1.401-2.617 2.397-15.78 1.474-19.481-.485-1.947-12.66-14.849-38.141-40.42-37.236-37.368-37.437-37.549-39.298-35.5"/></svg>